M48
; DRILL file {KiCad 9.0.0-9.0.0-2~ubuntu24.04.1} date 2025-03-25T15:14:40+0100
; FORMAT={-:-/ absolute / metric / decimal}
; #@! TF.CreationDate,2025-03-25T15:14:40+01:00
; #@! TF.GenerationSoftware,Kicad,Pcbnew,9.0.0-9.0.0-2~ubuntu24.04.1
; #@! TF.FileFunction,Plated,1,2,PTH
FMAT,2
METRIC
; #@! TA.AperFunction,Plated,PTH,ViaDrill
T1C0.300
; #@! TA.AperFunction,Plated,PTH,ComponentDrill
T2C0.600
; #@! TA.AperFunction,Plated,PTH,ComponentDrill
T3C1.000
; #@! TA.AperFunction,Plated,PTH,ComponentDrill
T4C1.100
; #@! TA.AperFunction,Plated,PTH,ComponentDrill
T5C1.300
; #@! TA.AperFunction,Plated,PTH,ComponentDrill
T6C1.500
; #@! TA.AperFunction,Plated,PTH,ComponentDrill
T7C1.600
%
G90
G05
T1
X60.96Y-66.04
X63.5Y-48.26
X63.5Y-60.96
X64.0Y-55.88
X67.0Y-79.03
X71.12Y-68.58
X71.12Y-73.66
X78.0Y-75.5
X78.0Y-79.03
X78.74Y-48.26
X78.74Y-58.42
X78.74Y-93.98
X78.8Y-61.5
X79.5Y-75.0
X79.5Y-79.5
X80.0Y-64.5
X81.28Y-71.12
X83.82Y-106.68
X86.36Y-68.58
X86.36Y-86.36
X87.0Y-75.0
X87.5Y-55.0
X90.5Y-74.0
X91.44Y-48.26
X91.44Y-68.58
X91.5Y-64.5
X92.5Y-78.5
X93.98Y-58.42
X93.98Y-73.66
X95.5Y-100.0
X96.5Y-80.39
X96.5Y-82.0
X96.52Y-63.5
X96.52Y-68.58
X96.6Y-107.0
X99.06Y-73.66
X99.06Y-93.98
X101.0Y-72.0
X101.6Y-58.42
X101.6Y-73.06
X101.6Y-96.0
X101.68Y-74.86
X102.0Y-70.485
X103.0Y-69.259
X103.268Y-65.168
X103.5Y-72.5
X103.5Y-79.0
X104.14Y-48.26
X104.14Y-68.58
X104.14Y-106.68
X105.0Y-76.2
X105.114Y-79.114
X105.5Y-82.5
X106.0Y-69.0
X106.0Y-111.0
X106.376Y-66.239
X106.68Y-58.42
X106.68Y-73.66
X106.68Y-81.28
X106.68Y-88.9
X106.68Y-99.06
X108.275Y-73.564
X109.0Y-85.0
X109.124Y-73.564
X109.22Y-53.34
X109.22Y-68.58
X109.22Y-78.74
X109.22Y-91.44
X109.22Y-101.6
X109.82Y-66.681
X110.812Y-70.065
X110.857Y-68.327
X111.0Y-76.0
X111.0Y-77.5
X111.16Y-72.376
X111.336Y-79.164
X111.55Y-68.79
X111.55Y-70.532
X111.554Y-64.6
X111.76Y-58.42
X112.227Y-65.273
X112.307Y-76.114
X112.892Y-62.368
X113.035Y-75.784
X113.432Y-67.869
X113.5Y-51.0
X113.706Y-75.348
X113.8Y-68.58
X113.973Y-72.231
X114.3Y-88.9
X114.3Y-96.52
X114.3Y-99.06
X114.3Y-104.14
X114.81Y-48.26
X114.9Y-57.49
X114.9Y-58.42
X115.139Y-71.835
X115.477Y-67.229
X116.416Y-75.776
X116.49Y-55.98
X116.49Y-60.96
X116.84Y-106.68
X117.142Y-74.11
X117.69Y-55.88
X118.042Y-68.58
X118.043Y-70.0
X118.333Y-78.599
X119.38Y-60.96
X119.38Y-65.697
X119.38Y-96.52
X119.5Y-74.975
X120.0Y-85.0
X120.679Y-69.335
X121.2Y-105.7
X121.898Y-70.824
X121.92Y-60.96
X121.92Y-83.22
X122.018Y-71.615
X122.088Y-72.412
X122.204Y-73.376
X123.386Y-73.886
X123.5Y-67.0
X123.86Y-60.96
X124.3Y-91.6
X124.46Y-48.26
X124.46Y-53.34
X124.46Y-83.22
X124.75Y-69.75
X125.115Y-68.385
X126.0Y-66.5
X126.0Y-76.0
X127.0Y-58.42
X127.0Y-68.58
X127.0Y-83.22
X127.8Y-83.22
X129.0Y-85.0
X129.5Y-72.6
X129.54Y-106.68
X130.34Y-83.22
X131.0Y-63.5
X132.08Y-55.88
X132.08Y-68.58
X132.08Y-76.2
X132.08Y-81.28
X132.08Y-83.22
X132.08Y-91.0
X132.5Y-70.6
X133.5Y-70.0
X133.65Y-84.79
X134.0Y-109.22
X134.62Y-53.34
X134.62Y-78.74
X134.62Y-86.36
X137.16Y-58.42
X137.16Y-63.5
X137.16Y-68.58
X137.16Y-76.2
X137.16Y-86.36
X137.16Y-93.0
X138.0Y-88.9
X139.7Y-91.44
X139.7Y-93.98
X142.24Y-50.8
X142.24Y-58.42
X142.24Y-83.82
X142.24Y-99.06
X144.78Y-68.58
X144.78Y-76.2
X144.78Y-81.28
X144.78Y-83.82
X144.78Y-104.14
X147.32Y-58.42
X147.32Y-93.98
X147.32Y-96.52
X149.0Y-62.0
X149.86Y-66.04
X152.4Y-58.42
X152.4Y-96.52
X152.5Y-47.5
X154.94Y-55.88
X154.94Y-60.96
X154.94Y-76.2
X154.94Y-83.82
X156.0Y-62.5
X156.0Y-72.0
X156.566Y-72.566
X157.48Y-73.66
X158.0Y-58.0
X160.0Y-73.0
X162.56Y-63.5
X162.56Y-86.36
X165.1Y-73.66
X168.5Y-76.5
X170.18Y-50.8
X170.18Y-58.42
X170.18Y-63.5
X173.5Y-74.5
X175.26Y-66.04
T3
X70.75Y-49.6
X75.25Y-49.6
X80.25Y-49.6
X84.75Y-49.6
X91.26Y-84.5
X93.8Y-84.5
X96.34Y-84.5
X98.88Y-84.5
X101.42Y-84.5
X103.96Y-84.5
X106.5Y-84.5
X148.75Y-49.6
X153.25Y-49.6
X158.25Y-49.6
X162.75Y-49.6
T4
X87.5Y-89.77
X90.0Y-89.77
X92.5Y-89.77
X98.73Y-96.0
X98.73Y-98.5
X98.73Y-101.0
X124.0Y-89.77
X126.5Y-89.77
X129.0Y-89.77
X135.23Y-96.0
X135.23Y-98.5
X135.23Y-101.0
T5
X86.75Y-104.25
X86.75Y-108.75
X93.25Y-104.25
X93.25Y-108.75
X123.25Y-104.25
X123.25Y-108.75
X129.75Y-104.25
X129.75Y-108.75
T6
X69.5Y-52.1
X76.5Y-52.1
X79.0Y-52.1
X86.0Y-52.1
X147.5Y-52.1
X154.5Y-52.1
X157.0Y-52.1
X164.0Y-52.1
T7
X83.675Y-93.5
X83.675Y-103.5
X96.325Y-93.5
X96.325Y-103.5
X120.175Y-93.5
X120.175Y-103.5
X132.825Y-93.5
X132.825Y-103.5
T2
G00X112.52Y-49.325
M15
G01X112.52Y-48.525
M16
G05
G00X112.52Y-53.675
M15
G01X112.52Y-52.575
M16
G05
G00X121.16Y-49.325
M15
G01X121.16Y-48.525
M16
G05
G00X121.16Y-53.675
M15
G01X121.16Y-52.575
M16
G05
G00X162.6Y-74.3
M15
G01X162.6Y-72.6
M16
G05
G00X175.4Y-74.3
M15
G01X175.4Y-72.6
M16
G05
M30
