%TF.GenerationSoftware,KiCad,Pcbnew,9.0.0-9.0.0-2~ubuntu24.04.1*%
%TF.CreationDate,2025-03-18T17:56:42+01:00*%
%TF.ProjectId,omnicontroller,6f6d6e69-636f-46e7-9472-6f6c6c65722e,rev?*%
%TF.SameCoordinates,Original*%
%TF.FileFunction,Soldermask,Bot*%
%TF.FilePolarity,Negative*%
%FSLAX46Y46*%
G04 Gerber Fmt 4.6, Leading zero omitted, Abs format (unit mm)*
G04 Created by KiCad (PCBNEW 9.0.0-9.0.0-2~ubuntu24.04.1) date 2025-03-18 17:56:42*
%MOMM*%
%LPD*%
G01*
G04 APERTURE LIST*
%ADD10C,1.650000*%
%ADD11C,2.400000*%
%ADD12C,1.950000*%
%ADD13C,0.650000*%
%ADD14O,1.000000X2.100000*%
%ADD15O,1.000000X1.800000*%
%ADD16C,2.200000*%
%ADD17R,1.600000X1.400000*%
G04 APERTURE END LIST*
D10*
%TO.C,LeftStick1*%
X85700000Y-98500000D03*
X94300000Y-98500000D03*
X87500000Y-89770000D03*
X90000000Y-89770000D03*
X92500000Y-89770000D03*
D11*
X83675000Y-93500000D03*
X96325000Y-93500000D03*
X96325000Y-103500000D03*
X83675000Y-103500000D03*
D12*
X86750000Y-104250000D03*
X93250000Y-104250000D03*
X86750000Y-108750000D03*
X93250000Y-108750000D03*
D10*
X98730000Y-96000000D03*
X98730000Y-98500000D03*
X98730000Y-101000000D03*
%TD*%
%TO.C,RightStick1*%
X122200000Y-98500000D03*
X130800000Y-98500000D03*
X124000000Y-89770000D03*
X126500000Y-89770000D03*
X129000000Y-89770000D03*
D11*
X120175000Y-93500000D03*
X132825000Y-93500000D03*
X132825000Y-103500000D03*
X120175000Y-103500000D03*
D12*
X123250000Y-104250000D03*
X129750000Y-104250000D03*
X123250000Y-108750000D03*
X129750000Y-108750000D03*
D10*
X135230000Y-96000000D03*
X135230000Y-98500000D03*
X135230000Y-101000000D03*
%TD*%
D13*
%TO.C,J1*%
X119730000Y-52605000D03*
X113950000Y-52605000D03*
D14*
X121160000Y-53125000D03*
D15*
X121160000Y-48925000D03*
D14*
X112520000Y-53125000D03*
D15*
X112520000Y-48925000D03*
%TD*%
D16*
%TO.C,REF\u002A\u002A*%
X175260000Y-55880000D03*
%TD*%
%TO.C,REF\u002A\u002A*%
X60960000Y-55880000D03*
%TD*%
%TO.C,REF\u002A\u002A*%
X142240000Y-106600000D03*
%TD*%
%TO.C,REF\u002A\u002A*%
X76200000Y-88900000D03*
%TD*%
D17*
%TO.C,L2*%
X75500000Y-55550000D03*
X67500000Y-55550000D03*
X75500000Y-60050000D03*
X67500000Y-60050000D03*
%TD*%
%TO.C,BOOT_SEL1*%
X83440000Y-70540000D03*
X91440000Y-70540000D03*
X83440000Y-66040000D03*
X91440000Y-66040000D03*
%TD*%
%TO.C,L1*%
X75500000Y-48550000D03*
X67500000Y-48550000D03*
X75500000Y-53050000D03*
X67500000Y-53050000D03*
%TD*%
%TO.C,bR2*%
X166500000Y-55550000D03*
X158500000Y-55550000D03*
X166500000Y-60050000D03*
X158500000Y-60050000D03*
%TD*%
%TO.C,bR1*%
X166500000Y-48550000D03*
X158500000Y-48550000D03*
X166500000Y-53050000D03*
X158500000Y-53050000D03*
%TD*%
M02*
