%TF.GenerationSoftware,KiCad,Pcbnew,9.0.0-9.0.0-2~ubuntu24.04.1*%
%TF.CreationDate,2025-03-25T15:14:42+01:00*%
%TF.ProjectId,omnicontroller,6f6d6e69-636f-46e7-9472-6f6c6c65722e,rev?*%
%TF.SameCoordinates,Original*%
%TF.FileFunction,Legend,Top*%
%TF.FilePolarity,Positive*%
%FSLAX46Y46*%
G04 Gerber Fmt 4.6, Leading zero omitted, Abs format (unit mm)*
G04 Created by KiCad (PCBNEW 9.0.0-9.0.0-2~ubuntu24.04.1) date 2025-03-25 15:14:42*
%MOMM*%
%LPD*%
G01*
G04 APERTURE LIST*
%ADD10C,0.100000*%
%ADD11C,0.200000*%
%ADD12C,0.150000*%
%ADD13C,0.120000*%
%ADD14C,0.127000*%
%ADD15C,0.300000*%
%ADD16C,0.000000*%
G04 APERTURE END LIST*
D10*
X77389598Y-81253371D02*
X77341979Y-81205752D01*
X77341979Y-81205752D02*
X77246741Y-81062895D01*
X77246741Y-81062895D02*
X77199122Y-80967657D01*
X77199122Y-80967657D02*
X77151503Y-80824800D01*
X77151503Y-80824800D02*
X77103884Y-80586704D01*
X77103884Y-80586704D02*
X77103884Y-80396228D01*
X77103884Y-80396228D02*
X77151503Y-80158133D01*
X77151503Y-80158133D02*
X77199122Y-80015276D01*
X77199122Y-80015276D02*
X77246741Y-79920038D01*
X77246741Y-79920038D02*
X77341979Y-79777180D01*
X77341979Y-79777180D02*
X77389598Y-79729561D01*
X78341979Y-80777180D02*
X78294360Y-80824800D01*
X78294360Y-80824800D02*
X78151503Y-80872419D01*
X78151503Y-80872419D02*
X78056265Y-80872419D01*
X78056265Y-80872419D02*
X77913408Y-80824800D01*
X77913408Y-80824800D02*
X77818170Y-80729561D01*
X77818170Y-80729561D02*
X77770551Y-80634323D01*
X77770551Y-80634323D02*
X77722932Y-80443847D01*
X77722932Y-80443847D02*
X77722932Y-80300990D01*
X77722932Y-80300990D02*
X77770551Y-80110514D01*
X77770551Y-80110514D02*
X77818170Y-80015276D01*
X77818170Y-80015276D02*
X77913408Y-79920038D01*
X77913408Y-79920038D02*
X78056265Y-79872419D01*
X78056265Y-79872419D02*
X78151503Y-79872419D01*
X78151503Y-79872419D02*
X78294360Y-79920038D01*
X78294360Y-79920038D02*
X78341979Y-79967657D01*
X78675313Y-81253371D02*
X78722932Y-81205752D01*
X78722932Y-81205752D02*
X78818170Y-81062895D01*
X78818170Y-81062895D02*
X78865789Y-80967657D01*
X78865789Y-80967657D02*
X78913408Y-80824800D01*
X78913408Y-80824800D02*
X78961027Y-80586704D01*
X78961027Y-80586704D02*
X78961027Y-80396228D01*
X78961027Y-80396228D02*
X78913408Y-80158133D01*
X78913408Y-80158133D02*
X78865789Y-80015276D01*
X78865789Y-80015276D02*
X78818170Y-79920038D01*
X78818170Y-79920038D02*
X78722932Y-79777180D01*
X78722932Y-79777180D02*
X78675313Y-79729561D01*
X80151504Y-79967657D02*
X80199123Y-79920038D01*
X80199123Y-79920038D02*
X80294361Y-79872419D01*
X80294361Y-79872419D02*
X80532456Y-79872419D01*
X80532456Y-79872419D02*
X80627694Y-79920038D01*
X80627694Y-79920038D02*
X80675313Y-79967657D01*
X80675313Y-79967657D02*
X80722932Y-80062895D01*
X80722932Y-80062895D02*
X80722932Y-80158133D01*
X80722932Y-80158133D02*
X80675313Y-80300990D01*
X80675313Y-80300990D02*
X80103885Y-80872419D01*
X80103885Y-80872419D02*
X80722932Y-80872419D01*
X81341980Y-79872419D02*
X81437218Y-79872419D01*
X81437218Y-79872419D02*
X81532456Y-79920038D01*
X81532456Y-79920038D02*
X81580075Y-79967657D01*
X81580075Y-79967657D02*
X81627694Y-80062895D01*
X81627694Y-80062895D02*
X81675313Y-80253371D01*
X81675313Y-80253371D02*
X81675313Y-80491466D01*
X81675313Y-80491466D02*
X81627694Y-80681942D01*
X81627694Y-80681942D02*
X81580075Y-80777180D01*
X81580075Y-80777180D02*
X81532456Y-80824800D01*
X81532456Y-80824800D02*
X81437218Y-80872419D01*
X81437218Y-80872419D02*
X81341980Y-80872419D01*
X81341980Y-80872419D02*
X81246742Y-80824800D01*
X81246742Y-80824800D02*
X81199123Y-80777180D01*
X81199123Y-80777180D02*
X81151504Y-80681942D01*
X81151504Y-80681942D02*
X81103885Y-80491466D01*
X81103885Y-80491466D02*
X81103885Y-80253371D01*
X81103885Y-80253371D02*
X81151504Y-80062895D01*
X81151504Y-80062895D02*
X81199123Y-79967657D01*
X81199123Y-79967657D02*
X81246742Y-79920038D01*
X81246742Y-79920038D02*
X81341980Y-79872419D01*
X82056266Y-79967657D02*
X82103885Y-79920038D01*
X82103885Y-79920038D02*
X82199123Y-79872419D01*
X82199123Y-79872419D02*
X82437218Y-79872419D01*
X82437218Y-79872419D02*
X82532456Y-79920038D01*
X82532456Y-79920038D02*
X82580075Y-79967657D01*
X82580075Y-79967657D02*
X82627694Y-80062895D01*
X82627694Y-80062895D02*
X82627694Y-80158133D01*
X82627694Y-80158133D02*
X82580075Y-80300990D01*
X82580075Y-80300990D02*
X82008647Y-80872419D01*
X82008647Y-80872419D02*
X82627694Y-80872419D01*
X83532456Y-79872419D02*
X83056266Y-79872419D01*
X83056266Y-79872419D02*
X83008647Y-80348609D01*
X83008647Y-80348609D02*
X83056266Y-80300990D01*
X83056266Y-80300990D02*
X83151504Y-80253371D01*
X83151504Y-80253371D02*
X83389599Y-80253371D01*
X83389599Y-80253371D02*
X83484837Y-80300990D01*
X83484837Y-80300990D02*
X83532456Y-80348609D01*
X83532456Y-80348609D02*
X83580075Y-80443847D01*
X83580075Y-80443847D02*
X83580075Y-80681942D01*
X83580075Y-80681942D02*
X83532456Y-80777180D01*
X83532456Y-80777180D02*
X83484837Y-80824800D01*
X83484837Y-80824800D02*
X83389599Y-80872419D01*
X83389599Y-80872419D02*
X83151504Y-80872419D01*
X83151504Y-80872419D02*
X83056266Y-80824800D01*
X83056266Y-80824800D02*
X83008647Y-80777180D01*
X85341980Y-80872419D02*
X85008647Y-80396228D01*
X84770552Y-80872419D02*
X84770552Y-79872419D01*
X84770552Y-79872419D02*
X85151504Y-79872419D01*
X85151504Y-79872419D02*
X85246742Y-79920038D01*
X85246742Y-79920038D02*
X85294361Y-79967657D01*
X85294361Y-79967657D02*
X85341980Y-80062895D01*
X85341980Y-80062895D02*
X85341980Y-80205752D01*
X85341980Y-80205752D02*
X85294361Y-80300990D01*
X85294361Y-80300990D02*
X85246742Y-80348609D01*
X85246742Y-80348609D02*
X85151504Y-80396228D01*
X85151504Y-80396228D02*
X84770552Y-80396228D01*
X86151504Y-80824800D02*
X86056266Y-80872419D01*
X86056266Y-80872419D02*
X85865790Y-80872419D01*
X85865790Y-80872419D02*
X85770552Y-80824800D01*
X85770552Y-80824800D02*
X85722933Y-80729561D01*
X85722933Y-80729561D02*
X85722933Y-80348609D01*
X85722933Y-80348609D02*
X85770552Y-80253371D01*
X85770552Y-80253371D02*
X85865790Y-80205752D01*
X85865790Y-80205752D02*
X86056266Y-80205752D01*
X86056266Y-80205752D02*
X86151504Y-80253371D01*
X86151504Y-80253371D02*
X86199123Y-80348609D01*
X86199123Y-80348609D02*
X86199123Y-80443847D01*
X86199123Y-80443847D02*
X85722933Y-80539085D01*
X86627695Y-80872419D02*
X86627695Y-80205752D01*
X86627695Y-80300990D02*
X86675314Y-80253371D01*
X86675314Y-80253371D02*
X86770552Y-80205752D01*
X86770552Y-80205752D02*
X86913409Y-80205752D01*
X86913409Y-80205752D02*
X87008647Y-80253371D01*
X87008647Y-80253371D02*
X87056266Y-80348609D01*
X87056266Y-80348609D02*
X87056266Y-80872419D01*
X87056266Y-80348609D02*
X87103885Y-80253371D01*
X87103885Y-80253371D02*
X87199123Y-80205752D01*
X87199123Y-80205752D02*
X87341980Y-80205752D01*
X87341980Y-80205752D02*
X87437219Y-80253371D01*
X87437219Y-80253371D02*
X87484838Y-80348609D01*
X87484838Y-80348609D02*
X87484838Y-80872419D01*
X87961028Y-80872419D02*
X87961028Y-80205752D01*
X87961028Y-79872419D02*
X87913409Y-79920038D01*
X87913409Y-79920038D02*
X87961028Y-79967657D01*
X87961028Y-79967657D02*
X88008647Y-79920038D01*
X88008647Y-79920038D02*
X87961028Y-79872419D01*
X87961028Y-79872419D02*
X87961028Y-79967657D01*
X89199123Y-80872419D02*
X89199123Y-79872419D01*
X89199123Y-79872419D02*
X89580075Y-79872419D01*
X89580075Y-79872419D02*
X89675313Y-79920038D01*
X89675313Y-79920038D02*
X89722932Y-79967657D01*
X89722932Y-79967657D02*
X89770551Y-80062895D01*
X89770551Y-80062895D02*
X89770551Y-80205752D01*
X89770551Y-80205752D02*
X89722932Y-80300990D01*
X89722932Y-80300990D02*
X89675313Y-80348609D01*
X89675313Y-80348609D02*
X89580075Y-80396228D01*
X89580075Y-80396228D02*
X89199123Y-80396228D01*
X90199123Y-80872419D02*
X90199123Y-80205752D01*
X90199123Y-79872419D02*
X90151504Y-79920038D01*
X90151504Y-79920038D02*
X90199123Y-79967657D01*
X90199123Y-79967657D02*
X90246742Y-79920038D01*
X90246742Y-79920038D02*
X90199123Y-79872419D01*
X90199123Y-79872419D02*
X90199123Y-79967657D01*
X91103884Y-80872419D02*
X91103884Y-80348609D01*
X91103884Y-80348609D02*
X91056265Y-80253371D01*
X91056265Y-80253371D02*
X90961027Y-80205752D01*
X90961027Y-80205752D02*
X90770551Y-80205752D01*
X90770551Y-80205752D02*
X90675313Y-80253371D01*
X91103884Y-80824800D02*
X91008646Y-80872419D01*
X91008646Y-80872419D02*
X90770551Y-80872419D01*
X90770551Y-80872419D02*
X90675313Y-80824800D01*
X90675313Y-80824800D02*
X90627694Y-80729561D01*
X90627694Y-80729561D02*
X90627694Y-80634323D01*
X90627694Y-80634323D02*
X90675313Y-80539085D01*
X90675313Y-80539085D02*
X90770551Y-80491466D01*
X90770551Y-80491466D02*
X91008646Y-80491466D01*
X91008646Y-80491466D02*
X91103884Y-80443847D01*
X91580075Y-80205752D02*
X91580075Y-80872419D01*
X91580075Y-80300990D02*
X91627694Y-80253371D01*
X91627694Y-80253371D02*
X91722932Y-80205752D01*
X91722932Y-80205752D02*
X91865789Y-80205752D01*
X91865789Y-80205752D02*
X91961027Y-80253371D01*
X91961027Y-80253371D02*
X92008646Y-80348609D01*
X92008646Y-80348609D02*
X92008646Y-80872419D01*
X92865789Y-80824800D02*
X92770551Y-80872419D01*
X92770551Y-80872419D02*
X92580075Y-80872419D01*
X92580075Y-80872419D02*
X92484837Y-80824800D01*
X92484837Y-80824800D02*
X92437218Y-80729561D01*
X92437218Y-80729561D02*
X92437218Y-80348609D01*
X92437218Y-80348609D02*
X92484837Y-80253371D01*
X92484837Y-80253371D02*
X92580075Y-80205752D01*
X92580075Y-80205752D02*
X92770551Y-80205752D01*
X92770551Y-80205752D02*
X92865789Y-80253371D01*
X92865789Y-80253371D02*
X92913408Y-80348609D01*
X92913408Y-80348609D02*
X92913408Y-80443847D01*
X92913408Y-80443847D02*
X92437218Y-80539085D01*
X93294361Y-80824800D02*
X93389599Y-80872419D01*
X93389599Y-80872419D02*
X93580075Y-80872419D01*
X93580075Y-80872419D02*
X93675313Y-80824800D01*
X93675313Y-80824800D02*
X93722932Y-80729561D01*
X93722932Y-80729561D02*
X93722932Y-80681942D01*
X93722932Y-80681942D02*
X93675313Y-80586704D01*
X93675313Y-80586704D02*
X93580075Y-80539085D01*
X93580075Y-80539085D02*
X93437218Y-80539085D01*
X93437218Y-80539085D02*
X93341980Y-80491466D01*
X93341980Y-80491466D02*
X93294361Y-80396228D01*
X93294361Y-80396228D02*
X93294361Y-80348609D01*
X93294361Y-80348609D02*
X93341980Y-80253371D01*
X93341980Y-80253371D02*
X93437218Y-80205752D01*
X93437218Y-80205752D02*
X93580075Y-80205752D01*
X93580075Y-80205752D02*
X93675313Y-80253371D01*
X94532456Y-80824800D02*
X94437218Y-80872419D01*
X94437218Y-80872419D02*
X94246742Y-80872419D01*
X94246742Y-80872419D02*
X94151504Y-80824800D01*
X94151504Y-80824800D02*
X94103885Y-80729561D01*
X94103885Y-80729561D02*
X94103885Y-80348609D01*
X94103885Y-80348609D02*
X94151504Y-80253371D01*
X94151504Y-80253371D02*
X94246742Y-80205752D01*
X94246742Y-80205752D02*
X94437218Y-80205752D01*
X94437218Y-80205752D02*
X94532456Y-80253371D01*
X94532456Y-80253371D02*
X94580075Y-80348609D01*
X94580075Y-80348609D02*
X94580075Y-80443847D01*
X94580075Y-80443847D02*
X94103885Y-80539085D01*
X77103884Y-83002475D02*
X77103884Y-82002475D01*
X77103884Y-82002475D02*
X77341979Y-82002475D01*
X77341979Y-82002475D02*
X77484836Y-82050094D01*
X77484836Y-82050094D02*
X77580074Y-82145332D01*
X77580074Y-82145332D02*
X77627693Y-82240570D01*
X77627693Y-82240570D02*
X77675312Y-82431046D01*
X77675312Y-82431046D02*
X77675312Y-82573903D01*
X77675312Y-82573903D02*
X77627693Y-82764379D01*
X77627693Y-82764379D02*
X77580074Y-82859617D01*
X77580074Y-82859617D02*
X77484836Y-82954856D01*
X77484836Y-82954856D02*
X77341979Y-83002475D01*
X77341979Y-83002475D02*
X77103884Y-83002475D01*
X78103884Y-83002475D02*
X78103884Y-82335808D01*
X78103884Y-82002475D02*
X78056265Y-82050094D01*
X78056265Y-82050094D02*
X78103884Y-82097713D01*
X78103884Y-82097713D02*
X78151503Y-82050094D01*
X78151503Y-82050094D02*
X78103884Y-82002475D01*
X78103884Y-82002475D02*
X78103884Y-82097713D01*
X78532455Y-82954856D02*
X78627693Y-83002475D01*
X78627693Y-83002475D02*
X78818169Y-83002475D01*
X78818169Y-83002475D02*
X78913407Y-82954856D01*
X78913407Y-82954856D02*
X78961026Y-82859617D01*
X78961026Y-82859617D02*
X78961026Y-82811998D01*
X78961026Y-82811998D02*
X78913407Y-82716760D01*
X78913407Y-82716760D02*
X78818169Y-82669141D01*
X78818169Y-82669141D02*
X78675312Y-82669141D01*
X78675312Y-82669141D02*
X78580074Y-82621522D01*
X78580074Y-82621522D02*
X78532455Y-82526284D01*
X78532455Y-82526284D02*
X78532455Y-82478665D01*
X78532455Y-82478665D02*
X78580074Y-82383427D01*
X78580074Y-82383427D02*
X78675312Y-82335808D01*
X78675312Y-82335808D02*
X78818169Y-82335808D01*
X78818169Y-82335808D02*
X78913407Y-82383427D01*
X79246741Y-82335808D02*
X79627693Y-82335808D01*
X79389598Y-82002475D02*
X79389598Y-82859617D01*
X79389598Y-82859617D02*
X79437217Y-82954856D01*
X79437217Y-82954856D02*
X79532455Y-83002475D01*
X79532455Y-83002475D02*
X79627693Y-83002475D01*
X79961027Y-83002475D02*
X79961027Y-82335808D01*
X79961027Y-82526284D02*
X80008646Y-82431046D01*
X80008646Y-82431046D02*
X80056265Y-82383427D01*
X80056265Y-82383427D02*
X80151503Y-82335808D01*
X80151503Y-82335808D02*
X80246741Y-82335808D01*
X80580075Y-83002475D02*
X80580075Y-82335808D01*
X80580075Y-82002475D02*
X80532456Y-82050094D01*
X80532456Y-82050094D02*
X80580075Y-82097713D01*
X80580075Y-82097713D02*
X80627694Y-82050094D01*
X80627694Y-82050094D02*
X80580075Y-82002475D01*
X80580075Y-82002475D02*
X80580075Y-82097713D01*
X81056265Y-83002475D02*
X81056265Y-82002475D01*
X81056265Y-82383427D02*
X81151503Y-82335808D01*
X81151503Y-82335808D02*
X81341979Y-82335808D01*
X81341979Y-82335808D02*
X81437217Y-82383427D01*
X81437217Y-82383427D02*
X81484836Y-82431046D01*
X81484836Y-82431046D02*
X81532455Y-82526284D01*
X81532455Y-82526284D02*
X81532455Y-82811998D01*
X81532455Y-82811998D02*
X81484836Y-82907236D01*
X81484836Y-82907236D02*
X81437217Y-82954856D01*
X81437217Y-82954856D02*
X81341979Y-83002475D01*
X81341979Y-83002475D02*
X81151503Y-83002475D01*
X81151503Y-83002475D02*
X81056265Y-82954856D01*
X82389598Y-82335808D02*
X82389598Y-83002475D01*
X81961027Y-82335808D02*
X81961027Y-82859617D01*
X81961027Y-82859617D02*
X82008646Y-82954856D01*
X82008646Y-82954856D02*
X82103884Y-83002475D01*
X82103884Y-83002475D02*
X82246741Y-83002475D01*
X82246741Y-83002475D02*
X82341979Y-82954856D01*
X82341979Y-82954856D02*
X82389598Y-82907236D01*
X82722932Y-82335808D02*
X83103884Y-82335808D01*
X82865789Y-82002475D02*
X82865789Y-82859617D01*
X82865789Y-82859617D02*
X82913408Y-82954856D01*
X82913408Y-82954856D02*
X83008646Y-83002475D01*
X83008646Y-83002475D02*
X83103884Y-83002475D01*
X83818170Y-82954856D02*
X83722932Y-83002475D01*
X83722932Y-83002475D02*
X83532456Y-83002475D01*
X83532456Y-83002475D02*
X83437218Y-82954856D01*
X83437218Y-82954856D02*
X83389599Y-82859617D01*
X83389599Y-82859617D02*
X83389599Y-82478665D01*
X83389599Y-82478665D02*
X83437218Y-82383427D01*
X83437218Y-82383427D02*
X83532456Y-82335808D01*
X83532456Y-82335808D02*
X83722932Y-82335808D01*
X83722932Y-82335808D02*
X83818170Y-82383427D01*
X83818170Y-82383427D02*
X83865789Y-82478665D01*
X83865789Y-82478665D02*
X83865789Y-82573903D01*
X83865789Y-82573903D02*
X83389599Y-82669141D01*
X84722932Y-83002475D02*
X84722932Y-82002475D01*
X84722932Y-82954856D02*
X84627694Y-83002475D01*
X84627694Y-83002475D02*
X84437218Y-83002475D01*
X84437218Y-83002475D02*
X84341980Y-82954856D01*
X84341980Y-82954856D02*
X84294361Y-82907236D01*
X84294361Y-82907236D02*
X84246742Y-82811998D01*
X84246742Y-82811998D02*
X84246742Y-82526284D01*
X84246742Y-82526284D02*
X84294361Y-82431046D01*
X84294361Y-82431046D02*
X84341980Y-82383427D01*
X84341980Y-82383427D02*
X84437218Y-82335808D01*
X84437218Y-82335808D02*
X84627694Y-82335808D01*
X84627694Y-82335808D02*
X84722932Y-82383427D01*
X86389599Y-82335808D02*
X86389599Y-83002475D01*
X85961028Y-82335808D02*
X85961028Y-82859617D01*
X85961028Y-82859617D02*
X86008647Y-82954856D01*
X86008647Y-82954856D02*
X86103885Y-83002475D01*
X86103885Y-83002475D02*
X86246742Y-83002475D01*
X86246742Y-83002475D02*
X86341980Y-82954856D01*
X86341980Y-82954856D02*
X86389599Y-82907236D01*
X86865790Y-82335808D02*
X86865790Y-83002475D01*
X86865790Y-82431046D02*
X86913409Y-82383427D01*
X86913409Y-82383427D02*
X87008647Y-82335808D01*
X87008647Y-82335808D02*
X87151504Y-82335808D01*
X87151504Y-82335808D02*
X87246742Y-82383427D01*
X87246742Y-82383427D02*
X87294361Y-82478665D01*
X87294361Y-82478665D02*
X87294361Y-83002475D01*
X88199123Y-83002475D02*
X88199123Y-82002475D01*
X88199123Y-82954856D02*
X88103885Y-83002475D01*
X88103885Y-83002475D02*
X87913409Y-83002475D01*
X87913409Y-83002475D02*
X87818171Y-82954856D01*
X87818171Y-82954856D02*
X87770552Y-82907236D01*
X87770552Y-82907236D02*
X87722933Y-82811998D01*
X87722933Y-82811998D02*
X87722933Y-82526284D01*
X87722933Y-82526284D02*
X87770552Y-82431046D01*
X87770552Y-82431046D02*
X87818171Y-82383427D01*
X87818171Y-82383427D02*
X87913409Y-82335808D01*
X87913409Y-82335808D02*
X88103885Y-82335808D01*
X88103885Y-82335808D02*
X88199123Y-82383427D01*
X89056266Y-82954856D02*
X88961028Y-83002475D01*
X88961028Y-83002475D02*
X88770552Y-83002475D01*
X88770552Y-83002475D02*
X88675314Y-82954856D01*
X88675314Y-82954856D02*
X88627695Y-82859617D01*
X88627695Y-82859617D02*
X88627695Y-82478665D01*
X88627695Y-82478665D02*
X88675314Y-82383427D01*
X88675314Y-82383427D02*
X88770552Y-82335808D01*
X88770552Y-82335808D02*
X88961028Y-82335808D01*
X88961028Y-82335808D02*
X89056266Y-82383427D01*
X89056266Y-82383427D02*
X89103885Y-82478665D01*
X89103885Y-82478665D02*
X89103885Y-82573903D01*
X89103885Y-82573903D02*
X88627695Y-82669141D01*
X89532457Y-83002475D02*
X89532457Y-82335808D01*
X89532457Y-82526284D02*
X89580076Y-82431046D01*
X89580076Y-82431046D02*
X89627695Y-82383427D01*
X89627695Y-82383427D02*
X89722933Y-82335808D01*
X89722933Y-82335808D02*
X89818171Y-82335808D01*
X91484838Y-82907236D02*
X91437219Y-82954856D01*
X91437219Y-82954856D02*
X91294362Y-83002475D01*
X91294362Y-83002475D02*
X91199124Y-83002475D01*
X91199124Y-83002475D02*
X91056267Y-82954856D01*
X91056267Y-82954856D02*
X90961029Y-82859617D01*
X90961029Y-82859617D02*
X90913410Y-82764379D01*
X90913410Y-82764379D02*
X90865791Y-82573903D01*
X90865791Y-82573903D02*
X90865791Y-82431046D01*
X90865791Y-82431046D02*
X90913410Y-82240570D01*
X90913410Y-82240570D02*
X90961029Y-82145332D01*
X90961029Y-82145332D02*
X91056267Y-82050094D01*
X91056267Y-82050094D02*
X91199124Y-82002475D01*
X91199124Y-82002475D02*
X91294362Y-82002475D01*
X91294362Y-82002475D02*
X91437219Y-82050094D01*
X91437219Y-82050094D02*
X91484838Y-82097713D01*
X91913410Y-82478665D02*
X92246743Y-82478665D01*
X92389600Y-83002475D02*
X91913410Y-83002475D01*
X91913410Y-83002475D02*
X91913410Y-82002475D01*
X91913410Y-82002475D02*
X92389600Y-82002475D01*
X93389600Y-83002475D02*
X93056267Y-82526284D01*
X92818172Y-83002475D02*
X92818172Y-82002475D01*
X92818172Y-82002475D02*
X93199124Y-82002475D01*
X93199124Y-82002475D02*
X93294362Y-82050094D01*
X93294362Y-82050094D02*
X93341981Y-82097713D01*
X93341981Y-82097713D02*
X93389600Y-82192951D01*
X93389600Y-82192951D02*
X93389600Y-82335808D01*
X93389600Y-82335808D02*
X93341981Y-82431046D01*
X93341981Y-82431046D02*
X93294362Y-82478665D01*
X93294362Y-82478665D02*
X93199124Y-82526284D01*
X93199124Y-82526284D02*
X92818172Y-82526284D01*
X93818172Y-83002475D02*
X93818172Y-82002475D01*
X93818172Y-82002475D02*
X94389600Y-83002475D01*
X94389600Y-83002475D02*
X94389600Y-82002475D01*
X94865791Y-82621522D02*
X95627696Y-82621522D01*
X96294362Y-82002475D02*
X96484838Y-82002475D01*
X96484838Y-82002475D02*
X96580076Y-82050094D01*
X96580076Y-82050094D02*
X96675314Y-82145332D01*
X96675314Y-82145332D02*
X96722933Y-82335808D01*
X96722933Y-82335808D02*
X96722933Y-82669141D01*
X96722933Y-82669141D02*
X96675314Y-82859617D01*
X96675314Y-82859617D02*
X96580076Y-82954856D01*
X96580076Y-82954856D02*
X96484838Y-83002475D01*
X96484838Y-83002475D02*
X96294362Y-83002475D01*
X96294362Y-83002475D02*
X96199124Y-82954856D01*
X96199124Y-82954856D02*
X96103886Y-82859617D01*
X96103886Y-82859617D02*
X96056267Y-82669141D01*
X96056267Y-82669141D02*
X96056267Y-82335808D01*
X96056267Y-82335808D02*
X96103886Y-82145332D01*
X96103886Y-82145332D02*
X96199124Y-82050094D01*
X96199124Y-82050094D02*
X96294362Y-82002475D01*
X97151505Y-83002475D02*
X97151505Y-82002475D01*
X97151505Y-82478665D02*
X97722933Y-82478665D01*
X97722933Y-83002475D02*
X97722933Y-82002475D01*
X98675314Y-83002475D02*
X98199124Y-83002475D01*
X98199124Y-83002475D02*
X98199124Y-82002475D01*
X99008648Y-82621522D02*
X99770553Y-82621522D01*
X100199124Y-82954856D02*
X100341981Y-83002475D01*
X100341981Y-83002475D02*
X100580076Y-83002475D01*
X100580076Y-83002475D02*
X100675314Y-82954856D01*
X100675314Y-82954856D02*
X100722933Y-82907236D01*
X100722933Y-82907236D02*
X100770552Y-82811998D01*
X100770552Y-82811998D02*
X100770552Y-82716760D01*
X100770552Y-82716760D02*
X100722933Y-82621522D01*
X100722933Y-82621522D02*
X100675314Y-82573903D01*
X100675314Y-82573903D02*
X100580076Y-82526284D01*
X100580076Y-82526284D02*
X100389600Y-82478665D01*
X100389600Y-82478665D02*
X100294362Y-82431046D01*
X100294362Y-82431046D02*
X100246743Y-82383427D01*
X100246743Y-82383427D02*
X100199124Y-82288189D01*
X100199124Y-82288189D02*
X100199124Y-82192951D01*
X100199124Y-82192951D02*
X100246743Y-82097713D01*
X100246743Y-82097713D02*
X100294362Y-82050094D01*
X100294362Y-82050094D02*
X100389600Y-82002475D01*
X100389600Y-82002475D02*
X100627695Y-82002475D01*
X100627695Y-82002475D02*
X100770552Y-82050094D01*
X77008646Y-83945752D02*
X77246741Y-84612419D01*
X77246741Y-84612419D02*
X77484836Y-83945752D01*
X78246741Y-84564800D02*
X78151503Y-84612419D01*
X78151503Y-84612419D02*
X77961027Y-84612419D01*
X77961027Y-84612419D02*
X77865789Y-84564800D01*
X77865789Y-84564800D02*
X77818170Y-84469561D01*
X77818170Y-84469561D02*
X77818170Y-84088609D01*
X77818170Y-84088609D02*
X77865789Y-83993371D01*
X77865789Y-83993371D02*
X77961027Y-83945752D01*
X77961027Y-83945752D02*
X78151503Y-83945752D01*
X78151503Y-83945752D02*
X78246741Y-83993371D01*
X78246741Y-83993371D02*
X78294360Y-84088609D01*
X78294360Y-84088609D02*
X78294360Y-84183847D01*
X78294360Y-84183847D02*
X77818170Y-84279085D01*
X78722932Y-84612419D02*
X78722932Y-83945752D01*
X78722932Y-84136228D02*
X78770551Y-84040990D01*
X78770551Y-84040990D02*
X78818170Y-83993371D01*
X78818170Y-83993371D02*
X78913408Y-83945752D01*
X78913408Y-83945752D02*
X79008646Y-83945752D01*
X79294361Y-84564800D02*
X79389599Y-84612419D01*
X79389599Y-84612419D02*
X79580075Y-84612419D01*
X79580075Y-84612419D02*
X79675313Y-84564800D01*
X79675313Y-84564800D02*
X79722932Y-84469561D01*
X79722932Y-84469561D02*
X79722932Y-84421942D01*
X79722932Y-84421942D02*
X79675313Y-84326704D01*
X79675313Y-84326704D02*
X79580075Y-84279085D01*
X79580075Y-84279085D02*
X79437218Y-84279085D01*
X79437218Y-84279085D02*
X79341980Y-84231466D01*
X79341980Y-84231466D02*
X79294361Y-84136228D01*
X79294361Y-84136228D02*
X79294361Y-84088609D01*
X79294361Y-84088609D02*
X79341980Y-83993371D01*
X79341980Y-83993371D02*
X79437218Y-83945752D01*
X79437218Y-83945752D02*
X79580075Y-83945752D01*
X79580075Y-83945752D02*
X79675313Y-83993371D01*
X80151504Y-84612419D02*
X80151504Y-83945752D01*
X80151504Y-83612419D02*
X80103885Y-83660038D01*
X80103885Y-83660038D02*
X80151504Y-83707657D01*
X80151504Y-83707657D02*
X80199123Y-83660038D01*
X80199123Y-83660038D02*
X80151504Y-83612419D01*
X80151504Y-83612419D02*
X80151504Y-83707657D01*
X80770551Y-84612419D02*
X80675313Y-84564800D01*
X80675313Y-84564800D02*
X80627694Y-84517180D01*
X80627694Y-84517180D02*
X80580075Y-84421942D01*
X80580075Y-84421942D02*
X80580075Y-84136228D01*
X80580075Y-84136228D02*
X80627694Y-84040990D01*
X80627694Y-84040990D02*
X80675313Y-83993371D01*
X80675313Y-83993371D02*
X80770551Y-83945752D01*
X80770551Y-83945752D02*
X80913408Y-83945752D01*
X80913408Y-83945752D02*
X81008646Y-83993371D01*
X81008646Y-83993371D02*
X81056265Y-84040990D01*
X81056265Y-84040990D02*
X81103884Y-84136228D01*
X81103884Y-84136228D02*
X81103884Y-84421942D01*
X81103884Y-84421942D02*
X81056265Y-84517180D01*
X81056265Y-84517180D02*
X81008646Y-84564800D01*
X81008646Y-84564800D02*
X80913408Y-84612419D01*
X80913408Y-84612419D02*
X80770551Y-84612419D01*
X81532456Y-83945752D02*
X81532456Y-84612419D01*
X81532456Y-84040990D02*
X81580075Y-83993371D01*
X81580075Y-83993371D02*
X81675313Y-83945752D01*
X81675313Y-83945752D02*
X81818170Y-83945752D01*
X81818170Y-83945752D02*
X81913408Y-83993371D01*
X81913408Y-83993371D02*
X81961027Y-84088609D01*
X81961027Y-84088609D02*
X81961027Y-84612419D01*
X83151504Y-83707657D02*
X83199123Y-83660038D01*
X83199123Y-83660038D02*
X83294361Y-83612419D01*
X83294361Y-83612419D02*
X83532456Y-83612419D01*
X83532456Y-83612419D02*
X83627694Y-83660038D01*
X83627694Y-83660038D02*
X83675313Y-83707657D01*
X83675313Y-83707657D02*
X83722932Y-83802895D01*
X83722932Y-83802895D02*
X83722932Y-83898133D01*
X83722932Y-83898133D02*
X83675313Y-84040990D01*
X83675313Y-84040990D02*
X83103885Y-84612419D01*
X83103885Y-84612419D02*
X83722932Y-84612419D01*
X85056266Y-84612419D02*
X84961028Y-84564800D01*
X84961028Y-84564800D02*
X84913409Y-84517180D01*
X84913409Y-84517180D02*
X84865790Y-84421942D01*
X84865790Y-84421942D02*
X84865790Y-84136228D01*
X84865790Y-84136228D02*
X84913409Y-84040990D01*
X84913409Y-84040990D02*
X84961028Y-83993371D01*
X84961028Y-83993371D02*
X85056266Y-83945752D01*
X85056266Y-83945752D02*
X85199123Y-83945752D01*
X85199123Y-83945752D02*
X85294361Y-83993371D01*
X85294361Y-83993371D02*
X85341980Y-84040990D01*
X85341980Y-84040990D02*
X85389599Y-84136228D01*
X85389599Y-84136228D02*
X85389599Y-84421942D01*
X85389599Y-84421942D02*
X85341980Y-84517180D01*
X85341980Y-84517180D02*
X85294361Y-84564800D01*
X85294361Y-84564800D02*
X85199123Y-84612419D01*
X85199123Y-84612419D02*
X85056266Y-84612419D01*
X85818171Y-84612419D02*
X85818171Y-83945752D01*
X85818171Y-84136228D02*
X85865790Y-84040990D01*
X85865790Y-84040990D02*
X85913409Y-83993371D01*
X85913409Y-83993371D02*
X86008647Y-83945752D01*
X86008647Y-83945752D02*
X86103885Y-83945752D01*
X87341981Y-84612419D02*
X87246743Y-84564800D01*
X87246743Y-84564800D02*
X87199124Y-84469561D01*
X87199124Y-84469561D02*
X87199124Y-83612419D01*
X88151505Y-84612419D02*
X88151505Y-84088609D01*
X88151505Y-84088609D02*
X88103886Y-83993371D01*
X88103886Y-83993371D02*
X88008648Y-83945752D01*
X88008648Y-83945752D02*
X87818172Y-83945752D01*
X87818172Y-83945752D02*
X87722934Y-83993371D01*
X88151505Y-84564800D02*
X88056267Y-84612419D01*
X88056267Y-84612419D02*
X87818172Y-84612419D01*
X87818172Y-84612419D02*
X87722934Y-84564800D01*
X87722934Y-84564800D02*
X87675315Y-84469561D01*
X87675315Y-84469561D02*
X87675315Y-84374323D01*
X87675315Y-84374323D02*
X87722934Y-84279085D01*
X87722934Y-84279085D02*
X87818172Y-84231466D01*
X87818172Y-84231466D02*
X88056267Y-84231466D01*
X88056267Y-84231466D02*
X88151505Y-84183847D01*
X88484839Y-83945752D02*
X88865791Y-83945752D01*
X88627696Y-83612419D02*
X88627696Y-84469561D01*
X88627696Y-84469561D02*
X88675315Y-84564800D01*
X88675315Y-84564800D02*
X88770553Y-84612419D01*
X88770553Y-84612419D02*
X88865791Y-84612419D01*
X89580077Y-84564800D02*
X89484839Y-84612419D01*
X89484839Y-84612419D02*
X89294363Y-84612419D01*
X89294363Y-84612419D02*
X89199125Y-84564800D01*
X89199125Y-84564800D02*
X89151506Y-84469561D01*
X89151506Y-84469561D02*
X89151506Y-84088609D01*
X89151506Y-84088609D02*
X89199125Y-83993371D01*
X89199125Y-83993371D02*
X89294363Y-83945752D01*
X89294363Y-83945752D02*
X89484839Y-83945752D01*
X89484839Y-83945752D02*
X89580077Y-83993371D01*
X89580077Y-83993371D02*
X89627696Y-84088609D01*
X89627696Y-84088609D02*
X89627696Y-84183847D01*
X89627696Y-84183847D02*
X89151506Y-84279085D01*
X90056268Y-84612419D02*
X90056268Y-83945752D01*
X90056268Y-84136228D02*
X90103887Y-84040990D01*
X90103887Y-84040990D02*
X90151506Y-83993371D01*
X90151506Y-83993371D02*
X90246744Y-83945752D01*
X90246744Y-83945752D02*
X90341982Y-83945752D01*
D11*
X85369673Y-61867219D02*
X85369673Y-61200552D01*
X85369673Y-61295790D02*
X85417292Y-61248171D01*
X85417292Y-61248171D02*
X85512530Y-61200552D01*
X85512530Y-61200552D02*
X85655387Y-61200552D01*
X85655387Y-61200552D02*
X85750625Y-61248171D01*
X85750625Y-61248171D02*
X85798244Y-61343409D01*
X85798244Y-61343409D02*
X85798244Y-61867219D01*
X85798244Y-61343409D02*
X85845863Y-61248171D01*
X85845863Y-61248171D02*
X85941101Y-61200552D01*
X85941101Y-61200552D02*
X86083958Y-61200552D01*
X86083958Y-61200552D02*
X86179197Y-61248171D01*
X86179197Y-61248171D02*
X86226816Y-61343409D01*
X86226816Y-61343409D02*
X86226816Y-61867219D01*
X86703006Y-61200552D02*
X86703006Y-61867219D01*
X86703006Y-61295790D02*
X86750625Y-61248171D01*
X86750625Y-61248171D02*
X86845863Y-61200552D01*
X86845863Y-61200552D02*
X86988720Y-61200552D01*
X86988720Y-61200552D02*
X87083958Y-61248171D01*
X87083958Y-61248171D02*
X87131577Y-61343409D01*
X87131577Y-61343409D02*
X87131577Y-61867219D01*
X87607768Y-61867219D02*
X87607768Y-61200552D01*
X87607768Y-60867219D02*
X87560149Y-60914838D01*
X87560149Y-60914838D02*
X87607768Y-60962457D01*
X87607768Y-60962457D02*
X87655387Y-60914838D01*
X87655387Y-60914838D02*
X87607768Y-60867219D01*
X87607768Y-60867219D02*
X87607768Y-60962457D01*
X88655386Y-61771980D02*
X88607767Y-61819600D01*
X88607767Y-61819600D02*
X88464910Y-61867219D01*
X88464910Y-61867219D02*
X88369672Y-61867219D01*
X88369672Y-61867219D02*
X88226815Y-61819600D01*
X88226815Y-61819600D02*
X88131577Y-61724361D01*
X88131577Y-61724361D02*
X88083958Y-61629123D01*
X88083958Y-61629123D02*
X88036339Y-61438647D01*
X88036339Y-61438647D02*
X88036339Y-61295790D01*
X88036339Y-61295790D02*
X88083958Y-61105314D01*
X88083958Y-61105314D02*
X88131577Y-61010076D01*
X88131577Y-61010076D02*
X88226815Y-60914838D01*
X88226815Y-60914838D02*
X88369672Y-60867219D01*
X88369672Y-60867219D02*
X88464910Y-60867219D01*
X88464910Y-60867219D02*
X88607767Y-60914838D01*
X88607767Y-60914838D02*
X88655386Y-60962457D01*
X89226815Y-61867219D02*
X89131577Y-61819600D01*
X89131577Y-61819600D02*
X89083958Y-61771980D01*
X89083958Y-61771980D02*
X89036339Y-61676742D01*
X89036339Y-61676742D02*
X89036339Y-61391028D01*
X89036339Y-61391028D02*
X89083958Y-61295790D01*
X89083958Y-61295790D02*
X89131577Y-61248171D01*
X89131577Y-61248171D02*
X89226815Y-61200552D01*
X89226815Y-61200552D02*
X89369672Y-61200552D01*
X89369672Y-61200552D02*
X89464910Y-61248171D01*
X89464910Y-61248171D02*
X89512529Y-61295790D01*
X89512529Y-61295790D02*
X89560148Y-61391028D01*
X89560148Y-61391028D02*
X89560148Y-61676742D01*
X89560148Y-61676742D02*
X89512529Y-61771980D01*
X89512529Y-61771980D02*
X89464910Y-61819600D01*
X89464910Y-61819600D02*
X89369672Y-61867219D01*
X89369672Y-61867219D02*
X89226815Y-61867219D01*
X89988720Y-61200552D02*
X89988720Y-61867219D01*
X89988720Y-61295790D02*
X90036339Y-61248171D01*
X90036339Y-61248171D02*
X90131577Y-61200552D01*
X90131577Y-61200552D02*
X90274434Y-61200552D01*
X90274434Y-61200552D02*
X90369672Y-61248171D01*
X90369672Y-61248171D02*
X90417291Y-61343409D01*
X90417291Y-61343409D02*
X90417291Y-61867219D01*
X90750625Y-61200552D02*
X91131577Y-61200552D01*
X90893482Y-60867219D02*
X90893482Y-61724361D01*
X90893482Y-61724361D02*
X90941101Y-61819600D01*
X90941101Y-61819600D02*
X91036339Y-61867219D01*
X91036339Y-61867219D02*
X91131577Y-61867219D01*
X91464911Y-61867219D02*
X91464911Y-61200552D01*
X91464911Y-61391028D02*
X91512530Y-61295790D01*
X91512530Y-61295790D02*
X91560149Y-61248171D01*
X91560149Y-61248171D02*
X91655387Y-61200552D01*
X91655387Y-61200552D02*
X91750625Y-61200552D01*
X92226816Y-61867219D02*
X92131578Y-61819600D01*
X92131578Y-61819600D02*
X92083959Y-61771980D01*
X92083959Y-61771980D02*
X92036340Y-61676742D01*
X92036340Y-61676742D02*
X92036340Y-61391028D01*
X92036340Y-61391028D02*
X92083959Y-61295790D01*
X92083959Y-61295790D02*
X92131578Y-61248171D01*
X92131578Y-61248171D02*
X92226816Y-61200552D01*
X92226816Y-61200552D02*
X92369673Y-61200552D01*
X92369673Y-61200552D02*
X92464911Y-61248171D01*
X92464911Y-61248171D02*
X92512530Y-61295790D01*
X92512530Y-61295790D02*
X92560149Y-61391028D01*
X92560149Y-61391028D02*
X92560149Y-61676742D01*
X92560149Y-61676742D02*
X92512530Y-61771980D01*
X92512530Y-61771980D02*
X92464911Y-61819600D01*
X92464911Y-61819600D02*
X92369673Y-61867219D01*
X92369673Y-61867219D02*
X92226816Y-61867219D01*
X93131578Y-61867219D02*
X93036340Y-61819600D01*
X93036340Y-61819600D02*
X92988721Y-61724361D01*
X92988721Y-61724361D02*
X92988721Y-60867219D01*
X93655388Y-61867219D02*
X93560150Y-61819600D01*
X93560150Y-61819600D02*
X93512531Y-61724361D01*
X93512531Y-61724361D02*
X93512531Y-60867219D01*
X94417293Y-61819600D02*
X94322055Y-61867219D01*
X94322055Y-61867219D02*
X94131579Y-61867219D01*
X94131579Y-61867219D02*
X94036341Y-61819600D01*
X94036341Y-61819600D02*
X93988722Y-61724361D01*
X93988722Y-61724361D02*
X93988722Y-61343409D01*
X93988722Y-61343409D02*
X94036341Y-61248171D01*
X94036341Y-61248171D02*
X94131579Y-61200552D01*
X94131579Y-61200552D02*
X94322055Y-61200552D01*
X94322055Y-61200552D02*
X94417293Y-61248171D01*
X94417293Y-61248171D02*
X94464912Y-61343409D01*
X94464912Y-61343409D02*
X94464912Y-61438647D01*
X94464912Y-61438647D02*
X93988722Y-61533885D01*
X94893484Y-61867219D02*
X94893484Y-61200552D01*
X94893484Y-61391028D02*
X94941103Y-61295790D01*
X94941103Y-61295790D02*
X94988722Y-61248171D01*
X94988722Y-61248171D02*
X95083960Y-61200552D01*
X95083960Y-61200552D02*
X95179198Y-61200552D01*
X96179199Y-61200552D02*
X96417294Y-61867219D01*
X96417294Y-61867219D02*
X96655389Y-61200552D01*
X97560151Y-61867219D02*
X96988723Y-61867219D01*
X97274437Y-61867219D02*
X97274437Y-60867219D01*
X97274437Y-60867219D02*
X97179199Y-61010076D01*
X97179199Y-61010076D02*
X97083961Y-61105314D01*
X97083961Y-61105314D02*
X96988723Y-61152933D01*
X97988723Y-61771980D02*
X98036342Y-61819600D01*
X98036342Y-61819600D02*
X97988723Y-61867219D01*
X97988723Y-61867219D02*
X97941104Y-61819600D01*
X97941104Y-61819600D02*
X97988723Y-61771980D01*
X97988723Y-61771980D02*
X97988723Y-61867219D01*
X98988722Y-61867219D02*
X98417294Y-61867219D01*
X98703008Y-61867219D02*
X98703008Y-60867219D01*
X98703008Y-60867219D02*
X98607770Y-61010076D01*
X98607770Y-61010076D02*
X98512532Y-61105314D01*
X98512532Y-61105314D02*
X98417294Y-61152933D01*
X99417294Y-61771980D02*
X99464913Y-61819600D01*
X99464913Y-61819600D02*
X99417294Y-61867219D01*
X99417294Y-61867219D02*
X99369675Y-61819600D01*
X99369675Y-61819600D02*
X99417294Y-61771980D01*
X99417294Y-61771980D02*
X99417294Y-61867219D01*
X100083960Y-60867219D02*
X100179198Y-60867219D01*
X100179198Y-60867219D02*
X100274436Y-60914838D01*
X100274436Y-60914838D02*
X100322055Y-60962457D01*
X100322055Y-60962457D02*
X100369674Y-61057695D01*
X100369674Y-61057695D02*
X100417293Y-61248171D01*
X100417293Y-61248171D02*
X100417293Y-61486266D01*
X100417293Y-61486266D02*
X100369674Y-61676742D01*
X100369674Y-61676742D02*
X100322055Y-61771980D01*
X100322055Y-61771980D02*
X100274436Y-61819600D01*
X100274436Y-61819600D02*
X100179198Y-61867219D01*
X100179198Y-61867219D02*
X100083960Y-61867219D01*
X100083960Y-61867219D02*
X99988722Y-61819600D01*
X99988722Y-61819600D02*
X99941103Y-61771980D01*
X99941103Y-61771980D02*
X99893484Y-61676742D01*
X99893484Y-61676742D02*
X99845865Y-61486266D01*
X99845865Y-61486266D02*
X99845865Y-61248171D01*
X99845865Y-61248171D02*
X99893484Y-61057695D01*
X99893484Y-61057695D02*
X99941103Y-60962457D01*
X99941103Y-60962457D02*
X99988722Y-60914838D01*
X99988722Y-60914838D02*
X100083960Y-60867219D01*
D10*
X77103884Y-78872419D02*
X77103884Y-77872419D01*
X77532455Y-78872419D02*
X77532455Y-78348609D01*
X77532455Y-78348609D02*
X77484836Y-78253371D01*
X77484836Y-78253371D02*
X77389598Y-78205752D01*
X77389598Y-78205752D02*
X77246741Y-78205752D01*
X77246741Y-78205752D02*
X77151503Y-78253371D01*
X77151503Y-78253371D02*
X77103884Y-78300990D01*
X77865789Y-78205752D02*
X78246741Y-78205752D01*
X78008646Y-77872419D02*
X78008646Y-78729561D01*
X78008646Y-78729561D02*
X78056265Y-78824800D01*
X78056265Y-78824800D02*
X78151503Y-78872419D01*
X78151503Y-78872419D02*
X78246741Y-78872419D01*
X78437218Y-78205752D02*
X78818170Y-78205752D01*
X78580075Y-77872419D02*
X78580075Y-78729561D01*
X78580075Y-78729561D02*
X78627694Y-78824800D01*
X78627694Y-78824800D02*
X78722932Y-78872419D01*
X78722932Y-78872419D02*
X78818170Y-78872419D01*
X79151504Y-78205752D02*
X79151504Y-79205752D01*
X79151504Y-78253371D02*
X79246742Y-78205752D01*
X79246742Y-78205752D02*
X79437218Y-78205752D01*
X79437218Y-78205752D02*
X79532456Y-78253371D01*
X79532456Y-78253371D02*
X79580075Y-78300990D01*
X79580075Y-78300990D02*
X79627694Y-78396228D01*
X79627694Y-78396228D02*
X79627694Y-78681942D01*
X79627694Y-78681942D02*
X79580075Y-78777180D01*
X79580075Y-78777180D02*
X79532456Y-78824800D01*
X79532456Y-78824800D02*
X79437218Y-78872419D01*
X79437218Y-78872419D02*
X79246742Y-78872419D01*
X79246742Y-78872419D02*
X79151504Y-78824800D01*
X80008647Y-78824800D02*
X80103885Y-78872419D01*
X80103885Y-78872419D02*
X80294361Y-78872419D01*
X80294361Y-78872419D02*
X80389599Y-78824800D01*
X80389599Y-78824800D02*
X80437218Y-78729561D01*
X80437218Y-78729561D02*
X80437218Y-78681942D01*
X80437218Y-78681942D02*
X80389599Y-78586704D01*
X80389599Y-78586704D02*
X80294361Y-78539085D01*
X80294361Y-78539085D02*
X80151504Y-78539085D01*
X80151504Y-78539085D02*
X80056266Y-78491466D01*
X80056266Y-78491466D02*
X80008647Y-78396228D01*
X80008647Y-78396228D02*
X80008647Y-78348609D01*
X80008647Y-78348609D02*
X80056266Y-78253371D01*
X80056266Y-78253371D02*
X80151504Y-78205752D01*
X80151504Y-78205752D02*
X80294361Y-78205752D01*
X80294361Y-78205752D02*
X80389599Y-78253371D01*
X80865790Y-78777180D02*
X80913409Y-78824800D01*
X80913409Y-78824800D02*
X80865790Y-78872419D01*
X80865790Y-78872419D02*
X80818171Y-78824800D01*
X80818171Y-78824800D02*
X80865790Y-78777180D01*
X80865790Y-78777180D02*
X80865790Y-78872419D01*
X80865790Y-78253371D02*
X80913409Y-78300990D01*
X80913409Y-78300990D02*
X80865790Y-78348609D01*
X80865790Y-78348609D02*
X80818171Y-78300990D01*
X80818171Y-78300990D02*
X80865790Y-78253371D01*
X80865790Y-78253371D02*
X80865790Y-78348609D01*
X82056265Y-77824800D02*
X81199123Y-79110514D01*
X83103884Y-77824800D02*
X82246742Y-79110514D01*
X83865789Y-78205752D02*
X83865789Y-79015276D01*
X83865789Y-79015276D02*
X83818170Y-79110514D01*
X83818170Y-79110514D02*
X83770551Y-79158133D01*
X83770551Y-79158133D02*
X83675313Y-79205752D01*
X83675313Y-79205752D02*
X83532456Y-79205752D01*
X83532456Y-79205752D02*
X83437218Y-79158133D01*
X83865789Y-78824800D02*
X83770551Y-78872419D01*
X83770551Y-78872419D02*
X83580075Y-78872419D01*
X83580075Y-78872419D02*
X83484837Y-78824800D01*
X83484837Y-78824800D02*
X83437218Y-78777180D01*
X83437218Y-78777180D02*
X83389599Y-78681942D01*
X83389599Y-78681942D02*
X83389599Y-78396228D01*
X83389599Y-78396228D02*
X83437218Y-78300990D01*
X83437218Y-78300990D02*
X83484837Y-78253371D01*
X83484837Y-78253371D02*
X83580075Y-78205752D01*
X83580075Y-78205752D02*
X83770551Y-78205752D01*
X83770551Y-78205752D02*
X83865789Y-78253371D01*
X84341980Y-78872419D02*
X84341980Y-78205752D01*
X84341980Y-77872419D02*
X84294361Y-77920038D01*
X84294361Y-77920038D02*
X84341980Y-77967657D01*
X84341980Y-77967657D02*
X84389599Y-77920038D01*
X84389599Y-77920038D02*
X84341980Y-77872419D01*
X84341980Y-77872419D02*
X84341980Y-77967657D01*
X84675313Y-78205752D02*
X85056265Y-78205752D01*
X84818170Y-77872419D02*
X84818170Y-78729561D01*
X84818170Y-78729561D02*
X84865789Y-78824800D01*
X84865789Y-78824800D02*
X84961027Y-78872419D01*
X84961027Y-78872419D02*
X85056265Y-78872419D01*
X85389599Y-78872419D02*
X85389599Y-77872419D01*
X85818170Y-78872419D02*
X85818170Y-78348609D01*
X85818170Y-78348609D02*
X85770551Y-78253371D01*
X85770551Y-78253371D02*
X85675313Y-78205752D01*
X85675313Y-78205752D02*
X85532456Y-78205752D01*
X85532456Y-78205752D02*
X85437218Y-78253371D01*
X85437218Y-78253371D02*
X85389599Y-78300990D01*
X86722932Y-78205752D02*
X86722932Y-78872419D01*
X86294361Y-78205752D02*
X86294361Y-78729561D01*
X86294361Y-78729561D02*
X86341980Y-78824800D01*
X86341980Y-78824800D02*
X86437218Y-78872419D01*
X86437218Y-78872419D02*
X86580075Y-78872419D01*
X86580075Y-78872419D02*
X86675313Y-78824800D01*
X86675313Y-78824800D02*
X86722932Y-78777180D01*
X87199123Y-78872419D02*
X87199123Y-77872419D01*
X87199123Y-78253371D02*
X87294361Y-78205752D01*
X87294361Y-78205752D02*
X87484837Y-78205752D01*
X87484837Y-78205752D02*
X87580075Y-78253371D01*
X87580075Y-78253371D02*
X87627694Y-78300990D01*
X87627694Y-78300990D02*
X87675313Y-78396228D01*
X87675313Y-78396228D02*
X87675313Y-78681942D01*
X87675313Y-78681942D02*
X87627694Y-78777180D01*
X87627694Y-78777180D02*
X87580075Y-78824800D01*
X87580075Y-78824800D02*
X87484837Y-78872419D01*
X87484837Y-78872419D02*
X87294361Y-78872419D01*
X87294361Y-78872419D02*
X87199123Y-78824800D01*
X88103885Y-78777180D02*
X88151504Y-78824800D01*
X88151504Y-78824800D02*
X88103885Y-78872419D01*
X88103885Y-78872419D02*
X88056266Y-78824800D01*
X88056266Y-78824800D02*
X88103885Y-78777180D01*
X88103885Y-78777180D02*
X88103885Y-78872419D01*
X89008646Y-78824800D02*
X88913408Y-78872419D01*
X88913408Y-78872419D02*
X88722932Y-78872419D01*
X88722932Y-78872419D02*
X88627694Y-78824800D01*
X88627694Y-78824800D02*
X88580075Y-78777180D01*
X88580075Y-78777180D02*
X88532456Y-78681942D01*
X88532456Y-78681942D02*
X88532456Y-78396228D01*
X88532456Y-78396228D02*
X88580075Y-78300990D01*
X88580075Y-78300990D02*
X88627694Y-78253371D01*
X88627694Y-78253371D02*
X88722932Y-78205752D01*
X88722932Y-78205752D02*
X88913408Y-78205752D01*
X88913408Y-78205752D02*
X89008646Y-78253371D01*
X89580075Y-78872419D02*
X89484837Y-78824800D01*
X89484837Y-78824800D02*
X89437218Y-78777180D01*
X89437218Y-78777180D02*
X89389599Y-78681942D01*
X89389599Y-78681942D02*
X89389599Y-78396228D01*
X89389599Y-78396228D02*
X89437218Y-78300990D01*
X89437218Y-78300990D02*
X89484837Y-78253371D01*
X89484837Y-78253371D02*
X89580075Y-78205752D01*
X89580075Y-78205752D02*
X89722932Y-78205752D01*
X89722932Y-78205752D02*
X89818170Y-78253371D01*
X89818170Y-78253371D02*
X89865789Y-78300990D01*
X89865789Y-78300990D02*
X89913408Y-78396228D01*
X89913408Y-78396228D02*
X89913408Y-78681942D01*
X89913408Y-78681942D02*
X89865789Y-78777180D01*
X89865789Y-78777180D02*
X89818170Y-78824800D01*
X89818170Y-78824800D02*
X89722932Y-78872419D01*
X89722932Y-78872419D02*
X89580075Y-78872419D01*
X90341980Y-78872419D02*
X90341980Y-78205752D01*
X90341980Y-78300990D02*
X90389599Y-78253371D01*
X90389599Y-78253371D02*
X90484837Y-78205752D01*
X90484837Y-78205752D02*
X90627694Y-78205752D01*
X90627694Y-78205752D02*
X90722932Y-78253371D01*
X90722932Y-78253371D02*
X90770551Y-78348609D01*
X90770551Y-78348609D02*
X90770551Y-78872419D01*
X90770551Y-78348609D02*
X90818170Y-78253371D01*
X90818170Y-78253371D02*
X90913408Y-78205752D01*
X90913408Y-78205752D02*
X91056265Y-78205752D01*
X91056265Y-78205752D02*
X91151504Y-78253371D01*
X91151504Y-78253371D02*
X91199123Y-78348609D01*
X91199123Y-78348609D02*
X91199123Y-78872419D01*
X92389598Y-77824800D02*
X91532456Y-79110514D01*
X92722932Y-78872419D02*
X92722932Y-78205752D01*
X92722932Y-78396228D02*
X92770551Y-78300990D01*
X92770551Y-78300990D02*
X92818170Y-78253371D01*
X92818170Y-78253371D02*
X92913408Y-78205752D01*
X92913408Y-78205752D02*
X93008646Y-78205752D01*
X93341980Y-78205752D02*
X93341980Y-79205752D01*
X93341980Y-78253371D02*
X93437218Y-78205752D01*
X93437218Y-78205752D02*
X93627694Y-78205752D01*
X93627694Y-78205752D02*
X93722932Y-78253371D01*
X93722932Y-78253371D02*
X93770551Y-78300990D01*
X93770551Y-78300990D02*
X93818170Y-78396228D01*
X93818170Y-78396228D02*
X93818170Y-78681942D01*
X93818170Y-78681942D02*
X93770551Y-78777180D01*
X93770551Y-78777180D02*
X93722932Y-78824800D01*
X93722932Y-78824800D02*
X93627694Y-78872419D01*
X93627694Y-78872419D02*
X93437218Y-78872419D01*
X93437218Y-78872419D02*
X93341980Y-78824800D01*
X94294361Y-78872419D02*
X94484837Y-78872419D01*
X94484837Y-78872419D02*
X94580075Y-78824800D01*
X94580075Y-78824800D02*
X94627694Y-78777180D01*
X94627694Y-78777180D02*
X94722932Y-78634323D01*
X94722932Y-78634323D02*
X94770551Y-78443847D01*
X94770551Y-78443847D02*
X94770551Y-78062895D01*
X94770551Y-78062895D02*
X94722932Y-77967657D01*
X94722932Y-77967657D02*
X94675313Y-77920038D01*
X94675313Y-77920038D02*
X94580075Y-77872419D01*
X94580075Y-77872419D02*
X94389599Y-77872419D01*
X94389599Y-77872419D02*
X94294361Y-77920038D01*
X94294361Y-77920038D02*
X94246742Y-77967657D01*
X94246742Y-77967657D02*
X94199123Y-78062895D01*
X94199123Y-78062895D02*
X94199123Y-78300990D01*
X94199123Y-78300990D02*
X94246742Y-78396228D01*
X94246742Y-78396228D02*
X94294361Y-78443847D01*
X94294361Y-78443847D02*
X94389599Y-78491466D01*
X94389599Y-78491466D02*
X94580075Y-78491466D01*
X94580075Y-78491466D02*
X94675313Y-78443847D01*
X94675313Y-78443847D02*
X94722932Y-78396228D01*
X94722932Y-78396228D02*
X94770551Y-78300990D01*
X95675313Y-77872419D02*
X95199123Y-77872419D01*
X95199123Y-77872419D02*
X95151504Y-78348609D01*
X95151504Y-78348609D02*
X95199123Y-78300990D01*
X95199123Y-78300990D02*
X95294361Y-78253371D01*
X95294361Y-78253371D02*
X95532456Y-78253371D01*
X95532456Y-78253371D02*
X95627694Y-78300990D01*
X95627694Y-78300990D02*
X95675313Y-78348609D01*
X95675313Y-78348609D02*
X95722932Y-78443847D01*
X95722932Y-78443847D02*
X95722932Y-78681942D01*
X95722932Y-78681942D02*
X95675313Y-78777180D01*
X95675313Y-78777180D02*
X95627694Y-78824800D01*
X95627694Y-78824800D02*
X95532456Y-78872419D01*
X95532456Y-78872419D02*
X95294361Y-78872419D01*
X95294361Y-78872419D02*
X95199123Y-78824800D01*
X95199123Y-78824800D02*
X95151504Y-78777180D01*
X96294361Y-78300990D02*
X96199123Y-78253371D01*
X96199123Y-78253371D02*
X96151504Y-78205752D01*
X96151504Y-78205752D02*
X96103885Y-78110514D01*
X96103885Y-78110514D02*
X96103885Y-78062895D01*
X96103885Y-78062895D02*
X96151504Y-77967657D01*
X96151504Y-77967657D02*
X96199123Y-77920038D01*
X96199123Y-77920038D02*
X96294361Y-77872419D01*
X96294361Y-77872419D02*
X96484837Y-77872419D01*
X96484837Y-77872419D02*
X96580075Y-77920038D01*
X96580075Y-77920038D02*
X96627694Y-77967657D01*
X96627694Y-77967657D02*
X96675313Y-78062895D01*
X96675313Y-78062895D02*
X96675313Y-78110514D01*
X96675313Y-78110514D02*
X96627694Y-78205752D01*
X96627694Y-78205752D02*
X96580075Y-78253371D01*
X96580075Y-78253371D02*
X96484837Y-78300990D01*
X96484837Y-78300990D02*
X96294361Y-78300990D01*
X96294361Y-78300990D02*
X96199123Y-78348609D01*
X96199123Y-78348609D02*
X96151504Y-78396228D01*
X96151504Y-78396228D02*
X96103885Y-78491466D01*
X96103885Y-78491466D02*
X96103885Y-78681942D01*
X96103885Y-78681942D02*
X96151504Y-78777180D01*
X96151504Y-78777180D02*
X96199123Y-78824800D01*
X96199123Y-78824800D02*
X96294361Y-78872419D01*
X96294361Y-78872419D02*
X96484837Y-78872419D01*
X96484837Y-78872419D02*
X96580075Y-78824800D01*
X96580075Y-78824800D02*
X96627694Y-78777180D01*
X96627694Y-78777180D02*
X96675313Y-78681942D01*
X96675313Y-78681942D02*
X96675313Y-78491466D01*
X96675313Y-78491466D02*
X96627694Y-78396228D01*
X96627694Y-78396228D02*
X96580075Y-78348609D01*
X96580075Y-78348609D02*
X96484837Y-78300990D01*
X97818170Y-77824800D02*
X96961028Y-79110514D01*
X98294361Y-78872419D02*
X98199123Y-78824800D01*
X98199123Y-78824800D02*
X98151504Y-78777180D01*
X98151504Y-78777180D02*
X98103885Y-78681942D01*
X98103885Y-78681942D02*
X98103885Y-78396228D01*
X98103885Y-78396228D02*
X98151504Y-78300990D01*
X98151504Y-78300990D02*
X98199123Y-78253371D01*
X98199123Y-78253371D02*
X98294361Y-78205752D01*
X98294361Y-78205752D02*
X98437218Y-78205752D01*
X98437218Y-78205752D02*
X98532456Y-78253371D01*
X98532456Y-78253371D02*
X98580075Y-78300990D01*
X98580075Y-78300990D02*
X98627694Y-78396228D01*
X98627694Y-78396228D02*
X98627694Y-78681942D01*
X98627694Y-78681942D02*
X98580075Y-78777180D01*
X98580075Y-78777180D02*
X98532456Y-78824800D01*
X98532456Y-78824800D02*
X98437218Y-78872419D01*
X98437218Y-78872419D02*
X98294361Y-78872419D01*
X99056266Y-78872419D02*
X99056266Y-78205752D01*
X99056266Y-78300990D02*
X99103885Y-78253371D01*
X99103885Y-78253371D02*
X99199123Y-78205752D01*
X99199123Y-78205752D02*
X99341980Y-78205752D01*
X99341980Y-78205752D02*
X99437218Y-78253371D01*
X99437218Y-78253371D02*
X99484837Y-78348609D01*
X99484837Y-78348609D02*
X99484837Y-78872419D01*
X99484837Y-78348609D02*
X99532456Y-78253371D01*
X99532456Y-78253371D02*
X99627694Y-78205752D01*
X99627694Y-78205752D02*
X99770551Y-78205752D01*
X99770551Y-78205752D02*
X99865790Y-78253371D01*
X99865790Y-78253371D02*
X99913409Y-78348609D01*
X99913409Y-78348609D02*
X99913409Y-78872419D01*
X100389599Y-78205752D02*
X100389599Y-78872419D01*
X100389599Y-78300990D02*
X100437218Y-78253371D01*
X100437218Y-78253371D02*
X100532456Y-78205752D01*
X100532456Y-78205752D02*
X100675313Y-78205752D01*
X100675313Y-78205752D02*
X100770551Y-78253371D01*
X100770551Y-78253371D02*
X100818170Y-78348609D01*
X100818170Y-78348609D02*
X100818170Y-78872419D01*
X101294361Y-78872419D02*
X101294361Y-78205752D01*
X101294361Y-77872419D02*
X101246742Y-77920038D01*
X101246742Y-77920038D02*
X101294361Y-77967657D01*
X101294361Y-77967657D02*
X101341980Y-77920038D01*
X101341980Y-77920038D02*
X101294361Y-77872419D01*
X101294361Y-77872419D02*
X101294361Y-77967657D01*
X102199122Y-78824800D02*
X102103884Y-78872419D01*
X102103884Y-78872419D02*
X101913408Y-78872419D01*
X101913408Y-78872419D02*
X101818170Y-78824800D01*
X101818170Y-78824800D02*
X101770551Y-78777180D01*
X101770551Y-78777180D02*
X101722932Y-78681942D01*
X101722932Y-78681942D02*
X101722932Y-78396228D01*
X101722932Y-78396228D02*
X101770551Y-78300990D01*
X101770551Y-78300990D02*
X101818170Y-78253371D01*
X101818170Y-78253371D02*
X101913408Y-78205752D01*
X101913408Y-78205752D02*
X102103884Y-78205752D01*
X102103884Y-78205752D02*
X102199122Y-78253371D01*
X102770551Y-78872419D02*
X102675313Y-78824800D01*
X102675313Y-78824800D02*
X102627694Y-78777180D01*
X102627694Y-78777180D02*
X102580075Y-78681942D01*
X102580075Y-78681942D02*
X102580075Y-78396228D01*
X102580075Y-78396228D02*
X102627694Y-78300990D01*
X102627694Y-78300990D02*
X102675313Y-78253371D01*
X102675313Y-78253371D02*
X102770551Y-78205752D01*
X102770551Y-78205752D02*
X102913408Y-78205752D01*
X102913408Y-78205752D02*
X103008646Y-78253371D01*
X103008646Y-78253371D02*
X103056265Y-78300990D01*
X103056265Y-78300990D02*
X103103884Y-78396228D01*
X103103884Y-78396228D02*
X103103884Y-78681942D01*
X103103884Y-78681942D02*
X103056265Y-78777180D01*
X103056265Y-78777180D02*
X103008646Y-78824800D01*
X103008646Y-78824800D02*
X102913408Y-78872419D01*
X102913408Y-78872419D02*
X102770551Y-78872419D01*
X103532456Y-78205752D02*
X103532456Y-78872419D01*
X103532456Y-78300990D02*
X103580075Y-78253371D01*
X103580075Y-78253371D02*
X103675313Y-78205752D01*
X103675313Y-78205752D02*
X103818170Y-78205752D01*
X103818170Y-78205752D02*
X103913408Y-78253371D01*
X103913408Y-78253371D02*
X103961027Y-78348609D01*
X103961027Y-78348609D02*
X103961027Y-78872419D01*
X104294361Y-78205752D02*
X104675313Y-78205752D01*
X104437218Y-77872419D02*
X104437218Y-78729561D01*
X104437218Y-78729561D02*
X104484837Y-78824800D01*
X104484837Y-78824800D02*
X104580075Y-78872419D01*
X104580075Y-78872419D02*
X104675313Y-78872419D01*
X105008647Y-78872419D02*
X105008647Y-78205752D01*
X105008647Y-78396228D02*
X105056266Y-78300990D01*
X105056266Y-78300990D02*
X105103885Y-78253371D01*
X105103885Y-78253371D02*
X105199123Y-78205752D01*
X105199123Y-78205752D02*
X105294361Y-78205752D01*
X105770552Y-78872419D02*
X105675314Y-78824800D01*
X105675314Y-78824800D02*
X105627695Y-78777180D01*
X105627695Y-78777180D02*
X105580076Y-78681942D01*
X105580076Y-78681942D02*
X105580076Y-78396228D01*
X105580076Y-78396228D02*
X105627695Y-78300990D01*
X105627695Y-78300990D02*
X105675314Y-78253371D01*
X105675314Y-78253371D02*
X105770552Y-78205752D01*
X105770552Y-78205752D02*
X105913409Y-78205752D01*
X105913409Y-78205752D02*
X106008647Y-78253371D01*
X106008647Y-78253371D02*
X106056266Y-78300990D01*
X106056266Y-78300990D02*
X106103885Y-78396228D01*
X106103885Y-78396228D02*
X106103885Y-78681942D01*
X106103885Y-78681942D02*
X106056266Y-78777180D01*
X106056266Y-78777180D02*
X106008647Y-78824800D01*
X106008647Y-78824800D02*
X105913409Y-78872419D01*
X105913409Y-78872419D02*
X105770552Y-78872419D01*
X106675314Y-78872419D02*
X106580076Y-78824800D01*
X106580076Y-78824800D02*
X106532457Y-78729561D01*
X106532457Y-78729561D02*
X106532457Y-77872419D01*
X107199124Y-78872419D02*
X107103886Y-78824800D01*
X107103886Y-78824800D02*
X107056267Y-78729561D01*
X107056267Y-78729561D02*
X107056267Y-77872419D01*
X107961029Y-78824800D02*
X107865791Y-78872419D01*
X107865791Y-78872419D02*
X107675315Y-78872419D01*
X107675315Y-78872419D02*
X107580077Y-78824800D01*
X107580077Y-78824800D02*
X107532458Y-78729561D01*
X107532458Y-78729561D02*
X107532458Y-78348609D01*
X107532458Y-78348609D02*
X107580077Y-78253371D01*
X107580077Y-78253371D02*
X107675315Y-78205752D01*
X107675315Y-78205752D02*
X107865791Y-78205752D01*
X107865791Y-78205752D02*
X107961029Y-78253371D01*
X107961029Y-78253371D02*
X108008648Y-78348609D01*
X108008648Y-78348609D02*
X108008648Y-78443847D01*
X108008648Y-78443847D02*
X107532458Y-78539085D01*
X108437220Y-78872419D02*
X108437220Y-78205752D01*
X108437220Y-78396228D02*
X108484839Y-78300990D01*
X108484839Y-78300990D02*
X108532458Y-78253371D01*
X108532458Y-78253371D02*
X108627696Y-78205752D01*
X108627696Y-78205752D02*
X108722934Y-78205752D01*
D12*
X148539580Y-58586666D02*
X148587200Y-58634285D01*
X148587200Y-58634285D02*
X148634819Y-58777142D01*
X148634819Y-58777142D02*
X148634819Y-58872380D01*
X148634819Y-58872380D02*
X148587200Y-59015237D01*
X148587200Y-59015237D02*
X148491961Y-59110475D01*
X148491961Y-59110475D02*
X148396723Y-59158094D01*
X148396723Y-59158094D02*
X148206247Y-59205713D01*
X148206247Y-59205713D02*
X148063390Y-59205713D01*
X148063390Y-59205713D02*
X147872914Y-59158094D01*
X147872914Y-59158094D02*
X147777676Y-59110475D01*
X147777676Y-59110475D02*
X147682438Y-59015237D01*
X147682438Y-59015237D02*
X147634819Y-58872380D01*
X147634819Y-58872380D02*
X147634819Y-58777142D01*
X147634819Y-58777142D02*
X147682438Y-58634285D01*
X147682438Y-58634285D02*
X147730057Y-58586666D01*
X148063390Y-58015237D02*
X148015771Y-58110475D01*
X148015771Y-58110475D02*
X147968152Y-58158094D01*
X147968152Y-58158094D02*
X147872914Y-58205713D01*
X147872914Y-58205713D02*
X147825295Y-58205713D01*
X147825295Y-58205713D02*
X147730057Y-58158094D01*
X147730057Y-58158094D02*
X147682438Y-58110475D01*
X147682438Y-58110475D02*
X147634819Y-58015237D01*
X147634819Y-58015237D02*
X147634819Y-57824761D01*
X147634819Y-57824761D02*
X147682438Y-57729523D01*
X147682438Y-57729523D02*
X147730057Y-57681904D01*
X147730057Y-57681904D02*
X147825295Y-57634285D01*
X147825295Y-57634285D02*
X147872914Y-57634285D01*
X147872914Y-57634285D02*
X147968152Y-57681904D01*
X147968152Y-57681904D02*
X148015771Y-57729523D01*
X148015771Y-57729523D02*
X148063390Y-57824761D01*
X148063390Y-57824761D02*
X148063390Y-58015237D01*
X148063390Y-58015237D02*
X148111009Y-58110475D01*
X148111009Y-58110475D02*
X148158628Y-58158094D01*
X148158628Y-58158094D02*
X148253866Y-58205713D01*
X148253866Y-58205713D02*
X148444342Y-58205713D01*
X148444342Y-58205713D02*
X148539580Y-58158094D01*
X148539580Y-58158094D02*
X148587200Y-58110475D01*
X148587200Y-58110475D02*
X148634819Y-58015237D01*
X148634819Y-58015237D02*
X148634819Y-57824761D01*
X148634819Y-57824761D02*
X148587200Y-57729523D01*
X148587200Y-57729523D02*
X148539580Y-57681904D01*
X148539580Y-57681904D02*
X148444342Y-57634285D01*
X148444342Y-57634285D02*
X148253866Y-57634285D01*
X148253866Y-57634285D02*
X148158628Y-57681904D01*
X148158628Y-57681904D02*
X148111009Y-57729523D01*
X148111009Y-57729523D02*
X148063390Y-57824761D01*
X138379580Y-58586666D02*
X138427200Y-58634285D01*
X138427200Y-58634285D02*
X138474819Y-58777142D01*
X138474819Y-58777142D02*
X138474819Y-58872380D01*
X138474819Y-58872380D02*
X138427200Y-59015237D01*
X138427200Y-59015237D02*
X138331961Y-59110475D01*
X138331961Y-59110475D02*
X138236723Y-59158094D01*
X138236723Y-59158094D02*
X138046247Y-59205713D01*
X138046247Y-59205713D02*
X137903390Y-59205713D01*
X137903390Y-59205713D02*
X137712914Y-59158094D01*
X137712914Y-59158094D02*
X137617676Y-59110475D01*
X137617676Y-59110475D02*
X137522438Y-59015237D01*
X137522438Y-59015237D02*
X137474819Y-58872380D01*
X137474819Y-58872380D02*
X137474819Y-58777142D01*
X137474819Y-58777142D02*
X137522438Y-58634285D01*
X137522438Y-58634285D02*
X137570057Y-58586666D01*
X137474819Y-57729523D02*
X137474819Y-57919999D01*
X137474819Y-57919999D02*
X137522438Y-58015237D01*
X137522438Y-58015237D02*
X137570057Y-58062856D01*
X137570057Y-58062856D02*
X137712914Y-58158094D01*
X137712914Y-58158094D02*
X137903390Y-58205713D01*
X137903390Y-58205713D02*
X138284342Y-58205713D01*
X138284342Y-58205713D02*
X138379580Y-58158094D01*
X138379580Y-58158094D02*
X138427200Y-58110475D01*
X138427200Y-58110475D02*
X138474819Y-58015237D01*
X138474819Y-58015237D02*
X138474819Y-57824761D01*
X138474819Y-57824761D02*
X138427200Y-57729523D01*
X138427200Y-57729523D02*
X138379580Y-57681904D01*
X138379580Y-57681904D02*
X138284342Y-57634285D01*
X138284342Y-57634285D02*
X138046247Y-57634285D01*
X138046247Y-57634285D02*
X137951009Y-57681904D01*
X137951009Y-57681904D02*
X137903390Y-57729523D01*
X137903390Y-57729523D02*
X137855771Y-57824761D01*
X137855771Y-57824761D02*
X137855771Y-58015237D01*
X137855771Y-58015237D02*
X137903390Y-58110475D01*
X137903390Y-58110475D02*
X137951009Y-58158094D01*
X137951009Y-58158094D02*
X138046247Y-58205713D01*
X118418628Y-80316190D02*
X118894819Y-80316190D01*
X117894819Y-80649523D02*
X118418628Y-80316190D01*
X118418628Y-80316190D02*
X117894819Y-79982857D01*
X118894819Y-79125714D02*
X118894819Y-79697142D01*
X118894819Y-79411428D02*
X117894819Y-79411428D01*
X117894819Y-79411428D02*
X118037676Y-79506666D01*
X118037676Y-79506666D02*
X118132914Y-79601904D01*
X118132914Y-79601904D02*
X118180533Y-79697142D01*
X62571428Y-67454819D02*
X62095238Y-67454819D01*
X62095238Y-67454819D02*
X62095238Y-66454819D01*
X62904762Y-66931009D02*
X63238095Y-66931009D01*
X63380952Y-67454819D02*
X62904762Y-67454819D01*
X62904762Y-67454819D02*
X62904762Y-66454819D01*
X62904762Y-66454819D02*
X63380952Y-66454819D01*
X64142857Y-66931009D02*
X63809524Y-66931009D01*
X63809524Y-67454819D02*
X63809524Y-66454819D01*
X63809524Y-66454819D02*
X64285714Y-66454819D01*
X64523810Y-66454819D02*
X65095238Y-66454819D01*
X64809524Y-67454819D02*
X64809524Y-66454819D01*
X65952381Y-67454819D02*
X65380953Y-67454819D01*
X65666667Y-67454819D02*
X65666667Y-66454819D01*
X65666667Y-66454819D02*
X65571429Y-66597676D01*
X65571429Y-66597676D02*
X65476191Y-66692914D01*
X65476191Y-66692914D02*
X65380953Y-66740533D01*
X128219580Y-68746666D02*
X128267200Y-68794285D01*
X128267200Y-68794285D02*
X128314819Y-68937142D01*
X128314819Y-68937142D02*
X128314819Y-69032380D01*
X128314819Y-69032380D02*
X128267200Y-69175237D01*
X128267200Y-69175237D02*
X128171961Y-69270475D01*
X128171961Y-69270475D02*
X128076723Y-69318094D01*
X128076723Y-69318094D02*
X127886247Y-69365713D01*
X127886247Y-69365713D02*
X127743390Y-69365713D01*
X127743390Y-69365713D02*
X127552914Y-69318094D01*
X127552914Y-69318094D02*
X127457676Y-69270475D01*
X127457676Y-69270475D02*
X127362438Y-69175237D01*
X127362438Y-69175237D02*
X127314819Y-69032380D01*
X127314819Y-69032380D02*
X127314819Y-68937142D01*
X127314819Y-68937142D02*
X127362438Y-68794285D01*
X127362438Y-68794285D02*
X127410057Y-68746666D01*
X128314819Y-67794285D02*
X128314819Y-68365713D01*
X128314819Y-68079999D02*
X127314819Y-68079999D01*
X127314819Y-68079999D02*
X127457676Y-68175237D01*
X127457676Y-68175237D02*
X127552914Y-68270475D01*
X127552914Y-68270475D02*
X127600533Y-68365713D01*
X149785714Y-84369104D02*
X150261904Y-84369104D01*
X149690476Y-84654819D02*
X150023809Y-83654819D01*
X150023809Y-83654819D02*
X150357142Y-84654819D01*
X151214285Y-84654819D02*
X150642857Y-84654819D01*
X150928571Y-84654819D02*
X150928571Y-83654819D01*
X150928571Y-83654819D02*
X150833333Y-83797676D01*
X150833333Y-83797676D02*
X150738095Y-83892914D01*
X150738095Y-83892914D02*
X150642857Y-83940533D01*
X116506666Y-54954819D02*
X116506666Y-55669104D01*
X116506666Y-55669104D02*
X116459047Y-55811961D01*
X116459047Y-55811961D02*
X116363809Y-55907200D01*
X116363809Y-55907200D02*
X116220952Y-55954819D01*
X116220952Y-55954819D02*
X116125714Y-55954819D01*
X117506666Y-55954819D02*
X116935238Y-55954819D01*
X117220952Y-55954819D02*
X117220952Y-54954819D01*
X117220952Y-54954819D02*
X117125714Y-55097676D01*
X117125714Y-55097676D02*
X117030476Y-55192914D01*
X117030476Y-55192914D02*
X116935238Y-55240533D01*
X114133333Y-63954819D02*
X113800000Y-63478628D01*
X113561905Y-63954819D02*
X113561905Y-62954819D01*
X113561905Y-62954819D02*
X113942857Y-62954819D01*
X113942857Y-62954819D02*
X114038095Y-63002438D01*
X114038095Y-63002438D02*
X114085714Y-63050057D01*
X114085714Y-63050057D02*
X114133333Y-63145295D01*
X114133333Y-63145295D02*
X114133333Y-63288152D01*
X114133333Y-63288152D02*
X114085714Y-63383390D01*
X114085714Y-63383390D02*
X114038095Y-63431009D01*
X114038095Y-63431009D02*
X113942857Y-63478628D01*
X113942857Y-63478628D02*
X113561905Y-63478628D01*
X115085714Y-63954819D02*
X114514286Y-63954819D01*
X114800000Y-63954819D02*
X114800000Y-62954819D01*
X114800000Y-62954819D02*
X114704762Y-63097676D01*
X114704762Y-63097676D02*
X114609524Y-63192914D01*
X114609524Y-63192914D02*
X114514286Y-63240533D01*
X95719047Y-46859580D02*
X95671428Y-46907200D01*
X95671428Y-46907200D02*
X95528571Y-46954819D01*
X95528571Y-46954819D02*
X95433333Y-46954819D01*
X95433333Y-46954819D02*
X95290476Y-46907200D01*
X95290476Y-46907200D02*
X95195238Y-46811961D01*
X95195238Y-46811961D02*
X95147619Y-46716723D01*
X95147619Y-46716723D02*
X95100000Y-46526247D01*
X95100000Y-46526247D02*
X95100000Y-46383390D01*
X95100000Y-46383390D02*
X95147619Y-46192914D01*
X95147619Y-46192914D02*
X95195238Y-46097676D01*
X95195238Y-46097676D02*
X95290476Y-46002438D01*
X95290476Y-46002438D02*
X95433333Y-45954819D01*
X95433333Y-45954819D02*
X95528571Y-45954819D01*
X95528571Y-45954819D02*
X95671428Y-46002438D01*
X95671428Y-46002438D02*
X95719047Y-46050057D01*
X96147619Y-46954819D02*
X96147619Y-46288152D01*
X96147619Y-46478628D02*
X96195238Y-46383390D01*
X96195238Y-46383390D02*
X96242857Y-46335771D01*
X96242857Y-46335771D02*
X96338095Y-46288152D01*
X96338095Y-46288152D02*
X96433333Y-46288152D01*
X97147619Y-46907200D02*
X97052381Y-46954819D01*
X97052381Y-46954819D02*
X96861905Y-46954819D01*
X96861905Y-46954819D02*
X96766667Y-46907200D01*
X96766667Y-46907200D02*
X96719048Y-46811961D01*
X96719048Y-46811961D02*
X96719048Y-46431009D01*
X96719048Y-46431009D02*
X96766667Y-46335771D01*
X96766667Y-46335771D02*
X96861905Y-46288152D01*
X96861905Y-46288152D02*
X97052381Y-46288152D01*
X97052381Y-46288152D02*
X97147619Y-46335771D01*
X97147619Y-46335771D02*
X97195238Y-46431009D01*
X97195238Y-46431009D02*
X97195238Y-46526247D01*
X97195238Y-46526247D02*
X96719048Y-46621485D01*
X98052381Y-46954819D02*
X98052381Y-45954819D01*
X98052381Y-46907200D02*
X97957143Y-46954819D01*
X97957143Y-46954819D02*
X97766667Y-46954819D01*
X97766667Y-46954819D02*
X97671429Y-46907200D01*
X97671429Y-46907200D02*
X97623810Y-46859580D01*
X97623810Y-46859580D02*
X97576191Y-46764342D01*
X97576191Y-46764342D02*
X97576191Y-46478628D01*
X97576191Y-46478628D02*
X97623810Y-46383390D01*
X97623810Y-46383390D02*
X97671429Y-46335771D01*
X97671429Y-46335771D02*
X97766667Y-46288152D01*
X97766667Y-46288152D02*
X97957143Y-46288152D01*
X97957143Y-46288152D02*
X98052381Y-46335771D01*
X98528572Y-46954819D02*
X98528572Y-46288152D01*
X98528572Y-45954819D02*
X98480953Y-46002438D01*
X98480953Y-46002438D02*
X98528572Y-46050057D01*
X98528572Y-46050057D02*
X98576191Y-46002438D01*
X98576191Y-46002438D02*
X98528572Y-45954819D01*
X98528572Y-45954819D02*
X98528572Y-46050057D01*
X98861905Y-46288152D02*
X99242857Y-46288152D01*
X99004762Y-45954819D02*
X99004762Y-46811961D01*
X99004762Y-46811961D02*
X99052381Y-46907200D01*
X99052381Y-46907200D02*
X99147619Y-46954819D01*
X99147619Y-46954819D02*
X99242857Y-46954819D01*
X100100000Y-46954819D02*
X99528572Y-46954819D01*
X99814286Y-46954819D02*
X99814286Y-45954819D01*
X99814286Y-45954819D02*
X99719048Y-46097676D01*
X99719048Y-46097676D02*
X99623810Y-46192914D01*
X99623810Y-46192914D02*
X99528572Y-46240533D01*
X160595238Y-74431009D02*
X160738095Y-74478628D01*
X160738095Y-74478628D02*
X160785714Y-74526247D01*
X160785714Y-74526247D02*
X160833333Y-74621485D01*
X160833333Y-74621485D02*
X160833333Y-74764342D01*
X160833333Y-74764342D02*
X160785714Y-74859580D01*
X160785714Y-74859580D02*
X160738095Y-74907200D01*
X160738095Y-74907200D02*
X160642857Y-74954819D01*
X160642857Y-74954819D02*
X160261905Y-74954819D01*
X160261905Y-74954819D02*
X160261905Y-73954819D01*
X160261905Y-73954819D02*
X160595238Y-73954819D01*
X160595238Y-73954819D02*
X160690476Y-74002438D01*
X160690476Y-74002438D02*
X160738095Y-74050057D01*
X160738095Y-74050057D02*
X160785714Y-74145295D01*
X160785714Y-74145295D02*
X160785714Y-74240533D01*
X160785714Y-74240533D02*
X160738095Y-74335771D01*
X160738095Y-74335771D02*
X160690476Y-74383390D01*
X160690476Y-74383390D02*
X160595238Y-74431009D01*
X160595238Y-74431009D02*
X160261905Y-74431009D01*
X161785714Y-74954819D02*
X161214286Y-74954819D01*
X161500000Y-74954819D02*
X161500000Y-73954819D01*
X161500000Y-73954819D02*
X161404762Y-74097676D01*
X161404762Y-74097676D02*
X161309524Y-74192914D01*
X161309524Y-74192914D02*
X161214286Y-74240533D01*
X106630952Y-88107200D02*
X106773809Y-88154819D01*
X106773809Y-88154819D02*
X107011904Y-88154819D01*
X107011904Y-88154819D02*
X107107142Y-88107200D01*
X107107142Y-88107200D02*
X107154761Y-88059580D01*
X107154761Y-88059580D02*
X107202380Y-87964342D01*
X107202380Y-87964342D02*
X107202380Y-87869104D01*
X107202380Y-87869104D02*
X107154761Y-87773866D01*
X107154761Y-87773866D02*
X107107142Y-87726247D01*
X107107142Y-87726247D02*
X107011904Y-87678628D01*
X107011904Y-87678628D02*
X106821428Y-87631009D01*
X106821428Y-87631009D02*
X106726190Y-87583390D01*
X106726190Y-87583390D02*
X106678571Y-87535771D01*
X106678571Y-87535771D02*
X106630952Y-87440533D01*
X106630952Y-87440533D02*
X106630952Y-87345295D01*
X106630952Y-87345295D02*
X106678571Y-87250057D01*
X106678571Y-87250057D02*
X106726190Y-87202438D01*
X106726190Y-87202438D02*
X106821428Y-87154819D01*
X106821428Y-87154819D02*
X107059523Y-87154819D01*
X107059523Y-87154819D02*
X107202380Y-87202438D01*
X107630952Y-87631009D02*
X107964285Y-87631009D01*
X108107142Y-88154819D02*
X107630952Y-88154819D01*
X107630952Y-88154819D02*
X107630952Y-87154819D01*
X107630952Y-87154819D02*
X108107142Y-87154819D01*
X109011904Y-88154819D02*
X108535714Y-88154819D01*
X108535714Y-88154819D02*
X108535714Y-87154819D01*
X109869047Y-88154819D02*
X109297619Y-88154819D01*
X109583333Y-88154819D02*
X109583333Y-87154819D01*
X109583333Y-87154819D02*
X109488095Y-87297676D01*
X109488095Y-87297676D02*
X109392857Y-87392914D01*
X109392857Y-87392914D02*
X109297619Y-87440533D01*
X128897142Y-61319580D02*
X128849523Y-61367200D01*
X128849523Y-61367200D02*
X128706666Y-61414819D01*
X128706666Y-61414819D02*
X128611428Y-61414819D01*
X128611428Y-61414819D02*
X128468571Y-61367200D01*
X128468571Y-61367200D02*
X128373333Y-61271961D01*
X128373333Y-61271961D02*
X128325714Y-61176723D01*
X128325714Y-61176723D02*
X128278095Y-60986247D01*
X128278095Y-60986247D02*
X128278095Y-60843390D01*
X128278095Y-60843390D02*
X128325714Y-60652914D01*
X128325714Y-60652914D02*
X128373333Y-60557676D01*
X128373333Y-60557676D02*
X128468571Y-60462438D01*
X128468571Y-60462438D02*
X128611428Y-60414819D01*
X128611428Y-60414819D02*
X128706666Y-60414819D01*
X128706666Y-60414819D02*
X128849523Y-60462438D01*
X128849523Y-60462438D02*
X128897142Y-60510057D01*
X129849523Y-61414819D02*
X129278095Y-61414819D01*
X129563809Y-61414819D02*
X129563809Y-60414819D01*
X129563809Y-60414819D02*
X129468571Y-60557676D01*
X129468571Y-60557676D02*
X129373333Y-60652914D01*
X129373333Y-60652914D02*
X129278095Y-60700533D01*
X130468571Y-60414819D02*
X130563809Y-60414819D01*
X130563809Y-60414819D02*
X130659047Y-60462438D01*
X130659047Y-60462438D02*
X130706666Y-60510057D01*
X130706666Y-60510057D02*
X130754285Y-60605295D01*
X130754285Y-60605295D02*
X130801904Y-60795771D01*
X130801904Y-60795771D02*
X130801904Y-61033866D01*
X130801904Y-61033866D02*
X130754285Y-61224342D01*
X130754285Y-61224342D02*
X130706666Y-61319580D01*
X130706666Y-61319580D02*
X130659047Y-61367200D01*
X130659047Y-61367200D02*
X130563809Y-61414819D01*
X130563809Y-61414819D02*
X130468571Y-61414819D01*
X130468571Y-61414819D02*
X130373333Y-61367200D01*
X130373333Y-61367200D02*
X130325714Y-61319580D01*
X130325714Y-61319580D02*
X130278095Y-61224342D01*
X130278095Y-61224342D02*
X130230476Y-61033866D01*
X130230476Y-61033866D02*
X130230476Y-60795771D01*
X130230476Y-60795771D02*
X130278095Y-60605295D01*
X130278095Y-60605295D02*
X130325714Y-60510057D01*
X130325714Y-60510057D02*
X130373333Y-60462438D01*
X130373333Y-60462438D02*
X130468571Y-60414819D01*
X137690476Y-73654819D02*
X138357142Y-74654819D01*
X138357142Y-73654819D02*
X137690476Y-74654819D01*
X139261904Y-74654819D02*
X138690476Y-74654819D01*
X138976190Y-74654819D02*
X138976190Y-73654819D01*
X138976190Y-73654819D02*
X138880952Y-73797676D01*
X138880952Y-73797676D02*
X138785714Y-73892914D01*
X138785714Y-73892914D02*
X138690476Y-73940533D01*
X107899580Y-60012857D02*
X107947200Y-60060476D01*
X107947200Y-60060476D02*
X107994819Y-60203333D01*
X107994819Y-60203333D02*
X107994819Y-60298571D01*
X107994819Y-60298571D02*
X107947200Y-60441428D01*
X107947200Y-60441428D02*
X107851961Y-60536666D01*
X107851961Y-60536666D02*
X107756723Y-60584285D01*
X107756723Y-60584285D02*
X107566247Y-60631904D01*
X107566247Y-60631904D02*
X107423390Y-60631904D01*
X107423390Y-60631904D02*
X107232914Y-60584285D01*
X107232914Y-60584285D02*
X107137676Y-60536666D01*
X107137676Y-60536666D02*
X107042438Y-60441428D01*
X107042438Y-60441428D02*
X106994819Y-60298571D01*
X106994819Y-60298571D02*
X106994819Y-60203333D01*
X106994819Y-60203333D02*
X107042438Y-60060476D01*
X107042438Y-60060476D02*
X107090057Y-60012857D01*
X107994819Y-59060476D02*
X107994819Y-59631904D01*
X107994819Y-59346190D02*
X106994819Y-59346190D01*
X106994819Y-59346190D02*
X107137676Y-59441428D01*
X107137676Y-59441428D02*
X107232914Y-59536666D01*
X107232914Y-59536666D02*
X107280533Y-59631904D01*
X106994819Y-58727142D02*
X106994819Y-58108095D01*
X106994819Y-58108095D02*
X107375771Y-58441428D01*
X107375771Y-58441428D02*
X107375771Y-58298571D01*
X107375771Y-58298571D02*
X107423390Y-58203333D01*
X107423390Y-58203333D02*
X107471009Y-58155714D01*
X107471009Y-58155714D02*
X107566247Y-58108095D01*
X107566247Y-58108095D02*
X107804342Y-58108095D01*
X107804342Y-58108095D02*
X107899580Y-58155714D01*
X107899580Y-58155714D02*
X107947200Y-58203333D01*
X107947200Y-58203333D02*
X107994819Y-58298571D01*
X107994819Y-58298571D02*
X107994819Y-58584285D01*
X107994819Y-58584285D02*
X107947200Y-58679523D01*
X107947200Y-58679523D02*
X107899580Y-58727142D01*
X151484883Y-55063862D02*
X151484883Y-54063122D01*
X151484883Y-54444356D02*
X151580192Y-54396702D01*
X151580192Y-54396702D02*
X151770809Y-54396702D01*
X151770809Y-54396702D02*
X151866117Y-54444356D01*
X151866117Y-54444356D02*
X151913772Y-54492010D01*
X151913772Y-54492010D02*
X151961426Y-54587319D01*
X151961426Y-54587319D02*
X151961426Y-54873245D01*
X151961426Y-54873245D02*
X151913772Y-54968553D01*
X151913772Y-54968553D02*
X151866117Y-55016208D01*
X151866117Y-55016208D02*
X151770809Y-55063862D01*
X151770809Y-55063862D02*
X151580192Y-55063862D01*
X151580192Y-55063862D02*
X151484883Y-55016208D01*
X152962165Y-55063862D02*
X152628585Y-54587319D01*
X152390314Y-55063862D02*
X152390314Y-54063122D01*
X152390314Y-54063122D02*
X152771548Y-54063122D01*
X152771548Y-54063122D02*
X152866857Y-54110776D01*
X152866857Y-54110776D02*
X152914511Y-54158430D01*
X152914511Y-54158430D02*
X152962165Y-54253739D01*
X152962165Y-54253739D02*
X152962165Y-54396702D01*
X152962165Y-54396702D02*
X152914511Y-54492010D01*
X152914511Y-54492010D02*
X152866857Y-54539665D01*
X152866857Y-54539665D02*
X152771548Y-54587319D01*
X152771548Y-54587319D02*
X152390314Y-54587319D01*
X153915251Y-55063862D02*
X153343400Y-55063862D01*
X153629325Y-55063862D02*
X153629325Y-54063122D01*
X153629325Y-54063122D02*
X153534017Y-54206085D01*
X153534017Y-54206085D02*
X153438708Y-54301393D01*
X153438708Y-54301393D02*
X153343400Y-54349048D01*
X103378095Y-64434819D02*
X103378095Y-65244342D01*
X103378095Y-65244342D02*
X103425714Y-65339580D01*
X103425714Y-65339580D02*
X103473333Y-65387200D01*
X103473333Y-65387200D02*
X103568571Y-65434819D01*
X103568571Y-65434819D02*
X103759047Y-65434819D01*
X103759047Y-65434819D02*
X103854285Y-65387200D01*
X103854285Y-65387200D02*
X103901904Y-65339580D01*
X103901904Y-65339580D02*
X103949523Y-65244342D01*
X103949523Y-65244342D02*
X103949523Y-64434819D01*
X104330476Y-64434819D02*
X104949523Y-64434819D01*
X104949523Y-64434819D02*
X104616190Y-64815771D01*
X104616190Y-64815771D02*
X104759047Y-64815771D01*
X104759047Y-64815771D02*
X104854285Y-64863390D01*
X104854285Y-64863390D02*
X104901904Y-64911009D01*
X104901904Y-64911009D02*
X104949523Y-65006247D01*
X104949523Y-65006247D02*
X104949523Y-65244342D01*
X104949523Y-65244342D02*
X104901904Y-65339580D01*
X104901904Y-65339580D02*
X104854285Y-65387200D01*
X104854285Y-65387200D02*
X104759047Y-65434819D01*
X104759047Y-65434819D02*
X104473333Y-65434819D01*
X104473333Y-65434819D02*
X104378095Y-65387200D01*
X104378095Y-65387200D02*
X104330476Y-65339580D01*
X77190476Y-67454819D02*
X76857143Y-66978628D01*
X76619048Y-67454819D02*
X76619048Y-66454819D01*
X76619048Y-66454819D02*
X77000000Y-66454819D01*
X77000000Y-66454819D02*
X77095238Y-66502438D01*
X77095238Y-66502438D02*
X77142857Y-66550057D01*
X77142857Y-66550057D02*
X77190476Y-66645295D01*
X77190476Y-66645295D02*
X77190476Y-66788152D01*
X77190476Y-66788152D02*
X77142857Y-66883390D01*
X77142857Y-66883390D02*
X77095238Y-66931009D01*
X77095238Y-66931009D02*
X77000000Y-66978628D01*
X77000000Y-66978628D02*
X76619048Y-66978628D01*
X77619048Y-67454819D02*
X77619048Y-66454819D01*
X78619047Y-66502438D02*
X78523809Y-66454819D01*
X78523809Y-66454819D02*
X78380952Y-66454819D01*
X78380952Y-66454819D02*
X78238095Y-66502438D01*
X78238095Y-66502438D02*
X78142857Y-66597676D01*
X78142857Y-66597676D02*
X78095238Y-66692914D01*
X78095238Y-66692914D02*
X78047619Y-66883390D01*
X78047619Y-66883390D02*
X78047619Y-67026247D01*
X78047619Y-67026247D02*
X78095238Y-67216723D01*
X78095238Y-67216723D02*
X78142857Y-67311961D01*
X78142857Y-67311961D02*
X78238095Y-67407200D01*
X78238095Y-67407200D02*
X78380952Y-67454819D01*
X78380952Y-67454819D02*
X78476190Y-67454819D01*
X78476190Y-67454819D02*
X78619047Y-67407200D01*
X78619047Y-67407200D02*
X78666666Y-67359580D01*
X78666666Y-67359580D02*
X78666666Y-67026247D01*
X78666666Y-67026247D02*
X78476190Y-67026247D01*
X79095238Y-67454819D02*
X79095238Y-66454819D01*
X79095238Y-66931009D02*
X79666666Y-66931009D01*
X79666666Y-67454819D02*
X79666666Y-66454819D01*
X80000000Y-66454819D02*
X80571428Y-66454819D01*
X80285714Y-67454819D02*
X80285714Y-66454819D01*
X81428571Y-67454819D02*
X80857143Y-67454819D01*
X81142857Y-67454819D02*
X81142857Y-66454819D01*
X81142857Y-66454819D02*
X81047619Y-66597676D01*
X81047619Y-66597676D02*
X80952381Y-66692914D01*
X80952381Y-66692914D02*
X80857143Y-66740533D01*
X110998095Y-64359819D02*
X110998095Y-65169342D01*
X110998095Y-65169342D02*
X111045714Y-65264580D01*
X111045714Y-65264580D02*
X111093333Y-65312200D01*
X111093333Y-65312200D02*
X111188571Y-65359819D01*
X111188571Y-65359819D02*
X111379047Y-65359819D01*
X111379047Y-65359819D02*
X111474285Y-65312200D01*
X111474285Y-65312200D02*
X111521904Y-65264580D01*
X111521904Y-65264580D02*
X111569523Y-65169342D01*
X111569523Y-65169342D02*
X111569523Y-64359819D01*
X112569523Y-65359819D02*
X111998095Y-65359819D01*
X112283809Y-65359819D02*
X112283809Y-64359819D01*
X112283809Y-64359819D02*
X112188571Y-64502676D01*
X112188571Y-64502676D02*
X112093333Y-64597914D01*
X112093333Y-64597914D02*
X111998095Y-64645533D01*
X133299580Y-58586666D02*
X133347200Y-58634285D01*
X133347200Y-58634285D02*
X133394819Y-58777142D01*
X133394819Y-58777142D02*
X133394819Y-58872380D01*
X133394819Y-58872380D02*
X133347200Y-59015237D01*
X133347200Y-59015237D02*
X133251961Y-59110475D01*
X133251961Y-59110475D02*
X133156723Y-59158094D01*
X133156723Y-59158094D02*
X132966247Y-59205713D01*
X132966247Y-59205713D02*
X132823390Y-59205713D01*
X132823390Y-59205713D02*
X132632914Y-59158094D01*
X132632914Y-59158094D02*
X132537676Y-59110475D01*
X132537676Y-59110475D02*
X132442438Y-59015237D01*
X132442438Y-59015237D02*
X132394819Y-58872380D01*
X132394819Y-58872380D02*
X132394819Y-58777142D01*
X132394819Y-58777142D02*
X132442438Y-58634285D01*
X132442438Y-58634285D02*
X132490057Y-58586666D01*
X132394819Y-57681904D02*
X132394819Y-58158094D01*
X132394819Y-58158094D02*
X132871009Y-58205713D01*
X132871009Y-58205713D02*
X132823390Y-58158094D01*
X132823390Y-58158094D02*
X132775771Y-58062856D01*
X132775771Y-58062856D02*
X132775771Y-57824761D01*
X132775771Y-57824761D02*
X132823390Y-57729523D01*
X132823390Y-57729523D02*
X132871009Y-57681904D01*
X132871009Y-57681904D02*
X132966247Y-57634285D01*
X132966247Y-57634285D02*
X133204342Y-57634285D01*
X133204342Y-57634285D02*
X133299580Y-57681904D01*
X133299580Y-57681904D02*
X133347200Y-57729523D01*
X133347200Y-57729523D02*
X133394819Y-57824761D01*
X133394819Y-57824761D02*
X133394819Y-58062856D01*
X133394819Y-58062856D02*
X133347200Y-58158094D01*
X133347200Y-58158094D02*
X133299580Y-58205713D01*
X143459580Y-58586666D02*
X143507200Y-58634285D01*
X143507200Y-58634285D02*
X143554819Y-58777142D01*
X143554819Y-58777142D02*
X143554819Y-58872380D01*
X143554819Y-58872380D02*
X143507200Y-59015237D01*
X143507200Y-59015237D02*
X143411961Y-59110475D01*
X143411961Y-59110475D02*
X143316723Y-59158094D01*
X143316723Y-59158094D02*
X143126247Y-59205713D01*
X143126247Y-59205713D02*
X142983390Y-59205713D01*
X142983390Y-59205713D02*
X142792914Y-59158094D01*
X142792914Y-59158094D02*
X142697676Y-59110475D01*
X142697676Y-59110475D02*
X142602438Y-59015237D01*
X142602438Y-59015237D02*
X142554819Y-58872380D01*
X142554819Y-58872380D02*
X142554819Y-58777142D01*
X142554819Y-58777142D02*
X142602438Y-58634285D01*
X142602438Y-58634285D02*
X142650057Y-58586666D01*
X142554819Y-58253332D02*
X142554819Y-57586666D01*
X142554819Y-57586666D02*
X143554819Y-58015237D01*
X69142857Y-74954819D02*
X69142857Y-73954819D01*
X69142857Y-73954819D02*
X69380952Y-73954819D01*
X69380952Y-73954819D02*
X69523809Y-74002438D01*
X69523809Y-74002438D02*
X69619047Y-74097676D01*
X69619047Y-74097676D02*
X69666666Y-74192914D01*
X69666666Y-74192914D02*
X69714285Y-74383390D01*
X69714285Y-74383390D02*
X69714285Y-74526247D01*
X69714285Y-74526247D02*
X69666666Y-74716723D01*
X69666666Y-74716723D02*
X69619047Y-74811961D01*
X69619047Y-74811961D02*
X69523809Y-74907200D01*
X69523809Y-74907200D02*
X69380952Y-74954819D01*
X69380952Y-74954819D02*
X69142857Y-74954819D01*
X70333333Y-73954819D02*
X70523809Y-73954819D01*
X70523809Y-73954819D02*
X70619047Y-74002438D01*
X70619047Y-74002438D02*
X70714285Y-74097676D01*
X70714285Y-74097676D02*
X70761904Y-74288152D01*
X70761904Y-74288152D02*
X70761904Y-74621485D01*
X70761904Y-74621485D02*
X70714285Y-74811961D01*
X70714285Y-74811961D02*
X70619047Y-74907200D01*
X70619047Y-74907200D02*
X70523809Y-74954819D01*
X70523809Y-74954819D02*
X70333333Y-74954819D01*
X70333333Y-74954819D02*
X70238095Y-74907200D01*
X70238095Y-74907200D02*
X70142857Y-74811961D01*
X70142857Y-74811961D02*
X70095238Y-74621485D01*
X70095238Y-74621485D02*
X70095238Y-74288152D01*
X70095238Y-74288152D02*
X70142857Y-74097676D01*
X70142857Y-74097676D02*
X70238095Y-74002438D01*
X70238095Y-74002438D02*
X70333333Y-73954819D01*
X71095238Y-73954819D02*
X71333333Y-74954819D01*
X71333333Y-74954819D02*
X71523809Y-74240533D01*
X71523809Y-74240533D02*
X71714285Y-74954819D01*
X71714285Y-74954819D02*
X71952381Y-73954819D01*
X72333333Y-74954819D02*
X72333333Y-73954819D01*
X72333333Y-73954819D02*
X72904761Y-74954819D01*
X72904761Y-74954819D02*
X72904761Y-73954819D01*
X73904761Y-74954819D02*
X73333333Y-74954819D01*
X73619047Y-74954819D02*
X73619047Y-73954819D01*
X73619047Y-73954819D02*
X73523809Y-74097676D01*
X73523809Y-74097676D02*
X73428571Y-74192914D01*
X73428571Y-74192914D02*
X73333333Y-74240533D01*
X95877142Y-75699580D02*
X95829523Y-75747200D01*
X95829523Y-75747200D02*
X95686666Y-75794819D01*
X95686666Y-75794819D02*
X95591428Y-75794819D01*
X95591428Y-75794819D02*
X95448571Y-75747200D01*
X95448571Y-75747200D02*
X95353333Y-75651961D01*
X95353333Y-75651961D02*
X95305714Y-75556723D01*
X95305714Y-75556723D02*
X95258095Y-75366247D01*
X95258095Y-75366247D02*
X95258095Y-75223390D01*
X95258095Y-75223390D02*
X95305714Y-75032914D01*
X95305714Y-75032914D02*
X95353333Y-74937676D01*
X95353333Y-74937676D02*
X95448571Y-74842438D01*
X95448571Y-74842438D02*
X95591428Y-74794819D01*
X95591428Y-74794819D02*
X95686666Y-74794819D01*
X95686666Y-74794819D02*
X95829523Y-74842438D01*
X95829523Y-74842438D02*
X95877142Y-74890057D01*
X96829523Y-75794819D02*
X96258095Y-75794819D01*
X96543809Y-75794819D02*
X96543809Y-74794819D01*
X96543809Y-74794819D02*
X96448571Y-74937676D01*
X96448571Y-74937676D02*
X96353333Y-75032914D01*
X96353333Y-75032914D02*
X96258095Y-75080533D01*
X97686666Y-75128152D02*
X97686666Y-75794819D01*
X97448571Y-74747200D02*
X97210476Y-75461485D01*
X97210476Y-75461485D02*
X97829523Y-75461485D01*
X128219580Y-58586666D02*
X128267200Y-58634285D01*
X128267200Y-58634285D02*
X128314819Y-58777142D01*
X128314819Y-58777142D02*
X128314819Y-58872380D01*
X128314819Y-58872380D02*
X128267200Y-59015237D01*
X128267200Y-59015237D02*
X128171961Y-59110475D01*
X128171961Y-59110475D02*
X128076723Y-59158094D01*
X128076723Y-59158094D02*
X127886247Y-59205713D01*
X127886247Y-59205713D02*
X127743390Y-59205713D01*
X127743390Y-59205713D02*
X127552914Y-59158094D01*
X127552914Y-59158094D02*
X127457676Y-59110475D01*
X127457676Y-59110475D02*
X127362438Y-59015237D01*
X127362438Y-59015237D02*
X127314819Y-58872380D01*
X127314819Y-58872380D02*
X127314819Y-58777142D01*
X127314819Y-58777142D02*
X127362438Y-58634285D01*
X127362438Y-58634285D02*
X127410057Y-58586666D01*
X127648152Y-57729523D02*
X128314819Y-57729523D01*
X127267200Y-57967618D02*
X127981485Y-58205713D01*
X127981485Y-58205713D02*
X127981485Y-57586666D01*
X120599580Y-80972857D02*
X120647200Y-81020476D01*
X120647200Y-81020476D02*
X120694819Y-81163333D01*
X120694819Y-81163333D02*
X120694819Y-81258571D01*
X120694819Y-81258571D02*
X120647200Y-81401428D01*
X120647200Y-81401428D02*
X120551961Y-81496666D01*
X120551961Y-81496666D02*
X120456723Y-81544285D01*
X120456723Y-81544285D02*
X120266247Y-81591904D01*
X120266247Y-81591904D02*
X120123390Y-81591904D01*
X120123390Y-81591904D02*
X119932914Y-81544285D01*
X119932914Y-81544285D02*
X119837676Y-81496666D01*
X119837676Y-81496666D02*
X119742438Y-81401428D01*
X119742438Y-81401428D02*
X119694819Y-81258571D01*
X119694819Y-81258571D02*
X119694819Y-81163333D01*
X119694819Y-81163333D02*
X119742438Y-81020476D01*
X119742438Y-81020476D02*
X119790057Y-80972857D01*
X120694819Y-80020476D02*
X120694819Y-80591904D01*
X120694819Y-80306190D02*
X119694819Y-80306190D01*
X119694819Y-80306190D02*
X119837676Y-80401428D01*
X119837676Y-80401428D02*
X119932914Y-80496666D01*
X119932914Y-80496666D02*
X119980533Y-80591904D01*
X119694819Y-79163333D02*
X119694819Y-79353809D01*
X119694819Y-79353809D02*
X119742438Y-79449047D01*
X119742438Y-79449047D02*
X119790057Y-79496666D01*
X119790057Y-79496666D02*
X119932914Y-79591904D01*
X119932914Y-79591904D02*
X120123390Y-79639523D01*
X120123390Y-79639523D02*
X120504342Y-79639523D01*
X120504342Y-79639523D02*
X120599580Y-79591904D01*
X120599580Y-79591904D02*
X120647200Y-79544285D01*
X120647200Y-79544285D02*
X120694819Y-79449047D01*
X120694819Y-79449047D02*
X120694819Y-79258571D01*
X120694819Y-79258571D02*
X120647200Y-79163333D01*
X120647200Y-79163333D02*
X120599580Y-79115714D01*
X120599580Y-79115714D02*
X120504342Y-79068095D01*
X120504342Y-79068095D02*
X120266247Y-79068095D01*
X120266247Y-79068095D02*
X120171009Y-79115714D01*
X120171009Y-79115714D02*
X120123390Y-79163333D01*
X120123390Y-79163333D02*
X120075771Y-79258571D01*
X120075771Y-79258571D02*
X120075771Y-79449047D01*
X120075771Y-79449047D02*
X120123390Y-79544285D01*
X120123390Y-79544285D02*
X120171009Y-79591904D01*
X120171009Y-79591904D02*
X120266247Y-79639523D01*
X150023809Y-64178628D02*
X150023809Y-64654819D01*
X149690476Y-63654819D02*
X150023809Y-64178628D01*
X150023809Y-64178628D02*
X150357142Y-63654819D01*
X150642857Y-63750057D02*
X150690476Y-63702438D01*
X150690476Y-63702438D02*
X150785714Y-63654819D01*
X150785714Y-63654819D02*
X151023809Y-63654819D01*
X151023809Y-63654819D02*
X151119047Y-63702438D01*
X151119047Y-63702438D02*
X151166666Y-63750057D01*
X151166666Y-63750057D02*
X151214285Y-63845295D01*
X151214285Y-63845295D02*
X151214285Y-63940533D01*
X151214285Y-63940533D02*
X151166666Y-64083390D01*
X151166666Y-64083390D02*
X150595238Y-64654819D01*
X150595238Y-64654819D02*
X151214285Y-64654819D01*
X117886428Y-86989819D02*
X117553095Y-86513628D01*
X117315000Y-86989819D02*
X117315000Y-85989819D01*
X117315000Y-85989819D02*
X117695952Y-85989819D01*
X117695952Y-85989819D02*
X117791190Y-86037438D01*
X117791190Y-86037438D02*
X117838809Y-86085057D01*
X117838809Y-86085057D02*
X117886428Y-86180295D01*
X117886428Y-86180295D02*
X117886428Y-86323152D01*
X117886428Y-86323152D02*
X117838809Y-86418390D01*
X117838809Y-86418390D02*
X117791190Y-86466009D01*
X117791190Y-86466009D02*
X117695952Y-86513628D01*
X117695952Y-86513628D02*
X117315000Y-86513628D01*
X118315000Y-86989819D02*
X118315000Y-86323152D01*
X118315000Y-85989819D02*
X118267381Y-86037438D01*
X118267381Y-86037438D02*
X118315000Y-86085057D01*
X118315000Y-86085057D02*
X118362619Y-86037438D01*
X118362619Y-86037438D02*
X118315000Y-85989819D01*
X118315000Y-85989819D02*
X118315000Y-86085057D01*
X119219761Y-86323152D02*
X119219761Y-87132676D01*
X119219761Y-87132676D02*
X119172142Y-87227914D01*
X119172142Y-87227914D02*
X119124523Y-87275533D01*
X119124523Y-87275533D02*
X119029285Y-87323152D01*
X119029285Y-87323152D02*
X118886428Y-87323152D01*
X118886428Y-87323152D02*
X118791190Y-87275533D01*
X119219761Y-86942200D02*
X119124523Y-86989819D01*
X119124523Y-86989819D02*
X118934047Y-86989819D01*
X118934047Y-86989819D02*
X118838809Y-86942200D01*
X118838809Y-86942200D02*
X118791190Y-86894580D01*
X118791190Y-86894580D02*
X118743571Y-86799342D01*
X118743571Y-86799342D02*
X118743571Y-86513628D01*
X118743571Y-86513628D02*
X118791190Y-86418390D01*
X118791190Y-86418390D02*
X118838809Y-86370771D01*
X118838809Y-86370771D02*
X118934047Y-86323152D01*
X118934047Y-86323152D02*
X119124523Y-86323152D01*
X119124523Y-86323152D02*
X119219761Y-86370771D01*
X119695952Y-86989819D02*
X119695952Y-85989819D01*
X120124523Y-86989819D02*
X120124523Y-86466009D01*
X120124523Y-86466009D02*
X120076904Y-86370771D01*
X120076904Y-86370771D02*
X119981666Y-86323152D01*
X119981666Y-86323152D02*
X119838809Y-86323152D01*
X119838809Y-86323152D02*
X119743571Y-86370771D01*
X119743571Y-86370771D02*
X119695952Y-86418390D01*
X120457857Y-86323152D02*
X120838809Y-86323152D01*
X120600714Y-85989819D02*
X120600714Y-86846961D01*
X120600714Y-86846961D02*
X120648333Y-86942200D01*
X120648333Y-86942200D02*
X120743571Y-86989819D01*
X120743571Y-86989819D02*
X120838809Y-86989819D01*
X121124524Y-86942200D02*
X121267381Y-86989819D01*
X121267381Y-86989819D02*
X121505476Y-86989819D01*
X121505476Y-86989819D02*
X121600714Y-86942200D01*
X121600714Y-86942200D02*
X121648333Y-86894580D01*
X121648333Y-86894580D02*
X121695952Y-86799342D01*
X121695952Y-86799342D02*
X121695952Y-86704104D01*
X121695952Y-86704104D02*
X121648333Y-86608866D01*
X121648333Y-86608866D02*
X121600714Y-86561247D01*
X121600714Y-86561247D02*
X121505476Y-86513628D01*
X121505476Y-86513628D02*
X121315000Y-86466009D01*
X121315000Y-86466009D02*
X121219762Y-86418390D01*
X121219762Y-86418390D02*
X121172143Y-86370771D01*
X121172143Y-86370771D02*
X121124524Y-86275533D01*
X121124524Y-86275533D02*
X121124524Y-86180295D01*
X121124524Y-86180295D02*
X121172143Y-86085057D01*
X121172143Y-86085057D02*
X121219762Y-86037438D01*
X121219762Y-86037438D02*
X121315000Y-85989819D01*
X121315000Y-85989819D02*
X121553095Y-85989819D01*
X121553095Y-85989819D02*
X121695952Y-86037438D01*
X121981667Y-86323152D02*
X122362619Y-86323152D01*
X122124524Y-85989819D02*
X122124524Y-86846961D01*
X122124524Y-86846961D02*
X122172143Y-86942200D01*
X122172143Y-86942200D02*
X122267381Y-86989819D01*
X122267381Y-86989819D02*
X122362619Y-86989819D01*
X122695953Y-86989819D02*
X122695953Y-86323152D01*
X122695953Y-85989819D02*
X122648334Y-86037438D01*
X122648334Y-86037438D02*
X122695953Y-86085057D01*
X122695953Y-86085057D02*
X122743572Y-86037438D01*
X122743572Y-86037438D02*
X122695953Y-85989819D01*
X122695953Y-85989819D02*
X122695953Y-86085057D01*
X123600714Y-86942200D02*
X123505476Y-86989819D01*
X123505476Y-86989819D02*
X123315000Y-86989819D01*
X123315000Y-86989819D02*
X123219762Y-86942200D01*
X123219762Y-86942200D02*
X123172143Y-86894580D01*
X123172143Y-86894580D02*
X123124524Y-86799342D01*
X123124524Y-86799342D02*
X123124524Y-86513628D01*
X123124524Y-86513628D02*
X123172143Y-86418390D01*
X123172143Y-86418390D02*
X123219762Y-86370771D01*
X123219762Y-86370771D02*
X123315000Y-86323152D01*
X123315000Y-86323152D02*
X123505476Y-86323152D01*
X123505476Y-86323152D02*
X123600714Y-86370771D01*
X124029286Y-86989819D02*
X124029286Y-85989819D01*
X124124524Y-86608866D02*
X124410238Y-86989819D01*
X124410238Y-86323152D02*
X124029286Y-86704104D01*
X125362619Y-86989819D02*
X124791191Y-86989819D01*
X125076905Y-86989819D02*
X125076905Y-85989819D01*
X125076905Y-85989819D02*
X124981667Y-86132676D01*
X124981667Y-86132676D02*
X124886429Y-86227914D01*
X124886429Y-86227914D02*
X124791191Y-86275533D01*
X119213333Y-58874819D02*
X118880000Y-58398628D01*
X118641905Y-58874819D02*
X118641905Y-57874819D01*
X118641905Y-57874819D02*
X119022857Y-57874819D01*
X119022857Y-57874819D02*
X119118095Y-57922438D01*
X119118095Y-57922438D02*
X119165714Y-57970057D01*
X119165714Y-57970057D02*
X119213333Y-58065295D01*
X119213333Y-58065295D02*
X119213333Y-58208152D01*
X119213333Y-58208152D02*
X119165714Y-58303390D01*
X119165714Y-58303390D02*
X119118095Y-58351009D01*
X119118095Y-58351009D02*
X119022857Y-58398628D01*
X119022857Y-58398628D02*
X118641905Y-58398628D01*
X119594286Y-57970057D02*
X119641905Y-57922438D01*
X119641905Y-57922438D02*
X119737143Y-57874819D01*
X119737143Y-57874819D02*
X119975238Y-57874819D01*
X119975238Y-57874819D02*
X120070476Y-57922438D01*
X120070476Y-57922438D02*
X120118095Y-57970057D01*
X120118095Y-57970057D02*
X120165714Y-58065295D01*
X120165714Y-58065295D02*
X120165714Y-58160533D01*
X120165714Y-58160533D02*
X120118095Y-58303390D01*
X120118095Y-58303390D02*
X119546667Y-58874819D01*
X119546667Y-58874819D02*
X120165714Y-58874819D01*
X153619580Y-58586666D02*
X153667200Y-58634285D01*
X153667200Y-58634285D02*
X153714819Y-58777142D01*
X153714819Y-58777142D02*
X153714819Y-58872380D01*
X153714819Y-58872380D02*
X153667200Y-59015237D01*
X153667200Y-59015237D02*
X153571961Y-59110475D01*
X153571961Y-59110475D02*
X153476723Y-59158094D01*
X153476723Y-59158094D02*
X153286247Y-59205713D01*
X153286247Y-59205713D02*
X153143390Y-59205713D01*
X153143390Y-59205713D02*
X152952914Y-59158094D01*
X152952914Y-59158094D02*
X152857676Y-59110475D01*
X152857676Y-59110475D02*
X152762438Y-59015237D01*
X152762438Y-59015237D02*
X152714819Y-58872380D01*
X152714819Y-58872380D02*
X152714819Y-58777142D01*
X152714819Y-58777142D02*
X152762438Y-58634285D01*
X152762438Y-58634285D02*
X152810057Y-58586666D01*
X153714819Y-58110475D02*
X153714819Y-57919999D01*
X153714819Y-57919999D02*
X153667200Y-57824761D01*
X153667200Y-57824761D02*
X153619580Y-57777142D01*
X153619580Y-57777142D02*
X153476723Y-57681904D01*
X153476723Y-57681904D02*
X153286247Y-57634285D01*
X153286247Y-57634285D02*
X152905295Y-57634285D01*
X152905295Y-57634285D02*
X152810057Y-57681904D01*
X152810057Y-57681904D02*
X152762438Y-57729523D01*
X152762438Y-57729523D02*
X152714819Y-57824761D01*
X152714819Y-57824761D02*
X152714819Y-58015237D01*
X152714819Y-58015237D02*
X152762438Y-58110475D01*
X152762438Y-58110475D02*
X152810057Y-58158094D01*
X152810057Y-58158094D02*
X152905295Y-58205713D01*
X152905295Y-58205713D02*
X153143390Y-58205713D01*
X153143390Y-58205713D02*
X153238628Y-58158094D01*
X153238628Y-58158094D02*
X153286247Y-58110475D01*
X153286247Y-58110475D02*
X153333866Y-58015237D01*
X153333866Y-58015237D02*
X153333866Y-57824761D01*
X153333866Y-57824761D02*
X153286247Y-57729523D01*
X153286247Y-57729523D02*
X153238628Y-57681904D01*
X153238628Y-57681904D02*
X153143390Y-57634285D01*
X123139580Y-58586666D02*
X123187200Y-58634285D01*
X123187200Y-58634285D02*
X123234819Y-58777142D01*
X123234819Y-58777142D02*
X123234819Y-58872380D01*
X123234819Y-58872380D02*
X123187200Y-59015237D01*
X123187200Y-59015237D02*
X123091961Y-59110475D01*
X123091961Y-59110475D02*
X122996723Y-59158094D01*
X122996723Y-59158094D02*
X122806247Y-59205713D01*
X122806247Y-59205713D02*
X122663390Y-59205713D01*
X122663390Y-59205713D02*
X122472914Y-59158094D01*
X122472914Y-59158094D02*
X122377676Y-59110475D01*
X122377676Y-59110475D02*
X122282438Y-59015237D01*
X122282438Y-59015237D02*
X122234819Y-58872380D01*
X122234819Y-58872380D02*
X122234819Y-58777142D01*
X122234819Y-58777142D02*
X122282438Y-58634285D01*
X122282438Y-58634285D02*
X122330057Y-58586666D01*
X122234819Y-58253332D02*
X122234819Y-57634285D01*
X122234819Y-57634285D02*
X122615771Y-57967618D01*
X122615771Y-57967618D02*
X122615771Y-57824761D01*
X122615771Y-57824761D02*
X122663390Y-57729523D01*
X122663390Y-57729523D02*
X122711009Y-57681904D01*
X122711009Y-57681904D02*
X122806247Y-57634285D01*
X122806247Y-57634285D02*
X123044342Y-57634285D01*
X123044342Y-57634285D02*
X123139580Y-57681904D01*
X123139580Y-57681904D02*
X123187200Y-57729523D01*
X123187200Y-57729523D02*
X123234819Y-57824761D01*
X123234819Y-57824761D02*
X123234819Y-58110475D01*
X123234819Y-58110475D02*
X123187200Y-58205713D01*
X123187200Y-58205713D02*
X123139580Y-58253332D01*
X105797619Y-98107200D02*
X105940476Y-98154819D01*
X105940476Y-98154819D02*
X106178571Y-98154819D01*
X106178571Y-98154819D02*
X106273809Y-98107200D01*
X106273809Y-98107200D02*
X106321428Y-98059580D01*
X106321428Y-98059580D02*
X106369047Y-97964342D01*
X106369047Y-97964342D02*
X106369047Y-97869104D01*
X106369047Y-97869104D02*
X106321428Y-97773866D01*
X106321428Y-97773866D02*
X106273809Y-97726247D01*
X106273809Y-97726247D02*
X106178571Y-97678628D01*
X106178571Y-97678628D02*
X105988095Y-97631009D01*
X105988095Y-97631009D02*
X105892857Y-97583390D01*
X105892857Y-97583390D02*
X105845238Y-97535771D01*
X105845238Y-97535771D02*
X105797619Y-97440533D01*
X105797619Y-97440533D02*
X105797619Y-97345295D01*
X105797619Y-97345295D02*
X105845238Y-97250057D01*
X105845238Y-97250057D02*
X105892857Y-97202438D01*
X105892857Y-97202438D02*
X105988095Y-97154819D01*
X105988095Y-97154819D02*
X106226190Y-97154819D01*
X106226190Y-97154819D02*
X106369047Y-97202438D01*
X106654762Y-97154819D02*
X107226190Y-97154819D01*
X106940476Y-98154819D02*
X106940476Y-97154819D01*
X107511905Y-97869104D02*
X107988095Y-97869104D01*
X107416667Y-98154819D02*
X107750000Y-97154819D01*
X107750000Y-97154819D02*
X108083333Y-98154819D01*
X108988095Y-98154819D02*
X108654762Y-97678628D01*
X108416667Y-98154819D02*
X108416667Y-97154819D01*
X108416667Y-97154819D02*
X108797619Y-97154819D01*
X108797619Y-97154819D02*
X108892857Y-97202438D01*
X108892857Y-97202438D02*
X108940476Y-97250057D01*
X108940476Y-97250057D02*
X108988095Y-97345295D01*
X108988095Y-97345295D02*
X108988095Y-97488152D01*
X108988095Y-97488152D02*
X108940476Y-97583390D01*
X108940476Y-97583390D02*
X108892857Y-97631009D01*
X108892857Y-97631009D02*
X108797619Y-97678628D01*
X108797619Y-97678628D02*
X108416667Y-97678628D01*
X109273810Y-97154819D02*
X109845238Y-97154819D01*
X109559524Y-98154819D02*
X109559524Y-97154819D01*
X110702381Y-98154819D02*
X110130953Y-98154819D01*
X110416667Y-98154819D02*
X110416667Y-97154819D01*
X110416667Y-97154819D02*
X110321429Y-97297676D01*
X110321429Y-97297676D02*
X110226191Y-97392914D01*
X110226191Y-97392914D02*
X110130953Y-97440533D01*
X136398095Y-60994819D02*
X136398095Y-61804342D01*
X136398095Y-61804342D02*
X136445714Y-61899580D01*
X136445714Y-61899580D02*
X136493333Y-61947200D01*
X136493333Y-61947200D02*
X136588571Y-61994819D01*
X136588571Y-61994819D02*
X136779047Y-61994819D01*
X136779047Y-61994819D02*
X136874285Y-61947200D01*
X136874285Y-61947200D02*
X136921904Y-61899580D01*
X136921904Y-61899580D02*
X136969523Y-61804342D01*
X136969523Y-61804342D02*
X136969523Y-60994819D01*
X137398095Y-61090057D02*
X137445714Y-61042438D01*
X137445714Y-61042438D02*
X137540952Y-60994819D01*
X137540952Y-60994819D02*
X137779047Y-60994819D01*
X137779047Y-60994819D02*
X137874285Y-61042438D01*
X137874285Y-61042438D02*
X137921904Y-61090057D01*
X137921904Y-61090057D02*
X137969523Y-61185295D01*
X137969523Y-61185295D02*
X137969523Y-61280533D01*
X137969523Y-61280533D02*
X137921904Y-61423390D01*
X137921904Y-61423390D02*
X137350476Y-61994819D01*
X137350476Y-61994819D02*
X137969523Y-61994819D01*
X119213333Y-78334819D02*
X118880000Y-77858628D01*
X118641905Y-78334819D02*
X118641905Y-77334819D01*
X118641905Y-77334819D02*
X119022857Y-77334819D01*
X119022857Y-77334819D02*
X119118095Y-77382438D01*
X119118095Y-77382438D02*
X119165714Y-77430057D01*
X119165714Y-77430057D02*
X119213333Y-77525295D01*
X119213333Y-77525295D02*
X119213333Y-77668152D01*
X119213333Y-77668152D02*
X119165714Y-77763390D01*
X119165714Y-77763390D02*
X119118095Y-77811009D01*
X119118095Y-77811009D02*
X119022857Y-77858628D01*
X119022857Y-77858628D02*
X118641905Y-77858628D01*
X120070476Y-77668152D02*
X120070476Y-78334819D01*
X119832381Y-77287200D02*
X119594286Y-78001485D01*
X119594286Y-78001485D02*
X120213333Y-78001485D01*
X70238095Y-58954819D02*
X70238095Y-59764342D01*
X70238095Y-59764342D02*
X70285714Y-59859580D01*
X70285714Y-59859580D02*
X70333333Y-59907200D01*
X70333333Y-59907200D02*
X70428571Y-59954819D01*
X70428571Y-59954819D02*
X70619047Y-59954819D01*
X70619047Y-59954819D02*
X70714285Y-59907200D01*
X70714285Y-59907200D02*
X70761904Y-59859580D01*
X70761904Y-59859580D02*
X70809523Y-59764342D01*
X70809523Y-59764342D02*
X70809523Y-58954819D01*
X71285714Y-59954819D02*
X71285714Y-58954819D01*
X71285714Y-58954819D02*
X71666666Y-58954819D01*
X71666666Y-58954819D02*
X71761904Y-59002438D01*
X71761904Y-59002438D02*
X71809523Y-59050057D01*
X71809523Y-59050057D02*
X71857142Y-59145295D01*
X71857142Y-59145295D02*
X71857142Y-59288152D01*
X71857142Y-59288152D02*
X71809523Y-59383390D01*
X71809523Y-59383390D02*
X71761904Y-59431009D01*
X71761904Y-59431009D02*
X71666666Y-59478628D01*
X71666666Y-59478628D02*
X71285714Y-59478628D01*
X72809523Y-59954819D02*
X72238095Y-59954819D01*
X72523809Y-59954819D02*
X72523809Y-58954819D01*
X72523809Y-58954819D02*
X72428571Y-59097676D01*
X72428571Y-59097676D02*
X72333333Y-59192914D01*
X72333333Y-59192914D02*
X72238095Y-59240533D01*
X133937143Y-46954819D02*
X133937143Y-45954819D01*
X133937143Y-45954819D02*
X134270476Y-46669104D01*
X134270476Y-46669104D02*
X134603809Y-45954819D01*
X134603809Y-45954819D02*
X134603809Y-46954819D01*
X135460952Y-46907200D02*
X135365714Y-46954819D01*
X135365714Y-46954819D02*
X135175238Y-46954819D01*
X135175238Y-46954819D02*
X135080000Y-46907200D01*
X135080000Y-46907200D02*
X135032381Y-46811961D01*
X135032381Y-46811961D02*
X135032381Y-46431009D01*
X135032381Y-46431009D02*
X135080000Y-46335771D01*
X135080000Y-46335771D02*
X135175238Y-46288152D01*
X135175238Y-46288152D02*
X135365714Y-46288152D01*
X135365714Y-46288152D02*
X135460952Y-46335771D01*
X135460952Y-46335771D02*
X135508571Y-46431009D01*
X135508571Y-46431009D02*
X135508571Y-46526247D01*
X135508571Y-46526247D02*
X135032381Y-46621485D01*
X135937143Y-46288152D02*
X135937143Y-46954819D01*
X135937143Y-46383390D02*
X135984762Y-46335771D01*
X135984762Y-46335771D02*
X136080000Y-46288152D01*
X136080000Y-46288152D02*
X136222857Y-46288152D01*
X136222857Y-46288152D02*
X136318095Y-46335771D01*
X136318095Y-46335771D02*
X136365714Y-46431009D01*
X136365714Y-46431009D02*
X136365714Y-46954819D01*
X137270476Y-46288152D02*
X137270476Y-46954819D01*
X136841905Y-46288152D02*
X136841905Y-46811961D01*
X136841905Y-46811961D02*
X136889524Y-46907200D01*
X136889524Y-46907200D02*
X136984762Y-46954819D01*
X136984762Y-46954819D02*
X137127619Y-46954819D01*
X137127619Y-46954819D02*
X137222857Y-46907200D01*
X137222857Y-46907200D02*
X137270476Y-46859580D01*
X138270476Y-46954819D02*
X137699048Y-46954819D01*
X137984762Y-46954819D02*
X137984762Y-45954819D01*
X137984762Y-45954819D02*
X137889524Y-46097676D01*
X137889524Y-46097676D02*
X137794286Y-46192914D01*
X137794286Y-46192914D02*
X137699048Y-46240533D01*
X102819580Y-59062857D02*
X102867200Y-59110476D01*
X102867200Y-59110476D02*
X102914819Y-59253333D01*
X102914819Y-59253333D02*
X102914819Y-59348571D01*
X102914819Y-59348571D02*
X102867200Y-59491428D01*
X102867200Y-59491428D02*
X102771961Y-59586666D01*
X102771961Y-59586666D02*
X102676723Y-59634285D01*
X102676723Y-59634285D02*
X102486247Y-59681904D01*
X102486247Y-59681904D02*
X102343390Y-59681904D01*
X102343390Y-59681904D02*
X102152914Y-59634285D01*
X102152914Y-59634285D02*
X102057676Y-59586666D01*
X102057676Y-59586666D02*
X101962438Y-59491428D01*
X101962438Y-59491428D02*
X101914819Y-59348571D01*
X101914819Y-59348571D02*
X101914819Y-59253333D01*
X101914819Y-59253333D02*
X101962438Y-59110476D01*
X101962438Y-59110476D02*
X102010057Y-59062857D01*
X102914819Y-58110476D02*
X102914819Y-58681904D01*
X102914819Y-58396190D02*
X101914819Y-58396190D01*
X101914819Y-58396190D02*
X102057676Y-58491428D01*
X102057676Y-58491428D02*
X102152914Y-58586666D01*
X102152914Y-58586666D02*
X102200533Y-58681904D01*
X102010057Y-57729523D02*
X101962438Y-57681904D01*
X101962438Y-57681904D02*
X101914819Y-57586666D01*
X101914819Y-57586666D02*
X101914819Y-57348571D01*
X101914819Y-57348571D02*
X101962438Y-57253333D01*
X101962438Y-57253333D02*
X102010057Y-57205714D01*
X102010057Y-57205714D02*
X102105295Y-57158095D01*
X102105295Y-57158095D02*
X102200533Y-57158095D01*
X102200533Y-57158095D02*
X102343390Y-57205714D01*
X102343390Y-57205714D02*
X102914819Y-57777142D01*
X102914819Y-57777142D02*
X102914819Y-57158095D01*
X142073333Y-63859580D02*
X142025714Y-63907200D01*
X142025714Y-63907200D02*
X141882857Y-63954819D01*
X141882857Y-63954819D02*
X141787619Y-63954819D01*
X141787619Y-63954819D02*
X141644762Y-63907200D01*
X141644762Y-63907200D02*
X141549524Y-63811961D01*
X141549524Y-63811961D02*
X141501905Y-63716723D01*
X141501905Y-63716723D02*
X141454286Y-63526247D01*
X141454286Y-63526247D02*
X141454286Y-63383390D01*
X141454286Y-63383390D02*
X141501905Y-63192914D01*
X141501905Y-63192914D02*
X141549524Y-63097676D01*
X141549524Y-63097676D02*
X141644762Y-63002438D01*
X141644762Y-63002438D02*
X141787619Y-62954819D01*
X141787619Y-62954819D02*
X141882857Y-62954819D01*
X141882857Y-62954819D02*
X142025714Y-63002438D01*
X142025714Y-63002438D02*
X142073333Y-63050057D01*
X142454286Y-63050057D02*
X142501905Y-63002438D01*
X142501905Y-63002438D02*
X142597143Y-62954819D01*
X142597143Y-62954819D02*
X142835238Y-62954819D01*
X142835238Y-62954819D02*
X142930476Y-63002438D01*
X142930476Y-63002438D02*
X142978095Y-63050057D01*
X142978095Y-63050057D02*
X143025714Y-63145295D01*
X143025714Y-63145295D02*
X143025714Y-63240533D01*
X143025714Y-63240533D02*
X142978095Y-63383390D01*
X142978095Y-63383390D02*
X142406667Y-63954819D01*
X142406667Y-63954819D02*
X143025714Y-63954819D01*
X81814999Y-86989819D02*
X81338809Y-86989819D01*
X81338809Y-86989819D02*
X81338809Y-85989819D01*
X82529285Y-86942200D02*
X82434047Y-86989819D01*
X82434047Y-86989819D02*
X82243571Y-86989819D01*
X82243571Y-86989819D02*
X82148333Y-86942200D01*
X82148333Y-86942200D02*
X82100714Y-86846961D01*
X82100714Y-86846961D02*
X82100714Y-86466009D01*
X82100714Y-86466009D02*
X82148333Y-86370771D01*
X82148333Y-86370771D02*
X82243571Y-86323152D01*
X82243571Y-86323152D02*
X82434047Y-86323152D01*
X82434047Y-86323152D02*
X82529285Y-86370771D01*
X82529285Y-86370771D02*
X82576904Y-86466009D01*
X82576904Y-86466009D02*
X82576904Y-86561247D01*
X82576904Y-86561247D02*
X82100714Y-86656485D01*
X82862619Y-86323152D02*
X83243571Y-86323152D01*
X83005476Y-86989819D02*
X83005476Y-86132676D01*
X83005476Y-86132676D02*
X83053095Y-86037438D01*
X83053095Y-86037438D02*
X83148333Y-85989819D01*
X83148333Y-85989819D02*
X83243571Y-85989819D01*
X83434048Y-86323152D02*
X83815000Y-86323152D01*
X83576905Y-85989819D02*
X83576905Y-86846961D01*
X83576905Y-86846961D02*
X83624524Y-86942200D01*
X83624524Y-86942200D02*
X83719762Y-86989819D01*
X83719762Y-86989819D02*
X83815000Y-86989819D01*
X84100715Y-86942200D02*
X84243572Y-86989819D01*
X84243572Y-86989819D02*
X84481667Y-86989819D01*
X84481667Y-86989819D02*
X84576905Y-86942200D01*
X84576905Y-86942200D02*
X84624524Y-86894580D01*
X84624524Y-86894580D02*
X84672143Y-86799342D01*
X84672143Y-86799342D02*
X84672143Y-86704104D01*
X84672143Y-86704104D02*
X84624524Y-86608866D01*
X84624524Y-86608866D02*
X84576905Y-86561247D01*
X84576905Y-86561247D02*
X84481667Y-86513628D01*
X84481667Y-86513628D02*
X84291191Y-86466009D01*
X84291191Y-86466009D02*
X84195953Y-86418390D01*
X84195953Y-86418390D02*
X84148334Y-86370771D01*
X84148334Y-86370771D02*
X84100715Y-86275533D01*
X84100715Y-86275533D02*
X84100715Y-86180295D01*
X84100715Y-86180295D02*
X84148334Y-86085057D01*
X84148334Y-86085057D02*
X84195953Y-86037438D01*
X84195953Y-86037438D02*
X84291191Y-85989819D01*
X84291191Y-85989819D02*
X84529286Y-85989819D01*
X84529286Y-85989819D02*
X84672143Y-86037438D01*
X84957858Y-86323152D02*
X85338810Y-86323152D01*
X85100715Y-85989819D02*
X85100715Y-86846961D01*
X85100715Y-86846961D02*
X85148334Y-86942200D01*
X85148334Y-86942200D02*
X85243572Y-86989819D01*
X85243572Y-86989819D02*
X85338810Y-86989819D01*
X85672144Y-86989819D02*
X85672144Y-86323152D01*
X85672144Y-85989819D02*
X85624525Y-86037438D01*
X85624525Y-86037438D02*
X85672144Y-86085057D01*
X85672144Y-86085057D02*
X85719763Y-86037438D01*
X85719763Y-86037438D02*
X85672144Y-85989819D01*
X85672144Y-85989819D02*
X85672144Y-86085057D01*
X86576905Y-86942200D02*
X86481667Y-86989819D01*
X86481667Y-86989819D02*
X86291191Y-86989819D01*
X86291191Y-86989819D02*
X86195953Y-86942200D01*
X86195953Y-86942200D02*
X86148334Y-86894580D01*
X86148334Y-86894580D02*
X86100715Y-86799342D01*
X86100715Y-86799342D02*
X86100715Y-86513628D01*
X86100715Y-86513628D02*
X86148334Y-86418390D01*
X86148334Y-86418390D02*
X86195953Y-86370771D01*
X86195953Y-86370771D02*
X86291191Y-86323152D01*
X86291191Y-86323152D02*
X86481667Y-86323152D01*
X86481667Y-86323152D02*
X86576905Y-86370771D01*
X87005477Y-86989819D02*
X87005477Y-85989819D01*
X87100715Y-86608866D02*
X87386429Y-86989819D01*
X87386429Y-86323152D02*
X87005477Y-86704104D01*
X88338810Y-86989819D02*
X87767382Y-86989819D01*
X88053096Y-86989819D02*
X88053096Y-85989819D01*
X88053096Y-85989819D02*
X87957858Y-86132676D01*
X87957858Y-86132676D02*
X87862620Y-86227914D01*
X87862620Y-86227914D02*
X87767382Y-86275533D01*
X83080191Y-55063862D02*
X83080191Y-54063122D01*
X83080191Y-54444356D02*
X83175500Y-54396702D01*
X83175500Y-54396702D02*
X83366117Y-54396702D01*
X83366117Y-54396702D02*
X83461425Y-54444356D01*
X83461425Y-54444356D02*
X83509080Y-54492010D01*
X83509080Y-54492010D02*
X83556734Y-54587319D01*
X83556734Y-54587319D02*
X83556734Y-54873245D01*
X83556734Y-54873245D02*
X83509080Y-54968553D01*
X83509080Y-54968553D02*
X83461425Y-55016208D01*
X83461425Y-55016208D02*
X83366117Y-55063862D01*
X83366117Y-55063862D02*
X83175500Y-55063862D01*
X83175500Y-55063862D02*
X83080191Y-55016208D01*
X84462165Y-55063862D02*
X83985622Y-55063862D01*
X83985622Y-55063862D02*
X83985622Y-54063122D01*
X85319942Y-55063862D02*
X84748091Y-55063862D01*
X85034016Y-55063862D02*
X85034016Y-54063122D01*
X85034016Y-54063122D02*
X84938708Y-54206085D01*
X84938708Y-54206085D02*
X84843399Y-54301393D01*
X84843399Y-54301393D02*
X84748091Y-54349048D01*
X173309524Y-64654819D02*
X173309524Y-63654819D01*
X173309524Y-64035771D02*
X173404762Y-63988152D01*
X173404762Y-63988152D02*
X173595238Y-63988152D01*
X173595238Y-63988152D02*
X173690476Y-64035771D01*
X173690476Y-64035771D02*
X173738095Y-64083390D01*
X173738095Y-64083390D02*
X173785714Y-64178628D01*
X173785714Y-64178628D02*
X173785714Y-64464342D01*
X173785714Y-64464342D02*
X173738095Y-64559580D01*
X173738095Y-64559580D02*
X173690476Y-64607200D01*
X173690476Y-64607200D02*
X173595238Y-64654819D01*
X173595238Y-64654819D02*
X173404762Y-64654819D01*
X173404762Y-64654819D02*
X173309524Y-64607200D01*
X174785714Y-64559580D02*
X174738095Y-64607200D01*
X174738095Y-64607200D02*
X174595238Y-64654819D01*
X174595238Y-64654819D02*
X174500000Y-64654819D01*
X174500000Y-64654819D02*
X174357143Y-64607200D01*
X174357143Y-64607200D02*
X174261905Y-64511961D01*
X174261905Y-64511961D02*
X174214286Y-64416723D01*
X174214286Y-64416723D02*
X174166667Y-64226247D01*
X174166667Y-64226247D02*
X174166667Y-64083390D01*
X174166667Y-64083390D02*
X174214286Y-63892914D01*
X174214286Y-63892914D02*
X174261905Y-63797676D01*
X174261905Y-63797676D02*
X174357143Y-63702438D01*
X174357143Y-63702438D02*
X174500000Y-63654819D01*
X174500000Y-63654819D02*
X174595238Y-63654819D01*
X174595238Y-63654819D02*
X174738095Y-63702438D01*
X174738095Y-63702438D02*
X174785714Y-63750057D01*
X175738095Y-64654819D02*
X175166667Y-64654819D01*
X175452381Y-64654819D02*
X175452381Y-63654819D01*
X175452381Y-63654819D02*
X175357143Y-63797676D01*
X175357143Y-63797676D02*
X175261905Y-63892914D01*
X175261905Y-63892914D02*
X175166667Y-63940533D01*
X122279580Y-66554285D02*
X122327200Y-66592381D01*
X122327200Y-66592381D02*
X122374819Y-66706666D01*
X122374819Y-66706666D02*
X122374819Y-66782857D01*
X122374819Y-66782857D02*
X122327200Y-66897143D01*
X122327200Y-66897143D02*
X122231961Y-66973333D01*
X122231961Y-66973333D02*
X122136723Y-67011428D01*
X122136723Y-67011428D02*
X121946247Y-67049524D01*
X121946247Y-67049524D02*
X121803390Y-67049524D01*
X121803390Y-67049524D02*
X121612914Y-67011428D01*
X121612914Y-67011428D02*
X121517676Y-66973333D01*
X121517676Y-66973333D02*
X121422438Y-66897143D01*
X121422438Y-66897143D02*
X121374819Y-66782857D01*
X121374819Y-66782857D02*
X121374819Y-66706666D01*
X121374819Y-66706666D02*
X121422438Y-66592381D01*
X121422438Y-66592381D02*
X121470057Y-66554285D01*
X122374819Y-65792381D02*
X122374819Y-66249524D01*
X122374819Y-66020952D02*
X121374819Y-66020952D01*
X121374819Y-66020952D02*
X121517676Y-66097143D01*
X121517676Y-66097143D02*
X121612914Y-66173333D01*
X121612914Y-66173333D02*
X121660533Y-66249524D01*
X122374819Y-65030476D02*
X122374819Y-65487619D01*
X122374819Y-65259047D02*
X121374819Y-65259047D01*
X121374819Y-65259047D02*
X121517676Y-65335238D01*
X121517676Y-65335238D02*
X121612914Y-65411428D01*
X121612914Y-65411428D02*
X121660533Y-65487619D01*
X110167142Y-79959580D02*
X110119523Y-80007200D01*
X110119523Y-80007200D02*
X109976666Y-80054819D01*
X109976666Y-80054819D02*
X109881428Y-80054819D01*
X109881428Y-80054819D02*
X109738571Y-80007200D01*
X109738571Y-80007200D02*
X109643333Y-79911961D01*
X109643333Y-79911961D02*
X109595714Y-79816723D01*
X109595714Y-79816723D02*
X109548095Y-79626247D01*
X109548095Y-79626247D02*
X109548095Y-79483390D01*
X109548095Y-79483390D02*
X109595714Y-79292914D01*
X109595714Y-79292914D02*
X109643333Y-79197676D01*
X109643333Y-79197676D02*
X109738571Y-79102438D01*
X109738571Y-79102438D02*
X109881428Y-79054819D01*
X109881428Y-79054819D02*
X109976666Y-79054819D01*
X109976666Y-79054819D02*
X110119523Y-79102438D01*
X110119523Y-79102438D02*
X110167142Y-79150057D01*
X111119523Y-80054819D02*
X110548095Y-80054819D01*
X110833809Y-80054819D02*
X110833809Y-79054819D01*
X110833809Y-79054819D02*
X110738571Y-79197676D01*
X110738571Y-79197676D02*
X110643333Y-79292914D01*
X110643333Y-79292914D02*
X110548095Y-79340533D01*
X112024285Y-79054819D02*
X111548095Y-79054819D01*
X111548095Y-79054819D02*
X111500476Y-79531009D01*
X111500476Y-79531009D02*
X111548095Y-79483390D01*
X111548095Y-79483390D02*
X111643333Y-79435771D01*
X111643333Y-79435771D02*
X111881428Y-79435771D01*
X111881428Y-79435771D02*
X111976666Y-79483390D01*
X111976666Y-79483390D02*
X112024285Y-79531009D01*
X112024285Y-79531009D02*
X112071904Y-79626247D01*
X112071904Y-79626247D02*
X112071904Y-79864342D01*
X112071904Y-79864342D02*
X112024285Y-79959580D01*
X112024285Y-79959580D02*
X111976666Y-80007200D01*
X111976666Y-80007200D02*
X111881428Y-80054819D01*
X111881428Y-80054819D02*
X111643333Y-80054819D01*
X111643333Y-80054819D02*
X111548095Y-80007200D01*
X111548095Y-80007200D02*
X111500476Y-79959580D01*
X97134819Y-66116666D02*
X96658628Y-66449999D01*
X97134819Y-66688094D02*
X96134819Y-66688094D01*
X96134819Y-66688094D02*
X96134819Y-66307142D01*
X96134819Y-66307142D02*
X96182438Y-66211904D01*
X96182438Y-66211904D02*
X96230057Y-66164285D01*
X96230057Y-66164285D02*
X96325295Y-66116666D01*
X96325295Y-66116666D02*
X96468152Y-66116666D01*
X96468152Y-66116666D02*
X96563390Y-66164285D01*
X96563390Y-66164285D02*
X96611009Y-66211904D01*
X96611009Y-66211904D02*
X96658628Y-66307142D01*
X96658628Y-66307142D02*
X96658628Y-66688094D01*
X96134819Y-65783332D02*
X96134819Y-65164285D01*
X96134819Y-65164285D02*
X96515771Y-65497618D01*
X96515771Y-65497618D02*
X96515771Y-65354761D01*
X96515771Y-65354761D02*
X96563390Y-65259523D01*
X96563390Y-65259523D02*
X96611009Y-65211904D01*
X96611009Y-65211904D02*
X96706247Y-65164285D01*
X96706247Y-65164285D02*
X96944342Y-65164285D01*
X96944342Y-65164285D02*
X97039580Y-65211904D01*
X97039580Y-65211904D02*
X97087200Y-65259523D01*
X97087200Y-65259523D02*
X97134819Y-65354761D01*
X97134819Y-65354761D02*
X97134819Y-65640475D01*
X97134819Y-65640475D02*
X97087200Y-65735713D01*
X97087200Y-65735713D02*
X97039580Y-65783332D01*
X161690476Y-55414819D02*
X162357142Y-55414819D01*
X162357142Y-55414819D02*
X161690476Y-56414819D01*
X161690476Y-56414819D02*
X162357142Y-56414819D01*
X163261904Y-56414819D02*
X162690476Y-56414819D01*
X162976190Y-56414819D02*
X162976190Y-55414819D01*
X162976190Y-55414819D02*
X162880952Y-55557676D01*
X162880952Y-55557676D02*
X162785714Y-55652914D01*
X162785714Y-55652914D02*
X162690476Y-55700533D01*
D13*
%TO.C,C8*%
X149125000Y-58681252D02*
X149125000Y-58158748D01*
X150595000Y-58681252D02*
X150595000Y-58158748D01*
%TO.C,C6*%
X138965000Y-58681252D02*
X138965000Y-58158748D01*
X140435000Y-58681252D02*
X140435000Y-58158748D01*
%TO.C,Y1*%
X114340000Y-77840000D02*
X114340000Y-81840000D01*
X117640000Y-77840000D02*
X114340000Y-77840000D01*
%TO.C,LEFT1*%
X58900000Y-68000000D02*
X59900000Y-68000000D01*
X58900000Y-69000000D02*
X58900000Y-68000000D01*
X60900000Y-70000000D02*
X60900000Y-72600000D01*
X66900000Y-68050000D02*
X61100000Y-68050000D01*
X67000000Y-74550000D02*
X61000000Y-74550000D01*
X67100000Y-70000000D02*
X67100000Y-72600000D01*
%TO.C,C1*%
X128805000Y-68841252D02*
X128805000Y-68318748D01*
X130275000Y-68841252D02*
X130275000Y-68318748D01*
%TO.C,A1*%
X145400000Y-85200000D02*
X146400000Y-85200000D01*
X145400000Y-86200000D02*
X145400000Y-85200000D01*
X147400000Y-87200000D02*
X147400000Y-89800000D01*
X153400000Y-85250000D02*
X147600000Y-85250000D01*
X153500000Y-91750000D02*
X147500000Y-91750000D01*
X153600000Y-87200000D02*
X153600000Y-89800000D01*
%TO.C,J1*%
X112260000Y-46215000D02*
X121420000Y-46215000D01*
X112260000Y-47920000D02*
X112260000Y-46215000D01*
X112260000Y-49930000D02*
X112260000Y-51850000D01*
X121420000Y-46215000D02*
X121420000Y-47920000D01*
X121420000Y-51850000D02*
X121420000Y-49930000D01*
%TO.C,R1*%
X116105000Y-63238748D02*
X116105000Y-63761252D01*
X117575000Y-63238748D02*
X117575000Y-63761252D01*
%TO.C,Credit1*%
X92500000Y-47500000D02*
X93500000Y-47500000D01*
X92500000Y-48500000D02*
X92500000Y-47500000D01*
X94500000Y-49500000D02*
X94500000Y-52100000D01*
X100500000Y-47550000D02*
X94700000Y-47550000D01*
X100600000Y-54050000D02*
X94600000Y-54050000D01*
X100700000Y-49500000D02*
X100700000Y-52100000D01*
%TO.C,B1*%
X157400000Y-75200000D02*
X158400000Y-75200000D01*
X157400000Y-76200000D02*
X157400000Y-75200000D01*
X159400000Y-77200000D02*
X159400000Y-79800000D01*
X165400000Y-75250000D02*
X159600000Y-75250000D01*
X165500000Y-81750000D02*
X159500000Y-81750000D01*
X165600000Y-77200000D02*
X165600000Y-79800000D01*
%TO.C,SEL1*%
X103150000Y-88700000D02*
X104150000Y-88700000D01*
X103150000Y-89700000D02*
X103150000Y-88700000D01*
X105150000Y-90700000D02*
X105150000Y-93300000D01*
X111150000Y-88750000D02*
X105350000Y-88750000D01*
X111250000Y-95250000D02*
X105250000Y-95250000D01*
X111350000Y-90700000D02*
X111350000Y-93300000D01*
%TO.C,C10*%
X126738748Y-62765000D02*
X127261252Y-62765000D01*
X126738748Y-64235000D02*
X127261252Y-64235000D01*
%TO.C,X1*%
X133400000Y-75200000D02*
X134400000Y-75200000D01*
X133400000Y-76200000D02*
X133400000Y-75200000D01*
X135400000Y-77200000D02*
X135400000Y-79800000D01*
X141400000Y-75250000D02*
X135600000Y-75250000D01*
X141500000Y-81750000D02*
X135500000Y-81750000D01*
X141600000Y-77200000D02*
X141600000Y-79800000D01*
%TO.C,C13*%
X108485000Y-59631252D02*
X108485000Y-59108748D01*
X109955000Y-59631252D02*
X109955000Y-59108748D01*
D14*
%TO.C,bR1*%
X147350000Y-47350000D02*
X149250000Y-47350000D01*
X149250000Y-46450000D02*
X149250000Y-47350000D01*
X149250000Y-47350000D02*
X152750000Y-47350000D01*
X152750000Y-46450000D02*
X149250000Y-46450000D01*
X152750000Y-46450000D02*
X152750000Y-47350000D01*
X152750000Y-47350000D02*
X154650000Y-47350000D01*
X154650000Y-53600000D02*
X147350000Y-53600000D01*
D15*
X155400000Y-49580000D02*
G75*
G02*
X155100000Y-49580000I-150000J0D01*
G01*
X155100000Y-49580000D02*
G75*
G02*
X155400000Y-49580000I150000J0D01*
G01*
D13*
%TO.C,U3*%
X101380000Y-65820000D02*
X101380000Y-66090000D01*
X101380000Y-71340000D02*
X101380000Y-71070000D01*
X104140000Y-65820000D02*
X101380000Y-65820000D01*
X104140000Y-65820000D02*
X106900000Y-65820000D01*
X104140000Y-71340000D02*
X101380000Y-71340000D01*
X104140000Y-71340000D02*
X106900000Y-71340000D01*
X106900000Y-65820000D02*
X106900000Y-66090000D01*
X106900000Y-71340000D02*
X106900000Y-71070000D01*
X100615000Y-66090000D02*
X100375000Y-65760000D01*
X100855000Y-65760000D01*
X100615000Y-66090000D01*
G36*
X100615000Y-66090000D02*
G01*
X100375000Y-65760000D01*
X100855000Y-65760000D01*
X100615000Y-66090000D01*
G37*
%TO.C,RIGHT1*%
X73900000Y-68000000D02*
X74900000Y-68000000D01*
X73900000Y-69000000D02*
X73900000Y-68000000D01*
X75900000Y-70000000D02*
X75900000Y-72600000D01*
X81900000Y-68050000D02*
X76100000Y-68050000D01*
X82000000Y-74550000D02*
X76000000Y-74550000D01*
X82100000Y-70000000D02*
X82100000Y-72600000D01*
D16*
%TO.C,G\u002A\u002A\u002A*%
G36*
X82546465Y-59596331D02*
G01*
X82685908Y-59665336D01*
X82796728Y-59770424D01*
X82874260Y-59903478D01*
X82913845Y-60056383D01*
X82910819Y-60221021D01*
X82860520Y-60389277D01*
X82857071Y-60396802D01*
X82761847Y-60541692D01*
X82635431Y-60643605D01*
X82485838Y-60699212D01*
X82321085Y-60705187D01*
X82189289Y-60673996D01*
X82099476Y-60631564D01*
X82020449Y-60577895D01*
X82012316Y-60570664D01*
X81945083Y-60491222D01*
X81886026Y-60393121D01*
X81846481Y-60297609D01*
X81836444Y-60240956D01*
X81836444Y-60183248D01*
X81917366Y-60243076D01*
X81985321Y-60282535D01*
X82046470Y-60285180D01*
X82077684Y-60276561D01*
X82160059Y-60226199D01*
X82200412Y-60153521D01*
X82197889Y-60073509D01*
X82151636Y-60001147D01*
X82095477Y-59964278D01*
X82030318Y-59947538D01*
X81961247Y-59965518D01*
X81940678Y-59975265D01*
X81880562Y-60000957D01*
X81845858Y-60007748D01*
X81844225Y-60006823D01*
X81844019Y-59971306D01*
X81870824Y-59907974D01*
X81916056Y-59831937D01*
X81971132Y-59758305D01*
X82007378Y-59719613D01*
X82126677Y-59628853D01*
X82254270Y-59582438D01*
X82383058Y-59571526D01*
X82546465Y-59596331D01*
G37*
G36*
X81470411Y-54981108D02*
G01*
X81661399Y-54998133D01*
X82159310Y-55087474D01*
X82638617Y-55227663D01*
X83095802Y-55417003D01*
X83527350Y-55653794D01*
X83929741Y-55936337D01*
X84299460Y-56262934D01*
X84318022Y-56281386D01*
X84617798Y-56611287D01*
X84867427Y-56953670D01*
X85071153Y-57316344D01*
X85233220Y-57707118D01*
X85357871Y-58133800D01*
X85382013Y-58239299D01*
X85410151Y-58407650D01*
X85432102Y-58618164D01*
X85447565Y-58857550D01*
X85456236Y-59112521D01*
X85457814Y-59369786D01*
X85451996Y-59616057D01*
X85438479Y-59838045D01*
X85421846Y-59989747D01*
X85395253Y-60173089D01*
X85374059Y-60301733D01*
X85357348Y-60376388D01*
X85344204Y-60397762D01*
X85333709Y-60366561D01*
X85324948Y-60283493D01*
X85317005Y-60149265D01*
X85313498Y-60073392D01*
X85277654Y-59590462D01*
X85212903Y-59144516D01*
X85116958Y-58723535D01*
X84987527Y-58315502D01*
X84968907Y-58264882D01*
X84884887Y-58050971D01*
X84802744Y-57869671D01*
X84711402Y-57699354D01*
X84599788Y-57518394D01*
X84541106Y-57429384D01*
X84342708Y-57163472D01*
X84118176Y-56922892D01*
X83860858Y-56702211D01*
X83564101Y-56495997D01*
X83221254Y-56298819D01*
X83049287Y-56211157D01*
X82584496Y-56006347D01*
X82129764Y-55855571D01*
X81682170Y-55758631D01*
X81238795Y-55715331D01*
X80796718Y-55725474D01*
X80353019Y-55788861D01*
X79904776Y-55905295D01*
X79677895Y-55983397D01*
X79347630Y-56131146D01*
X79034874Y-56323731D01*
X78732476Y-56565784D01*
X78625456Y-56665266D01*
X78341967Y-56965182D01*
X78103400Y-57278225D01*
X77898933Y-57619045D01*
X77848330Y-57717409D01*
X77685257Y-58103183D01*
X77577493Y-58494217D01*
X77524939Y-58889478D01*
X77527499Y-59287934D01*
X77585074Y-59688553D01*
X77697565Y-60090302D01*
X77864876Y-60492149D01*
X78086908Y-60893061D01*
X78160468Y-61007420D01*
X78285852Y-61176663D01*
X78444559Y-61360937D01*
X78623764Y-61547472D01*
X78810646Y-61723498D01*
X78992380Y-61876242D01*
X79139216Y-61982135D01*
X79509509Y-62192467D01*
X79895444Y-62355209D01*
X80291567Y-62469574D01*
X80692426Y-62534774D01*
X81092568Y-62550020D01*
X81486541Y-62514524D01*
X81868892Y-62427497D01*
X81977192Y-62392380D01*
X82296254Y-62252803D01*
X82589100Y-62067298D01*
X82851897Y-61841011D01*
X83080811Y-61579089D01*
X83272008Y-61286679D01*
X83421655Y-60968925D01*
X83525917Y-60630976D01*
X83580961Y-60277976D01*
X83584039Y-60235449D01*
X83580287Y-59892562D01*
X83527564Y-59560150D01*
X83429695Y-59242524D01*
X83290505Y-58943995D01*
X83113820Y-58668874D01*
X82903467Y-58421472D01*
X82663271Y-58206098D01*
X82397059Y-58027063D01*
X82108655Y-57888679D01*
X81801887Y-57795256D01*
X81480579Y-57751104D01*
X81376400Y-57748089D01*
X81203763Y-57752474D01*
X81062903Y-57768677D01*
X80930535Y-57799679D01*
X80898870Y-57809207D01*
X80591050Y-57927823D01*
X80322889Y-58078894D01*
X80113635Y-58245781D01*
X80025253Y-58332318D01*
X79972626Y-58392936D01*
X79948885Y-58437670D01*
X79947160Y-58476552D01*
X79949206Y-58485927D01*
X79973793Y-58530617D01*
X80029252Y-58606276D01*
X80108094Y-58703404D01*
X80202827Y-58812502D01*
X80233648Y-58846608D01*
X80420830Y-59067018D01*
X80559837Y-59267184D01*
X80652276Y-59451989D01*
X80699751Y-59626315D01*
X80703869Y-59795046D01*
X80666237Y-59963064D01*
X80630337Y-60052570D01*
X80534128Y-60215633D01*
X80403244Y-60372207D01*
X80253403Y-60505873D01*
X80110911Y-60595183D01*
X80027422Y-60632292D01*
X79951110Y-60655159D01*
X79863447Y-60667148D01*
X79745905Y-60671623D01*
X79687470Y-60672059D01*
X79560084Y-60671192D01*
X79467895Y-60664523D01*
X79390346Y-60647288D01*
X79306881Y-60614723D01*
X79196942Y-60562062D01*
X79182907Y-60555113D01*
X79039857Y-60477434D01*
X78922385Y-60394986D01*
X78807391Y-60290547D01*
X78752846Y-60234477D01*
X78560361Y-59992620D01*
X78415931Y-59726338D01*
X78320080Y-59440364D01*
X78273330Y-59139431D01*
X78276204Y-58828272D01*
X78329225Y-58511618D01*
X78432917Y-58194202D01*
X78508924Y-58026624D01*
X78618391Y-57822272D01*
X78730538Y-57648070D01*
X78858992Y-57485403D01*
X79017381Y-57315656D01*
X79061858Y-57271306D01*
X79340601Y-57028914D01*
X79639675Y-56833171D01*
X79963409Y-56682300D01*
X80316134Y-56574521D01*
X80702177Y-56508054D01*
X80972119Y-56486206D01*
X81360884Y-56486895D01*
X81758433Y-56524542D01*
X82148197Y-56596508D01*
X82513607Y-56700151D01*
X82664171Y-56755816D01*
X82949719Y-56894890D01*
X83238112Y-57082014D01*
X83522012Y-57310417D01*
X83794079Y-57573324D01*
X84046976Y-57863963D01*
X84273363Y-58175559D01*
X84370535Y-58330713D01*
X84589213Y-58748129D01*
X84752761Y-59169745D01*
X84861471Y-59593605D01*
X84915636Y-60017756D01*
X84915549Y-60440245D01*
X84861501Y-60859118D01*
X84753786Y-61272421D01*
X84592695Y-61678201D01*
X84378521Y-62074504D01*
X84111558Y-62459376D01*
X83792096Y-62830865D01*
X83679664Y-62945767D01*
X83342102Y-63247013D01*
X82989672Y-63495219D01*
X82619868Y-63691721D01*
X82230184Y-63837853D01*
X81825699Y-63933635D01*
X81678547Y-63952146D01*
X81492351Y-63964968D01*
X81283555Y-63971940D01*
X81068603Y-63972900D01*
X80863940Y-63967684D01*
X80686010Y-63956133D01*
X80596536Y-63945747D01*
X80166525Y-63858609D01*
X79737769Y-63724848D01*
X79315744Y-63548572D01*
X78905925Y-63333887D01*
X78513787Y-63084900D01*
X78144807Y-62805715D01*
X77804461Y-62500440D01*
X77498223Y-62173182D01*
X77231569Y-61828045D01*
X77009976Y-61469138D01*
X76854232Y-61139323D01*
X76771441Y-60907800D01*
X76694154Y-60643020D01*
X76628114Y-60367492D01*
X76579065Y-60103721D01*
X76565823Y-60009233D01*
X76549826Y-59823525D01*
X76542186Y-59602130D01*
X76542402Y-59359549D01*
X76549975Y-59110282D01*
X76564404Y-58868828D01*
X76585188Y-58649689D01*
X76611826Y-58467364D01*
X76620574Y-58423448D01*
X76753486Y-57925065D01*
X76930442Y-57460545D01*
X77151989Y-57028863D01*
X77418674Y-56628992D01*
X77731041Y-56259904D01*
X77819608Y-56169055D01*
X78113894Y-55899945D01*
X78419114Y-55671122D01*
X78743432Y-55478364D01*
X79095011Y-55317450D01*
X79482016Y-55184159D01*
X79912610Y-55074271D01*
X79954446Y-55065243D01*
X80159896Y-55030407D01*
X80405059Y-55003077D01*
X80674314Y-54983868D01*
X80952038Y-54973395D01*
X81222612Y-54972270D01*
X81470411Y-54981108D01*
G37*
D13*
%TO.C,U1*%
X112332500Y-66775000D02*
X112332500Y-66365000D01*
X112332500Y-73345000D02*
X112332500Y-72695000D01*
X112982500Y-66125000D02*
X112632500Y-66125000D01*
X112982500Y-73345000D02*
X112332500Y-73345000D01*
X118902500Y-66125000D02*
X119552500Y-66125000D01*
X118902500Y-73345000D02*
X119552500Y-73345000D01*
X119552500Y-66125000D02*
X119552500Y-66775000D01*
X119552500Y-73345000D02*
X119552500Y-72695000D01*
X112332500Y-66125000D02*
X112092500Y-65795000D01*
X112572500Y-65795000D01*
X112332500Y-66125000D01*
G36*
X112332500Y-66125000D02*
G01*
X112092500Y-65795000D01*
X112572500Y-65795000D01*
X112332500Y-66125000D01*
G37*
%TO.C,C5*%
X133885000Y-58681252D02*
X133885000Y-58158748D01*
X135355000Y-58681252D02*
X135355000Y-58158748D01*
%TO.C,C7*%
X144045000Y-58681252D02*
X144045000Y-58158748D01*
X145515000Y-58681252D02*
X145515000Y-58158748D01*
%TO.C,DOWN1*%
X66400000Y-75500000D02*
X67400000Y-75500000D01*
X66400000Y-76500000D02*
X66400000Y-75500000D01*
X68400000Y-77500000D02*
X68400000Y-80100000D01*
X74400000Y-75550000D02*
X68600000Y-75550000D01*
X74500000Y-82050000D02*
X68500000Y-82050000D01*
X74600000Y-77500000D02*
X74600000Y-80100000D01*
%TO.C,C14*%
X96781252Y-72925000D02*
X96258748Y-72925000D01*
X96781252Y-74395000D02*
X96258748Y-74395000D01*
%TO.C,C4*%
X128805000Y-58681252D02*
X128805000Y-58158748D01*
X130275000Y-58681252D02*
X130275000Y-58158748D01*
%TO.C,C16*%
X121185000Y-80591252D02*
X121185000Y-80068748D01*
X122655000Y-80591252D02*
X122655000Y-80068748D01*
%TO.C,Y2*%
X145400000Y-65200000D02*
X146400000Y-65200000D01*
X145400000Y-66200000D02*
X145400000Y-65200000D01*
X147400000Y-67200000D02*
X147400000Y-69800000D01*
X153400000Y-65250000D02*
X147600000Y-65250000D01*
X153500000Y-71750000D02*
X147500000Y-71750000D01*
X153600000Y-67200000D02*
X153600000Y-69800000D01*
D14*
%TO.C,RightStick1*%
X118390000Y-95500000D02*
X119925000Y-95500000D01*
X118390000Y-101500000D02*
X118390000Y-95500000D01*
X119925000Y-91925000D02*
X121780000Y-91925000D01*
X119925000Y-91980000D02*
X119925000Y-91925000D01*
X119925000Y-95500000D02*
X119925000Y-95020000D01*
X119925000Y-101500000D02*
X118390000Y-101500000D01*
X119925000Y-101980000D02*
X119925000Y-101500000D01*
X119925000Y-105075000D02*
X119925000Y-105020000D01*
X121780000Y-88420000D02*
X131230000Y-88420000D01*
X121780000Y-91925000D02*
X121780000Y-88420000D01*
X122100000Y-105075000D02*
X119925000Y-105075000D01*
X122100000Y-107455000D02*
X122100000Y-105075000D01*
X122100000Y-110100000D02*
X122100000Y-110045000D01*
X130900000Y-105075000D02*
X130900000Y-107455000D01*
X130900000Y-110100000D02*
X122100000Y-110100000D01*
X130900000Y-110100000D02*
X130900000Y-110045000D01*
X131230000Y-88420000D02*
X131230000Y-91925000D01*
X131230000Y-91925000D02*
X133075000Y-91925000D01*
X133075000Y-91925000D02*
X133075000Y-91980000D01*
X133075000Y-105075000D02*
X130900000Y-105075000D01*
X133075000Y-105075000D02*
X133075000Y-105020000D01*
X134345000Y-93770000D02*
X136580000Y-93770000D01*
X136580000Y-93770000D02*
X136580000Y-103230000D01*
X136580000Y-103230000D02*
X134345000Y-103230000D01*
D13*
%TO.C,R2*%
X118645000Y-63238748D02*
X118645000Y-63761252D01*
X120115000Y-63238748D02*
X120115000Y-63761252D01*
%TO.C,C9*%
X154205000Y-58681252D02*
X154205000Y-58158748D01*
X155675000Y-58681252D02*
X155675000Y-58158748D01*
%TO.C,C3*%
X123725000Y-58681252D02*
X123725000Y-58158748D01*
X125195000Y-58681252D02*
X125195000Y-58158748D01*
%TO.C,START1*%
X103150000Y-98700000D02*
X104150000Y-98700000D01*
X103150000Y-99700000D02*
X103150000Y-98700000D01*
X105150000Y-100700000D02*
X105150000Y-103300000D01*
X111150000Y-98750000D02*
X105350000Y-98750000D01*
X111250000Y-105250000D02*
X105250000Y-105250000D01*
X111350000Y-100700000D02*
X111350000Y-103300000D01*
%TO.C,U2*%
X135310000Y-62630000D02*
X139070000Y-62630000D01*
X135310000Y-69450000D02*
X139070000Y-69450000D01*
X139070000Y-62630000D02*
X139070000Y-63890000D01*
X139070000Y-69450000D02*
X139070000Y-68190000D01*
X134030000Y-62730000D02*
X133790000Y-62400000D01*
X134270000Y-62400000D01*
X134030000Y-62730000D01*
G36*
X134030000Y-62730000D02*
G01*
X133790000Y-62400000D01*
X134270000Y-62400000D01*
X134030000Y-62730000D01*
G37*
%TO.C,R4*%
X118691252Y-75465000D02*
X118168748Y-75465000D01*
X118691252Y-76935000D02*
X118168748Y-76935000D01*
%TO.C,UP1*%
X66400000Y-60500000D02*
X67400000Y-60500000D01*
X66400000Y-61500000D02*
X66400000Y-60500000D01*
X68400000Y-62500000D02*
X68400000Y-65100000D01*
X74400000Y-60550000D02*
X68600000Y-60550000D01*
X74500000Y-67050000D02*
X68500000Y-67050000D01*
X74600000Y-62500000D02*
X74600000Y-65100000D01*
%TO.C,Menu1*%
X130980000Y-47500000D02*
X131980000Y-47500000D01*
X130980000Y-48500000D02*
X130980000Y-47500000D01*
X132980000Y-49500000D02*
X132980000Y-52100000D01*
X138980000Y-47550000D02*
X133180000Y-47550000D01*
X139080000Y-54050000D02*
X133080000Y-54050000D01*
X139180000Y-49500000D02*
X139180000Y-52100000D01*
%TO.C,C12*%
X103405000Y-58681252D02*
X103405000Y-58158748D01*
X104875000Y-58681252D02*
X104875000Y-58158748D01*
%TO.C,C2*%
X145041252Y-62765000D02*
X144518748Y-62765000D01*
X145041252Y-64235000D02*
X144518748Y-64235000D01*
D14*
%TO.C,LeftStick1*%
X81890000Y-95500000D02*
X83425000Y-95500000D01*
X81890000Y-101500000D02*
X81890000Y-95500000D01*
X83425000Y-91925000D02*
X85280000Y-91925000D01*
X83425000Y-91980000D02*
X83425000Y-91925000D01*
X83425000Y-95500000D02*
X83425000Y-95020000D01*
X83425000Y-101500000D02*
X81890000Y-101500000D01*
X83425000Y-101980000D02*
X83425000Y-101500000D01*
X83425000Y-105075000D02*
X83425000Y-105020000D01*
X85280000Y-88420000D02*
X94730000Y-88420000D01*
X85280000Y-91925000D02*
X85280000Y-88420000D01*
X85600000Y-105075000D02*
X83425000Y-105075000D01*
X85600000Y-107455000D02*
X85600000Y-105075000D01*
X85600000Y-110100000D02*
X85600000Y-110045000D01*
X94400000Y-105075000D02*
X94400000Y-107455000D01*
X94400000Y-110100000D02*
X85600000Y-110100000D01*
X94400000Y-110100000D02*
X94400000Y-110045000D01*
X94730000Y-88420000D02*
X94730000Y-91925000D01*
X94730000Y-91925000D02*
X96575000Y-91925000D01*
X96575000Y-91925000D02*
X96575000Y-91980000D01*
X96575000Y-105075000D02*
X94400000Y-105075000D01*
X96575000Y-105075000D02*
X96575000Y-105020000D01*
X97845000Y-93770000D02*
X100080000Y-93770000D01*
X100080000Y-93770000D02*
X100080000Y-103230000D01*
X100080000Y-103230000D02*
X97845000Y-103230000D01*
%TO.C,bL1*%
X78850000Y-47350000D02*
X80750000Y-47350000D01*
X80750000Y-46450000D02*
X80750000Y-47350000D01*
X80750000Y-47350000D02*
X84250000Y-47350000D01*
X84250000Y-46450000D02*
X80750000Y-46450000D01*
X84250000Y-46450000D02*
X84250000Y-47350000D01*
X84250000Y-47350000D02*
X86150000Y-47350000D01*
X86150000Y-53600000D02*
X78850000Y-53600000D01*
D15*
X86900000Y-49580000D02*
G75*
G02*
X86600000Y-49580000I-150000J0D01*
G01*
X86600000Y-49580000D02*
G75*
G02*
X86900000Y-49580000I150000J0D01*
G01*
D13*
%TO.C,bC1*%
X169400000Y-65200000D02*
X170400000Y-65200000D01*
X169400000Y-66200000D02*
X169400000Y-65200000D01*
X171400000Y-67200000D02*
X171400000Y-69800000D01*
X177400000Y-65250000D02*
X171600000Y-65250000D01*
X177500000Y-71750000D02*
X171500000Y-71750000D01*
X177600000Y-67200000D02*
X177600000Y-69800000D01*
%TO.C,C11*%
X121185000Y-63761252D02*
X121185000Y-63238748D01*
X122655000Y-63761252D02*
X122655000Y-63238748D01*
%TO.C,C15*%
X110548748Y-80545000D02*
X111071252Y-80545000D01*
X110548748Y-82015000D02*
X111071252Y-82015000D01*
%TO.C,R3*%
X94265000Y-65688748D02*
X94265000Y-66211252D01*
X95735000Y-65688748D02*
X95735000Y-66211252D01*
%TO.C,Z1*%
X157400000Y-55200000D02*
X158400000Y-55200000D01*
X157400000Y-56200000D02*
X157400000Y-55200000D01*
X159400000Y-57200000D02*
X159400000Y-59800000D01*
X165400000Y-55250000D02*
X159600000Y-55250000D01*
X165500000Y-61750000D02*
X159500000Y-61750000D01*
X165600000Y-57200000D02*
X165600000Y-59800000D01*
%TD*%
M02*
