%TF.GenerationSoftware,KiCad,Pcbnew,9.0.0-9.0.0-2~ubuntu24.04.1*%
%TF.CreationDate,2025-03-18T17:56:42+01:00*%
%TF.ProjectId,omnicontroller,6f6d6e69-636f-46e7-9472-6f6c6c65722e,rev?*%
%TF.SameCoordinates,Original*%
%TF.FileFunction,Copper,L2,Bot*%
%TF.FilePolarity,Positive*%
%FSLAX46Y46*%
G04 Gerber Fmt 4.6, Leading zero omitted, Abs format (unit mm)*
G04 Created by KiCad (PCBNEW 9.0.0-9.0.0-2~ubuntu24.04.1) date 2025-03-18 17:56:42*
%MOMM*%
%LPD*%
G01*
G04 APERTURE LIST*
%TA.AperFunction,ComponentPad*%
%ADD10C,1.650000*%
%TD*%
%TA.AperFunction,ComponentPad*%
%ADD11C,2.400000*%
%TD*%
%TA.AperFunction,ComponentPad*%
%ADD12C,1.950000*%
%TD*%
%TA.AperFunction,HeatsinkPad*%
%ADD13O,1.000000X2.100000*%
%TD*%
%TA.AperFunction,HeatsinkPad*%
%ADD14O,1.000000X1.800000*%
%TD*%
%TA.AperFunction,SMDPad,CuDef*%
%ADD15R,1.600000X1.400000*%
%TD*%
%TA.AperFunction,ViaPad*%
%ADD16C,0.600000*%
%TD*%
%TA.AperFunction,Conductor*%
%ADD17C,0.200000*%
%TD*%
G04 APERTURE END LIST*
D10*
%TO.P,LeftStick1,HGND,HGND*%
%TO.N,GND*%
X87500000Y-89770000D03*
%TO.P,LeftStick1,HOut,HOut*%
%TO.N,GP27*%
X90000000Y-89770000D03*
%TO.P,LeftStick1,HVCC,HVCC*%
%TO.N,+3V3*%
X92500000Y-89770000D03*
D11*
%TO.P,LeftStick1,SH1,SHIELD*%
%TO.N,GND*%
X83675000Y-93500000D03*
%TO.P,LeftStick1,SH2,SHIELD*%
X96325000Y-93500000D03*
%TO.P,LeftStick1,SH3,SHIELD*%
X96325000Y-103500000D03*
%TO.P,LeftStick1,SH4,SHIELD*%
X83675000Y-103500000D03*
D12*
%TO.P,LeftStick1,SwGND,SwGND*%
X86750000Y-104250000D03*
X93250000Y-104250000D03*
%TO.P,LeftStick1,Switch,Switch*%
%TO.N,GP18*%
X86750000Y-108750000D03*
X93250000Y-108750000D03*
D10*
%TO.P,LeftStick1,VGND,VGND*%
%TO.N,GND*%
X98730000Y-96000000D03*
%TO.P,LeftStick1,VOut,VOut*%
%TO.N,GP26*%
X98730000Y-98500000D03*
%TO.P,LeftStick1,VVCC,VVCC*%
%TO.N,+3V3*%
X98730000Y-101000000D03*
%TD*%
%TO.P,RightStick1,HGND,HGND*%
%TO.N,GND*%
X124000000Y-89770000D03*
%TO.P,RightStick1,HOut,HOut*%
%TO.N,GP29*%
X126500000Y-89770000D03*
%TO.P,RightStick1,HVCC,HVCC*%
%TO.N,+3V3*%
X129000000Y-89770000D03*
D11*
%TO.P,RightStick1,SH1,SHIELD*%
%TO.N,GND*%
X120175000Y-93500000D03*
%TO.P,RightStick1,SH2,SHIELD*%
X132825000Y-93500000D03*
%TO.P,RightStick1,SH3,SHIELD*%
X132825000Y-103500000D03*
%TO.P,RightStick1,SH4,SHIELD*%
X120175000Y-103500000D03*
D12*
%TO.P,RightStick1,SwGND,SwGND*%
X123250000Y-104250000D03*
X129750000Y-104250000D03*
%TO.P,RightStick1,Switch,Switch*%
%TO.N,GP19*%
X123250000Y-108750000D03*
X129750000Y-108750000D03*
D10*
%TO.P,RightStick1,VGND,VGND*%
%TO.N,GND*%
X135230000Y-96000000D03*
%TO.P,RightStick1,VOut,VOut*%
%TO.N,GP28*%
X135230000Y-98500000D03*
%TO.P,RightStick1,VVCC,VVCC*%
%TO.N,+3V3*%
X135230000Y-101000000D03*
%TD*%
D13*
%TO.P,J1,S1,SHIELD*%
%TO.N,GND*%
X121160000Y-53125000D03*
D14*
X121160000Y-48925000D03*
D13*
X112520000Y-53125000D03*
D14*
X112520000Y-48925000D03*
%TD*%
D15*
%TO.P,L2,1,1*%
%TO.N,GND*%
X75500000Y-55550000D03*
X67500000Y-55550000D03*
%TO.P,L2,2,2*%
%TO.N,GP09*%
X75500000Y-60050000D03*
X67500000Y-60050000D03*
%TD*%
%TO.P,BOOT_SEL1,1,1*%
%TO.N,GND*%
X83440000Y-70540000D03*
X91440000Y-70540000D03*
%TO.P,BOOT_SEL1,2,2*%
%TO.N,Net-(BOOT_SEL1-Pad2)*%
X83440000Y-66040000D03*
X91440000Y-66040000D03*
%TD*%
%TO.P,L1,1,1*%
%TO.N,GND*%
X75500000Y-48550000D03*
X67500000Y-48550000D03*
%TO.P,L1,2,2*%
%TO.N,GP13*%
X75500000Y-53050000D03*
X67500000Y-53050000D03*
%TD*%
%TO.P,bR2,1,1*%
%TO.N,GND*%
X166500000Y-55550000D03*
X158500000Y-55550000D03*
%TO.P,bR2,2,2*%
%TO.N,GP08*%
X166500000Y-60050000D03*
X158500000Y-60050000D03*
%TD*%
%TO.P,bR1,1,1*%
%TO.N,GND*%
X166500000Y-48550000D03*
X158500000Y-48550000D03*
%TO.P,bR1,2,2*%
%TO.N,GP12*%
X166500000Y-53050000D03*
X158500000Y-53050000D03*
%TD*%
D16*
%TO.N,VBUS*%
X127000000Y-68580000D03*
X123860000Y-60960000D03*
%TO.N,GND*%
X134000000Y-109220000D03*
X149860000Y-66040000D03*
X170180000Y-63500000D03*
X109220000Y-91440000D03*
X124460000Y-68580000D03*
X101600000Y-96000000D03*
X109220000Y-53340000D03*
X63500000Y-48260000D03*
X114300000Y-99060000D03*
X132080000Y-68580000D03*
X144780000Y-68580000D03*
X142240000Y-50800000D03*
X162560000Y-86360000D03*
X137160000Y-63500000D03*
X83820000Y-106680000D03*
X152400000Y-58420000D03*
X154940000Y-76200000D03*
X104140000Y-48260000D03*
X114900000Y-58420000D03*
X78000000Y-79030000D03*
X93980000Y-58420000D03*
X162560000Y-63500000D03*
X137160000Y-76200000D03*
X60960000Y-66040000D03*
X118332892Y-78598578D03*
X127000000Y-58420000D03*
X109220000Y-78740000D03*
X101600000Y-58420000D03*
X124460000Y-53340000D03*
X119380000Y-96520000D03*
X160020000Y-73660000D03*
X91440000Y-48260000D03*
X63500000Y-60960000D03*
X165100000Y-73660000D03*
X142240000Y-58420000D03*
X118042500Y-68580000D03*
X132080000Y-91000000D03*
X138000000Y-88900000D03*
X132080000Y-76200000D03*
X78740000Y-93980000D03*
X99060000Y-93980000D03*
X131000000Y-63500000D03*
X124460000Y-48260000D03*
X78740000Y-48260000D03*
X144780000Y-83820000D03*
X111760000Y-58420000D03*
X170180000Y-50800000D03*
X64000000Y-55880000D03*
X106680000Y-99060000D03*
X101600000Y-83820000D03*
X106680000Y-88900000D03*
X86360000Y-68580000D03*
X96520000Y-68580000D03*
X106000000Y-111000000D03*
X114810291Y-48260000D03*
X170180000Y-58420000D03*
X96600000Y-107000000D03*
X67000000Y-79030000D03*
X93980000Y-73660000D03*
X144780000Y-104140000D03*
X71120000Y-68580000D03*
X91440000Y-68580000D03*
X116840000Y-106680000D03*
X81280000Y-71120000D03*
X121920000Y-60960000D03*
X175260000Y-66040000D03*
X154940000Y-83820000D03*
X154940000Y-60960000D03*
X137160000Y-93000000D03*
X124300000Y-91600000D03*
X102000000Y-70485000D03*
X147320000Y-58420000D03*
X106680000Y-58420000D03*
X137160000Y-68580000D03*
X121200000Y-105700000D03*
X78740000Y-58420000D03*
X147320000Y-93980000D03*
X86360000Y-86360000D03*
X129540000Y-106680000D03*
X144780000Y-76200000D03*
X104140000Y-106680000D03*
X78000000Y-75500000D03*
X152400000Y-96520000D03*
X157480000Y-50800000D03*
X170180000Y-78740000D03*
X137160000Y-58420000D03*
X158000000Y-58000000D03*
X78800000Y-61500000D03*
X95500000Y-100000000D03*
%TO.N,GP26*%
X130340003Y-83220000D03*
X114300000Y-104140000D03*
X134620000Y-86360000D03*
%TO.N,GP27*%
X133650000Y-84790000D03*
X132080000Y-83220000D03*
%TO.N,GP28*%
X139700000Y-93980000D03*
X139700000Y-91440000D03*
X142240000Y-83820000D03*
%TO.N,GP29*%
X137160000Y-86360000D03*
X134620000Y-78740000D03*
%TO.N,USB_DM*%
X119380000Y-60960000D03*
X116490000Y-55980000D03*
X117690000Y-55880000D03*
%TO.N,+1V1*%
X119380000Y-65697500D03*
X116415736Y-75775736D03*
X116490000Y-60960000D03*
%TO.N,Net-(BOOT_SEL1-Pad2)*%
X91440000Y-63500000D03*
%TO.N,QSPI_SS*%
X104864265Y-66164265D03*
X96520000Y-63500000D03*
X103268235Y-65168234D03*
%TO.N,QSPI_SD3*%
X109220000Y-68580000D03*
X112892222Y-62367777D03*
%TO.N,GP06*%
X108275083Y-73563610D03*
X110812372Y-70064576D03*
%TO.N,GP07*%
X144780000Y-81280000D03*
X106680000Y-81280000D03*
X111550000Y-70532078D03*
X109123611Y-73563611D03*
%TO.N,GP12*%
X114300000Y-76200000D03*
%TO.N,GP08*%
X154940000Y-55880000D03*
X132080000Y-55880000D03*
X111335736Y-79164265D03*
%TO.N,GP19*%
X149860000Y-99060000D03*
X127800003Y-83220000D03*
%TO.N,GP21*%
X114900000Y-57489769D03*
X121685165Y-71354835D03*
%TO.N,GP03*%
X111550000Y-68789507D03*
X106680000Y-73660000D03*
%TO.N,GP13*%
X114486173Y-74200000D03*
%TO.N,GP09*%
X111160000Y-72375751D03*
%TO.N,GP18*%
X114300000Y-96520000D03*
X127000000Y-83220000D03*
%TO.N,GP04*%
X71120000Y-73660000D03*
X113800000Y-68580000D03*
%TO.N,GP20*%
X134620000Y-53340000D03*
X122203695Y-73376305D03*
%TO.N,GP16*%
X121920000Y-83220000D03*
X114300000Y-88900000D03*
%TO.N,GP17*%
X109220000Y-101600000D03*
X124460000Y-83220000D03*
%TO.N,GP02*%
X111550000Y-67916046D03*
X110914264Y-65194264D03*
X101600000Y-73060000D03*
X104140000Y-68580000D03*
%TO.N,GP10*%
X111760000Y-76200000D03*
X132080000Y-81280000D03*
%TO.N,GP11*%
X129540000Y-71120000D03*
X113035393Y-75783922D03*
%TO.N,+3V3*%
X157480000Y-73660000D03*
X109820000Y-68014313D03*
X99060000Y-73660000D03*
X147320000Y-96520000D03*
X142240000Y-99060000D03*
%TD*%
D17*
%TO.N,GP29*%
X137160000Y-86360000D02*
X137753190Y-86360000D01*
X145380000Y-81031471D02*
X143088529Y-78740000D01*
X137753190Y-86360000D02*
X141833190Y-82280000D01*
X141833190Y-82280000D02*
X144628529Y-82280000D01*
X144628529Y-82280000D02*
X145380000Y-81528529D01*
X145380000Y-81528529D02*
X145380000Y-81031471D01*
X143088529Y-78740000D02*
X134620000Y-78740000D01*
%TO.N,VBUS*%
X127000000Y-64100000D02*
X127000000Y-68580000D01*
X123860000Y-60960000D02*
X127000000Y-64100000D01*
%TO.N,GND*%
X114700000Y-58620000D02*
X114900000Y-58420000D01*
X118042500Y-68580000D02*
X118042500Y-63361029D01*
X114700000Y-60018529D02*
X114700000Y-58620000D01*
X118042500Y-63361029D02*
X114700000Y-60018529D01*
%TO.N,GP26*%
X133480003Y-86360000D02*
X134620000Y-86360000D01*
X99060000Y-104140000D02*
X99855000Y-103345000D01*
X130340003Y-83220000D02*
X133480003Y-86360000D01*
X101600000Y-109220000D02*
X99060000Y-106680000D01*
X99060000Y-106680000D02*
X99060000Y-104140000D01*
X114300000Y-104140000D02*
X109220000Y-109220000D01*
X99855000Y-103345000D02*
X99855000Y-99625000D01*
X99855000Y-99625000D02*
X98730000Y-98500000D01*
X109220000Y-109220000D02*
X101600000Y-109220000D01*
%TO.N,GP27*%
X133650000Y-84790000D02*
X132080000Y-83220000D01*
%TO.N,GP28*%
X142240000Y-88900000D02*
X139700000Y-91440000D01*
X139700000Y-93980000D02*
X139700000Y-94030000D01*
X142240000Y-83820000D02*
X142240000Y-88900000D01*
X139700000Y-94030000D02*
X135230000Y-98500000D01*
%TO.N,USB_DM*%
X116590000Y-55880000D02*
X116490000Y-55980000D01*
X119380000Y-60960000D02*
X116490000Y-58070000D01*
X116490000Y-58070000D02*
X116490000Y-55980000D01*
X117690000Y-55880000D02*
X116590000Y-55880000D01*
%TO.N,+1V1*%
X119380000Y-72811472D02*
X116415736Y-75775736D01*
X116490000Y-60960000D02*
X119043923Y-63513923D01*
X119380000Y-65697500D02*
X119380000Y-72811472D01*
X119043923Y-63513923D02*
X119043923Y-65361423D01*
X119043923Y-65361423D02*
X119380000Y-65697500D01*
%TO.N,Net-(BOOT_SEL1-Pad2)*%
X83820000Y-66040000D02*
X91440000Y-66040000D01*
X86360000Y-63500000D02*
X83820000Y-66040000D01*
X91440000Y-63500000D02*
X86360000Y-63500000D01*
%TO.N,QSPI_SS*%
X104864265Y-66164265D02*
X104264266Y-66164265D01*
X98188234Y-65168234D02*
X103268235Y-65168234D01*
X96520000Y-63500000D02*
X98188234Y-65168234D01*
X104264266Y-66164265D02*
X103268235Y-65168234D01*
%TO.N,QSPI_SD3*%
X109220000Y-66039999D02*
X109220000Y-68580000D01*
X112892222Y-62367777D02*
X109220000Y-66039999D01*
%TO.N,GP06*%
X108275083Y-72601865D02*
X108275083Y-73563610D01*
X110812372Y-70064576D02*
X108275083Y-72601865D01*
%TO.N,GP07*%
X106680000Y-81280000D02*
X107280000Y-81880000D01*
X107280000Y-81880000D02*
X144180000Y-81880000D01*
X111550000Y-70532078D02*
X111188461Y-70532078D01*
X111188461Y-70532078D02*
X109123611Y-72596928D01*
X144180000Y-81880000D02*
X144780000Y-81280000D01*
X109123611Y-72596928D02*
X109123611Y-73563611D01*
%TO.N,GP12*%
X114300000Y-76200000D02*
X114475736Y-76375736D01*
X134620000Y-55880000D02*
X137160000Y-53340000D01*
X166210000Y-53340000D02*
X166500000Y-53050000D01*
X121744264Y-76375736D02*
X134620000Y-63500000D01*
X114475736Y-76375736D02*
X121744264Y-76375736D01*
X134620000Y-63500000D02*
X134620000Y-55880000D01*
X137160000Y-53340000D02*
X166210000Y-53340000D01*
%TO.N,GP08*%
X154940000Y-55880000D02*
X154940000Y-56728529D01*
X114237644Y-74800000D02*
X114734702Y-74800000D01*
X127600000Y-51400000D02*
X132080000Y-55880000D01*
X111160000Y-78988529D02*
X111160000Y-75951471D01*
X116840000Y-71906173D02*
X116840000Y-63500000D01*
X115086173Y-73660000D02*
X116840000Y-71906173D01*
X124211471Y-51400000D02*
X127600000Y-51400000D01*
X111160000Y-75951471D02*
X112752943Y-74358528D01*
X111335736Y-79164265D02*
X111160000Y-78988529D01*
X114734702Y-74800000D02*
X115086173Y-74448529D01*
X114300000Y-60960000D02*
X114300000Y-55880000D01*
X116840000Y-63500000D02*
X114300000Y-60960000D01*
X112752943Y-74358528D02*
X113796172Y-74358528D01*
X154940000Y-56728529D02*
X158261471Y-60050000D01*
X119380000Y-50800000D02*
X123611471Y-50800000D01*
X158261471Y-60050000D02*
X166500000Y-60050000D01*
X115086173Y-74448529D02*
X115086173Y-73660000D01*
X114300000Y-55880000D02*
X119380000Y-50800000D01*
X113796172Y-74358528D02*
X114237644Y-74800000D01*
X123611471Y-50800000D02*
X124211471Y-51400000D01*
%TO.N,GP19*%
X146471471Y-99060000D02*
X136311471Y-88900000D01*
X136900000Y-101600000D02*
X129750000Y-108750000D01*
X123250000Y-108750000D02*
X129750000Y-108750000D01*
X147320000Y-101600000D02*
X136900000Y-101600000D01*
X127800003Y-85468532D02*
X127800003Y-83220000D01*
X149860000Y-99060000D02*
X147320000Y-101600000D01*
X136311471Y-88900000D02*
X131231471Y-88900000D01*
X131231471Y-88900000D02*
X127800003Y-85468532D01*
X149860000Y-99060000D02*
X146471471Y-99060000D01*
%TO.N,GP21*%
X121685165Y-71354835D02*
X121685165Y-65306636D01*
X116557157Y-59146926D02*
X114900000Y-57489769D01*
X121685165Y-65306636D02*
X116557157Y-60178628D01*
X116557157Y-60178628D02*
X116557157Y-59146926D01*
%TO.N,GP03*%
X111238912Y-68789507D02*
X106680000Y-73348419D01*
X106680000Y-73348419D02*
X106680000Y-73660000D01*
X111579447Y-68789507D02*
X111238912Y-68789507D01*
%TO.N,GP13*%
X107252974Y-55880000D02*
X88900000Y-55880000D01*
X86360000Y-53340000D02*
X80490000Y-53340000D01*
X75500000Y-53050000D02*
X67500000Y-53050000D01*
X80200000Y-53050000D02*
X75500000Y-53050000D01*
X114486173Y-63113199D02*
X107252974Y-55880000D01*
X88900000Y-55880000D02*
X86360000Y-53340000D01*
X114486173Y-74109999D02*
X114486173Y-63113199D01*
X80490000Y-53340000D02*
X80200000Y-53050000D01*
%TO.N,GP09*%
X75500000Y-60050000D02*
X67500000Y-60050000D01*
X98811471Y-74260000D02*
X93980000Y-69428529D01*
X93980000Y-69428529D02*
X93980000Y-60960000D01*
X109275751Y-74260000D02*
X98811471Y-74260000D01*
X93980000Y-60960000D02*
X93070000Y-60050000D01*
X93070000Y-60050000D02*
X75500000Y-60050000D01*
X111160000Y-72375751D02*
X109275751Y-74260000D01*
%TO.N,GP18*%
X118780000Y-91440000D02*
X115714216Y-91440000D01*
X114300000Y-92854216D02*
X114300000Y-96520000D01*
X115714216Y-91440000D02*
X114300000Y-92854216D01*
X127000000Y-83220000D02*
X118780000Y-91440000D01*
%TO.N,GP04*%
X71120000Y-73660000D02*
X71120000Y-73950000D01*
X113800000Y-70630094D02*
X107630094Y-76800000D01*
X113800000Y-68580000D02*
X113800000Y-70630094D01*
X107630094Y-76800000D02*
X74260000Y-76800000D01*
X74260000Y-76800000D02*
X71120000Y-73660000D01*
%TO.N,GP20*%
X132680000Y-63748529D02*
X132680000Y-55280000D01*
X132680000Y-55280000D02*
X134620000Y-53340000D01*
X122203695Y-73376305D02*
X123052224Y-73376305D01*
X123052224Y-73376305D02*
X132680000Y-63748529D01*
%TO.N,GP16*%
X119980000Y-83220000D02*
X121920000Y-83220000D01*
X114300000Y-88900000D02*
X119980000Y-83220000D01*
%TO.N,GP17*%
X109220000Y-97085686D02*
X123085686Y-83220000D01*
X109220000Y-101600000D02*
X109220000Y-97085686D01*
X123085686Y-83220000D02*
X124460000Y-83220000D01*
%TO.N,GP02*%
X111550000Y-67249416D02*
X110914264Y-66613680D01*
X110914264Y-66613680D02*
X110914264Y-65194264D01*
X104140000Y-70520000D02*
X101600000Y-73060000D01*
X111550000Y-67916046D02*
X111550000Y-67249416D01*
X104140000Y-68580000D02*
X104140000Y-70520000D01*
%TO.N,GP10*%
X114300000Y-81280000D02*
X111760000Y-78740000D01*
X132080000Y-81280000D02*
X114300000Y-81280000D01*
X111760000Y-78740000D02*
X111760000Y-76200000D01*
%TO.N,GP11*%
X129540000Y-71120000D02*
X123860000Y-76800000D01*
X123860000Y-76800000D02*
X114051471Y-76800000D01*
X114051471Y-76800000D02*
X113035393Y-75783922D01*
%TO.N,+3V3*%
X92500000Y-94770000D02*
X92500000Y-89770000D01*
X109820000Y-68014313D02*
X109820000Y-68828529D01*
X132680000Y-98450000D02*
X135230000Y-101000000D01*
X129000000Y-89770000D02*
X129000000Y-92591471D01*
X132680000Y-96271471D02*
X132680000Y-98450000D01*
X98730000Y-101000000D02*
X92500000Y-94770000D01*
X109668529Y-109620000D02*
X101434314Y-109620000D01*
X101434314Y-109620000D02*
X98660000Y-106845686D01*
X118288529Y-101000000D02*
X109668529Y-109620000D01*
X149860000Y-96520000D02*
X147320000Y-96520000D01*
X157480000Y-88900000D02*
X149860000Y-96520000D01*
X129000000Y-92591471D02*
X132680000Y-96271471D01*
X142240000Y-99060000D02*
X140300000Y-101000000D01*
X135230000Y-101000000D02*
X118288529Y-101000000D01*
X104988529Y-73660000D02*
X99060000Y-73660000D01*
X157480000Y-73660000D02*
X157480000Y-88900000D01*
X98660000Y-106845686D02*
X98660000Y-101070000D01*
X109820000Y-68828529D02*
X104988529Y-73660000D01*
X140300000Y-101000000D02*
X135230000Y-101000000D01*
X98660000Y-101070000D02*
X98730000Y-101000000D01*
%TD*%
%TA.AperFunction,Conductor*%
%TO.N,GND*%
G36*
X134039377Y-101620185D02*
G01*
X134082823Y-101668205D01*
X134096330Y-101694714D01*
X134218965Y-101863505D01*
X134366495Y-102011035D01*
X134535286Y-102133670D01*
X134586130Y-102159576D01*
X134721179Y-102228387D01*
X134721181Y-102228387D01*
X134721184Y-102228389D01*
X134827545Y-102262948D01*
X134919610Y-102292862D01*
X135057608Y-102314719D01*
X135120743Y-102344648D01*
X135157674Y-102403960D01*
X135156676Y-102473822D01*
X135125891Y-102524873D01*
X134645079Y-103005684D01*
X134583756Y-103039169D01*
X134514064Y-103034185D01*
X134458131Y-102992313D01*
X134440457Y-102955912D01*
X134439540Y-102956224D01*
X134438232Y-102952373D01*
X134352954Y-102746497D01*
X134352949Y-102746485D01*
X134241533Y-102553507D01*
X134190956Y-102487595D01*
X134190955Y-102487595D01*
X133540846Y-103137705D01*
X133533951Y-103121058D01*
X133446401Y-102990030D01*
X133334970Y-102878599D01*
X133203942Y-102791049D01*
X133187293Y-102784152D01*
X133837403Y-102134043D01*
X133837403Y-102134040D01*
X133771504Y-102083473D01*
X133771491Y-102083464D01*
X133578520Y-101972054D01*
X133578502Y-101972045D01*
X133372618Y-101886763D01*
X133214046Y-101844275D01*
X133154385Y-101807910D01*
X133123856Y-101745063D01*
X133132151Y-101675688D01*
X133176636Y-101621810D01*
X133243188Y-101600535D01*
X133246139Y-101600500D01*
X133972338Y-101600500D01*
X134039377Y-101620185D01*
G37*
%TD.AperFunction*%
%TA.AperFunction,Conductor*%
G36*
X129669307Y-82486738D02*
G01*
X129691396Y-82488318D01*
X129702179Y-82496390D01*
X129715101Y-82500185D01*
X129729600Y-82516918D01*
X129747329Y-82530190D01*
X129752036Y-82542810D01*
X129760856Y-82552989D01*
X129764007Y-82574906D01*
X129771746Y-82595654D01*
X129768883Y-82608814D01*
X129770800Y-82622147D01*
X129761600Y-82642290D01*
X129756894Y-82663927D01*
X129743625Y-82681652D01*
X129741775Y-82685703D01*
X129735743Y-82692181D01*
X129718216Y-82709707D01*
X129718213Y-82709711D01*
X129630612Y-82840814D01*
X129630605Y-82840827D01*
X129570267Y-82986498D01*
X129570264Y-82986510D01*
X129539503Y-83141153D01*
X129539503Y-83298846D01*
X129570264Y-83453489D01*
X129570267Y-83453501D01*
X129630605Y-83599172D01*
X129630612Y-83599185D01*
X129718213Y-83730288D01*
X129718216Y-83730292D01*
X129829710Y-83841786D01*
X129829714Y-83841789D01*
X129960817Y-83929390D01*
X129960830Y-83929397D01*
X130027413Y-83956976D01*
X130106506Y-83989737D01*
X130171150Y-84002595D01*
X130261852Y-84020638D01*
X130323763Y-84053023D01*
X130325341Y-84054573D01*
X133111287Y-86840520D01*
X133111289Y-86840521D01*
X133111293Y-86840524D01*
X133248212Y-86919573D01*
X133248219Y-86919577D01*
X133400946Y-86960501D01*
X133400948Y-86960501D01*
X133566657Y-86960501D01*
X133566673Y-86960500D01*
X134040234Y-86960500D01*
X134107273Y-86980185D01*
X134109125Y-86981398D01*
X134240814Y-87069390D01*
X134240827Y-87069397D01*
X134386498Y-87129735D01*
X134386503Y-87129737D01*
X134541153Y-87160499D01*
X134541156Y-87160500D01*
X134541158Y-87160500D01*
X134698844Y-87160500D01*
X134698845Y-87160499D01*
X134853497Y-87129737D01*
X134999179Y-87069394D01*
X135130289Y-86981789D01*
X135241789Y-86870289D01*
X135329394Y-86739179D01*
X135389737Y-86593497D01*
X135420500Y-86438842D01*
X135420500Y-86281158D01*
X135420500Y-86281155D01*
X135420499Y-86281153D01*
X135389738Y-86126510D01*
X135389737Y-86126503D01*
X135389735Y-86126498D01*
X135329397Y-85980827D01*
X135329390Y-85980814D01*
X135241789Y-85849711D01*
X135241786Y-85849707D01*
X135130292Y-85738213D01*
X135130288Y-85738210D01*
X134999185Y-85650609D01*
X134999172Y-85650602D01*
X134853501Y-85590264D01*
X134853489Y-85590261D01*
X134698845Y-85559500D01*
X134698842Y-85559500D01*
X134541158Y-85559500D01*
X134541155Y-85559500D01*
X134386510Y-85590261D01*
X134386498Y-85590264D01*
X134251748Y-85646079D01*
X134182279Y-85653548D01*
X134119800Y-85622272D01*
X134084148Y-85562183D01*
X134086642Y-85492358D01*
X134126491Y-85434966D01*
X134135406Y-85428415D01*
X134160289Y-85411789D01*
X134271789Y-85300289D01*
X134359394Y-85169179D01*
X134419737Y-85023497D01*
X134450500Y-84868842D01*
X134450500Y-84711158D01*
X134450500Y-84711155D01*
X134450499Y-84711153D01*
X134419738Y-84556510D01*
X134419737Y-84556503D01*
X134419735Y-84556498D01*
X134359397Y-84410827D01*
X134359390Y-84410814D01*
X134271789Y-84279711D01*
X134271786Y-84279707D01*
X134160292Y-84168213D01*
X134160288Y-84168210D01*
X134029185Y-84080609D01*
X134029172Y-84080602D01*
X133883501Y-84020264D01*
X133883491Y-84020261D01*
X133728149Y-83989361D01*
X133666238Y-83956976D01*
X133664660Y-83955425D01*
X132914574Y-83205339D01*
X132881089Y-83144016D01*
X132880638Y-83141849D01*
X132858080Y-83028448D01*
X132849737Y-82986503D01*
X132822869Y-82921637D01*
X132789397Y-82840827D01*
X132789390Y-82840814D01*
X132701789Y-82709711D01*
X132701786Y-82709707D01*
X132684260Y-82692181D01*
X132650775Y-82630858D01*
X132655759Y-82561166D01*
X132697631Y-82505233D01*
X132763095Y-82480816D01*
X132771941Y-82480500D01*
X140484093Y-82480500D01*
X140551132Y-82500185D01*
X140596887Y-82552989D01*
X140606831Y-82622147D01*
X140577806Y-82685703D01*
X140571774Y-82692181D01*
X137650211Y-85613742D01*
X137588888Y-85647227D01*
X137519196Y-85642243D01*
X137515078Y-85640622D01*
X137393501Y-85590264D01*
X137393489Y-85590261D01*
X137238845Y-85559500D01*
X137238842Y-85559500D01*
X137081158Y-85559500D01*
X137081155Y-85559500D01*
X136926510Y-85590261D01*
X136926498Y-85590264D01*
X136780827Y-85650602D01*
X136780814Y-85650609D01*
X136649711Y-85738210D01*
X136649707Y-85738213D01*
X136538213Y-85849707D01*
X136538210Y-85849711D01*
X136450609Y-85980814D01*
X136450602Y-85980827D01*
X136390264Y-86126498D01*
X136390261Y-86126510D01*
X136359500Y-86281153D01*
X136359500Y-86438846D01*
X136390261Y-86593489D01*
X136390264Y-86593501D01*
X136450602Y-86739172D01*
X136450609Y-86739185D01*
X136538210Y-86870288D01*
X136538213Y-86870292D01*
X136649707Y-86981786D01*
X136649711Y-86981789D01*
X136780814Y-87069390D01*
X136780827Y-87069397D01*
X136926498Y-87129735D01*
X136926503Y-87129737D01*
X137081153Y-87160499D01*
X137081156Y-87160500D01*
X137081158Y-87160500D01*
X137238844Y-87160500D01*
X137238845Y-87160499D01*
X137393497Y-87129737D01*
X137539179Y-87069394D01*
X137670289Y-86981789D01*
X137670288Y-86981789D01*
X137670873Y-86981399D01*
X137737550Y-86960521D01*
X137739764Y-86960501D01*
X137832244Y-86960501D01*
X137832247Y-86960501D01*
X137984975Y-86919577D01*
X138035094Y-86890639D01*
X138121906Y-86840520D01*
X138233710Y-86728716D01*
X138233710Y-86728714D01*
X138243918Y-86718507D01*
X138243920Y-86718504D01*
X141227819Y-83734605D01*
X141289142Y-83701120D01*
X141358834Y-83706104D01*
X141414767Y-83747976D01*
X141439184Y-83813440D01*
X141439500Y-83822286D01*
X141439500Y-83898846D01*
X141470261Y-84053489D01*
X141470264Y-84053501D01*
X141530602Y-84199172D01*
X141530609Y-84199185D01*
X141618602Y-84330874D01*
X141639480Y-84397551D01*
X141639500Y-84399765D01*
X141639500Y-88599903D01*
X141619815Y-88666942D01*
X141603181Y-88687584D01*
X139685339Y-90605425D01*
X139624016Y-90638910D01*
X139621850Y-90639361D01*
X139466508Y-90670261D01*
X139466498Y-90670264D01*
X139320827Y-90730602D01*
X139320814Y-90730609D01*
X139207909Y-90806051D01*
X139141231Y-90826929D01*
X139073851Y-90808445D01*
X139051337Y-90790630D01*
X136799061Y-88538355D01*
X136799059Y-88538352D01*
X136680188Y-88419481D01*
X136680187Y-88419480D01*
X136593375Y-88369360D01*
X136593375Y-88369359D01*
X136593371Y-88369358D01*
X136543256Y-88340423D01*
X136390528Y-88299499D01*
X136232414Y-88299499D01*
X136224818Y-88299499D01*
X136224802Y-88299500D01*
X131531569Y-88299500D01*
X131464530Y-88279815D01*
X131443888Y-88263181D01*
X128436822Y-85256115D01*
X128403337Y-85194792D01*
X128400503Y-85168434D01*
X128400503Y-83799765D01*
X128420188Y-83732726D01*
X128421401Y-83730874D01*
X128509393Y-83599185D01*
X128509393Y-83599184D01*
X128509397Y-83599179D01*
X128569740Y-83453497D01*
X128600503Y-83298842D01*
X128600503Y-83141158D01*
X128600503Y-83141155D01*
X128600502Y-83141153D01*
X128578083Y-83028448D01*
X128569740Y-82986503D01*
X128542872Y-82921637D01*
X128509400Y-82840827D01*
X128509393Y-82840814D01*
X128421792Y-82709711D01*
X128421789Y-82709707D01*
X128404263Y-82692181D01*
X128370778Y-82630858D01*
X128375762Y-82561166D01*
X128417634Y-82505233D01*
X128483098Y-82480816D01*
X128491944Y-82480500D01*
X129648062Y-82480500D01*
X129669307Y-82486738D01*
G37*
%TD.AperFunction*%
%TA.AperFunction,Conductor*%
G36*
X116212736Y-61722577D02*
G01*
X116222041Y-61720899D01*
X116250608Y-61728190D01*
X116250676Y-61727969D01*
X116255628Y-61729471D01*
X116256236Y-61729626D01*
X116256503Y-61729737D01*
X116313035Y-61740982D01*
X116411849Y-61760638D01*
X116473760Y-61793023D01*
X116475339Y-61794574D01*
X118407104Y-63726339D01*
X118440589Y-63787662D01*
X118443423Y-63814020D01*
X118443423Y-65274753D01*
X118443422Y-65274771D01*
X118443422Y-65440477D01*
X118443421Y-65440477D01*
X118480907Y-65580375D01*
X118484346Y-65593208D01*
X118490974Y-65604688D01*
X118563933Y-65731057D01*
X118576669Y-65770694D01*
X118578311Y-65770368D01*
X118610261Y-65930989D01*
X118610264Y-65931001D01*
X118670602Y-66076672D01*
X118670609Y-66076685D01*
X118758602Y-66208374D01*
X118779480Y-66275051D01*
X118779500Y-66277265D01*
X118779500Y-72511375D01*
X118759815Y-72578414D01*
X118743181Y-72599056D01*
X116401075Y-74941161D01*
X116339752Y-74974646D01*
X116337586Y-74975097D01*
X116182244Y-75005997D01*
X116182234Y-75006000D01*
X116036563Y-75066338D01*
X116036550Y-75066345D01*
X115905447Y-75153946D01*
X115905443Y-75153949D01*
X115793949Y-75265443D01*
X115793946Y-75265447D01*
X115706345Y-75396550D01*
X115706338Y-75396563D01*
X115646000Y-75542234D01*
X115645997Y-75542244D01*
X115619505Y-75675428D01*
X115587120Y-75737339D01*
X115526404Y-75771913D01*
X115497888Y-75775236D01*
X115045215Y-75775236D01*
X114978176Y-75755551D01*
X114953467Y-75734653D01*
X114947247Y-75727812D01*
X114921789Y-75689711D01*
X114820650Y-75588572D01*
X114818668Y-75586392D01*
X114804631Y-75557501D01*
X114789250Y-75529333D01*
X114789467Y-75526291D01*
X114788134Y-75523547D01*
X114791943Y-75491662D01*
X114794234Y-75459641D01*
X114796062Y-75457198D01*
X114796424Y-75454171D01*
X114816865Y-75429410D01*
X114836106Y-75403708D01*
X114839407Y-75402104D01*
X114840905Y-75400290D01*
X114847450Y-75398196D01*
X114878319Y-75383201D01*
X114966487Y-75359577D01*
X115016606Y-75330639D01*
X115103418Y-75280520D01*
X115215222Y-75168716D01*
X115215222Y-75168714D01*
X115225430Y-75158507D01*
X115225432Y-75158504D01*
X115444679Y-74939257D01*
X115444684Y-74939253D01*
X115454887Y-74929049D01*
X115454889Y-74929049D01*
X115566693Y-74817245D01*
X115618655Y-74727244D01*
X115645750Y-74680314D01*
X115686673Y-74527586D01*
X115686673Y-74369472D01*
X115686673Y-73960096D01*
X115706358Y-73893057D01*
X115722987Y-73872420D01*
X117198506Y-72396900D01*
X117198511Y-72396897D01*
X117208714Y-72386693D01*
X117208716Y-72386693D01*
X117320520Y-72274889D01*
X117389543Y-72155337D01*
X117389544Y-72155336D01*
X117393615Y-72148283D01*
X117399577Y-72137958D01*
X117440501Y-71985230D01*
X117440501Y-71827116D01*
X117440501Y-71819521D01*
X117440500Y-71819503D01*
X117440500Y-63420945D01*
X117440500Y-63420943D01*
X117399577Y-63268216D01*
X117398585Y-63266498D01*
X117320524Y-63131290D01*
X117320521Y-63131286D01*
X117320520Y-63131284D01*
X117208716Y-63019480D01*
X117208715Y-63019479D01*
X117204385Y-63015149D01*
X117204374Y-63015139D01*
X116121104Y-61931869D01*
X116115703Y-61921978D01*
X116106928Y-61914907D01*
X116099257Y-61891860D01*
X116087619Y-61870546D01*
X116088422Y-61859305D01*
X116084864Y-61848613D01*
X116090870Y-61825081D01*
X116092603Y-61800854D01*
X116099357Y-61791831D01*
X116102144Y-61780914D01*
X116119919Y-61764364D01*
X116134475Y-61744921D01*
X116145033Y-61740982D01*
X116153281Y-61733304D01*
X116177181Y-61728992D01*
X116199939Y-61720504D01*
X116212736Y-61722577D01*
G37*
%TD.AperFunction*%
%TA.AperFunction,Conductor*%
G36*
X120826016Y-51420185D02*
G01*
X120871771Y-51472989D01*
X120881715Y-51542147D01*
X120852690Y-51605703D01*
X120806429Y-51639061D01*
X120686328Y-51688807D01*
X120686315Y-51688814D01*
X120522537Y-51798248D01*
X120522533Y-51798251D01*
X120383248Y-51937536D01*
X120273811Y-52101321D01*
X120270949Y-52106676D01*
X120221982Y-52156516D01*
X120153843Y-52171971D01*
X120088165Y-52148134D01*
X120086112Y-52146592D01*
X120083371Y-52144489D01*
X120083366Y-52144486D01*
X120083365Y-52144485D01*
X120008593Y-52101315D01*
X119952136Y-52068719D01*
X119833081Y-52036819D01*
X119805766Y-52029500D01*
X119654234Y-52029500D01*
X119507863Y-52068719D01*
X119376635Y-52144485D01*
X119376632Y-52144487D01*
X119269487Y-52251632D01*
X119269485Y-52251635D01*
X119193719Y-52382863D01*
X119175864Y-52449500D01*
X119154500Y-52529234D01*
X119154500Y-52680766D01*
X119160506Y-52703181D01*
X119193719Y-52827136D01*
X119212393Y-52859479D01*
X119269485Y-52958365D01*
X119376635Y-53065515D01*
X119507865Y-53141281D01*
X119654234Y-53180500D01*
X119654236Y-53180500D01*
X119805764Y-53180500D01*
X119805766Y-53180500D01*
X119952135Y-53141281D01*
X120083365Y-53065515D01*
X120190515Y-52958365D01*
X120202850Y-52936999D01*
X120253417Y-52888784D01*
X120310237Y-52875000D01*
X120860000Y-52875000D01*
X120860000Y-53375000D01*
X120160000Y-53375000D01*
X120160000Y-53773495D01*
X120198427Y-53966681D01*
X120198430Y-53966693D01*
X120273807Y-54148671D01*
X120273814Y-54148684D01*
X120383248Y-54312462D01*
X120383251Y-54312466D01*
X120522533Y-54451748D01*
X120522537Y-54451751D01*
X120686315Y-54561185D01*
X120686328Y-54561192D01*
X120868308Y-54636569D01*
X120910000Y-54644862D01*
X120910000Y-53841988D01*
X120919940Y-53859205D01*
X120975795Y-53915060D01*
X121044204Y-53954556D01*
X121120504Y-53975000D01*
X121199496Y-53975000D01*
X121275796Y-53954556D01*
X121344205Y-53915060D01*
X121400060Y-53859205D01*
X121410000Y-53841988D01*
X121410000Y-54644862D01*
X121451690Y-54636569D01*
X121451692Y-54636569D01*
X121633671Y-54561192D01*
X121633684Y-54561185D01*
X121797462Y-54451751D01*
X121797466Y-54451748D01*
X121936748Y-54312466D01*
X121936751Y-54312462D01*
X122046185Y-54148684D01*
X122046192Y-54148671D01*
X122121569Y-53966693D01*
X122121572Y-53966681D01*
X122159999Y-53773495D01*
X122160000Y-53773492D01*
X122160000Y-53375000D01*
X121460000Y-53375000D01*
X121460000Y-52875000D01*
X122160000Y-52875000D01*
X122160000Y-52476508D01*
X122159999Y-52476504D01*
X122121572Y-52283318D01*
X122121569Y-52283306D01*
X122046192Y-52101328D01*
X122046185Y-52101315D01*
X121936751Y-51937537D01*
X121936748Y-51937533D01*
X121797466Y-51798251D01*
X121797462Y-51798248D01*
X121633684Y-51688814D01*
X121633671Y-51688807D01*
X121513571Y-51639061D01*
X121459167Y-51595220D01*
X121437102Y-51528926D01*
X121454381Y-51461227D01*
X121505518Y-51413616D01*
X121561023Y-51400500D01*
X123311374Y-51400500D01*
X123378413Y-51420185D01*
X123399055Y-51436819D01*
X123726610Y-51764374D01*
X123726620Y-51764385D01*
X123730950Y-51768715D01*
X123730951Y-51768716D01*
X123842755Y-51880520D01*
X123887246Y-51906206D01*
X123929566Y-51930639D01*
X123929568Y-51930641D01*
X123967622Y-51952611D01*
X123979686Y-51959577D01*
X124132414Y-52000500D01*
X124290528Y-52000500D01*
X127299903Y-52000500D01*
X127366942Y-52020185D01*
X127387584Y-52036819D01*
X131245425Y-55894660D01*
X131278910Y-55955983D01*
X131279361Y-55958149D01*
X131310261Y-56113491D01*
X131310264Y-56113501D01*
X131370602Y-56259172D01*
X131370609Y-56259185D01*
X131458210Y-56390288D01*
X131458213Y-56390292D01*
X131569707Y-56501786D01*
X131569711Y-56501789D01*
X131700814Y-56589390D01*
X131700827Y-56589397D01*
X131845863Y-56649472D01*
X131846503Y-56649737D01*
X131956987Y-56671713D01*
X131979691Y-56676230D01*
X132041602Y-56708615D01*
X132076176Y-56769330D01*
X132079500Y-56797847D01*
X132079500Y-63448432D01*
X132059815Y-63515471D01*
X132043181Y-63536113D01*
X127812181Y-67767113D01*
X127750858Y-67800598D01*
X127681166Y-67795614D01*
X127625233Y-67753742D01*
X127600816Y-67688278D01*
X127600500Y-67679432D01*
X127600500Y-64189060D01*
X127600501Y-64189047D01*
X127600501Y-64020944D01*
X127597646Y-64010288D01*
X127559577Y-63868216D01*
X127559573Y-63868209D01*
X127480524Y-63731290D01*
X127480518Y-63731282D01*
X124694573Y-60945337D01*
X124661088Y-60884014D01*
X124660637Y-60881847D01*
X124655791Y-60857483D01*
X124629737Y-60726503D01*
X124629735Y-60726498D01*
X124569397Y-60580827D01*
X124569390Y-60580814D01*
X124481789Y-60449711D01*
X124481786Y-60449707D01*
X124370292Y-60338213D01*
X124370288Y-60338210D01*
X124239185Y-60250609D01*
X124239172Y-60250602D01*
X124093501Y-60190264D01*
X124093489Y-60190261D01*
X123938845Y-60159500D01*
X123938842Y-60159500D01*
X123781158Y-60159500D01*
X123781155Y-60159500D01*
X123626510Y-60190261D01*
X123626498Y-60190264D01*
X123480827Y-60250602D01*
X123480814Y-60250609D01*
X123349711Y-60338210D01*
X123349707Y-60338213D01*
X123238213Y-60449707D01*
X123238210Y-60449711D01*
X123150609Y-60580814D01*
X123150602Y-60580827D01*
X123090264Y-60726498D01*
X123090261Y-60726510D01*
X123059500Y-60881153D01*
X123059500Y-61038846D01*
X123090261Y-61193489D01*
X123090264Y-61193501D01*
X123150602Y-61339172D01*
X123150609Y-61339185D01*
X123238210Y-61470288D01*
X123238213Y-61470292D01*
X123349707Y-61581786D01*
X123349711Y-61581789D01*
X123480814Y-61669390D01*
X123480827Y-61669397D01*
X123622768Y-61728190D01*
X123626503Y-61729737D01*
X123683035Y-61740982D01*
X123781849Y-61760638D01*
X123843760Y-61793023D01*
X123845339Y-61794574D01*
X126363181Y-64312416D01*
X126396666Y-64373739D01*
X126399500Y-64400097D01*
X126399500Y-68000234D01*
X126379815Y-68067273D01*
X126378602Y-68069125D01*
X126290609Y-68200814D01*
X126290602Y-68200827D01*
X126230264Y-68346498D01*
X126230261Y-68346510D01*
X126199500Y-68501153D01*
X126199500Y-68658846D01*
X126230261Y-68813489D01*
X126230264Y-68813501D01*
X126290602Y-68959172D01*
X126290609Y-68959185D01*
X126366051Y-69072091D01*
X126386929Y-69138769D01*
X126368445Y-69206149D01*
X126350630Y-69228663D01*
X122852358Y-72726935D01*
X122791035Y-72760420D01*
X122721343Y-72755436D01*
X122695786Y-72742356D01*
X122582880Y-72666914D01*
X122582867Y-72666907D01*
X122437196Y-72606569D01*
X122437184Y-72606566D01*
X122282540Y-72575805D01*
X122282537Y-72575805D01*
X122124853Y-72575805D01*
X122124850Y-72575805D01*
X121970205Y-72606566D01*
X121970193Y-72606569D01*
X121824522Y-72666907D01*
X121824509Y-72666914D01*
X121693406Y-72754515D01*
X121693402Y-72754518D01*
X121581908Y-72866012D01*
X121581905Y-72866016D01*
X121494304Y-72997119D01*
X121494297Y-72997132D01*
X121433959Y-73142803D01*
X121433956Y-73142815D01*
X121403195Y-73297458D01*
X121403195Y-73455151D01*
X121433956Y-73609794D01*
X121433959Y-73609806D01*
X121494297Y-73755477D01*
X121494304Y-73755490D01*
X121581905Y-73886593D01*
X121581908Y-73886597D01*
X121693402Y-73998091D01*
X121693406Y-73998094D01*
X121824509Y-74085695D01*
X121824522Y-74085702D01*
X121970193Y-74146040D01*
X121970198Y-74146042D01*
X122095036Y-74170874D01*
X122124848Y-74176804D01*
X122124851Y-74176805D01*
X122124853Y-74176805D01*
X122282539Y-74176805D01*
X122282540Y-74176804D01*
X122437192Y-74146042D01*
X122582874Y-74085699D01*
X122582880Y-74085695D01*
X122714570Y-73997703D01*
X122732616Y-73992052D01*
X122748526Y-73981828D01*
X122779487Y-73977376D01*
X122781248Y-73976825D01*
X122783461Y-73976805D01*
X122965555Y-73976805D01*
X122965571Y-73976806D01*
X122994596Y-73976806D01*
X123061635Y-73996491D01*
X123107390Y-74049295D01*
X123117334Y-74118453D01*
X123088309Y-74182009D01*
X123082277Y-74188487D01*
X121531848Y-75738917D01*
X121470525Y-75772402D01*
X121444167Y-75775236D01*
X117564833Y-75775236D01*
X117497794Y-75755551D01*
X117452039Y-75702747D01*
X117442095Y-75633589D01*
X117471120Y-75570033D01*
X117477152Y-75563555D01*
X118038560Y-75002147D01*
X119738506Y-73302199D01*
X119738511Y-73302196D01*
X119748714Y-73291992D01*
X119748716Y-73291992D01*
X119860520Y-73180188D01*
X119939577Y-73043256D01*
X119974449Y-72913111D01*
X119980500Y-72890530D01*
X119980500Y-72732415D01*
X119980500Y-66277265D01*
X120000185Y-66210226D01*
X120001398Y-66208374D01*
X120089390Y-66076685D01*
X120089390Y-66076684D01*
X120089394Y-66076679D01*
X120149737Y-65930997D01*
X120180500Y-65776342D01*
X120180500Y-65618658D01*
X120180500Y-65618655D01*
X120180499Y-65618653D01*
X120164247Y-65536950D01*
X120149737Y-65464003D01*
X120145956Y-65454874D01*
X120089397Y-65318327D01*
X120089390Y-65318314D01*
X120001789Y-65187211D01*
X120001786Y-65187207D01*
X119890292Y-65075713D01*
X119890288Y-65075710D01*
X119759185Y-64988109D01*
X119759175Y-64988104D01*
X119720970Y-64972279D01*
X119666567Y-64928438D01*
X119644502Y-64862144D01*
X119644423Y-64857718D01*
X119644423Y-64414491D01*
X119664108Y-64347452D01*
X119716912Y-64301697D01*
X119786070Y-64291753D01*
X119849626Y-64320778D01*
X119856104Y-64326810D01*
X121048346Y-65519052D01*
X121081831Y-65580375D01*
X121084665Y-65606733D01*
X121084665Y-70775069D01*
X121064980Y-70842108D01*
X121063767Y-70843960D01*
X120975774Y-70975649D01*
X120975767Y-70975662D01*
X120915429Y-71121333D01*
X120915426Y-71121345D01*
X120884665Y-71275988D01*
X120884665Y-71433681D01*
X120915426Y-71588324D01*
X120915429Y-71588336D01*
X120975767Y-71734007D01*
X120975774Y-71734020D01*
X121063375Y-71865123D01*
X121063378Y-71865127D01*
X121174872Y-71976621D01*
X121174876Y-71976624D01*
X121305979Y-72064225D01*
X121305992Y-72064232D01*
X121451663Y-72124570D01*
X121451668Y-72124572D01*
X121606318Y-72155334D01*
X121606321Y-72155335D01*
X121606323Y-72155335D01*
X121764009Y-72155335D01*
X121764010Y-72155334D01*
X121918662Y-72124572D01*
X122064344Y-72064229D01*
X122195454Y-71976624D01*
X122306954Y-71865124D01*
X122394559Y-71734014D01*
X122454902Y-71588332D01*
X122485665Y-71433677D01*
X122485665Y-71275993D01*
X122485665Y-71275990D01*
X122485664Y-71275988D01*
X122478798Y-71241472D01*
X122454902Y-71121338D01*
X122448275Y-71105339D01*
X122394562Y-70975662D01*
X122394555Y-70975649D01*
X122306563Y-70843960D01*
X122285685Y-70777282D01*
X122285665Y-70775069D01*
X122285665Y-65227581D01*
X122285665Y-65227579D01*
X122244742Y-65074852D01*
X122244738Y-65074845D01*
X122165689Y-64937926D01*
X122165686Y-64937922D01*
X122165685Y-64937920D01*
X122053881Y-64826116D01*
X122053880Y-64826115D01*
X122049550Y-64821785D01*
X122049539Y-64821775D01*
X119199132Y-61971368D01*
X119165647Y-61910045D01*
X119170631Y-61840353D01*
X119212503Y-61784420D01*
X119277967Y-61760003D01*
X119298969Y-61760284D01*
X119301154Y-61760499D01*
X119301158Y-61760500D01*
X119301162Y-61760500D01*
X119458844Y-61760500D01*
X119458845Y-61760499D01*
X119613497Y-61729737D01*
X119759179Y-61669394D01*
X119890289Y-61581789D01*
X120001789Y-61470289D01*
X120089394Y-61339179D01*
X120149737Y-61193497D01*
X120180500Y-61038842D01*
X120180500Y-60881158D01*
X120180500Y-60881155D01*
X120180499Y-60881153D01*
X120175791Y-60857483D01*
X120149737Y-60726503D01*
X120149735Y-60726498D01*
X120089397Y-60580827D01*
X120089390Y-60580814D01*
X120001789Y-60449711D01*
X120001786Y-60449707D01*
X119890292Y-60338213D01*
X119890288Y-60338210D01*
X119759185Y-60250609D01*
X119759172Y-60250602D01*
X119613501Y-60190264D01*
X119613491Y-60190261D01*
X119458149Y-60159361D01*
X119396238Y-60126976D01*
X119394660Y-60125425D01*
X117126819Y-57857584D01*
X117093334Y-57796261D01*
X117090500Y-57769903D01*
X117090500Y-56674168D01*
X117110185Y-56607129D01*
X117162989Y-56561374D01*
X117232147Y-56551430D01*
X117283392Y-56571067D01*
X117310812Y-56589389D01*
X117310827Y-56589397D01*
X117455863Y-56649472D01*
X117456503Y-56649737D01*
X117611153Y-56680499D01*
X117611156Y-56680500D01*
X117611158Y-56680500D01*
X117768844Y-56680500D01*
X117768845Y-56680499D01*
X117923497Y-56649737D01*
X118069179Y-56589394D01*
X118200289Y-56501789D01*
X118311789Y-56390289D01*
X118399394Y-56259179D01*
X118459737Y-56113497D01*
X118490500Y-55958842D01*
X118490500Y-55801158D01*
X118490500Y-55801155D01*
X118490499Y-55801153D01*
X118483911Y-55768033D01*
X118459737Y-55646503D01*
X118440812Y-55600813D01*
X118399397Y-55500827D01*
X118399390Y-55500814D01*
X118311789Y-55369711D01*
X118311786Y-55369707D01*
X118200292Y-55258213D01*
X118200288Y-55258210D01*
X118069185Y-55170609D01*
X118069172Y-55170602D01*
X117923501Y-55110264D01*
X117923489Y-55110261D01*
X117768845Y-55079500D01*
X117768842Y-55079500D01*
X117611158Y-55079500D01*
X117611155Y-55079500D01*
X117456510Y-55110261D01*
X117456498Y-55110264D01*
X117310827Y-55170602D01*
X117310814Y-55170609D01*
X117179125Y-55258602D01*
X117161078Y-55264252D01*
X117145169Y-55274477D01*
X117114207Y-55278928D01*
X117112447Y-55279480D01*
X117110234Y-55279500D01*
X116915316Y-55279500D01*
X116867864Y-55270061D01*
X116723501Y-55210264D01*
X116723489Y-55210261D01*
X116568845Y-55179500D01*
X116568842Y-55179500D01*
X116411158Y-55179500D01*
X116411155Y-55179500D01*
X116256510Y-55210261D01*
X116256498Y-55210264D01*
X116110827Y-55270602D01*
X116110813Y-55270610D01*
X116096242Y-55280346D01*
X116029564Y-55301222D01*
X115962185Y-55282736D01*
X115915496Y-55230756D01*
X115904321Y-55161786D01*
X115932209Y-55097723D01*
X115939662Y-55089572D01*
X119592416Y-51436819D01*
X119653739Y-51403334D01*
X119680097Y-51400500D01*
X120758977Y-51400500D01*
X120826016Y-51420185D01*
G37*
%TD.AperFunction*%
%TA.AperFunction,Conductor*%
G36*
X115105703Y-58545153D02*
G01*
X115112181Y-58551185D01*
X115920338Y-59359342D01*
X115953823Y-59420665D01*
X115956657Y-59447023D01*
X115956657Y-60099567D01*
X115956656Y-60099571D01*
X115956656Y-60257685D01*
X115963653Y-60283800D01*
X115964160Y-60297849D01*
X115958863Y-60318630D01*
X115958353Y-60340074D01*
X115949837Y-60354044D01*
X115946904Y-60365555D01*
X115937457Y-60374355D01*
X115927924Y-60389997D01*
X115868208Y-60449714D01*
X115780609Y-60580814D01*
X115780602Y-60580827D01*
X115720264Y-60726498D01*
X115720261Y-60726510D01*
X115689500Y-60881153D01*
X115689500Y-61038846D01*
X115720261Y-61193489D01*
X115720264Y-61193499D01*
X115720376Y-61193770D01*
X115720392Y-61193922D01*
X115722031Y-61199324D01*
X115721006Y-61199634D01*
X115727839Y-61263240D01*
X115696559Y-61325717D01*
X115636467Y-61361365D01*
X115566643Y-61358865D01*
X115518130Y-61328895D01*
X114936819Y-60747584D01*
X114903334Y-60686261D01*
X114900500Y-60659903D01*
X114900500Y-58638866D01*
X114920185Y-58571827D01*
X114972989Y-58526072D01*
X115042147Y-58516128D01*
X115105703Y-58545153D01*
G37*
%TD.AperFunction*%
%TA.AperFunction,Conductor*%
G36*
X170181941Y-46220561D02*
G01*
X170782646Y-46239439D01*
X170790384Y-46239925D01*
X170956784Y-46255655D01*
X171013895Y-46275930D01*
X177744784Y-50763189D01*
X177789644Y-50816753D01*
X177800000Y-50866362D01*
X177800000Y-73608638D01*
X177780315Y-73675677D01*
X177763681Y-73696319D01*
X144816319Y-106643681D01*
X144754996Y-106677166D01*
X144728638Y-106680000D01*
X143714500Y-106680000D01*
X143647461Y-106660315D01*
X143601706Y-106607511D01*
X143590500Y-106556000D01*
X143590500Y-106493713D01*
X143587170Y-106472686D01*
X143557246Y-106283757D01*
X143491557Y-106081588D01*
X143395051Y-105892184D01*
X143395049Y-105892181D01*
X143395048Y-105892179D01*
X143270109Y-105720213D01*
X143119786Y-105569890D01*
X142947820Y-105444951D01*
X142758414Y-105348444D01*
X142758413Y-105348443D01*
X142758412Y-105348443D01*
X142556243Y-105282754D01*
X142556241Y-105282753D01*
X142556240Y-105282753D01*
X142394957Y-105257208D01*
X142346287Y-105249500D01*
X142133713Y-105249500D01*
X142085042Y-105257208D01*
X141923760Y-105282753D01*
X141721585Y-105348444D01*
X141532179Y-105444951D01*
X141360213Y-105569890D01*
X141209890Y-105720213D01*
X141084951Y-105892179D01*
X140988444Y-106081585D01*
X140922753Y-106283760D01*
X140889500Y-106493713D01*
X140889500Y-106556000D01*
X140869815Y-106623039D01*
X140817011Y-106668794D01*
X140765500Y-106680000D01*
X139699999Y-106680000D01*
X134656319Y-111723681D01*
X134594996Y-111757166D01*
X134568638Y-111760000D01*
X83871362Y-111760000D01*
X83804323Y-111740315D01*
X83783681Y-111723681D01*
X80693870Y-108633870D01*
X85274500Y-108633870D01*
X85274500Y-108866129D01*
X85310831Y-109095514D01*
X85382601Y-109316400D01*
X85434474Y-109418205D01*
X85488039Y-109523331D01*
X85624551Y-109711224D01*
X85788776Y-109875449D01*
X85976669Y-110011961D01*
X86074436Y-110061776D01*
X86183599Y-110117398D01*
X86183601Y-110117398D01*
X86183604Y-110117400D01*
X86404486Y-110189169D01*
X86522668Y-110207886D01*
X86633871Y-110225500D01*
X86633876Y-110225500D01*
X86866129Y-110225500D01*
X86967502Y-110209443D01*
X87095514Y-110189169D01*
X87316396Y-110117400D01*
X87523331Y-110011961D01*
X87711224Y-109875449D01*
X87875449Y-109711224D01*
X88011961Y-109523331D01*
X88117400Y-109316396D01*
X88189169Y-109095514D01*
X88209443Y-108967502D01*
X88225500Y-108866129D01*
X88225500Y-108633870D01*
X91774500Y-108633870D01*
X91774500Y-108866129D01*
X91810831Y-109095514D01*
X91882601Y-109316400D01*
X91934474Y-109418205D01*
X91988039Y-109523331D01*
X92124551Y-109711224D01*
X92288776Y-109875449D01*
X92476669Y-110011961D01*
X92574436Y-110061776D01*
X92683599Y-110117398D01*
X92683601Y-110117398D01*
X92683604Y-110117400D01*
X92904486Y-110189169D01*
X93022668Y-110207886D01*
X93133871Y-110225500D01*
X93133876Y-110225500D01*
X93366129Y-110225500D01*
X93467502Y-110209443D01*
X93595514Y-110189169D01*
X93816396Y-110117400D01*
X94023331Y-110011961D01*
X94211224Y-109875449D01*
X94375449Y-109711224D01*
X94511961Y-109523331D01*
X94617400Y-109316396D01*
X94689169Y-109095514D01*
X94709443Y-108967502D01*
X94725500Y-108866129D01*
X94725500Y-108633870D01*
X94706232Y-108512222D01*
X94689169Y-108404486D01*
X94617400Y-108183604D01*
X94617398Y-108183601D01*
X94617398Y-108183599D01*
X94511960Y-107976668D01*
X94492948Y-107950500D01*
X94375449Y-107788776D01*
X94211224Y-107624551D01*
X94023331Y-107488039D01*
X93816400Y-107382601D01*
X93595514Y-107310831D01*
X93366129Y-107274500D01*
X93366124Y-107274500D01*
X93133876Y-107274500D01*
X93133871Y-107274500D01*
X92904485Y-107310831D01*
X92683599Y-107382601D01*
X92476668Y-107488039D01*
X92288773Y-107624553D01*
X92124553Y-107788773D01*
X91988039Y-107976668D01*
X91882601Y-108183599D01*
X91810831Y-108404485D01*
X91774500Y-108633870D01*
X88225500Y-108633870D01*
X88206232Y-108512222D01*
X88189169Y-108404486D01*
X88117400Y-108183604D01*
X88117398Y-108183601D01*
X88117398Y-108183599D01*
X88011960Y-107976668D01*
X87992948Y-107950500D01*
X87875449Y-107788776D01*
X87711224Y-107624551D01*
X87523331Y-107488039D01*
X87316400Y-107382601D01*
X87095514Y-107310831D01*
X86866129Y-107274500D01*
X86866124Y-107274500D01*
X86633876Y-107274500D01*
X86633871Y-107274500D01*
X86404485Y-107310831D01*
X86183599Y-107382601D01*
X85976668Y-107488039D01*
X85788773Y-107624553D01*
X85624553Y-107788773D01*
X85488039Y-107976668D01*
X85382601Y-108183599D01*
X85310831Y-108404485D01*
X85274500Y-108633870D01*
X80693870Y-108633870D01*
X78776319Y-106716319D01*
X78742834Y-106654996D01*
X78740000Y-106628638D01*
X78740000Y-103388575D01*
X81975000Y-103388575D01*
X81975000Y-103611424D01*
X82004085Y-103832354D01*
X82004088Y-103832367D01*
X82061763Y-104047618D01*
X82147045Y-104253502D01*
X82147054Y-104253520D01*
X82258464Y-104446491D01*
X82258473Y-104446504D01*
X82309040Y-104512403D01*
X82309043Y-104512403D01*
X82959152Y-103862293D01*
X82966049Y-103878942D01*
X83053599Y-104009970D01*
X83165030Y-104121401D01*
X83296058Y-104208951D01*
X83312705Y-104215846D01*
X82662595Y-104865955D01*
X82662595Y-104865956D01*
X82728507Y-104916533D01*
X82921485Y-105027949D01*
X82921497Y-105027954D01*
X83127381Y-105113236D01*
X83342632Y-105170911D01*
X83342645Y-105170914D01*
X83563575Y-105200000D01*
X83786425Y-105200000D01*
X84007354Y-105170914D01*
X84007367Y-105170911D01*
X84222618Y-105113236D01*
X84428502Y-105027954D01*
X84428514Y-105027949D01*
X84621498Y-104916530D01*
X84687403Y-104865957D01*
X84687404Y-104865956D01*
X84037294Y-104215846D01*
X84053942Y-104208951D01*
X84184970Y-104121401D01*
X84296401Y-104009970D01*
X84383951Y-103878942D01*
X84390846Y-103862293D01*
X85040956Y-104512403D01*
X85078467Y-104463520D01*
X85134896Y-104422318D01*
X85204642Y-104418164D01*
X85265562Y-104452377D01*
X85298314Y-104514095D01*
X85299315Y-104519610D01*
X85311318Y-104595393D01*
X85383065Y-104816205D01*
X85488465Y-105023064D01*
X85545238Y-105101207D01*
X86148958Y-104497487D01*
X86173978Y-104557890D01*
X86245112Y-104664351D01*
X86335649Y-104754888D01*
X86442110Y-104826022D01*
X86502510Y-104851041D01*
X85898791Y-105454759D01*
X85898791Y-105454760D01*
X85976935Y-105511534D01*
X86183794Y-105616934D01*
X86404606Y-105688681D01*
X86633910Y-105725000D01*
X86866090Y-105725000D01*
X87095393Y-105688681D01*
X87316205Y-105616934D01*
X87523071Y-105511530D01*
X87601207Y-105454762D01*
X87601208Y-105454760D01*
X86997488Y-104851041D01*
X87057890Y-104826022D01*
X87164351Y-104754888D01*
X87254888Y-104664351D01*
X87326022Y-104557890D01*
X87351041Y-104497489D01*
X87954760Y-105101208D01*
X87954762Y-105101207D01*
X88011530Y-105023071D01*
X88116934Y-104816205D01*
X88188681Y-104595393D01*
X88225000Y-104366090D01*
X88225000Y-104133909D01*
X88188681Y-103904606D01*
X88116934Y-103683794D01*
X88011534Y-103476935D01*
X87954760Y-103398791D01*
X87351041Y-104002510D01*
X87326022Y-103942110D01*
X87254888Y-103835649D01*
X87164351Y-103745112D01*
X87057890Y-103673978D01*
X86997487Y-103648957D01*
X87601207Y-103045238D01*
X87523064Y-102988465D01*
X87316205Y-102883065D01*
X87095393Y-102811318D01*
X86866090Y-102775000D01*
X86633910Y-102775000D01*
X86404606Y-102811318D01*
X86183794Y-102883065D01*
X85976925Y-102988470D01*
X85898791Y-103045237D01*
X85898791Y-103045238D01*
X86502511Y-103648958D01*
X86442110Y-103673978D01*
X86335649Y-103745112D01*
X86245112Y-103835649D01*
X86173978Y-103942110D01*
X86148958Y-104002511D01*
X85545238Y-103398791D01*
X85495385Y-103402715D01*
X85491989Y-103402001D01*
X85488687Y-103403060D01*
X85458048Y-103394871D01*
X85427008Y-103388351D01*
X85424537Y-103385915D01*
X85421186Y-103385020D01*
X85399835Y-103361564D01*
X85377251Y-103339300D01*
X85375799Y-103335157D01*
X85374154Y-103333350D01*
X85368080Y-103313133D01*
X85363386Y-103299739D01*
X85332860Y-103118922D01*
X85288236Y-102952381D01*
X85202954Y-102746497D01*
X85202949Y-102746485D01*
X85091533Y-102553507D01*
X85040956Y-102487595D01*
X85040955Y-102487595D01*
X84390846Y-103137704D01*
X84383951Y-103121058D01*
X84296401Y-102990030D01*
X84184970Y-102878599D01*
X84053942Y-102791049D01*
X84037293Y-102784152D01*
X84687403Y-102134043D01*
X84687403Y-102134041D01*
X84621504Y-102083473D01*
X84621491Y-102083464D01*
X84428520Y-101972054D01*
X84428502Y-101972045D01*
X84222618Y-101886763D01*
X84007367Y-101829088D01*
X84007354Y-101829085D01*
X83786425Y-101800000D01*
X83563575Y-101800000D01*
X83342645Y-101829085D01*
X83342632Y-101829088D01*
X83127381Y-101886763D01*
X82921497Y-101972045D01*
X82921479Y-101972054D01*
X82728511Y-102083462D01*
X82662595Y-102134042D01*
X83312706Y-102784152D01*
X83296058Y-102791049D01*
X83165030Y-102878599D01*
X83053599Y-102990030D01*
X82966049Y-103121058D01*
X82959153Y-103137706D01*
X82309042Y-102487595D01*
X82258462Y-102553511D01*
X82147054Y-102746479D01*
X82147045Y-102746497D01*
X82061763Y-102952381D01*
X82004088Y-103167632D01*
X82004085Y-103167645D01*
X81975000Y-103388575D01*
X78740000Y-103388575D01*
X78740000Y-101600000D01*
X78739999Y-101599999D01*
X78436661Y-101220827D01*
X76771075Y-99138844D01*
X76250357Y-98487946D01*
X76192280Y-98415350D01*
X84624500Y-98415350D01*
X84624500Y-98584649D01*
X84650981Y-98751847D01*
X84703296Y-98912853D01*
X84738100Y-98981158D01*
X84770802Y-99045339D01*
X84780152Y-99063688D01*
X84879648Y-99200634D01*
X84879652Y-99200639D01*
X84999360Y-99320347D01*
X84999365Y-99320351D01*
X85099652Y-99393213D01*
X85136315Y-99419850D01*
X85232425Y-99468820D01*
X85287146Y-99496703D01*
X85287148Y-99496703D01*
X85287151Y-99496705D01*
X85373450Y-99524745D01*
X85448152Y-99549018D01*
X85615351Y-99575500D01*
X85615356Y-99575500D01*
X85784649Y-99575500D01*
X85951847Y-99549018D01*
X85978010Y-99540517D01*
X86112849Y-99496705D01*
X86263685Y-99419850D01*
X86400641Y-99320346D01*
X86520346Y-99200641D01*
X86619850Y-99063685D01*
X86696705Y-98912849D01*
X86749018Y-98751847D01*
X86775500Y-98584649D01*
X86775500Y-98415350D01*
X86749018Y-98248152D01*
X86696703Y-98087146D01*
X86647807Y-97991184D01*
X86619850Y-97936315D01*
X86607137Y-97918817D01*
X86520351Y-97799365D01*
X86520347Y-97799360D01*
X86400639Y-97679652D01*
X86400634Y-97679648D01*
X86263688Y-97580152D01*
X86263687Y-97580151D01*
X86263685Y-97580150D01*
X86216582Y-97556150D01*
X86112853Y-97503296D01*
X85951847Y-97450981D01*
X85784649Y-97424500D01*
X85784644Y-97424500D01*
X85615356Y-97424500D01*
X85615351Y-97424500D01*
X85448152Y-97450981D01*
X85287146Y-97503296D01*
X85136311Y-97580152D01*
X84999365Y-97679648D01*
X84999360Y-97679652D01*
X84879652Y-97799360D01*
X84879648Y-97799365D01*
X84780152Y-97936311D01*
X84703296Y-98087146D01*
X84650981Y-98248152D01*
X84624500Y-98415350D01*
X76192280Y-98415350D01*
X73376372Y-94895465D01*
X72698094Y-94047618D01*
X72170860Y-93388575D01*
X81975000Y-93388575D01*
X81975000Y-93611424D01*
X82004085Y-93832354D01*
X82004088Y-93832367D01*
X82061763Y-94047618D01*
X82147045Y-94253502D01*
X82147054Y-94253520D01*
X82258464Y-94446491D01*
X82258473Y-94446504D01*
X82309040Y-94512403D01*
X82309043Y-94512403D01*
X82959152Y-93862293D01*
X82966049Y-93878942D01*
X83053599Y-94009970D01*
X83165030Y-94121401D01*
X83296058Y-94208951D01*
X83312705Y-94215846D01*
X82662595Y-94865955D01*
X82662595Y-94865956D01*
X82728507Y-94916533D01*
X82921485Y-95027949D01*
X82921497Y-95027954D01*
X83127381Y-95113236D01*
X83342632Y-95170911D01*
X83342645Y-95170914D01*
X83563575Y-95200000D01*
X83786425Y-95200000D01*
X84007354Y-95170914D01*
X84007367Y-95170911D01*
X84222618Y-95113236D01*
X84428502Y-95027954D01*
X84428514Y-95027949D01*
X84621498Y-94916530D01*
X84687403Y-94865957D01*
X84687404Y-94865956D01*
X84037294Y-94215846D01*
X84053942Y-94208951D01*
X84184970Y-94121401D01*
X84296401Y-94009970D01*
X84383951Y-93878942D01*
X84390846Y-93862294D01*
X85040956Y-94512404D01*
X85040957Y-94512403D01*
X85091530Y-94446498D01*
X85202949Y-94253514D01*
X85202954Y-94253502D01*
X85288236Y-94047618D01*
X85345911Y-93832367D01*
X85345914Y-93832354D01*
X85375000Y-93611424D01*
X85375000Y-93388575D01*
X85345914Y-93167645D01*
X85345911Y-93167632D01*
X85288236Y-92952381D01*
X85202954Y-92746497D01*
X85202949Y-92746485D01*
X85091533Y-92553507D01*
X85040956Y-92487595D01*
X85040955Y-92487595D01*
X84390846Y-93137704D01*
X84383951Y-93121058D01*
X84296401Y-92990030D01*
X84184970Y-92878599D01*
X84053942Y-92791049D01*
X84037293Y-92784152D01*
X84687403Y-92134043D01*
X84687403Y-92134040D01*
X84621504Y-92083473D01*
X84621491Y-92083464D01*
X84428520Y-91972054D01*
X84428502Y-91972045D01*
X84222618Y-91886763D01*
X84007367Y-91829088D01*
X84007354Y-91829085D01*
X83786425Y-91800000D01*
X83563575Y-91800000D01*
X83342645Y-91829085D01*
X83342632Y-91829088D01*
X83127381Y-91886763D01*
X82921497Y-91972045D01*
X82921479Y-91972054D01*
X82728511Y-92083462D01*
X82662595Y-92134042D01*
X83312706Y-92784152D01*
X83296058Y-92791049D01*
X83165030Y-92878599D01*
X83053599Y-92990030D01*
X82966049Y-93121058D01*
X82959153Y-93137706D01*
X82309042Y-92487595D01*
X82258462Y-92553511D01*
X82147054Y-92746479D01*
X82147045Y-92746497D01*
X82061763Y-92952381D01*
X82004088Y-93167632D01*
X82004085Y-93167645D01*
X81975000Y-93388575D01*
X72170860Y-93388575D01*
X68494970Y-88793713D01*
X74849500Y-88793713D01*
X74849500Y-89006286D01*
X74870378Y-89138108D01*
X74882754Y-89216243D01*
X74947804Y-89416446D01*
X74948444Y-89418414D01*
X75044951Y-89607820D01*
X75169890Y-89779786D01*
X75320213Y-89930109D01*
X75492179Y-90055048D01*
X75492181Y-90055049D01*
X75492184Y-90055051D01*
X75681588Y-90151557D01*
X75883757Y-90217246D01*
X76093713Y-90250500D01*
X76093714Y-90250500D01*
X76306286Y-90250500D01*
X76306287Y-90250500D01*
X76516243Y-90217246D01*
X76718412Y-90151557D01*
X76907816Y-90055051D01*
X77007961Y-89982292D01*
X77079786Y-89930109D01*
X77079788Y-89930106D01*
X77079792Y-89930104D01*
X77230104Y-89779792D01*
X77230106Y-89779788D01*
X77230109Y-89779786D01*
X77310063Y-89669737D01*
X77355051Y-89607816D01*
X77451557Y-89418412D01*
X77517246Y-89216243D01*
X77550500Y-89006287D01*
X77550500Y-88793713D01*
X77517246Y-88583757D01*
X77451557Y-88381588D01*
X77355051Y-88192184D01*
X77355049Y-88192181D01*
X77355048Y-88192179D01*
X77230109Y-88020213D01*
X77079786Y-87869890D01*
X76907820Y-87744951D01*
X76718414Y-87648444D01*
X76718413Y-87648443D01*
X76718412Y-87648443D01*
X76516243Y-87582754D01*
X76516241Y-87582753D01*
X76516240Y-87582753D01*
X76354957Y-87557208D01*
X76306287Y-87549500D01*
X76093713Y-87549500D01*
X76045042Y-87557208D01*
X75883760Y-87582753D01*
X75681585Y-87648444D01*
X75492179Y-87744951D01*
X75320213Y-87869890D01*
X75169890Y-88020213D01*
X75044951Y-88192179D01*
X74948444Y-88381585D01*
X74882753Y-88583760D01*
X74849500Y-88793713D01*
X68494970Y-88793713D01*
X58447172Y-76233965D01*
X58420664Y-76169319D01*
X58420000Y-76156503D01*
X58420000Y-71287844D01*
X82140000Y-71287844D01*
X82146401Y-71347372D01*
X82146403Y-71347379D01*
X82196645Y-71482086D01*
X82196649Y-71482093D01*
X82282809Y-71597187D01*
X82282812Y-71597190D01*
X82397906Y-71683350D01*
X82397913Y-71683354D01*
X82532620Y-71733596D01*
X82532627Y-71733598D01*
X82592155Y-71739999D01*
X82592172Y-71740000D01*
X83190000Y-71740000D01*
X83690000Y-71740000D01*
X84287828Y-71740000D01*
X84287844Y-71739999D01*
X84347372Y-71733598D01*
X84347379Y-71733596D01*
X84482086Y-71683354D01*
X84482093Y-71683350D01*
X84597187Y-71597190D01*
X84597190Y-71597187D01*
X84683350Y-71482093D01*
X84683354Y-71482086D01*
X84733596Y-71347379D01*
X84733598Y-71347372D01*
X84739999Y-71287844D01*
X90140000Y-71287844D01*
X90146401Y-71347372D01*
X90146403Y-71347379D01*
X90196645Y-71482086D01*
X90196649Y-71482093D01*
X90282809Y-71597187D01*
X90282812Y-71597190D01*
X90397906Y-71683350D01*
X90397913Y-71683354D01*
X90532620Y-71733596D01*
X90532627Y-71733598D01*
X90592155Y-71739999D01*
X90592172Y-71740000D01*
X91190000Y-71740000D01*
X91690000Y-71740000D01*
X92287828Y-71740000D01*
X92287844Y-71739999D01*
X92347372Y-71733598D01*
X92347379Y-71733596D01*
X92482086Y-71683354D01*
X92482093Y-71683350D01*
X92597187Y-71597190D01*
X92597190Y-71597187D01*
X92683350Y-71482093D01*
X92683354Y-71482086D01*
X92733596Y-71347379D01*
X92733598Y-71347372D01*
X92739999Y-71287844D01*
X92740000Y-71287827D01*
X92740000Y-70790000D01*
X91690000Y-70790000D01*
X91690000Y-71740000D01*
X91190000Y-71740000D01*
X91190000Y-70790000D01*
X90140000Y-70790000D01*
X90140000Y-71287844D01*
X84739999Y-71287844D01*
X84740000Y-71287827D01*
X84740000Y-70790000D01*
X83690000Y-70790000D01*
X83690000Y-71740000D01*
X83190000Y-71740000D01*
X83190000Y-70790000D01*
X82140000Y-70790000D01*
X82140000Y-71287844D01*
X58420000Y-71287844D01*
X58420000Y-69792155D01*
X82140000Y-69792155D01*
X82140000Y-70290000D01*
X83190000Y-70290000D01*
X83690000Y-70290000D01*
X84740000Y-70290000D01*
X84740000Y-69792172D01*
X84739999Y-69792155D01*
X90140000Y-69792155D01*
X90140000Y-70290000D01*
X91190000Y-70290000D01*
X91690000Y-70290000D01*
X92740000Y-70290000D01*
X92740000Y-69792172D01*
X92739999Y-69792155D01*
X92733598Y-69732627D01*
X92733596Y-69732620D01*
X92683354Y-69597913D01*
X92683350Y-69597906D01*
X92597190Y-69482812D01*
X92597187Y-69482809D01*
X92482093Y-69396649D01*
X92482086Y-69396645D01*
X92347379Y-69346403D01*
X92347372Y-69346401D01*
X92287844Y-69340000D01*
X91690000Y-69340000D01*
X91690000Y-70290000D01*
X91190000Y-70290000D01*
X91190000Y-69340000D01*
X90592155Y-69340000D01*
X90532627Y-69346401D01*
X90532620Y-69346403D01*
X90397913Y-69396645D01*
X90397906Y-69396649D01*
X90282812Y-69482809D01*
X90282809Y-69482812D01*
X90196649Y-69597906D01*
X90196645Y-69597913D01*
X90146403Y-69732620D01*
X90146401Y-69732627D01*
X90140000Y-69792155D01*
X84739999Y-69792155D01*
X84733598Y-69732627D01*
X84733596Y-69732620D01*
X84683354Y-69597913D01*
X84683350Y-69597906D01*
X84597190Y-69482812D01*
X84597187Y-69482809D01*
X84482093Y-69396649D01*
X84482086Y-69396645D01*
X84347379Y-69346403D01*
X84347372Y-69346401D01*
X84287844Y-69340000D01*
X83690000Y-69340000D01*
X83690000Y-70290000D01*
X83190000Y-70290000D01*
X83190000Y-69340000D01*
X82592155Y-69340000D01*
X82532627Y-69346401D01*
X82532620Y-69346403D01*
X82397913Y-69396645D01*
X82397906Y-69396649D01*
X82282812Y-69482809D01*
X82282809Y-69482812D01*
X82196649Y-69597906D01*
X82196645Y-69597913D01*
X82146403Y-69732620D01*
X82146401Y-69732627D01*
X82140000Y-69792155D01*
X58420000Y-69792155D01*
X58420000Y-65292135D01*
X82139500Y-65292135D01*
X82139500Y-66787870D01*
X82139501Y-66787876D01*
X82145908Y-66847483D01*
X82196202Y-66982328D01*
X82196206Y-66982335D01*
X82282452Y-67097544D01*
X82282455Y-67097547D01*
X82397664Y-67183793D01*
X82397671Y-67183797D01*
X82532517Y-67234091D01*
X82532516Y-67234091D01*
X82539444Y-67234835D01*
X82592127Y-67240500D01*
X84287872Y-67240499D01*
X84347483Y-67234091D01*
X84482331Y-67183796D01*
X84597546Y-67097546D01*
X84683796Y-66982331D01*
X84734091Y-66847483D01*
X84740500Y-66787873D01*
X84740500Y-66764500D01*
X84760185Y-66697461D01*
X84812989Y-66651706D01*
X84864500Y-66640500D01*
X90015501Y-66640500D01*
X90082540Y-66660185D01*
X90128295Y-66712989D01*
X90139501Y-66764500D01*
X90139501Y-66787876D01*
X90145908Y-66847483D01*
X90196202Y-66982328D01*
X90196206Y-66982335D01*
X90282452Y-67097544D01*
X90282455Y-67097547D01*
X90397664Y-67183793D01*
X90397671Y-67183797D01*
X90532517Y-67234091D01*
X90532516Y-67234091D01*
X90539444Y-67234835D01*
X90592127Y-67240500D01*
X92287872Y-67240499D01*
X92347483Y-67234091D01*
X92482331Y-67183796D01*
X92597546Y-67097546D01*
X92683796Y-66982331D01*
X92734091Y-66847483D01*
X92740500Y-66787873D01*
X92740499Y-65292128D01*
X92734091Y-65232517D01*
X92732249Y-65227579D01*
X92683797Y-65097671D01*
X92683793Y-65097664D01*
X92597547Y-64982455D01*
X92597544Y-64982452D01*
X92482335Y-64896206D01*
X92482328Y-64896202D01*
X92347482Y-64845908D01*
X92347483Y-64845908D01*
X92287883Y-64839501D01*
X92287881Y-64839500D01*
X92287873Y-64839500D01*
X92287864Y-64839500D01*
X90592129Y-64839500D01*
X90592123Y-64839501D01*
X90532516Y-64845908D01*
X90397671Y-64896202D01*
X90397664Y-64896206D01*
X90282455Y-64982452D01*
X90282452Y-64982455D01*
X90196206Y-65097664D01*
X90196202Y-65097671D01*
X90145908Y-65232517D01*
X90141368Y-65274753D01*
X90139501Y-65292123D01*
X90139500Y-65292135D01*
X90139500Y-65315500D01*
X90119815Y-65382539D01*
X90067011Y-65428294D01*
X90015500Y-65439500D01*
X85569097Y-65439500D01*
X85502058Y-65419815D01*
X85456303Y-65367011D01*
X85446359Y-65297853D01*
X85475384Y-65234297D01*
X85481416Y-65227819D01*
X86572416Y-64136819D01*
X86633739Y-64103334D01*
X86660097Y-64100500D01*
X90860234Y-64100500D01*
X90927273Y-64120185D01*
X90929125Y-64121398D01*
X91060814Y-64209390D01*
X91060827Y-64209397D01*
X91206498Y-64269735D01*
X91206503Y-64269737D01*
X91361153Y-64300499D01*
X91361156Y-64300500D01*
X91361158Y-64300500D01*
X91518844Y-64300500D01*
X91518845Y-64300499D01*
X91673497Y-64269737D01*
X91819179Y-64209394D01*
X91950289Y-64121789D01*
X92061789Y-64010289D01*
X92149394Y-63879179D01*
X92153728Y-63868717D01*
X92170764Y-63827586D01*
X92209737Y-63733497D01*
X92240500Y-63578842D01*
X92240500Y-63421158D01*
X92240500Y-63421155D01*
X92240499Y-63421153D01*
X92233693Y-63386938D01*
X92209737Y-63266503D01*
X92156309Y-63137515D01*
X92149397Y-63120827D01*
X92149390Y-63120814D01*
X92061789Y-62989711D01*
X92061786Y-62989707D01*
X91950292Y-62878213D01*
X91950288Y-62878210D01*
X91819185Y-62790609D01*
X91819172Y-62790602D01*
X91673501Y-62730264D01*
X91673489Y-62730261D01*
X91518845Y-62699500D01*
X91518842Y-62699500D01*
X91361158Y-62699500D01*
X91361155Y-62699500D01*
X91206510Y-62730261D01*
X91206498Y-62730264D01*
X91060827Y-62790602D01*
X91060814Y-62790609D01*
X90929125Y-62878602D01*
X90862447Y-62899480D01*
X90860234Y-62899500D01*
X86280940Y-62899500D01*
X86240019Y-62910464D01*
X86240019Y-62910465D01*
X86202751Y-62920451D01*
X86128214Y-62940423D01*
X86128209Y-62940426D01*
X85991290Y-63019475D01*
X85991282Y-63019481D01*
X85879478Y-63131286D01*
X84207582Y-64803181D01*
X84146259Y-64836666D01*
X84119901Y-64839500D01*
X82592129Y-64839500D01*
X82592123Y-64839501D01*
X82532516Y-64845908D01*
X82397671Y-64896202D01*
X82397664Y-64896206D01*
X82282455Y-64982452D01*
X82282452Y-64982455D01*
X82196206Y-65097664D01*
X82196202Y-65097671D01*
X82145908Y-65232517D01*
X82141368Y-65274753D01*
X82139501Y-65292123D01*
X82139500Y-65292135D01*
X58420000Y-65292135D01*
X58420000Y-55773713D01*
X59609500Y-55773713D01*
X59609500Y-55986286D01*
X59641339Y-56187314D01*
X59642754Y-56196243D01*
X59705803Y-56390288D01*
X59708444Y-56398414D01*
X59804951Y-56587820D01*
X59929890Y-56759786D01*
X60080213Y-56910109D01*
X60252179Y-57035048D01*
X60252181Y-57035049D01*
X60252184Y-57035051D01*
X60441588Y-57131557D01*
X60643757Y-57197246D01*
X60853713Y-57230500D01*
X60853714Y-57230500D01*
X61066286Y-57230500D01*
X61066287Y-57230500D01*
X61276243Y-57197246D01*
X61478412Y-57131557D01*
X61667816Y-57035051D01*
X61689789Y-57019086D01*
X61839786Y-56910109D01*
X61839788Y-56910106D01*
X61839792Y-56910104D01*
X61990104Y-56759792D01*
X61990106Y-56759788D01*
X61990109Y-56759786D01*
X62113902Y-56589397D01*
X62115051Y-56587816D01*
X62211557Y-56398412D01*
X62244234Y-56297844D01*
X66200000Y-56297844D01*
X66206401Y-56357372D01*
X66206403Y-56357379D01*
X66256645Y-56492086D01*
X66256649Y-56492093D01*
X66342809Y-56607187D01*
X66342812Y-56607190D01*
X66457906Y-56693350D01*
X66457913Y-56693354D01*
X66592620Y-56743596D01*
X66592627Y-56743598D01*
X66652155Y-56749999D01*
X66652172Y-56750000D01*
X67250000Y-56750000D01*
X67750000Y-56750000D01*
X68347828Y-56750000D01*
X68347844Y-56749999D01*
X68407372Y-56743598D01*
X68407379Y-56743596D01*
X68542086Y-56693354D01*
X68542093Y-56693350D01*
X68657187Y-56607190D01*
X68657190Y-56607187D01*
X68743350Y-56492093D01*
X68743354Y-56492086D01*
X68793596Y-56357379D01*
X68793598Y-56357372D01*
X68799999Y-56297844D01*
X74200000Y-56297844D01*
X74206401Y-56357372D01*
X74206403Y-56357379D01*
X74256645Y-56492086D01*
X74256649Y-56492093D01*
X74342809Y-56607187D01*
X74342812Y-56607190D01*
X74457906Y-56693350D01*
X74457913Y-56693354D01*
X74592620Y-56743596D01*
X74592627Y-56743598D01*
X74652155Y-56749999D01*
X74652172Y-56750000D01*
X75250000Y-56750000D01*
X75750000Y-56750000D01*
X76347828Y-56750000D01*
X76347844Y-56749999D01*
X76407372Y-56743598D01*
X76407379Y-56743596D01*
X76542086Y-56693354D01*
X76542093Y-56693350D01*
X76657187Y-56607190D01*
X76657190Y-56607187D01*
X76743350Y-56492093D01*
X76743354Y-56492086D01*
X76793596Y-56357379D01*
X76793598Y-56357372D01*
X76799999Y-56297844D01*
X76800000Y-56297827D01*
X76800000Y-55800000D01*
X75750000Y-55800000D01*
X75750000Y-56750000D01*
X75250000Y-56750000D01*
X75250000Y-55800000D01*
X74200000Y-55800000D01*
X74200000Y-56297844D01*
X68799999Y-56297844D01*
X68800000Y-56297827D01*
X68800000Y-55800000D01*
X67750000Y-55800000D01*
X67750000Y-56750000D01*
X67250000Y-56750000D01*
X67250000Y-55800000D01*
X66200000Y-55800000D01*
X66200000Y-56297844D01*
X62244234Y-56297844D01*
X62277246Y-56196243D01*
X62310500Y-55986287D01*
X62310500Y-55773713D01*
X62277246Y-55563757D01*
X62211557Y-55361588D01*
X62115051Y-55172184D01*
X62115049Y-55172181D01*
X62115048Y-55172179D01*
X61990109Y-55000213D01*
X61839786Y-54849890D01*
X61667820Y-54724951D01*
X61478414Y-54628444D01*
X61478413Y-54628443D01*
X61478412Y-54628443D01*
X61276243Y-54562754D01*
X61276241Y-54562753D01*
X61276240Y-54562753D01*
X61114957Y-54537208D01*
X61066287Y-54529500D01*
X60853713Y-54529500D01*
X60805042Y-54537208D01*
X60643760Y-54562753D01*
X60441585Y-54628444D01*
X60252179Y-54724951D01*
X60080213Y-54849890D01*
X59929890Y-55000213D01*
X59804951Y-55172179D01*
X59708444Y-55361585D01*
X59642753Y-55563760D01*
X59609500Y-55773713D01*
X58420000Y-55773713D01*
X58420000Y-52302135D01*
X66199500Y-52302135D01*
X66199500Y-53797870D01*
X66199501Y-53797876D01*
X66205908Y-53857483D01*
X66256202Y-53992328D01*
X66256206Y-53992335D01*
X66342452Y-54107544D01*
X66342455Y-54107547D01*
X66464769Y-54199112D01*
X66463170Y-54201246D01*
X66502781Y-54240848D01*
X66517640Y-54309119D01*
X66493230Y-54374586D01*
X66463972Y-54399944D01*
X66465011Y-54401331D01*
X66342812Y-54492809D01*
X66342809Y-54492812D01*
X66256649Y-54607906D01*
X66256645Y-54607913D01*
X66206403Y-54742620D01*
X66206401Y-54742627D01*
X66200000Y-54802155D01*
X66200000Y-55300000D01*
X68800000Y-55300000D01*
X68800000Y-54802172D01*
X68799999Y-54802155D01*
X68793598Y-54742627D01*
X68793596Y-54742620D01*
X68743354Y-54607913D01*
X68743350Y-54607906D01*
X68657190Y-54492812D01*
X68657187Y-54492809D01*
X68534989Y-54401331D01*
X68536632Y-54399135D01*
X68497211Y-54359712D01*
X68482360Y-54291438D01*
X68506778Y-54225974D01*
X68536236Y-54200455D01*
X68535231Y-54199112D01*
X68615136Y-54139293D01*
X68657546Y-54107546D01*
X68743796Y-53992331D01*
X68794091Y-53857483D01*
X68800500Y-53797873D01*
X68800500Y-53774500D01*
X68820185Y-53707461D01*
X68872989Y-53661706D01*
X68924500Y-53650500D01*
X74075501Y-53650500D01*
X74142540Y-53670185D01*
X74188295Y-53722989D01*
X74199501Y-53774500D01*
X74199501Y-53797876D01*
X74205908Y-53857483D01*
X74256202Y-53992328D01*
X74256206Y-53992335D01*
X74342452Y-54107544D01*
X74342455Y-54107547D01*
X74464769Y-54199112D01*
X74463170Y-54201246D01*
X74502781Y-54240848D01*
X74517640Y-54309119D01*
X74493230Y-54374586D01*
X74463972Y-54399944D01*
X74465011Y-54401331D01*
X74342812Y-54492809D01*
X74342809Y-54492812D01*
X74256649Y-54607906D01*
X74256645Y-54607913D01*
X74206403Y-54742620D01*
X74206401Y-54742627D01*
X74200000Y-54802155D01*
X74200000Y-55300000D01*
X76800000Y-55300000D01*
X76800000Y-54802172D01*
X76799999Y-54802155D01*
X76793598Y-54742627D01*
X76793596Y-54742620D01*
X76743354Y-54607913D01*
X76743350Y-54607906D01*
X76657190Y-54492812D01*
X76657187Y-54492809D01*
X76534989Y-54401331D01*
X76536632Y-54399135D01*
X76497211Y-54359712D01*
X76482360Y-54291438D01*
X76506778Y-54225974D01*
X76536236Y-54200455D01*
X76535231Y-54199112D01*
X76615136Y-54139293D01*
X76657546Y-54107546D01*
X76743796Y-53992331D01*
X76794091Y-53857483D01*
X76800500Y-53797873D01*
X76800500Y-53774500D01*
X76820185Y-53707461D01*
X76872989Y-53661706D01*
X76924500Y-53650500D01*
X79899903Y-53650500D01*
X79929343Y-53659144D01*
X79959330Y-53665668D01*
X79964345Y-53669422D01*
X79966942Y-53670185D01*
X79987584Y-53686819D01*
X80005139Y-53704374D01*
X80005149Y-53704385D01*
X80009479Y-53708715D01*
X80009480Y-53708716D01*
X80121284Y-53820520D01*
X80172845Y-53850288D01*
X80208095Y-53870639D01*
X80208097Y-53870641D01*
X80246151Y-53892611D01*
X80258215Y-53899577D01*
X80410943Y-53940501D01*
X80410946Y-53940501D01*
X80576653Y-53940501D01*
X80576669Y-53940500D01*
X86059903Y-53940500D01*
X86126942Y-53960185D01*
X86147584Y-53976819D01*
X88415139Y-56244374D01*
X88415149Y-56244385D01*
X88419479Y-56248715D01*
X88419480Y-56248716D01*
X88531284Y-56360520D01*
X88531286Y-56360521D01*
X88531290Y-56360524D01*
X88642673Y-56424830D01*
X88668216Y-56439577D01*
X88780019Y-56469534D01*
X88820942Y-56480500D01*
X88820943Y-56480500D01*
X106952877Y-56480500D01*
X107019916Y-56500185D01*
X107040558Y-56516819D01*
X112242852Y-61719113D01*
X112276337Y-61780436D01*
X112271353Y-61850128D01*
X112258273Y-61875684D01*
X112182834Y-61988586D01*
X112182824Y-61988604D01*
X112122486Y-62134275D01*
X112122483Y-62134285D01*
X112091583Y-62289627D01*
X112059198Y-62351538D01*
X112057647Y-62353116D01*
X108739481Y-65671281D01*
X108739477Y-65671286D01*
X108720273Y-65704551D01*
X108720272Y-65704553D01*
X108660423Y-65808214D01*
X108619499Y-65960942D01*
X108619499Y-65960944D01*
X108619499Y-66129045D01*
X108619500Y-66129058D01*
X108619500Y-68000234D01*
X108599815Y-68067273D01*
X108598602Y-68069125D01*
X108510609Y-68200814D01*
X108510602Y-68200827D01*
X108450264Y-68346498D01*
X108450261Y-68346510D01*
X108419500Y-68501153D01*
X108419500Y-68658846D01*
X108450261Y-68813489D01*
X108450264Y-68813501D01*
X108510602Y-68959172D01*
X108510609Y-68959185D01*
X108586051Y-69072091D01*
X108606929Y-69138769D01*
X108588445Y-69206149D01*
X108570630Y-69228663D01*
X104776113Y-73023181D01*
X104714790Y-73056666D01*
X104688432Y-73059500D01*
X102749097Y-73059500D01*
X102682058Y-73039815D01*
X102636303Y-72987011D01*
X102626359Y-72917853D01*
X102655384Y-72854297D01*
X102661416Y-72847819D01*
X103112338Y-72396897D01*
X104498506Y-71010727D01*
X104498511Y-71010724D01*
X104508714Y-71000520D01*
X104508716Y-71000520D01*
X104620520Y-70888716D01*
X104699577Y-70751784D01*
X104737264Y-70611135D01*
X104740500Y-70599058D01*
X104740500Y-70440943D01*
X104740500Y-69159765D01*
X104760185Y-69092726D01*
X104761398Y-69090874D01*
X104773949Y-69072091D01*
X104849394Y-68959179D01*
X104909737Y-68813497D01*
X104940500Y-68658842D01*
X104940500Y-68501158D01*
X104940500Y-68501155D01*
X104940499Y-68501153D01*
X104924514Y-68420791D01*
X104909737Y-68346503D01*
X104888497Y-68295225D01*
X104849397Y-68200827D01*
X104849390Y-68200814D01*
X104761789Y-68069711D01*
X104761786Y-68069707D01*
X104650292Y-67958213D01*
X104650288Y-67958210D01*
X104519185Y-67870609D01*
X104519172Y-67870602D01*
X104373501Y-67810264D01*
X104373489Y-67810261D01*
X104218845Y-67779500D01*
X104218842Y-67779500D01*
X104061158Y-67779500D01*
X104061155Y-67779500D01*
X103906510Y-67810261D01*
X103906498Y-67810264D01*
X103760827Y-67870602D01*
X103760814Y-67870609D01*
X103629711Y-67958210D01*
X103629707Y-67958213D01*
X103518213Y-68069707D01*
X103518210Y-68069711D01*
X103430609Y-68200814D01*
X103430602Y-68200827D01*
X103370264Y-68346498D01*
X103370261Y-68346510D01*
X103339500Y-68501153D01*
X103339500Y-68658846D01*
X103370261Y-68813489D01*
X103370264Y-68813501D01*
X103430602Y-68959172D01*
X103430609Y-68959185D01*
X103518602Y-69090874D01*
X103539480Y-69157551D01*
X103539500Y-69159765D01*
X103539500Y-70219903D01*
X103519815Y-70286942D01*
X103503181Y-70307584D01*
X101585339Y-72225425D01*
X101524016Y-72258910D01*
X101521850Y-72259361D01*
X101366508Y-72290261D01*
X101366498Y-72290264D01*
X101220827Y-72350602D01*
X101220814Y-72350609D01*
X101089711Y-72438210D01*
X101089707Y-72438213D01*
X100978213Y-72549707D01*
X100978210Y-72549711D01*
X100890609Y-72680814D01*
X100890602Y-72680827D01*
X100830264Y-72826498D01*
X100830261Y-72826508D01*
X100803769Y-72959692D01*
X100771384Y-73021603D01*
X100710668Y-73056177D01*
X100682152Y-73059500D01*
X99639766Y-73059500D01*
X99572727Y-73039815D01*
X99570875Y-73038602D01*
X99439185Y-72950609D01*
X99439172Y-72950602D01*
X99293501Y-72890264D01*
X99293489Y-72890261D01*
X99138845Y-72859500D01*
X99138842Y-72859500D01*
X98981158Y-72859500D01*
X98981155Y-72859500D01*
X98826510Y-72890261D01*
X98826498Y-72890264D01*
X98680827Y-72950602D01*
X98680809Y-72950612D01*
X98567907Y-73026051D01*
X98501230Y-73046929D01*
X98433850Y-73028444D01*
X98411336Y-73010630D01*
X94616819Y-69216113D01*
X94583334Y-69154790D01*
X94580500Y-69128432D01*
X94580500Y-63421153D01*
X95719500Y-63421153D01*
X95719500Y-63578846D01*
X95750261Y-63733489D01*
X95750264Y-63733501D01*
X95810602Y-63879172D01*
X95810609Y-63879185D01*
X95898210Y-64010288D01*
X95898213Y-64010292D01*
X96009707Y-64121786D01*
X96009711Y-64121789D01*
X96140814Y-64209390D01*
X96140827Y-64209397D01*
X96286498Y-64269735D01*
X96286503Y-64269737D01*
X96351147Y-64282595D01*
X96441849Y-64300638D01*
X96503760Y-64333023D01*
X96505339Y-64334574D01*
X97703373Y-65532608D01*
X97703383Y-65532619D01*
X97707713Y-65536949D01*
X97707714Y-65536950D01*
X97819518Y-65648754D01*
X97819520Y-65648755D01*
X97819524Y-65648758D01*
X97880122Y-65683744D01*
X97880127Y-65683746D01*
X97956443Y-65727808D01*
X97956444Y-65727808D01*
X97956449Y-65727811D01*
X98109177Y-65768734D01*
X98267291Y-65768734D01*
X102688469Y-65768734D01*
X102755508Y-65788419D01*
X102757360Y-65789632D01*
X102889049Y-65877624D01*
X102889062Y-65877631D01*
X103017336Y-65930763D01*
X103034738Y-65937971D01*
X103099382Y-65950829D01*
X103190084Y-65968872D01*
X103251995Y-66001257D01*
X103253571Y-66002805D01*
X103895550Y-66644785D01*
X103895552Y-66644786D01*
X103895556Y-66644789D01*
X103978606Y-66692737D01*
X104032482Y-66723842D01*
X104185209Y-66764766D01*
X104284501Y-66764766D01*
X104351540Y-66784451D01*
X104353392Y-66785664D01*
X104485079Y-66873655D01*
X104485092Y-66873662D01*
X104630763Y-66934000D01*
X104630768Y-66934002D01*
X104785418Y-66964764D01*
X104785421Y-66964765D01*
X104785423Y-66964765D01*
X104943109Y-66964765D01*
X104943110Y-66964764D01*
X105097762Y-66934002D01*
X105226441Y-66880702D01*
X105243437Y-66873662D01*
X105243437Y-66873661D01*
X105243444Y-66873659D01*
X105374554Y-66786054D01*
X105486054Y-66674554D01*
X105573659Y-66543444D01*
X105634002Y-66397762D01*
X105664765Y-66243107D01*
X105664765Y-66085423D01*
X105664765Y-66085420D01*
X105664764Y-66085418D01*
X105651855Y-66020522D01*
X105634002Y-65930768D01*
X105583238Y-65808212D01*
X105573662Y-65785092D01*
X105573655Y-65785079D01*
X105486054Y-65653976D01*
X105486051Y-65653972D01*
X105374557Y-65542478D01*
X105374553Y-65542475D01*
X105243450Y-65454874D01*
X105243437Y-65454867D01*
X105097766Y-65394529D01*
X105097754Y-65394526D01*
X104943110Y-65363765D01*
X104943107Y-65363765D01*
X104785423Y-65363765D01*
X104785420Y-65363765D01*
X104630775Y-65394526D01*
X104630763Y-65394529D01*
X104504372Y-65446882D01*
X104434903Y-65454351D01*
X104372424Y-65423076D01*
X104369239Y-65420002D01*
X104102808Y-65153571D01*
X104069323Y-65092248D01*
X104068872Y-65090081D01*
X104048587Y-64988104D01*
X104037972Y-64934737D01*
X104022011Y-64896204D01*
X103977632Y-64789061D01*
X103977625Y-64789048D01*
X103890024Y-64657945D01*
X103890021Y-64657941D01*
X103778527Y-64546447D01*
X103778523Y-64546444D01*
X103647420Y-64458843D01*
X103647407Y-64458836D01*
X103501736Y-64398498D01*
X103501724Y-64398495D01*
X103347080Y-64367734D01*
X103347077Y-64367734D01*
X103189393Y-64367734D01*
X103189390Y-64367734D01*
X103034745Y-64398495D01*
X103034733Y-64398498D01*
X102889062Y-64458836D01*
X102889049Y-64458843D01*
X102757360Y-64546836D01*
X102690682Y-64567714D01*
X102688469Y-64567734D01*
X98488331Y-64567734D01*
X98421292Y-64548049D01*
X98400650Y-64531415D01*
X97354574Y-63485339D01*
X97321089Y-63424016D01*
X97320638Y-63421849D01*
X97293930Y-63287583D01*
X97289737Y-63266503D01*
X97236309Y-63137515D01*
X97229397Y-63120827D01*
X97229390Y-63120814D01*
X97141789Y-62989711D01*
X97141786Y-62989707D01*
X97030292Y-62878213D01*
X97030288Y-62878210D01*
X96899185Y-62790609D01*
X96899172Y-62790602D01*
X96753501Y-62730264D01*
X96753489Y-62730261D01*
X96598845Y-62699500D01*
X96598842Y-62699500D01*
X96441158Y-62699500D01*
X96441155Y-62699500D01*
X96286510Y-62730261D01*
X96286498Y-62730264D01*
X96140827Y-62790602D01*
X96140814Y-62790609D01*
X96009711Y-62878210D01*
X96009707Y-62878213D01*
X95898213Y-62989707D01*
X95898210Y-62989711D01*
X95810609Y-63120814D01*
X95810602Y-63120827D01*
X95750264Y-63266498D01*
X95750261Y-63266510D01*
X95719500Y-63421153D01*
X94580500Y-63421153D01*
X94580500Y-60880945D01*
X94580500Y-60880943D01*
X94539577Y-60728216D01*
X94536559Y-60722989D01*
X94460524Y-60591290D01*
X94460521Y-60591286D01*
X94460520Y-60591284D01*
X94348716Y-60479480D01*
X94348715Y-60479479D01*
X94344385Y-60475149D01*
X94344374Y-60475139D01*
X93557590Y-59688355D01*
X93557588Y-59688352D01*
X93438717Y-59569481D01*
X93438716Y-59569480D01*
X93345465Y-59515642D01*
X93301785Y-59490423D01*
X93149057Y-59449499D01*
X92990943Y-59449499D01*
X92983347Y-59449499D01*
X92983331Y-59449500D01*
X76924499Y-59449500D01*
X76857460Y-59429815D01*
X76811705Y-59377011D01*
X76800499Y-59325500D01*
X76800499Y-59302129D01*
X76800498Y-59302123D01*
X76800497Y-59302116D01*
X76794091Y-59242517D01*
X76743796Y-59107669D01*
X76743795Y-59107668D01*
X76743793Y-59107664D01*
X76657547Y-58992455D01*
X76657544Y-58992452D01*
X76542335Y-58906206D01*
X76542328Y-58906202D01*
X76407482Y-58855908D01*
X76407483Y-58855908D01*
X76347883Y-58849501D01*
X76347881Y-58849500D01*
X76347873Y-58849500D01*
X76347864Y-58849500D01*
X74652129Y-58849500D01*
X74652123Y-58849501D01*
X74592516Y-58855908D01*
X74457671Y-58906202D01*
X74457664Y-58906206D01*
X74342455Y-58992452D01*
X74342452Y-58992455D01*
X74256206Y-59107664D01*
X74256202Y-59107671D01*
X74205908Y-59242517D01*
X74199501Y-59302116D01*
X74199501Y-59302123D01*
X74199500Y-59302135D01*
X74199500Y-59325500D01*
X74179815Y-59392539D01*
X74127011Y-59438294D01*
X74075500Y-59449500D01*
X68924499Y-59449500D01*
X68857460Y-59429815D01*
X68811705Y-59377011D01*
X68800499Y-59325500D01*
X68800499Y-59302129D01*
X68800498Y-59302123D01*
X68800497Y-59302116D01*
X68794091Y-59242517D01*
X68743796Y-59107669D01*
X68743795Y-59107668D01*
X68743793Y-59107664D01*
X68657547Y-58992455D01*
X68657544Y-58992452D01*
X68542335Y-58906206D01*
X68542328Y-58906202D01*
X68407482Y-58855908D01*
X68407483Y-58855908D01*
X68347883Y-58849501D01*
X68347881Y-58849500D01*
X68347873Y-58849500D01*
X68347864Y-58849500D01*
X66652129Y-58849500D01*
X66652123Y-58849501D01*
X66592516Y-58855908D01*
X66457671Y-58906202D01*
X66457664Y-58906206D01*
X66342455Y-58992452D01*
X66342452Y-58992455D01*
X66256206Y-59107664D01*
X66256202Y-59107671D01*
X66205908Y-59242517D01*
X66199501Y-59302116D01*
X66199501Y-59302123D01*
X66199500Y-59302135D01*
X66199500Y-60797870D01*
X66199501Y-60797876D01*
X66205908Y-60857483D01*
X66256202Y-60992328D01*
X66256206Y-60992335D01*
X66342452Y-61107544D01*
X66342455Y-61107547D01*
X66457664Y-61193793D01*
X66457671Y-61193797D01*
X66592517Y-61244091D01*
X66592516Y-61244091D01*
X66599444Y-61244835D01*
X66652127Y-61250500D01*
X68347872Y-61250499D01*
X68407483Y-61244091D01*
X68542331Y-61193796D01*
X68657546Y-61107546D01*
X68743796Y-60992331D01*
X68794091Y-60857483D01*
X68800500Y-60797873D01*
X68800500Y-60774500D01*
X68820185Y-60707461D01*
X68872989Y-60661706D01*
X68924500Y-60650500D01*
X74075501Y-60650500D01*
X74142540Y-60670185D01*
X74188295Y-60722989D01*
X74199501Y-60774500D01*
X74199501Y-60797876D01*
X74205908Y-60857483D01*
X74256202Y-60992328D01*
X74256206Y-60992335D01*
X74342452Y-61107544D01*
X74342455Y-61107547D01*
X74457664Y-61193793D01*
X74457671Y-61193797D01*
X74592517Y-61244091D01*
X74592516Y-61244091D01*
X74599444Y-61244835D01*
X74652127Y-61250500D01*
X76347872Y-61250499D01*
X76407483Y-61244091D01*
X76542331Y-61193796D01*
X76657546Y-61107546D01*
X76743796Y-60992331D01*
X76794091Y-60857483D01*
X76800500Y-60797873D01*
X76800500Y-60774500D01*
X76820185Y-60707461D01*
X76872989Y-60661706D01*
X76924500Y-60650500D01*
X92769903Y-60650500D01*
X92836942Y-60670185D01*
X92857584Y-60686819D01*
X93343181Y-61172416D01*
X93376666Y-61233739D01*
X93379500Y-61260097D01*
X93379500Y-69341859D01*
X93379499Y-69341877D01*
X93379499Y-69507583D01*
X93379498Y-69507583D01*
X93379499Y-69507586D01*
X93420423Y-69660314D01*
X93424725Y-69667766D01*
X93434904Y-69685397D01*
X93434905Y-69685398D01*
X93499475Y-69797238D01*
X93499481Y-69797246D01*
X93618349Y-69916114D01*
X93618355Y-69916119D01*
X98326610Y-74624374D01*
X98326620Y-74624385D01*
X98330950Y-74628715D01*
X98330951Y-74628716D01*
X98442755Y-74740520D01*
X98529566Y-74790639D01*
X98529568Y-74790641D01*
X98567622Y-74812611D01*
X98579686Y-74819577D01*
X98732414Y-74860501D01*
X98732417Y-74860501D01*
X98898124Y-74860501D01*
X98898140Y-74860500D01*
X108420997Y-74860500D01*
X108488036Y-74880185D01*
X108533791Y-74932989D01*
X108543735Y-75002147D01*
X108514710Y-75065703D01*
X108508678Y-75072181D01*
X107417678Y-76163181D01*
X107356355Y-76196666D01*
X107329997Y-76199500D01*
X74560098Y-76199500D01*
X74493059Y-76179815D01*
X74472417Y-76163181D01*
X71954573Y-73645337D01*
X71921088Y-73584014D01*
X71920637Y-73581847D01*
X71914583Y-73551411D01*
X71889737Y-73426503D01*
X71871629Y-73382785D01*
X71829397Y-73280827D01*
X71829390Y-73280814D01*
X71741789Y-73149711D01*
X71741786Y-73149707D01*
X71630292Y-73038213D01*
X71630288Y-73038210D01*
X71499185Y-72950609D01*
X71499172Y-72950602D01*
X71353501Y-72890264D01*
X71353489Y-72890261D01*
X71198845Y-72859500D01*
X71198842Y-72859500D01*
X71041158Y-72859500D01*
X71041155Y-72859500D01*
X70886510Y-72890261D01*
X70886498Y-72890264D01*
X70740827Y-72950602D01*
X70740814Y-72950609D01*
X70609711Y-73038210D01*
X70609707Y-73038213D01*
X70498213Y-73149707D01*
X70498210Y-73149711D01*
X70410609Y-73280814D01*
X70410602Y-73280827D01*
X70350264Y-73426498D01*
X70350261Y-73426510D01*
X70319500Y-73581153D01*
X70319500Y-73738846D01*
X70350261Y-73893489D01*
X70350264Y-73893501D01*
X70410602Y-74039172D01*
X70410609Y-74039185D01*
X70498209Y-74170287D01*
X70498210Y-74170288D01*
X70498211Y-74170289D01*
X70609711Y-74281789D01*
X70609713Y-74281790D01*
X70614019Y-74286096D01*
X70613438Y-74286676D01*
X70637049Y-74314506D01*
X70639477Y-74318712D01*
X70639479Y-74318715D01*
X70639480Y-74318716D01*
X70751284Y-74430520D01*
X70751286Y-74430521D01*
X70751290Y-74430524D01*
X70888209Y-74509573D01*
X70888216Y-74509577D01*
X71040943Y-74550500D01*
X71109903Y-74550500D01*
X71176942Y-74570185D01*
X71197583Y-74586818D01*
X73891284Y-77280520D01*
X73891286Y-77280521D01*
X73891290Y-77280524D01*
X74028209Y-77359573D01*
X74028216Y-77359577D01*
X74180943Y-77400501D01*
X74180945Y-77400501D01*
X74346654Y-77400501D01*
X74346670Y-77400500D01*
X107543425Y-77400500D01*
X107543441Y-77400501D01*
X107551037Y-77400501D01*
X107709148Y-77400501D01*
X107709151Y-77400501D01*
X107861879Y-77359577D01*
X107911998Y-77330639D01*
X107998810Y-77280520D01*
X108110614Y-77168716D01*
X108110614Y-77168714D01*
X108120822Y-77158507D01*
X108120823Y-77158504D01*
X113673994Y-71605334D01*
X113735315Y-71571851D01*
X113805007Y-71576835D01*
X113860940Y-71618707D01*
X113885357Y-71684171D01*
X113885673Y-71693017D01*
X113885673Y-73620234D01*
X113880345Y-73638378D01*
X113880008Y-73657286D01*
X113866506Y-73685506D01*
X113865988Y-73687273D01*
X113864776Y-73689124D01*
X113855560Y-73702917D01*
X113801948Y-73747722D01*
X113752457Y-73758027D01*
X113709519Y-73758027D01*
X113709503Y-73758028D01*
X112839613Y-73758028D01*
X112839597Y-73758027D01*
X112832001Y-73758027D01*
X112673886Y-73758027D01*
X112597522Y-73778489D01*
X112521157Y-73798951D01*
X112521152Y-73798954D01*
X112384233Y-73878003D01*
X112384225Y-73878009D01*
X110679479Y-75582755D01*
X110662931Y-75611418D01*
X110655936Y-75623535D01*
X110600423Y-75719686D01*
X110559499Y-75872414D01*
X110559499Y-75872416D01*
X110559499Y-76040517D01*
X110559500Y-76040530D01*
X110559500Y-78909468D01*
X110559499Y-78909472D01*
X110559499Y-78951230D01*
X110559499Y-78951233D01*
X110557116Y-78975425D01*
X110535236Y-79085420D01*
X110535236Y-79243111D01*
X110565997Y-79397754D01*
X110566000Y-79397766D01*
X110626338Y-79543437D01*
X110626345Y-79543450D01*
X110713946Y-79674553D01*
X110713949Y-79674557D01*
X110825443Y-79786051D01*
X110825447Y-79786054D01*
X110956550Y-79873655D01*
X110956563Y-79873662D01*
X111102234Y-79934000D01*
X111102239Y-79934002D01*
X111256889Y-79964764D01*
X111256892Y-79964765D01*
X111256894Y-79964765D01*
X111414580Y-79964765D01*
X111414581Y-79964764D01*
X111569233Y-79934002D01*
X111714915Y-79873659D01*
X111827828Y-79798212D01*
X111894504Y-79777335D01*
X111961884Y-79795819D01*
X111984399Y-79813634D01*
X113238584Y-81067819D01*
X113272069Y-81129142D01*
X113267085Y-81198834D01*
X113225213Y-81254767D01*
X113159749Y-81279184D01*
X113150903Y-81279500D01*
X107597848Y-81279500D01*
X107530809Y-81259815D01*
X107485054Y-81207011D01*
X107476231Y-81179692D01*
X107449738Y-81046508D01*
X107449737Y-81046507D01*
X107449737Y-81046503D01*
X107449735Y-81046498D01*
X107389397Y-80900827D01*
X107389390Y-80900814D01*
X107301789Y-80769711D01*
X107301786Y-80769707D01*
X107190292Y-80658213D01*
X107190288Y-80658210D01*
X107059185Y-80570609D01*
X107059172Y-80570602D01*
X106913501Y-80510264D01*
X106913489Y-80510261D01*
X106758845Y-80479500D01*
X106758842Y-80479500D01*
X106601158Y-80479500D01*
X106601155Y-80479500D01*
X106446510Y-80510261D01*
X106446498Y-80510264D01*
X106300827Y-80570602D01*
X106300814Y-80570609D01*
X106169711Y-80658210D01*
X106169707Y-80658213D01*
X106058213Y-80769707D01*
X106058210Y-80769711D01*
X105970609Y-80900814D01*
X105970602Y-80900827D01*
X105910264Y-81046498D01*
X105910261Y-81046510D01*
X105879500Y-81201153D01*
X105879500Y-81358846D01*
X105910261Y-81513489D01*
X105910264Y-81513501D01*
X105970602Y-81659172D01*
X105970609Y-81659185D01*
X106058210Y-81790288D01*
X106058213Y-81790292D01*
X106169707Y-81901786D01*
X106169711Y-81901789D01*
X106300814Y-81989390D01*
X106300827Y-81989397D01*
X106446498Y-82049735D01*
X106446503Y-82049737D01*
X106511147Y-82062595D01*
X106601849Y-82080638D01*
X106618605Y-82089402D01*
X106637085Y-82093423D01*
X106662123Y-82112167D01*
X106663760Y-82113023D01*
X106665339Y-82114574D01*
X106795139Y-82244374D01*
X106795149Y-82244385D01*
X106799479Y-82248715D01*
X106799480Y-82248716D01*
X106911284Y-82360520D01*
X106998095Y-82410639D01*
X106998097Y-82410641D01*
X107036151Y-82432611D01*
X107048215Y-82439577D01*
X107200943Y-82480500D01*
X119597077Y-82480500D01*
X119664116Y-82500185D01*
X119709871Y-82552989D01*
X119719815Y-82622147D01*
X119690790Y-82685703D01*
X119659078Y-82711886D01*
X119642539Y-82721434D01*
X119611284Y-82739479D01*
X119611282Y-82739481D01*
X114285339Y-88065425D01*
X114224016Y-88098910D01*
X114221850Y-88099361D01*
X114066508Y-88130261D01*
X114066498Y-88130264D01*
X113920827Y-88190602D01*
X113920814Y-88190609D01*
X113789711Y-88278210D01*
X113789707Y-88278213D01*
X113678213Y-88389707D01*
X113678210Y-88389711D01*
X113590609Y-88520814D01*
X113590602Y-88520827D01*
X113530264Y-88666498D01*
X113530261Y-88666510D01*
X113499500Y-88821153D01*
X113499500Y-88978846D01*
X113530261Y-89133489D01*
X113530264Y-89133501D01*
X113590602Y-89279172D01*
X113590609Y-89279185D01*
X113678210Y-89410288D01*
X113678213Y-89410292D01*
X113789707Y-89521786D01*
X113789711Y-89521789D01*
X113920814Y-89609390D01*
X113920827Y-89609397D01*
X114056696Y-89665675D01*
X114066503Y-89669737D01*
X114206534Y-89697591D01*
X114221153Y-89700499D01*
X114221156Y-89700500D01*
X114221158Y-89700500D01*
X114378844Y-89700500D01*
X114378845Y-89700499D01*
X114533497Y-89669737D01*
X114679179Y-89609394D01*
X114810289Y-89521789D01*
X114921789Y-89410289D01*
X115009394Y-89279179D01*
X115013728Y-89268717D01*
X115023067Y-89246166D01*
X115069737Y-89133497D01*
X115095041Y-89006286D01*
X115100638Y-88978150D01*
X115133023Y-88916239D01*
X115134518Y-88914716D01*
X120192416Y-83856819D01*
X120253739Y-83823334D01*
X120280097Y-83820500D01*
X121336588Y-83820500D01*
X121403627Y-83840185D01*
X121449382Y-83892989D01*
X121459326Y-83962147D01*
X121430301Y-84025703D01*
X121424269Y-84032181D01*
X108739481Y-96716968D01*
X108739479Y-96716971D01*
X108689361Y-96803780D01*
X108689359Y-96803782D01*
X108660425Y-96853895D01*
X108660424Y-96853896D01*
X108660423Y-96853901D01*
X108619499Y-97006629D01*
X108619499Y-97006631D01*
X108619499Y-97174732D01*
X108619500Y-97174745D01*
X108619500Y-101020234D01*
X108599815Y-101087273D01*
X108598602Y-101089125D01*
X108510609Y-101220814D01*
X108510602Y-101220827D01*
X108450264Y-101366498D01*
X108450261Y-101366510D01*
X108419500Y-101521153D01*
X108419500Y-101678846D01*
X108450261Y-101833489D01*
X108450264Y-101833501D01*
X108510602Y-101979172D01*
X108510609Y-101979185D01*
X108598210Y-102110288D01*
X108598213Y-102110292D01*
X108709707Y-102221786D01*
X108709711Y-102221789D01*
X108840814Y-102309390D01*
X108840827Y-102309397D01*
X108925932Y-102344648D01*
X108986503Y-102369737D01*
X109141153Y-102400499D01*
X109141156Y-102400500D01*
X109141158Y-102400500D01*
X109298844Y-102400500D01*
X109298845Y-102400499D01*
X109453497Y-102369737D01*
X109599179Y-102309394D01*
X109730289Y-102221789D01*
X109841789Y-102110289D01*
X109929394Y-101979179D01*
X109989737Y-101833497D01*
X110020500Y-101678842D01*
X110020500Y-101521158D01*
X110020500Y-101521155D01*
X110020499Y-101521153D01*
X109989738Y-101366510D01*
X109989737Y-101366503D01*
X109966494Y-101310389D01*
X109929397Y-101220827D01*
X109929390Y-101220814D01*
X109841398Y-101089125D01*
X109820520Y-101022447D01*
X109820500Y-101020234D01*
X109820500Y-98415350D01*
X121124500Y-98415350D01*
X121124500Y-98584649D01*
X121150981Y-98751847D01*
X121203296Y-98912853D01*
X121238100Y-98981158D01*
X121270802Y-99045339D01*
X121280152Y-99063688D01*
X121379648Y-99200634D01*
X121379652Y-99200639D01*
X121499360Y-99320347D01*
X121499365Y-99320351D01*
X121599652Y-99393213D01*
X121636315Y-99419850D01*
X121732425Y-99468820D01*
X121787146Y-99496703D01*
X121787148Y-99496703D01*
X121787151Y-99496705D01*
X121873450Y-99524745D01*
X121948152Y-99549018D01*
X122115351Y-99575500D01*
X122115356Y-99575500D01*
X122284649Y-99575500D01*
X122451847Y-99549018D01*
X122478010Y-99540517D01*
X122612849Y-99496705D01*
X122763685Y-99419850D01*
X122900641Y-99320346D01*
X123020346Y-99200641D01*
X123119850Y-99063685D01*
X123196705Y-98912849D01*
X123249018Y-98751847D01*
X123275500Y-98584649D01*
X123275500Y-98415350D01*
X123249018Y-98248152D01*
X123196703Y-98087146D01*
X123147807Y-97991184D01*
X123119850Y-97936315D01*
X123107137Y-97918817D01*
X123020351Y-97799365D01*
X123020347Y-97799360D01*
X122900639Y-97679652D01*
X122900634Y-97679648D01*
X122763688Y-97580152D01*
X122763687Y-97580151D01*
X122763685Y-97580150D01*
X122716582Y-97556150D01*
X122612853Y-97503296D01*
X122451847Y-97450981D01*
X122284649Y-97424500D01*
X122284644Y-97424500D01*
X122115356Y-97424500D01*
X122115351Y-97424500D01*
X121948152Y-97450981D01*
X121787146Y-97503296D01*
X121636311Y-97580152D01*
X121499365Y-97679648D01*
X121499360Y-97679652D01*
X121379652Y-97799360D01*
X121379648Y-97799365D01*
X121280152Y-97936311D01*
X121203296Y-98087146D01*
X121150981Y-98248152D01*
X121124500Y-98415350D01*
X109820500Y-98415350D01*
X109820500Y-97385783D01*
X109840185Y-97318744D01*
X109856819Y-97298102D01*
X113487819Y-93667102D01*
X113549142Y-93633617D01*
X113618834Y-93638601D01*
X113674767Y-93680473D01*
X113699184Y-93745937D01*
X113699500Y-93754783D01*
X113699500Y-95940234D01*
X113679815Y-96007273D01*
X113678602Y-96009125D01*
X113590609Y-96140814D01*
X113590602Y-96140827D01*
X113530264Y-96286498D01*
X113530261Y-96286510D01*
X113499500Y-96441153D01*
X113499500Y-96598846D01*
X113530261Y-96753489D01*
X113530264Y-96753501D01*
X113590602Y-96899172D01*
X113590609Y-96899185D01*
X113678210Y-97030288D01*
X113678213Y-97030292D01*
X113789707Y-97141786D01*
X113789711Y-97141789D01*
X113920814Y-97229390D01*
X113920827Y-97229397D01*
X114066498Y-97289735D01*
X114066503Y-97289737D01*
X114212330Y-97318744D01*
X114221153Y-97320499D01*
X114221156Y-97320500D01*
X114221158Y-97320500D01*
X114378844Y-97320500D01*
X114378845Y-97320499D01*
X114533497Y-97289737D01*
X114679179Y-97229394D01*
X114810289Y-97141789D01*
X114921789Y-97030289D01*
X115009394Y-96899179D01*
X115069737Y-96753497D01*
X115100500Y-96598842D01*
X115100500Y-96441158D01*
X115100500Y-96441155D01*
X115100499Y-96441153D01*
X115069738Y-96286510D01*
X115069737Y-96286503D01*
X115038998Y-96212292D01*
X115009397Y-96140827D01*
X115009390Y-96140814D01*
X114921398Y-96009125D01*
X114900520Y-95942447D01*
X114900500Y-95940234D01*
X114900500Y-93154313D01*
X114920185Y-93087274D01*
X114936819Y-93066632D01*
X115926632Y-92076819D01*
X115987955Y-92043334D01*
X116014313Y-92040500D01*
X118693331Y-92040500D01*
X118693347Y-92040501D01*
X118700943Y-92040501D01*
X118859053Y-92040501D01*
X118859057Y-92040501D01*
X119007119Y-92000827D01*
X119076964Y-92002490D01*
X119134827Y-92041652D01*
X119162332Y-92105880D01*
X119162944Y-92128710D01*
X119162594Y-92134041D01*
X119812706Y-92784152D01*
X119796058Y-92791049D01*
X119665030Y-92878599D01*
X119553599Y-92990030D01*
X119466049Y-93121058D01*
X119459153Y-93137706D01*
X118809042Y-92487595D01*
X118758462Y-92553511D01*
X118647054Y-92746479D01*
X118647045Y-92746497D01*
X118561763Y-92952381D01*
X118504088Y-93167632D01*
X118504085Y-93167645D01*
X118475000Y-93388575D01*
X118475000Y-93611424D01*
X118504085Y-93832354D01*
X118504088Y-93832367D01*
X118561763Y-94047618D01*
X118647045Y-94253502D01*
X118647054Y-94253520D01*
X118758464Y-94446491D01*
X118758473Y-94446504D01*
X118809040Y-94512403D01*
X118809043Y-94512403D01*
X119459152Y-93862293D01*
X119466049Y-93878942D01*
X119553599Y-94009970D01*
X119665030Y-94121401D01*
X119796058Y-94208951D01*
X119812705Y-94215846D01*
X119162595Y-94865955D01*
X119162595Y-94865956D01*
X119228507Y-94916533D01*
X119421485Y-95027949D01*
X119421497Y-95027954D01*
X119627381Y-95113236D01*
X119842632Y-95170911D01*
X119842645Y-95170914D01*
X120063575Y-95200000D01*
X120286425Y-95200000D01*
X120507354Y-95170914D01*
X120507367Y-95170911D01*
X120722618Y-95113236D01*
X120928502Y-95027954D01*
X120928514Y-95027949D01*
X121121498Y-94916530D01*
X121187403Y-94865957D01*
X121187404Y-94865956D01*
X120537294Y-94215846D01*
X120553942Y-94208951D01*
X120684970Y-94121401D01*
X120796401Y-94009970D01*
X120883951Y-93878942D01*
X120890846Y-93862294D01*
X121540956Y-94512404D01*
X121540957Y-94512403D01*
X121591530Y-94446498D01*
X121702949Y-94253514D01*
X121702954Y-94253502D01*
X121788236Y-94047618D01*
X121845911Y-93832367D01*
X121845914Y-93832354D01*
X121875000Y-93611424D01*
X121875000Y-93388575D01*
X121845914Y-93167645D01*
X121845911Y-93167632D01*
X121788236Y-92952381D01*
X121702954Y-92746497D01*
X121702949Y-92746485D01*
X121591533Y-92553507D01*
X121540956Y-92487595D01*
X121540955Y-92487595D01*
X120890846Y-93137704D01*
X120883951Y-93121058D01*
X120796401Y-92990030D01*
X120684970Y-92878599D01*
X120553942Y-92791049D01*
X120537293Y-92784152D01*
X121187403Y-92134043D01*
X121187403Y-92134040D01*
X121121504Y-92083473D01*
X121121491Y-92083464D01*
X120928520Y-91972054D01*
X120928502Y-91972045D01*
X120722618Y-91886763D01*
X120507367Y-91829088D01*
X120507354Y-91829085D01*
X120286425Y-91800000D01*
X120063575Y-91800000D01*
X119842645Y-91829085D01*
X119842632Y-91829088D01*
X119627381Y-91886763D01*
X119443805Y-91962804D01*
X119374336Y-91970273D01*
X119311856Y-91938998D01*
X119276204Y-91878909D01*
X119278698Y-91809084D01*
X119308669Y-91760564D01*
X126987824Y-84081410D01*
X127049145Y-84047927D01*
X127118837Y-84052911D01*
X127174770Y-84094783D01*
X127199187Y-84160247D01*
X127199503Y-84169093D01*
X127199503Y-85381862D01*
X127199502Y-85381880D01*
X127199502Y-85547586D01*
X127199501Y-85547586D01*
X127210240Y-85587664D01*
X127240426Y-85700317D01*
X127245728Y-85709500D01*
X127245729Y-85709501D01*
X127245729Y-85709502D01*
X127319480Y-85837244D01*
X127319484Y-85837249D01*
X127438352Y-85956117D01*
X127438357Y-85956121D01*
X130862755Y-89380520D01*
X130862757Y-89380521D01*
X130862761Y-89380524D01*
X130999680Y-89459573D01*
X130999687Y-89459577D01*
X131152414Y-89500501D01*
X131152416Y-89500501D01*
X131318125Y-89500501D01*
X131318141Y-89500500D01*
X136011374Y-89500500D01*
X136078413Y-89520185D01*
X136099055Y-89536819D01*
X139557690Y-92995454D01*
X139591175Y-93056777D01*
X139586191Y-93126469D01*
X139544319Y-93182402D01*
X139494204Y-93204752D01*
X139466504Y-93210262D01*
X139466498Y-93210264D01*
X139320827Y-93270602D01*
X139320814Y-93270609D01*
X139189711Y-93358210D01*
X139189707Y-93358213D01*
X139078213Y-93469707D01*
X139078210Y-93469711D01*
X138990609Y-93600814D01*
X138990602Y-93600827D01*
X138930264Y-93746498D01*
X138930261Y-93746510D01*
X138899500Y-93901153D01*
X138899500Y-93929901D01*
X138879815Y-93996940D01*
X138863181Y-94017582D01*
X136766681Y-96114081D01*
X136705358Y-96147566D01*
X136635666Y-96142582D01*
X136579733Y-96100710D01*
X136555316Y-96035246D01*
X136555000Y-96026400D01*
X136555000Y-95895720D01*
X136522373Y-95689727D01*
X136457924Y-95491372D01*
X136363244Y-95305556D01*
X136363236Y-95305543D01*
X136327372Y-95256180D01*
X136327371Y-95256179D01*
X135753787Y-95829765D01*
X135742518Y-95787708D01*
X135670110Y-95662292D01*
X135567708Y-95559890D01*
X135442292Y-95487482D01*
X135400233Y-95476212D01*
X135973819Y-94902627D01*
X135924451Y-94866759D01*
X135738627Y-94772075D01*
X135540272Y-94707626D01*
X135334279Y-94675000D01*
X135125721Y-94675000D01*
X134919727Y-94707626D01*
X134721372Y-94772075D01*
X134535552Y-94866757D01*
X134486180Y-94902627D01*
X135059766Y-95476212D01*
X135017708Y-95487482D01*
X134892292Y-95559890D01*
X134789890Y-95662292D01*
X134717482Y-95787708D01*
X134706212Y-95829765D01*
X134132627Y-95256180D01*
X134096757Y-95305552D01*
X134002075Y-95491372D01*
X133937626Y-95689727D01*
X133905000Y-95895720D01*
X133905000Y-96104279D01*
X133937626Y-96310272D01*
X134002075Y-96508627D01*
X134096759Y-96694451D01*
X134132627Y-96743818D01*
X134132627Y-96743819D01*
X134706212Y-96170234D01*
X134717482Y-96212292D01*
X134789890Y-96337708D01*
X134892292Y-96440110D01*
X135017708Y-96512518D01*
X135059765Y-96523787D01*
X134486179Y-97097371D01*
X134486180Y-97097372D01*
X134535543Y-97133236D01*
X134535555Y-97133244D01*
X134547308Y-97139232D01*
X134598105Y-97187206D01*
X134614901Y-97255026D01*
X134592365Y-97321162D01*
X134547313Y-97360201D01*
X134535288Y-97366328D01*
X134366493Y-97488966D01*
X134218966Y-97636493D01*
X134096330Y-97805285D01*
X134001612Y-97991179D01*
X133937137Y-98189610D01*
X133904500Y-98395675D01*
X133904500Y-98525902D01*
X133884815Y-98592941D01*
X133832011Y-98638696D01*
X133762853Y-98648640D01*
X133699297Y-98619615D01*
X133692819Y-98613583D01*
X133316819Y-98237583D01*
X133283334Y-98176260D01*
X133280500Y-98149902D01*
X133280500Y-96360530D01*
X133280501Y-96360517D01*
X133280501Y-96192416D01*
X133280501Y-96192414D01*
X133239577Y-96039686D01*
X133184064Y-95943535D01*
X133160520Y-95902755D01*
X133048716Y-95790951D01*
X133048715Y-95790950D01*
X133044385Y-95786620D01*
X133044374Y-95786610D01*
X132669445Y-95411681D01*
X132635960Y-95350358D01*
X132640944Y-95280666D01*
X132682816Y-95224733D01*
X132748280Y-95200316D01*
X132757126Y-95200000D01*
X132936425Y-95200000D01*
X133157354Y-95170914D01*
X133157367Y-95170911D01*
X133372618Y-95113236D01*
X133578502Y-95027954D01*
X133578514Y-95027949D01*
X133771498Y-94916530D01*
X133837403Y-94865957D01*
X133837404Y-94865956D01*
X133187293Y-94215846D01*
X133203942Y-94208951D01*
X133334970Y-94121401D01*
X133446401Y-94009970D01*
X133533951Y-93878942D01*
X133540846Y-93862294D01*
X134190956Y-94512404D01*
X134190957Y-94512403D01*
X134241530Y-94446498D01*
X134352949Y-94253514D01*
X134352954Y-94253502D01*
X134438236Y-94047618D01*
X134495911Y-93832367D01*
X134495914Y-93832354D01*
X134525000Y-93611424D01*
X134525000Y-93388575D01*
X134495914Y-93167645D01*
X134495911Y-93167632D01*
X134438236Y-92952381D01*
X134352954Y-92746497D01*
X134352949Y-92746485D01*
X134241533Y-92553507D01*
X134190956Y-92487595D01*
X134190955Y-92487595D01*
X133540846Y-93137704D01*
X133533951Y-93121058D01*
X133446401Y-92990030D01*
X133334970Y-92878599D01*
X133203942Y-92791049D01*
X133187293Y-92784152D01*
X133837403Y-92134043D01*
X133837403Y-92134040D01*
X133771504Y-92083473D01*
X133771491Y-92083464D01*
X133578520Y-91972054D01*
X133578502Y-91972045D01*
X133372618Y-91886763D01*
X133157367Y-91829088D01*
X133157354Y-91829085D01*
X132936425Y-91800000D01*
X132713575Y-91800000D01*
X132492645Y-91829085D01*
X132492632Y-91829088D01*
X132277381Y-91886763D01*
X132071497Y-91972045D01*
X132071479Y-91972054D01*
X131878511Y-92083462D01*
X131812595Y-92134042D01*
X132462706Y-92784152D01*
X132446058Y-92791049D01*
X132315030Y-92878599D01*
X132203599Y-92990030D01*
X132116049Y-93121058D01*
X132109152Y-93137706D01*
X131459042Y-92487595D01*
X131408462Y-92553511D01*
X131297054Y-92746479D01*
X131297045Y-92746497D01*
X131211763Y-92952381D01*
X131154088Y-93167632D01*
X131154085Y-93167645D01*
X131125000Y-93388575D01*
X131125000Y-93567874D01*
X131105315Y-93634913D01*
X131052511Y-93680668D01*
X130983353Y-93690612D01*
X130919797Y-93661587D01*
X130913319Y-93655555D01*
X129636819Y-92379055D01*
X129622115Y-92352127D01*
X129605523Y-92326309D01*
X129604631Y-92320108D01*
X129603334Y-92317732D01*
X129600500Y-92291374D01*
X129600500Y-91027661D01*
X129620185Y-90960622D01*
X129668207Y-90917175D01*
X129694714Y-90903670D01*
X129863505Y-90781035D01*
X130011035Y-90633505D01*
X130133670Y-90464714D01*
X130228389Y-90278816D01*
X130292862Y-90080389D01*
X130316665Y-89930104D01*
X130325500Y-89874324D01*
X130325500Y-89665675D01*
X130292862Y-89459610D01*
X130234236Y-89279179D01*
X130228389Y-89261184D01*
X130228387Y-89261181D01*
X130228387Y-89261179D01*
X130178421Y-89163116D01*
X130133670Y-89075286D01*
X130011035Y-88906495D01*
X129863505Y-88758965D01*
X129694714Y-88636330D01*
X129686618Y-88632205D01*
X129508820Y-88541612D01*
X129310389Y-88477137D01*
X129104324Y-88444500D01*
X129104319Y-88444500D01*
X128895681Y-88444500D01*
X128895676Y-88444500D01*
X128689610Y-88477137D01*
X128491179Y-88541612D01*
X128305285Y-88636330D01*
X128136493Y-88758966D01*
X127988966Y-88906493D01*
X127866330Y-89075286D01*
X127860484Y-89086759D01*
X127812508Y-89137554D01*
X127744687Y-89154348D01*
X127678553Y-89131809D01*
X127639516Y-89086759D01*
X127638303Y-89084380D01*
X127633670Y-89075286D01*
X127511035Y-88906495D01*
X127363505Y-88758965D01*
X127194714Y-88636330D01*
X127186618Y-88632205D01*
X127008820Y-88541612D01*
X126810389Y-88477137D01*
X126604324Y-88444500D01*
X126604319Y-88444500D01*
X126395681Y-88444500D01*
X126395676Y-88444500D01*
X126189610Y-88477137D01*
X125991179Y-88541612D01*
X125805285Y-88636330D01*
X125636493Y-88758966D01*
X125488966Y-88906493D01*
X125366328Y-89075288D01*
X125360201Y-89087313D01*
X125312225Y-89138108D01*
X125244404Y-89154901D01*
X125178270Y-89132362D01*
X125139232Y-89087308D01*
X125133244Y-89075555D01*
X125133236Y-89075543D01*
X125097372Y-89026180D01*
X125097371Y-89026179D01*
X124523787Y-89599764D01*
X124512518Y-89557708D01*
X124440110Y-89432292D01*
X124337708Y-89329890D01*
X124212292Y-89257482D01*
X124170233Y-89246212D01*
X124743819Y-88672627D01*
X124694451Y-88636759D01*
X124508627Y-88542075D01*
X124310272Y-88477626D01*
X124104279Y-88445000D01*
X123895721Y-88445000D01*
X123689727Y-88477626D01*
X123491372Y-88542075D01*
X123305552Y-88636757D01*
X123256180Y-88672627D01*
X123829766Y-89246212D01*
X123787708Y-89257482D01*
X123662292Y-89329890D01*
X123559890Y-89432292D01*
X123487482Y-89557708D01*
X123476212Y-89599765D01*
X122902627Y-89026180D01*
X122866757Y-89075552D01*
X122772075Y-89261372D01*
X122707626Y-89459727D01*
X122675000Y-89665720D01*
X122675000Y-89874279D01*
X122707626Y-90080272D01*
X122772075Y-90278627D01*
X122866759Y-90464451D01*
X122902627Y-90513818D01*
X122902627Y-90513819D01*
X123476212Y-89940234D01*
X123487482Y-89982292D01*
X123559890Y-90107708D01*
X123662292Y-90210110D01*
X123787708Y-90282518D01*
X123829765Y-90293787D01*
X123256179Y-90867371D01*
X123256180Y-90867372D01*
X123305543Y-90903236D01*
X123305556Y-90903244D01*
X123491372Y-90997924D01*
X123689727Y-91062373D01*
X123895721Y-91095000D01*
X124104279Y-91095000D01*
X124310272Y-91062373D01*
X124508627Y-90997924D01*
X124694451Y-90903240D01*
X124743818Y-90867372D01*
X124743818Y-90867371D01*
X124170234Y-90293787D01*
X124212292Y-90282518D01*
X124337708Y-90210110D01*
X124440110Y-90107708D01*
X124512518Y-89982292D01*
X124523787Y-89940234D01*
X125097371Y-90513818D01*
X125097372Y-90513818D01*
X125133241Y-90464449D01*
X125139231Y-90452694D01*
X125187203Y-90401896D01*
X125255023Y-90385098D01*
X125321159Y-90407632D01*
X125360203Y-90452689D01*
X125366330Y-90464714D01*
X125488965Y-90633505D01*
X125636495Y-90781035D01*
X125805286Y-90903670D01*
X125893116Y-90948421D01*
X125991179Y-90998387D01*
X125991181Y-90998387D01*
X125991184Y-90998389D01*
X126081274Y-91027661D01*
X126189610Y-91062862D01*
X126395676Y-91095500D01*
X126395681Y-91095500D01*
X126604324Y-91095500D01*
X126810389Y-91062862D01*
X126811894Y-91062373D01*
X127008816Y-90998389D01*
X127194714Y-90903670D01*
X127363505Y-90781035D01*
X127511035Y-90633505D01*
X127633670Y-90464714D01*
X127639515Y-90453243D01*
X127687489Y-90402447D01*
X127755310Y-90385651D01*
X127821445Y-90408188D01*
X127860485Y-90453243D01*
X127866328Y-90464712D01*
X127902006Y-90513818D01*
X127988965Y-90633505D01*
X128136495Y-90781035D01*
X128249022Y-90862791D01*
X128305287Y-90903671D01*
X128320565Y-90911455D01*
X128331792Y-90917175D01*
X128382589Y-90965148D01*
X128399500Y-91027661D01*
X128399500Y-92504801D01*
X128399499Y-92504819D01*
X128399499Y-92670525D01*
X128399498Y-92670525D01*
X128440423Y-92823256D01*
X128469358Y-92873371D01*
X128469359Y-92873375D01*
X128469360Y-92873375D01*
X128519479Y-92960185D01*
X128519481Y-92960188D01*
X128638349Y-93079056D01*
X128638355Y-93079061D01*
X132043181Y-96483887D01*
X132076666Y-96545210D01*
X132079500Y-96571568D01*
X132079500Y-98174597D01*
X132059815Y-98241636D01*
X132007011Y-98287391D01*
X131937853Y-98297335D01*
X131874297Y-98268310D01*
X131837569Y-98212916D01*
X131796703Y-98087146D01*
X131747807Y-97991184D01*
X131719850Y-97936315D01*
X131707137Y-97918817D01*
X131620351Y-97799365D01*
X131620347Y-97799360D01*
X131500639Y-97679652D01*
X131500634Y-97679648D01*
X131363688Y-97580152D01*
X131363687Y-97580151D01*
X131363685Y-97580150D01*
X131316582Y-97556150D01*
X131212853Y-97503296D01*
X131051847Y-97450981D01*
X130884649Y-97424500D01*
X130884644Y-97424500D01*
X130715356Y-97424500D01*
X130715351Y-97424500D01*
X130548152Y-97450981D01*
X130387146Y-97503296D01*
X130236311Y-97580152D01*
X130099365Y-97679648D01*
X130099360Y-97679652D01*
X129979652Y-97799360D01*
X129979648Y-97799365D01*
X129880152Y-97936311D01*
X129803296Y-98087146D01*
X129750981Y-98248152D01*
X129724500Y-98415350D01*
X129724500Y-98584649D01*
X129750981Y-98751847D01*
X129803296Y-98912853D01*
X129838100Y-98981158D01*
X129870802Y-99045339D01*
X129880152Y-99063688D01*
X129979648Y-99200634D01*
X129979652Y-99200639D01*
X130099360Y-99320347D01*
X130099365Y-99320351D01*
X130199652Y-99393213D01*
X130236315Y-99419850D01*
X130332425Y-99468820D01*
X130387146Y-99496703D01*
X130387148Y-99496703D01*
X130387151Y-99496705D01*
X130473450Y-99524745D01*
X130548152Y-99549018D01*
X130715351Y-99575500D01*
X130715356Y-99575500D01*
X130884649Y-99575500D01*
X131051847Y-99549018D01*
X131078010Y-99540517D01*
X131212849Y-99496705D01*
X131363685Y-99419850D01*
X131500641Y-99320346D01*
X131620346Y-99200641D01*
X131719850Y-99063685D01*
X131796705Y-98912849D01*
X131849018Y-98751847D01*
X131865560Y-98647402D01*
X131865916Y-98646651D01*
X131865820Y-98645824D01*
X131880877Y-98615090D01*
X131895489Y-98584268D01*
X131896194Y-98583828D01*
X131896561Y-98583080D01*
X131925835Y-98565371D01*
X131954800Y-98547336D01*
X131955631Y-98547347D01*
X131956344Y-98546917D01*
X131990523Y-98547846D01*
X132024663Y-98548334D01*
X132025355Y-98548793D01*
X132026188Y-98548816D01*
X132054422Y-98568065D01*
X132082895Y-98586943D01*
X132083458Y-98587860D01*
X132083918Y-98588174D01*
X132085286Y-98590838D01*
X132102186Y-98618373D01*
X132105567Y-98626343D01*
X132120423Y-98681785D01*
X132149291Y-98731785D01*
X132194672Y-98810389D01*
X132199479Y-98818714D01*
X132199481Y-98818717D01*
X132318349Y-98937585D01*
X132318355Y-98937590D01*
X133568583Y-100187819D01*
X133602068Y-100249142D01*
X133597084Y-100318834D01*
X133555212Y-100374767D01*
X133489748Y-100399184D01*
X133480902Y-100399500D01*
X118375198Y-100399500D01*
X118375182Y-100399499D01*
X118367586Y-100399499D01*
X118209472Y-100399499D01*
X118102116Y-100428265D01*
X118056739Y-100440424D01*
X118056738Y-100440425D01*
X118006625Y-100469359D01*
X118006624Y-100469360D01*
X117963218Y-100494420D01*
X117919814Y-100519479D01*
X117919811Y-100519481D01*
X114948663Y-103490630D01*
X114887340Y-103524115D01*
X114817648Y-103519131D01*
X114792091Y-103506051D01*
X114679185Y-103430609D01*
X114679172Y-103430602D01*
X114533501Y-103370264D01*
X114533489Y-103370261D01*
X114378845Y-103339500D01*
X114378842Y-103339500D01*
X114221158Y-103339500D01*
X114221155Y-103339500D01*
X114066510Y-103370261D01*
X114066498Y-103370264D01*
X113920827Y-103430602D01*
X113920814Y-103430609D01*
X113789711Y-103518210D01*
X113789707Y-103518213D01*
X113678213Y-103629707D01*
X113678210Y-103629711D01*
X113590609Y-103760814D01*
X113590602Y-103760827D01*
X113530264Y-103906498D01*
X113530261Y-103906508D01*
X113499361Y-104061850D01*
X113466976Y-104123761D01*
X113465425Y-104125339D01*
X109007584Y-108583181D01*
X108946261Y-108616666D01*
X108919903Y-108619500D01*
X101900097Y-108619500D01*
X101833058Y-108599815D01*
X101812416Y-108583181D01*
X99696819Y-106467584D01*
X99663334Y-106406261D01*
X99660500Y-106379903D01*
X99660500Y-104440097D01*
X99680185Y-104373058D01*
X99696819Y-104352416D01*
X99988833Y-104060402D01*
X100335520Y-103713716D01*
X100414577Y-103576784D01*
X100455501Y-103424057D01*
X100455501Y-103265942D01*
X100455501Y-103258347D01*
X100455500Y-103258329D01*
X100455500Y-99545943D01*
X100455499Y-99545939D01*
X100446147Y-99511036D01*
X100442307Y-99496705D01*
X100414577Y-99393215D01*
X100369983Y-99315977D01*
X100335520Y-99256284D01*
X100223716Y-99144480D01*
X100223715Y-99144479D01*
X100219385Y-99140149D01*
X100219374Y-99140139D01*
X100043918Y-98964683D01*
X100010433Y-98903360D01*
X100013669Y-98838681D01*
X100017624Y-98826510D01*
X100022862Y-98810389D01*
X100043231Y-98681785D01*
X100055500Y-98604324D01*
X100055500Y-98395675D01*
X100022862Y-98189610D01*
X99958387Y-97991179D01*
X99863669Y-97805285D01*
X99859364Y-97799360D01*
X99741035Y-97636495D01*
X99593505Y-97488965D01*
X99424714Y-97366330D01*
X99412689Y-97360203D01*
X99361893Y-97312228D01*
X99345098Y-97244407D01*
X99367636Y-97178272D01*
X99412694Y-97139231D01*
X99424449Y-97133241D01*
X99473818Y-97097372D01*
X99473818Y-97097371D01*
X98900234Y-96523787D01*
X98942292Y-96512518D01*
X99067708Y-96440110D01*
X99170110Y-96337708D01*
X99242518Y-96212292D01*
X99253787Y-96170234D01*
X99827371Y-96743818D01*
X99827372Y-96743818D01*
X99863240Y-96694451D01*
X99957924Y-96508627D01*
X100022373Y-96310272D01*
X100055000Y-96104279D01*
X100055000Y-95895720D01*
X100022373Y-95689727D01*
X99957924Y-95491372D01*
X99863244Y-95305556D01*
X99863236Y-95305543D01*
X99827372Y-95256180D01*
X99827371Y-95256179D01*
X99253787Y-95829764D01*
X99242518Y-95787708D01*
X99170110Y-95662292D01*
X99067708Y-95559890D01*
X98942292Y-95487482D01*
X98900233Y-95476212D01*
X99473819Y-94902627D01*
X99424451Y-94866759D01*
X99238627Y-94772075D01*
X99040272Y-94707626D01*
X98834279Y-94675000D01*
X98625721Y-94675000D01*
X98419727Y-94707626D01*
X98221372Y-94772075D01*
X98035552Y-94866757D01*
X97986180Y-94902627D01*
X98559766Y-95476212D01*
X98517708Y-95487482D01*
X98392292Y-95559890D01*
X98289890Y-95662292D01*
X98217482Y-95787708D01*
X98206212Y-95829765D01*
X97632627Y-95256180D01*
X97596757Y-95305552D01*
X97502075Y-95491372D01*
X97437626Y-95689727D01*
X97405000Y-95895720D01*
X97405000Y-96104279D01*
X97437626Y-96310272D01*
X97502075Y-96508627D01*
X97596759Y-96694451D01*
X97632627Y-96743818D01*
X97632627Y-96743819D01*
X98206212Y-96170234D01*
X98217482Y-96212292D01*
X98289890Y-96337708D01*
X98392292Y-96440110D01*
X98517708Y-96512518D01*
X98559765Y-96523787D01*
X97986179Y-97097371D01*
X97986180Y-97097372D01*
X98035543Y-97133236D01*
X98035555Y-97133244D01*
X98047308Y-97139232D01*
X98098105Y-97187206D01*
X98114901Y-97255026D01*
X98092365Y-97321162D01*
X98047313Y-97360201D01*
X98035288Y-97366328D01*
X97866493Y-97488966D01*
X97718966Y-97636493D01*
X97596330Y-97805285D01*
X97501612Y-97991179D01*
X97437137Y-98189610D01*
X97404500Y-98395675D01*
X97404500Y-98525903D01*
X97384815Y-98592942D01*
X97332011Y-98638697D01*
X97262853Y-98648641D01*
X97199297Y-98619616D01*
X97192819Y-98613584D01*
X93136819Y-94557584D01*
X93103334Y-94496261D01*
X93100500Y-94469903D01*
X93100500Y-93388575D01*
X94625000Y-93388575D01*
X94625000Y-93611424D01*
X94654085Y-93832354D01*
X94654088Y-93832367D01*
X94711763Y-94047618D01*
X94797045Y-94253502D01*
X94797054Y-94253520D01*
X94908464Y-94446491D01*
X94908473Y-94446504D01*
X94959040Y-94512403D01*
X94959043Y-94512403D01*
X95609152Y-93862293D01*
X95616049Y-93878942D01*
X95703599Y-94009970D01*
X95815030Y-94121401D01*
X95946058Y-94208951D01*
X95962705Y-94215846D01*
X95312595Y-94865955D01*
X95312595Y-94865956D01*
X95378507Y-94916533D01*
X95571485Y-95027949D01*
X95571497Y-95027954D01*
X95777381Y-95113236D01*
X95992632Y-95170911D01*
X95992645Y-95170914D01*
X96213575Y-95200000D01*
X96436425Y-95200000D01*
X96657354Y-95170914D01*
X96657367Y-95170911D01*
X96872618Y-95113236D01*
X97078502Y-95027954D01*
X97078514Y-95027949D01*
X97271498Y-94916530D01*
X97337403Y-94865957D01*
X97337404Y-94865956D01*
X96687294Y-94215846D01*
X96703942Y-94208951D01*
X96834970Y-94121401D01*
X96946401Y-94009970D01*
X97033951Y-93878942D01*
X97040846Y-93862294D01*
X97690956Y-94512404D01*
X97690957Y-94512403D01*
X97741530Y-94446498D01*
X97852949Y-94253514D01*
X97852954Y-94253502D01*
X97938236Y-94047618D01*
X97995911Y-93832367D01*
X97995914Y-93832354D01*
X98025000Y-93611424D01*
X98025000Y-93388575D01*
X97995914Y-93167645D01*
X97995911Y-93167632D01*
X97938236Y-92952381D01*
X97852954Y-92746497D01*
X97852949Y-92746485D01*
X97741533Y-92553507D01*
X97690956Y-92487595D01*
X97690955Y-92487595D01*
X97040846Y-93137704D01*
X97033951Y-93121058D01*
X96946401Y-92990030D01*
X96834970Y-92878599D01*
X96703942Y-92791049D01*
X96687293Y-92784152D01*
X97337403Y-92134043D01*
X97337403Y-92134040D01*
X97271504Y-92083473D01*
X97271491Y-92083464D01*
X97078520Y-91972054D01*
X97078502Y-91972045D01*
X96872618Y-91886763D01*
X96657367Y-91829088D01*
X96657354Y-91829085D01*
X96436425Y-91800000D01*
X96213575Y-91800000D01*
X95992645Y-91829085D01*
X95992632Y-91829088D01*
X95777381Y-91886763D01*
X95571497Y-91972045D01*
X95571479Y-91972054D01*
X95378511Y-92083462D01*
X95312595Y-92134042D01*
X95962706Y-92784152D01*
X95946058Y-92791049D01*
X95815030Y-92878599D01*
X95703599Y-92990030D01*
X95616049Y-93121058D01*
X95609153Y-93137706D01*
X94959042Y-92487595D01*
X94908462Y-92553511D01*
X94797054Y-92746479D01*
X94797045Y-92746497D01*
X94711763Y-92952381D01*
X94654088Y-93167632D01*
X94654085Y-93167645D01*
X94625000Y-93388575D01*
X93100500Y-93388575D01*
X93100500Y-91027661D01*
X93120185Y-90960622D01*
X93168207Y-90917175D01*
X93194714Y-90903670D01*
X93363505Y-90781035D01*
X93511035Y-90633505D01*
X93633670Y-90464714D01*
X93728389Y-90278816D01*
X93792862Y-90080389D01*
X93816665Y-89930104D01*
X93825500Y-89874324D01*
X93825500Y-89665675D01*
X93792862Y-89459610D01*
X93734236Y-89279179D01*
X93728389Y-89261184D01*
X93728387Y-89261181D01*
X93728387Y-89261179D01*
X93678421Y-89163116D01*
X93633670Y-89075286D01*
X93511035Y-88906495D01*
X93363505Y-88758965D01*
X93194714Y-88636330D01*
X93186618Y-88632205D01*
X93008820Y-88541612D01*
X92810389Y-88477137D01*
X92604324Y-88444500D01*
X92604319Y-88444500D01*
X92395681Y-88444500D01*
X92395676Y-88444500D01*
X92189610Y-88477137D01*
X91991179Y-88541612D01*
X91805285Y-88636330D01*
X91636493Y-88758966D01*
X91488966Y-88906493D01*
X91366330Y-89075286D01*
X91360484Y-89086759D01*
X91312508Y-89137554D01*
X91244687Y-89154348D01*
X91178553Y-89131809D01*
X91139516Y-89086759D01*
X91138303Y-89084380D01*
X91133670Y-89075286D01*
X91011035Y-88906495D01*
X90863505Y-88758965D01*
X90694714Y-88636330D01*
X90686618Y-88632205D01*
X90508820Y-88541612D01*
X90310389Y-88477137D01*
X90104324Y-88444500D01*
X90104319Y-88444500D01*
X89895681Y-88444500D01*
X89895676Y-88444500D01*
X89689610Y-88477137D01*
X89491179Y-88541612D01*
X89305285Y-88636330D01*
X89136493Y-88758966D01*
X88988966Y-88906493D01*
X88866328Y-89075288D01*
X88860201Y-89087313D01*
X88812225Y-89138108D01*
X88744404Y-89154901D01*
X88678270Y-89132362D01*
X88639232Y-89087308D01*
X88633244Y-89075555D01*
X88633236Y-89075543D01*
X88597372Y-89026180D01*
X88597371Y-89026179D01*
X88023787Y-89599764D01*
X88012518Y-89557708D01*
X87940110Y-89432292D01*
X87837708Y-89329890D01*
X87712292Y-89257482D01*
X87670233Y-89246212D01*
X88243819Y-88672627D01*
X88194451Y-88636759D01*
X88008627Y-88542075D01*
X87810272Y-88477626D01*
X87604279Y-88445000D01*
X87395721Y-88445000D01*
X87189727Y-88477626D01*
X86991372Y-88542075D01*
X86805552Y-88636757D01*
X86756180Y-88672627D01*
X87329766Y-89246212D01*
X87287708Y-89257482D01*
X87162292Y-89329890D01*
X87059890Y-89432292D01*
X86987482Y-89557708D01*
X86976212Y-89599765D01*
X86402627Y-89026180D01*
X86366757Y-89075552D01*
X86272075Y-89261372D01*
X86207626Y-89459727D01*
X86175000Y-89665720D01*
X86175000Y-89874279D01*
X86207626Y-90080272D01*
X86272075Y-90278627D01*
X86366759Y-90464451D01*
X86402627Y-90513818D01*
X86402627Y-90513819D01*
X86976212Y-89940233D01*
X86987482Y-89982292D01*
X87059890Y-90107708D01*
X87162292Y-90210110D01*
X87287708Y-90282518D01*
X87329765Y-90293787D01*
X86756179Y-90867371D01*
X86756180Y-90867372D01*
X86805543Y-90903236D01*
X86805556Y-90903244D01*
X86991372Y-90997924D01*
X87189727Y-91062373D01*
X87395721Y-91095000D01*
X87604279Y-91095000D01*
X87810272Y-91062373D01*
X88008627Y-90997924D01*
X88194451Y-90903240D01*
X88243818Y-90867372D01*
X88243818Y-90867371D01*
X87670234Y-90293787D01*
X87712292Y-90282518D01*
X87837708Y-90210110D01*
X87940110Y-90107708D01*
X88012518Y-89982292D01*
X88023787Y-89940234D01*
X88597371Y-90513818D01*
X88597372Y-90513818D01*
X88633241Y-90464449D01*
X88639231Y-90452694D01*
X88687203Y-90401896D01*
X88755023Y-90385098D01*
X88821159Y-90407632D01*
X88860203Y-90452689D01*
X88866330Y-90464714D01*
X88988965Y-90633505D01*
X89136495Y-90781035D01*
X89305286Y-90903670D01*
X89393116Y-90948421D01*
X89491179Y-90998387D01*
X89491181Y-90998387D01*
X89491184Y-90998389D01*
X89581274Y-91027661D01*
X89689610Y-91062862D01*
X89895676Y-91095500D01*
X89895681Y-91095500D01*
X90104324Y-91095500D01*
X90310389Y-91062862D01*
X90311894Y-91062373D01*
X90508816Y-90998389D01*
X90694714Y-90903670D01*
X90863505Y-90781035D01*
X91011035Y-90633505D01*
X91133670Y-90464714D01*
X91139515Y-90453243D01*
X91187489Y-90402447D01*
X91255310Y-90385651D01*
X91321445Y-90408188D01*
X91360485Y-90453243D01*
X91366328Y-90464712D01*
X91402006Y-90513818D01*
X91488965Y-90633505D01*
X91636495Y-90781035D01*
X91749022Y-90862791D01*
X91805287Y-90903671D01*
X91820565Y-90911455D01*
X91831792Y-90917175D01*
X91882589Y-90965148D01*
X91899500Y-91027661D01*
X91899500Y-94683330D01*
X91899499Y-94683348D01*
X91899499Y-94849054D01*
X91899498Y-94849054D01*
X91940423Y-95001785D01*
X91969358Y-95051900D01*
X91969359Y-95051904D01*
X91969360Y-95051904D01*
X92019479Y-95138714D01*
X92019481Y-95138717D01*
X92138349Y-95257585D01*
X92138355Y-95257590D01*
X94120887Y-97240122D01*
X94154372Y-97301445D01*
X94149388Y-97371137D01*
X94107516Y-97427070D01*
X94052615Y-97450275D01*
X94048150Y-97450982D01*
X93887146Y-97503296D01*
X93736311Y-97580152D01*
X93599365Y-97679648D01*
X93599360Y-97679652D01*
X93479652Y-97799360D01*
X93479648Y-97799365D01*
X93380152Y-97936311D01*
X93303296Y-98087146D01*
X93250981Y-98248152D01*
X93224500Y-98415350D01*
X93224500Y-98584649D01*
X93250981Y-98751847D01*
X93303296Y-98912853D01*
X93338100Y-98981158D01*
X93370802Y-99045339D01*
X93380152Y-99063688D01*
X93479648Y-99200634D01*
X93479652Y-99200639D01*
X93599360Y-99320347D01*
X93599365Y-99320351D01*
X93699652Y-99393213D01*
X93736315Y-99419850D01*
X93832425Y-99468820D01*
X93887146Y-99496703D01*
X93887148Y-99496703D01*
X93887151Y-99496705D01*
X93973450Y-99524745D01*
X94048152Y-99549018D01*
X94215351Y-99575500D01*
X94215356Y-99575500D01*
X94384649Y-99575500D01*
X94551847Y-99549018D01*
X94578010Y-99540517D01*
X94712849Y-99496705D01*
X94863685Y-99419850D01*
X95000641Y-99320346D01*
X95120346Y-99200641D01*
X95219850Y-99063685D01*
X95296705Y-98912849D01*
X95349018Y-98751847D01*
X95349722Y-98747397D01*
X95379650Y-98684263D01*
X95438960Y-98647330D01*
X95508823Y-98648326D01*
X95559877Y-98679112D01*
X97416081Y-100535316D01*
X97449566Y-100596639D01*
X97446332Y-100661313D01*
X97437138Y-100689610D01*
X97404500Y-100895675D01*
X97404500Y-101104324D01*
X97437137Y-101310389D01*
X97501612Y-101508820D01*
X97562193Y-101627716D01*
X97596330Y-101694714D01*
X97718965Y-101863505D01*
X97866495Y-102011035D01*
X98008387Y-102114126D01*
X98051051Y-102169455D01*
X98059500Y-102214443D01*
X98059500Y-102641467D01*
X98039815Y-102708506D01*
X97987011Y-102754261D01*
X97917853Y-102764205D01*
X97854297Y-102735180D01*
X97828113Y-102703467D01*
X97741533Y-102553507D01*
X97690956Y-102487595D01*
X97690955Y-102487595D01*
X97040846Y-103137704D01*
X97033951Y-103121058D01*
X96946401Y-102990030D01*
X96834970Y-102878599D01*
X96703942Y-102791049D01*
X96687293Y-102784152D01*
X97337403Y-102134043D01*
X97337403Y-102134040D01*
X97271504Y-102083473D01*
X97271491Y-102083464D01*
X97078520Y-101972054D01*
X97078502Y-101972045D01*
X96872618Y-101886763D01*
X96657367Y-101829088D01*
X96657354Y-101829085D01*
X96436425Y-101800000D01*
X96213575Y-101800000D01*
X95992645Y-101829085D01*
X95992632Y-101829088D01*
X95777381Y-101886763D01*
X95571497Y-101972045D01*
X95571479Y-101972054D01*
X95378511Y-102083462D01*
X95312595Y-102134042D01*
X95962706Y-102784152D01*
X95946058Y-102791049D01*
X95815030Y-102878599D01*
X95703599Y-102990030D01*
X95616049Y-103121058D01*
X95609153Y-103137706D01*
X94959042Y-102487595D01*
X94908462Y-102553511D01*
X94797054Y-102746479D01*
X94797045Y-102746497D01*
X94711763Y-102952381D01*
X94654088Y-103167632D01*
X94654085Y-103167645D01*
X94637282Y-103295282D01*
X94609016Y-103359179D01*
X94550691Y-103397650D01*
X94504614Y-103402715D01*
X94454759Y-103398791D01*
X93851041Y-104002510D01*
X93826022Y-103942110D01*
X93754888Y-103835649D01*
X93664351Y-103745112D01*
X93557890Y-103673978D01*
X93497487Y-103648957D01*
X94101207Y-103045238D01*
X94023064Y-102988465D01*
X93816205Y-102883065D01*
X93595393Y-102811318D01*
X93366090Y-102775000D01*
X93133910Y-102775000D01*
X92904606Y-102811318D01*
X92683794Y-102883065D01*
X92476925Y-102988470D01*
X92398791Y-103045237D01*
X92398791Y-103045238D01*
X93002511Y-103648958D01*
X92942110Y-103673978D01*
X92835649Y-103745112D01*
X92745112Y-103835649D01*
X92673978Y-103942110D01*
X92648958Y-104002511D01*
X92045238Y-103398791D01*
X92045237Y-103398791D01*
X91988470Y-103476925D01*
X91883065Y-103683794D01*
X91811318Y-103904606D01*
X91775000Y-104133909D01*
X91775000Y-104366090D01*
X91811318Y-104595393D01*
X91883065Y-104816205D01*
X91988465Y-105023064D01*
X92045238Y-105101207D01*
X92648958Y-104497487D01*
X92673978Y-104557890D01*
X92745112Y-104664351D01*
X92835649Y-104754888D01*
X92942110Y-104826022D01*
X93002510Y-104851041D01*
X92398791Y-105454759D01*
X92398791Y-105454760D01*
X92476935Y-105511534D01*
X92683794Y-105616934D01*
X92904606Y-105688681D01*
X93133910Y-105725000D01*
X93366090Y-105725000D01*
X93595393Y-105688681D01*
X93816205Y-105616934D01*
X94023071Y-105511530D01*
X94101207Y-105454762D01*
X94101208Y-105454760D01*
X93497488Y-104851041D01*
X93557890Y-104826022D01*
X93664351Y-104754888D01*
X93754888Y-104664351D01*
X93826022Y-104557890D01*
X93851041Y-104497489D01*
X94454760Y-105101208D01*
X94454762Y-105101207D01*
X94511530Y-105023071D01*
X94616934Y-104816205D01*
X94628801Y-104779685D01*
X94628801Y-104779684D01*
X94688682Y-104595391D01*
X94700684Y-104519612D01*
X94730613Y-104456477D01*
X94789924Y-104419545D01*
X94859787Y-104420543D01*
X94918019Y-104459152D01*
X94921532Y-104463521D01*
X94959042Y-104512403D01*
X94959043Y-104512403D01*
X95609152Y-103862293D01*
X95616049Y-103878942D01*
X95703599Y-104009970D01*
X95815030Y-104121401D01*
X95946058Y-104208951D01*
X95962705Y-104215846D01*
X95312595Y-104865955D01*
X95312595Y-104865956D01*
X95378507Y-104916533D01*
X95571485Y-105027949D01*
X95571497Y-105027954D01*
X95777381Y-105113236D01*
X95992632Y-105170911D01*
X95992645Y-105170914D01*
X96213575Y-105200000D01*
X96436425Y-105200000D01*
X96657354Y-105170914D01*
X96657367Y-105170911D01*
X96872618Y-105113236D01*
X97078502Y-105027954D01*
X97078514Y-105027949D01*
X97271498Y-104916530D01*
X97337403Y-104865957D01*
X97337404Y-104865956D01*
X96687294Y-104215846D01*
X96703942Y-104208951D01*
X96834970Y-104121401D01*
X96946401Y-104009970D01*
X97033951Y-103878942D01*
X97040846Y-103862294D01*
X97690956Y-104512404D01*
X97690957Y-104512403D01*
X97741530Y-104446498D01*
X97828113Y-104296532D01*
X97878680Y-104248317D01*
X97947287Y-104235093D01*
X98012151Y-104261061D01*
X98052680Y-104317975D01*
X98059500Y-104358532D01*
X98059500Y-106759016D01*
X98059499Y-106759034D01*
X98059499Y-106924740D01*
X98059498Y-106924740D01*
X98100422Y-107077470D01*
X98100423Y-107077471D01*
X98102164Y-107080487D01*
X98102168Y-107080501D01*
X98102172Y-107080500D01*
X98179477Y-107214398D01*
X98179481Y-107214403D01*
X98298349Y-107333271D01*
X98298355Y-107333276D01*
X100949453Y-109984374D01*
X100949463Y-109984385D01*
X100953793Y-109988715D01*
X100953794Y-109988716D01*
X101065598Y-110100520D01*
X101065600Y-110100521D01*
X101065604Y-110100524D01*
X101202523Y-110179573D01*
X101202530Y-110179577D01*
X101314333Y-110209534D01*
X101355256Y-110220500D01*
X101355257Y-110220500D01*
X109581860Y-110220500D01*
X109581876Y-110220501D01*
X109589472Y-110220501D01*
X109747583Y-110220501D01*
X109747586Y-110220501D01*
X109900314Y-110179577D01*
X109950433Y-110150639D01*
X110037245Y-110100520D01*
X110149049Y-109988716D01*
X110149049Y-109988714D01*
X110159257Y-109978507D01*
X110159258Y-109978504D01*
X113644050Y-106493713D01*
X114817944Y-105319820D01*
X118500945Y-101636819D01*
X118562268Y-101603334D01*
X118588626Y-101600500D01*
X119753861Y-101600500D01*
X119820900Y-101620185D01*
X119866655Y-101672989D01*
X119876599Y-101742147D01*
X119847574Y-101805703D01*
X119788796Y-101843477D01*
X119785954Y-101844275D01*
X119627381Y-101886763D01*
X119421497Y-101972045D01*
X119421479Y-101972054D01*
X119228511Y-102083462D01*
X119162595Y-102134042D01*
X119812706Y-102784152D01*
X119796058Y-102791049D01*
X119665030Y-102878599D01*
X119553599Y-102990030D01*
X119466049Y-103121058D01*
X119459153Y-103137706D01*
X118809042Y-102487595D01*
X118758462Y-102553511D01*
X118647054Y-102746479D01*
X118647045Y-102746497D01*
X118561763Y-102952381D01*
X118504088Y-103167632D01*
X118504085Y-103167645D01*
X118475000Y-103388575D01*
X118475000Y-103611424D01*
X118504085Y-103832354D01*
X118504088Y-103832367D01*
X118561763Y-104047618D01*
X118647045Y-104253502D01*
X118647054Y-104253520D01*
X118758464Y-104446491D01*
X118758473Y-104446504D01*
X118809040Y-104512403D01*
X118809043Y-104512403D01*
X119459152Y-103862293D01*
X119466049Y-103878942D01*
X119553599Y-104009970D01*
X119665030Y-104121401D01*
X119796058Y-104208951D01*
X119812705Y-104215846D01*
X119162595Y-104865955D01*
X119162595Y-104865956D01*
X119228507Y-104916533D01*
X119421485Y-105027949D01*
X119421497Y-105027954D01*
X119627381Y-105113236D01*
X119842632Y-105170911D01*
X119842645Y-105170914D01*
X120063575Y-105200000D01*
X120286425Y-105200000D01*
X120507354Y-105170914D01*
X120507367Y-105170911D01*
X120722618Y-105113236D01*
X120928502Y-105027954D01*
X120928514Y-105027949D01*
X121121498Y-104916530D01*
X121187403Y-104865957D01*
X121187404Y-104865956D01*
X120537294Y-104215846D01*
X120553942Y-104208951D01*
X120684970Y-104121401D01*
X120796401Y-104009970D01*
X120883951Y-103878942D01*
X120890846Y-103862293D01*
X121540956Y-104512403D01*
X121578467Y-104463520D01*
X121634896Y-104422318D01*
X121704642Y-104418164D01*
X121765562Y-104452377D01*
X121798314Y-104514095D01*
X121799315Y-104519610D01*
X121811318Y-104595393D01*
X121883065Y-104816205D01*
X121988465Y-105023064D01*
X122045238Y-105101207D01*
X122648958Y-104497487D01*
X122673978Y-104557890D01*
X122745112Y-104664351D01*
X122835649Y-104754888D01*
X122942110Y-104826022D01*
X123002510Y-104851041D01*
X122398791Y-105454759D01*
X122398791Y-105454760D01*
X122476935Y-105511534D01*
X122683794Y-105616934D01*
X122904606Y-105688681D01*
X123133910Y-105725000D01*
X123366090Y-105725000D01*
X123595393Y-105688681D01*
X123816205Y-105616934D01*
X124023071Y-105511530D01*
X124101207Y-105454762D01*
X124101208Y-105454760D01*
X123497488Y-104851041D01*
X123557890Y-104826022D01*
X123664351Y-104754888D01*
X123754888Y-104664351D01*
X123826022Y-104557890D01*
X123851041Y-104497489D01*
X124454760Y-105101208D01*
X124454762Y-105101207D01*
X124511530Y-105023071D01*
X124616934Y-104816205D01*
X124688681Y-104595393D01*
X124725000Y-104366090D01*
X124725000Y-104133909D01*
X124688681Y-103904606D01*
X124616934Y-103683794D01*
X124511534Y-103476935D01*
X124454760Y-103398791D01*
X123851041Y-104002510D01*
X123826022Y-103942110D01*
X123754888Y-103835649D01*
X123664351Y-103745112D01*
X123557890Y-103673978D01*
X123497487Y-103648957D01*
X124101207Y-103045238D01*
X124023064Y-102988465D01*
X123816205Y-102883065D01*
X123595393Y-102811318D01*
X123366090Y-102775000D01*
X123133910Y-102775000D01*
X122904606Y-102811318D01*
X122683794Y-102883065D01*
X122476925Y-102988470D01*
X122398791Y-103045237D01*
X122398791Y-103045238D01*
X123002511Y-103648958D01*
X122942110Y-103673978D01*
X122835649Y-103745112D01*
X122745112Y-103835649D01*
X122673978Y-103942110D01*
X122648958Y-104002511D01*
X122045238Y-103398791D01*
X121995385Y-103402715D01*
X121991989Y-103402001D01*
X121988687Y-103403060D01*
X121958048Y-103394871D01*
X121927008Y-103388351D01*
X121924537Y-103385915D01*
X121921186Y-103385020D01*
X121899835Y-103361564D01*
X121877251Y-103339300D01*
X121875799Y-103335157D01*
X121874154Y-103333350D01*
X121868080Y-103313133D01*
X121863386Y-103299739D01*
X121832860Y-103118922D01*
X121788236Y-102952381D01*
X121702954Y-102746497D01*
X121702949Y-102746485D01*
X121591533Y-102553507D01*
X121540956Y-102487595D01*
X121540955Y-102487595D01*
X120890846Y-103137704D01*
X120883951Y-103121058D01*
X120796401Y-102990030D01*
X120684970Y-102878599D01*
X120553942Y-102791049D01*
X120537293Y-102784152D01*
X121187403Y-102134043D01*
X121187403Y-102134040D01*
X121121504Y-102083473D01*
X121121491Y-102083464D01*
X120928520Y-101972054D01*
X120928502Y-101972045D01*
X120722618Y-101886763D01*
X120564046Y-101844275D01*
X120504385Y-101807910D01*
X120473856Y-101745063D01*
X120482151Y-101675688D01*
X120526636Y-101621810D01*
X120593188Y-101600535D01*
X120596139Y-101600500D01*
X132403861Y-101600500D01*
X132470900Y-101620185D01*
X132516655Y-101672989D01*
X132526599Y-101742147D01*
X132497574Y-101805703D01*
X132438796Y-101843477D01*
X132435954Y-101844275D01*
X132277381Y-101886763D01*
X132071497Y-101972045D01*
X132071479Y-101972054D01*
X131878511Y-102083462D01*
X131812595Y-102134042D01*
X132462706Y-102784152D01*
X132446058Y-102791049D01*
X132315030Y-102878599D01*
X132203599Y-102990030D01*
X132116049Y-103121058D01*
X132109153Y-103137706D01*
X131459042Y-102487595D01*
X131408462Y-102553511D01*
X131297054Y-102746479D01*
X131297045Y-102746497D01*
X131211763Y-102952381D01*
X131154088Y-103167632D01*
X131154085Y-103167645D01*
X131137282Y-103295282D01*
X131109016Y-103359179D01*
X131050691Y-103397650D01*
X131004614Y-103402715D01*
X130954759Y-103398791D01*
X130351041Y-104002510D01*
X130326022Y-103942110D01*
X130254888Y-103835649D01*
X130164351Y-103745112D01*
X130057890Y-103673978D01*
X129997487Y-103648957D01*
X130601207Y-103045238D01*
X130523064Y-102988465D01*
X130316205Y-102883065D01*
X130095393Y-102811318D01*
X129866090Y-102775000D01*
X129633910Y-102775000D01*
X129404606Y-102811318D01*
X129183794Y-102883065D01*
X128976925Y-102988470D01*
X128898791Y-103045237D01*
X128898791Y-103045238D01*
X129502511Y-103648958D01*
X129442110Y-103673978D01*
X129335649Y-103745112D01*
X129245112Y-103835649D01*
X129173978Y-103942110D01*
X129148958Y-104002511D01*
X128545238Y-103398791D01*
X128545237Y-103398791D01*
X128488470Y-103476925D01*
X128383065Y-103683794D01*
X128311318Y-103904606D01*
X128275000Y-104133909D01*
X128275000Y-104366090D01*
X128311318Y-104595393D01*
X128383065Y-104816205D01*
X128488465Y-105023064D01*
X128545238Y-105101207D01*
X129148958Y-104497487D01*
X129173978Y-104557890D01*
X129245112Y-104664351D01*
X129335649Y-104754888D01*
X129442110Y-104826022D01*
X129502510Y-104851041D01*
X128898791Y-105454759D01*
X128898791Y-105454760D01*
X128976935Y-105511534D01*
X129183794Y-105616934D01*
X129404606Y-105688681D01*
X129633910Y-105725000D01*
X129866090Y-105725000D01*
X130095393Y-105688681D01*
X130316205Y-105616934D01*
X130523071Y-105511530D01*
X130601207Y-105454762D01*
X130601208Y-105454760D01*
X129997488Y-104851041D01*
X130057890Y-104826022D01*
X130164351Y-104754888D01*
X130254888Y-104664351D01*
X130326022Y-104557890D01*
X130351041Y-104497489D01*
X130954760Y-105101208D01*
X130954762Y-105101207D01*
X131011530Y-105023071D01*
X131116934Y-104816205D01*
X131188681Y-104595393D01*
X131188682Y-104595392D01*
X131200684Y-104519612D01*
X131230613Y-104456477D01*
X131289924Y-104419545D01*
X131359787Y-104420543D01*
X131418019Y-104459152D01*
X131421532Y-104463521D01*
X131459042Y-104512403D01*
X131459043Y-104512403D01*
X132109152Y-103862293D01*
X132116049Y-103878942D01*
X132203599Y-104009970D01*
X132315030Y-104121401D01*
X132446058Y-104208951D01*
X132462705Y-104215846D01*
X131812595Y-104865955D01*
X131812595Y-104865956D01*
X131878507Y-104916533D01*
X132071485Y-105027949D01*
X132071497Y-105027954D01*
X132277373Y-105113232D01*
X132281224Y-105114540D01*
X132280710Y-105116052D01*
X132334739Y-105148969D01*
X132365281Y-105211810D01*
X132357000Y-105281187D01*
X132330683Y-105320079D01*
X130333724Y-107317039D01*
X130272401Y-107350524D01*
X130207726Y-107347289D01*
X130095521Y-107310832D01*
X130095514Y-107310831D01*
X129866129Y-107274500D01*
X129866124Y-107274500D01*
X129633876Y-107274500D01*
X129633871Y-107274500D01*
X129404485Y-107310831D01*
X129183599Y-107382601D01*
X128976668Y-107488039D01*
X128788773Y-107624553D01*
X128624553Y-107788773D01*
X128488039Y-107976668D01*
X128434475Y-108081795D01*
X128386501Y-108132591D01*
X128323990Y-108149500D01*
X124676010Y-108149500D01*
X124608971Y-108129815D01*
X124565525Y-108081795D01*
X124511960Y-107976668D01*
X124492948Y-107950500D01*
X124375449Y-107788776D01*
X124211224Y-107624551D01*
X124023331Y-107488039D01*
X123816400Y-107382601D01*
X123595514Y-107310831D01*
X123366129Y-107274500D01*
X123366124Y-107274500D01*
X123133876Y-107274500D01*
X123133871Y-107274500D01*
X122904485Y-107310831D01*
X122683599Y-107382601D01*
X122476668Y-107488039D01*
X122288773Y-107624553D01*
X122124553Y-107788773D01*
X121988039Y-107976668D01*
X121882601Y-108183599D01*
X121810831Y-108404485D01*
X121774500Y-108633870D01*
X121774500Y-108866129D01*
X121810831Y-109095514D01*
X121882601Y-109316400D01*
X121934474Y-109418205D01*
X121988039Y-109523331D01*
X122124551Y-109711224D01*
X122288776Y-109875449D01*
X122476669Y-110011961D01*
X122574436Y-110061776D01*
X122683599Y-110117398D01*
X122683601Y-110117398D01*
X122683604Y-110117400D01*
X122904486Y-110189169D01*
X123022668Y-110207886D01*
X123133871Y-110225500D01*
X123133876Y-110225500D01*
X123366129Y-110225500D01*
X123467502Y-110209443D01*
X123595514Y-110189169D01*
X123816396Y-110117400D01*
X124023331Y-110011961D01*
X124211224Y-109875449D01*
X124375449Y-109711224D01*
X124511961Y-109523331D01*
X124565526Y-109418203D01*
X124613499Y-109367409D01*
X124676010Y-109350500D01*
X128323990Y-109350500D01*
X128391029Y-109370185D01*
X128434473Y-109418203D01*
X128488039Y-109523331D01*
X128624551Y-109711224D01*
X128788776Y-109875449D01*
X128976669Y-110011961D01*
X129074436Y-110061776D01*
X129183599Y-110117398D01*
X129183601Y-110117398D01*
X129183604Y-110117400D01*
X129404486Y-110189169D01*
X129522668Y-110207886D01*
X129633871Y-110225500D01*
X129633876Y-110225500D01*
X129866129Y-110225500D01*
X129967502Y-110209443D01*
X130095514Y-110189169D01*
X130316396Y-110117400D01*
X130523331Y-110011961D01*
X130711224Y-109875449D01*
X130875449Y-109711224D01*
X131011961Y-109523331D01*
X131117400Y-109316396D01*
X131189169Y-109095514D01*
X131209443Y-108967502D01*
X131225500Y-108866129D01*
X131225500Y-108633870D01*
X131204364Y-108500427D01*
X131189169Y-108404486D01*
X131152709Y-108292273D01*
X131150714Y-108222432D01*
X131182957Y-108166276D01*
X137112416Y-102236819D01*
X137173739Y-102203334D01*
X137200097Y-102200500D01*
X147233331Y-102200500D01*
X147233347Y-102200501D01*
X147240943Y-102200501D01*
X147399054Y-102200501D01*
X147399057Y-102200501D01*
X147551785Y-102159577D01*
X147601904Y-102130639D01*
X147688716Y-102080520D01*
X147800520Y-101968716D01*
X147800520Y-101968714D01*
X147810728Y-101958507D01*
X147810729Y-101958504D01*
X149874662Y-99894572D01*
X149935983Y-99861089D01*
X149938150Y-99860638D01*
X149996085Y-99849113D01*
X150093497Y-99829737D01*
X150239179Y-99769394D01*
X150370289Y-99681789D01*
X150481789Y-99570289D01*
X150569394Y-99439179D01*
X150629737Y-99293497D01*
X150660500Y-99138842D01*
X150660500Y-98981158D01*
X150660500Y-98981155D01*
X150660499Y-98981153D01*
X150651833Y-98937585D01*
X150629737Y-98826503D01*
X150623063Y-98810390D01*
X150569397Y-98680827D01*
X150569390Y-98680814D01*
X150481789Y-98549711D01*
X150481786Y-98549707D01*
X150370292Y-98438213D01*
X150370288Y-98438210D01*
X150239185Y-98350609D01*
X150239172Y-98350602D01*
X150093501Y-98290264D01*
X150093489Y-98290261D01*
X149938845Y-98259500D01*
X149938842Y-98259500D01*
X149781158Y-98259500D01*
X149781155Y-98259500D01*
X149626510Y-98290261D01*
X149626498Y-98290264D01*
X149480827Y-98350602D01*
X149480814Y-98350609D01*
X149349125Y-98438602D01*
X149282447Y-98459480D01*
X149280234Y-98459500D01*
X146771569Y-98459500D01*
X146704530Y-98439815D01*
X146683888Y-98423181D01*
X144701860Y-96441153D01*
X146519500Y-96441153D01*
X146519500Y-96598846D01*
X146550261Y-96753489D01*
X146550264Y-96753501D01*
X146610602Y-96899172D01*
X146610609Y-96899185D01*
X146698210Y-97030288D01*
X146698213Y-97030292D01*
X146809707Y-97141786D01*
X146809711Y-97141789D01*
X146940814Y-97229390D01*
X146940827Y-97229397D01*
X147086498Y-97289735D01*
X147086503Y-97289737D01*
X147232330Y-97318744D01*
X147241153Y-97320499D01*
X147241156Y-97320500D01*
X147241158Y-97320500D01*
X147398844Y-97320500D01*
X147398845Y-97320499D01*
X147553497Y-97289737D01*
X147699179Y-97229394D01*
X147699185Y-97229390D01*
X147830875Y-97141398D01*
X147897553Y-97120520D01*
X147899766Y-97120500D01*
X149773331Y-97120500D01*
X149773347Y-97120501D01*
X149780943Y-97120501D01*
X149939054Y-97120501D01*
X149939057Y-97120501D01*
X150091785Y-97079577D01*
X150141904Y-97050639D01*
X150228716Y-97000520D01*
X150340520Y-96888716D01*
X150340520Y-96888714D01*
X150350728Y-96878507D01*
X150350730Y-96878504D01*
X157838506Y-89390728D01*
X157838511Y-89390724D01*
X157848714Y-89380520D01*
X157848716Y-89380520D01*
X157960520Y-89268716D01*
X158039577Y-89131784D01*
X158080500Y-88979057D01*
X158080500Y-74239765D01*
X158100185Y-74172726D01*
X158101398Y-74170874D01*
X158189390Y-74039185D01*
X158189390Y-74039184D01*
X158189394Y-74039179D01*
X158249737Y-73893497D01*
X158280500Y-73738842D01*
X158280500Y-73581158D01*
X158280500Y-73581155D01*
X158280499Y-73581153D01*
X158274583Y-73551411D01*
X158249737Y-73426503D01*
X158231629Y-73382785D01*
X158189397Y-73280827D01*
X158189390Y-73280814D01*
X158101789Y-73149711D01*
X158101786Y-73149707D01*
X157990292Y-73038213D01*
X157990288Y-73038210D01*
X157859185Y-72950609D01*
X157859172Y-72950602D01*
X157713501Y-72890264D01*
X157713489Y-72890261D01*
X157558845Y-72859500D01*
X157558842Y-72859500D01*
X157401158Y-72859500D01*
X157401155Y-72859500D01*
X157246510Y-72890261D01*
X157246498Y-72890264D01*
X157100827Y-72950602D01*
X157100814Y-72950609D01*
X156969711Y-73038210D01*
X156969707Y-73038213D01*
X156858213Y-73149707D01*
X156858210Y-73149711D01*
X156770609Y-73280814D01*
X156770602Y-73280827D01*
X156710264Y-73426498D01*
X156710261Y-73426510D01*
X156679500Y-73581153D01*
X156679500Y-73738846D01*
X156710261Y-73893489D01*
X156710264Y-73893501D01*
X156770602Y-74039172D01*
X156770609Y-74039185D01*
X156858602Y-74170874D01*
X156879480Y-74237551D01*
X156879500Y-74239765D01*
X156879500Y-88599903D01*
X156859815Y-88666942D01*
X156843181Y-88687584D01*
X149647584Y-95883181D01*
X149586261Y-95916666D01*
X149559903Y-95919500D01*
X147899766Y-95919500D01*
X147832727Y-95899815D01*
X147830875Y-95898602D01*
X147699185Y-95810609D01*
X147699172Y-95810602D01*
X147553501Y-95750264D01*
X147553489Y-95750261D01*
X147398845Y-95719500D01*
X147398842Y-95719500D01*
X147241158Y-95719500D01*
X147241155Y-95719500D01*
X147086510Y-95750261D01*
X147086498Y-95750264D01*
X146940827Y-95810602D01*
X146940814Y-95810609D01*
X146809711Y-95898210D01*
X146809707Y-95898213D01*
X146698213Y-96009707D01*
X146698210Y-96009711D01*
X146610609Y-96140814D01*
X146610602Y-96140827D01*
X146550264Y-96286498D01*
X146550261Y-96286510D01*
X146519500Y-96441153D01*
X144701860Y-96441153D01*
X140349369Y-92088662D01*
X140315884Y-92027339D01*
X140320868Y-91957647D01*
X140333946Y-91932094D01*
X140409394Y-91819179D01*
X140413576Y-91809084D01*
X140469735Y-91673501D01*
X140469737Y-91673497D01*
X140500500Y-91518842D01*
X140500638Y-91518150D01*
X140533023Y-91456239D01*
X140534519Y-91454715D01*
X142598506Y-89390727D01*
X142598511Y-89390724D01*
X142608714Y-89380520D01*
X142608716Y-89380520D01*
X142720520Y-89268716D01*
X142799577Y-89131784D01*
X142840500Y-88979057D01*
X142840500Y-84399765D01*
X142860185Y-84332726D01*
X142861398Y-84330874D01*
X142949390Y-84199185D01*
X142949390Y-84199184D01*
X142949394Y-84199179D01*
X143009737Y-84053497D01*
X143040500Y-83898842D01*
X143040500Y-83741158D01*
X143040500Y-83741155D01*
X143040499Y-83741153D01*
X143009737Y-83586503D01*
X143009735Y-83586498D01*
X142949397Y-83440827D01*
X142949390Y-83440814D01*
X142861789Y-83309711D01*
X142861786Y-83309707D01*
X142750292Y-83198213D01*
X142750288Y-83198210D01*
X142614684Y-83107602D01*
X142569879Y-83053990D01*
X142561172Y-82984665D01*
X142591326Y-82921637D01*
X142650770Y-82884918D01*
X142683575Y-82880500D01*
X144541860Y-82880500D01*
X144541876Y-82880501D01*
X144549472Y-82880501D01*
X144707583Y-82880501D01*
X144707586Y-82880501D01*
X144860314Y-82839577D01*
X144919629Y-82805331D01*
X144997245Y-82760520D01*
X145109049Y-82648716D01*
X145109049Y-82648714D01*
X145119253Y-82638511D01*
X145119257Y-82638506D01*
X145738506Y-82019257D01*
X145738511Y-82019253D01*
X145748714Y-82009049D01*
X145748716Y-82009049D01*
X145860520Y-81897245D01*
X145939577Y-81760313D01*
X145980500Y-81607586D01*
X145980500Y-80952414D01*
X145939577Y-80799687D01*
X145918021Y-80762351D01*
X145860524Y-80662761D01*
X145860521Y-80662757D01*
X145860520Y-80662755D01*
X145748716Y-80550951D01*
X145748715Y-80550950D01*
X145744385Y-80546620D01*
X145744374Y-80546610D01*
X143576119Y-78378355D01*
X143576117Y-78378352D01*
X143457246Y-78259481D01*
X143457245Y-78259480D01*
X143370433Y-78209360D01*
X143370433Y-78209359D01*
X143370429Y-78209358D01*
X143320314Y-78180423D01*
X143167586Y-78139499D01*
X143009472Y-78139499D01*
X143001876Y-78139499D01*
X143001860Y-78139500D01*
X135199766Y-78139500D01*
X135132727Y-78119815D01*
X135130875Y-78118602D01*
X134999185Y-78030609D01*
X134999172Y-78030602D01*
X134853501Y-77970264D01*
X134853489Y-77970261D01*
X134698845Y-77939500D01*
X134698842Y-77939500D01*
X134541158Y-77939500D01*
X134541155Y-77939500D01*
X134386510Y-77970261D01*
X134386498Y-77970264D01*
X134240827Y-78030602D01*
X134240814Y-78030609D01*
X134109711Y-78118210D01*
X134109707Y-78118213D01*
X133998213Y-78229707D01*
X133998210Y-78229711D01*
X133910609Y-78360814D01*
X133910602Y-78360827D01*
X133850264Y-78506498D01*
X133850261Y-78506510D01*
X133819500Y-78661153D01*
X133819500Y-78818846D01*
X133850261Y-78973489D01*
X133850264Y-78973501D01*
X133910602Y-79119172D01*
X133910609Y-79119185D01*
X133998210Y-79250288D01*
X133998213Y-79250292D01*
X134109707Y-79361786D01*
X134109711Y-79361789D01*
X134240814Y-79449390D01*
X134240827Y-79449397D01*
X134386498Y-79509735D01*
X134386503Y-79509737D01*
X134541153Y-79540499D01*
X134541156Y-79540500D01*
X134541158Y-79540500D01*
X134698844Y-79540500D01*
X134698845Y-79540499D01*
X134853497Y-79509737D01*
X134999179Y-79449394D01*
X135076464Y-79397754D01*
X135130875Y-79361398D01*
X135197553Y-79340520D01*
X135199766Y-79340500D01*
X142788432Y-79340500D01*
X142855471Y-79360185D01*
X142876113Y-79376819D01*
X144130630Y-80631336D01*
X144164115Y-80692659D01*
X144159131Y-80762351D01*
X144146051Y-80787907D01*
X144070612Y-80900809D01*
X144070602Y-80900827D01*
X144010264Y-81046498D01*
X144010261Y-81046508D01*
X143983769Y-81179692D01*
X143951384Y-81241603D01*
X143890668Y-81276177D01*
X143862152Y-81279500D01*
X132997848Y-81279500D01*
X132930809Y-81259815D01*
X132885054Y-81207011D01*
X132876231Y-81179692D01*
X132849738Y-81046508D01*
X132849737Y-81046507D01*
X132849737Y-81046503D01*
X132849735Y-81046498D01*
X132789397Y-80900827D01*
X132789390Y-80900814D01*
X132701789Y-80769711D01*
X132701786Y-80769707D01*
X132590292Y-80658213D01*
X132590288Y-80658210D01*
X132459185Y-80570609D01*
X132459172Y-80570602D01*
X132313501Y-80510264D01*
X132313489Y-80510261D01*
X132158845Y-80479500D01*
X132158842Y-80479500D01*
X132001158Y-80479500D01*
X132001155Y-80479500D01*
X131846510Y-80510261D01*
X131846498Y-80510264D01*
X131700827Y-80570602D01*
X131700814Y-80570609D01*
X131569125Y-80658602D01*
X131502447Y-80679480D01*
X131500234Y-80679500D01*
X114600097Y-80679500D01*
X114533058Y-80659815D01*
X114512416Y-80643181D01*
X112396819Y-78527584D01*
X112363334Y-78466261D01*
X112360500Y-78439903D01*
X112360500Y-76779765D01*
X112365181Y-76763233D01*
X112364870Y-76747134D01*
X112377726Y-76718929D01*
X112378909Y-76714752D01*
X112381445Y-76710632D01*
X112381789Y-76710289D01*
X112469394Y-76579179D01*
X112483808Y-76544379D01*
X112488991Y-76535962D01*
X112507896Y-76518930D01*
X112523860Y-76499120D01*
X112533417Y-76495938D01*
X112540902Y-76489196D01*
X112566013Y-76485089D01*
X112590154Y-76477054D01*
X112600497Y-76479449D01*
X112609856Y-76477919D01*
X112628168Y-76485858D01*
X112650560Y-76491044D01*
X112650585Y-76490985D01*
X112650944Y-76491133D01*
X112653039Y-76491619D01*
X112656213Y-76493315D01*
X112656214Y-76493316D01*
X112801896Y-76553659D01*
X112866540Y-76566517D01*
X112957242Y-76584560D01*
X113019153Y-76616945D01*
X113020732Y-76618496D01*
X113566610Y-77164374D01*
X113566620Y-77164385D01*
X113570950Y-77168715D01*
X113570951Y-77168716D01*
X113682755Y-77280520D01*
X113769566Y-77330639D01*
X113769568Y-77330641D01*
X113819679Y-77359573D01*
X113819686Y-77359577D01*
X113972413Y-77400500D01*
X113972414Y-77400500D01*
X123773331Y-77400500D01*
X123773347Y-77400501D01*
X123780943Y-77400501D01*
X123939054Y-77400501D01*
X123939057Y-77400501D01*
X124091785Y-77359577D01*
X124141904Y-77330639D01*
X124228716Y-77280520D01*
X124340520Y-77168716D01*
X124340520Y-77168714D01*
X124350728Y-77158507D01*
X124350729Y-77158504D01*
X129554662Y-71954572D01*
X129615983Y-71921089D01*
X129618150Y-71920638D01*
X129676085Y-71909113D01*
X129773497Y-71889737D01*
X129919179Y-71829394D01*
X130050289Y-71741789D01*
X130161789Y-71630289D01*
X130249394Y-71499179D01*
X130309737Y-71353497D01*
X130340500Y-71198842D01*
X130340500Y-71041158D01*
X130340500Y-71041155D01*
X130340499Y-71041153D01*
X130332417Y-71000521D01*
X130309737Y-70886503D01*
X130283540Y-70823257D01*
X130249397Y-70740827D01*
X130249390Y-70740814D01*
X130161789Y-70609711D01*
X130161786Y-70609707D01*
X130050292Y-70498213D01*
X130050288Y-70498210D01*
X129919185Y-70410609D01*
X129919172Y-70410602D01*
X129773501Y-70350264D01*
X129773489Y-70350261D01*
X129618845Y-70319500D01*
X129618842Y-70319500D01*
X129461158Y-70319500D01*
X129461155Y-70319500D01*
X129306510Y-70350261D01*
X129306498Y-70350264D01*
X129160827Y-70410602D01*
X129160814Y-70410609D01*
X129029711Y-70498210D01*
X129029707Y-70498213D01*
X128918213Y-70609707D01*
X128918210Y-70609711D01*
X128830609Y-70740814D01*
X128830602Y-70740827D01*
X128770264Y-70886498D01*
X128770261Y-70886508D01*
X128739361Y-71041850D01*
X128706976Y-71103761D01*
X128705425Y-71105339D01*
X123647584Y-76163181D01*
X123586261Y-76196666D01*
X123559903Y-76199500D01*
X123069097Y-76199500D01*
X123002058Y-76179815D01*
X122956303Y-76127011D01*
X122946359Y-76057853D01*
X122975384Y-75994297D01*
X122981416Y-75987819D01*
X125972116Y-72997119D01*
X134978506Y-63990727D01*
X134978511Y-63990724D01*
X134988714Y-63980520D01*
X134988716Y-63980520D01*
X135100520Y-63868716D01*
X135179577Y-63731784D01*
X135220500Y-63579057D01*
X135220500Y-56180097D01*
X135240185Y-56113058D01*
X135256819Y-56092416D01*
X135548082Y-55801153D01*
X154139500Y-55801153D01*
X154139500Y-55958846D01*
X154170261Y-56113489D01*
X154170264Y-56113501D01*
X154230602Y-56259172D01*
X154230609Y-56259185D01*
X154318602Y-56390874D01*
X154324252Y-56408920D01*
X154334477Y-56424830D01*
X154338928Y-56455789D01*
X154339480Y-56457551D01*
X154339500Y-56459765D01*
X154339500Y-56641859D01*
X154339499Y-56641877D01*
X154339499Y-56807583D01*
X154339498Y-56807583D01*
X154380423Y-56960314D01*
X154391489Y-56979480D01*
X154391490Y-56979483D01*
X154459475Y-57097238D01*
X154459481Y-57097246D01*
X154578349Y-57216114D01*
X154578355Y-57216119D01*
X157163181Y-59800945D01*
X157196666Y-59862268D01*
X157199500Y-59888626D01*
X157199500Y-60797870D01*
X157199501Y-60797876D01*
X157205908Y-60857483D01*
X157256202Y-60992328D01*
X157256206Y-60992335D01*
X157342452Y-61107544D01*
X157342455Y-61107547D01*
X157457664Y-61193793D01*
X157457671Y-61193797D01*
X157592517Y-61244091D01*
X157592516Y-61244091D01*
X157599444Y-61244835D01*
X157652127Y-61250500D01*
X159347872Y-61250499D01*
X159407483Y-61244091D01*
X159542331Y-61193796D01*
X159657546Y-61107546D01*
X159743796Y-60992331D01*
X159794091Y-60857483D01*
X159800500Y-60797873D01*
X159800500Y-60774500D01*
X159820185Y-60707461D01*
X159872989Y-60661706D01*
X159924500Y-60650500D01*
X165075501Y-60650500D01*
X165142540Y-60670185D01*
X165188295Y-60722989D01*
X165199501Y-60774500D01*
X165199501Y-60797876D01*
X165205908Y-60857483D01*
X165256202Y-60992328D01*
X165256206Y-60992335D01*
X165342452Y-61107544D01*
X165342455Y-61107547D01*
X165457664Y-61193793D01*
X165457671Y-61193797D01*
X165592517Y-61244091D01*
X165592516Y-61244091D01*
X165599444Y-61244835D01*
X165652127Y-61250500D01*
X167347872Y-61250499D01*
X167407483Y-61244091D01*
X167542331Y-61193796D01*
X167657546Y-61107546D01*
X167743796Y-60992331D01*
X167794091Y-60857483D01*
X167800500Y-60797873D01*
X167800499Y-59302128D01*
X167794091Y-59242517D01*
X167743796Y-59107669D01*
X167743795Y-59107668D01*
X167743793Y-59107664D01*
X167657547Y-58992455D01*
X167657544Y-58992452D01*
X167542335Y-58906206D01*
X167542328Y-58906202D01*
X167407482Y-58855908D01*
X167407483Y-58855908D01*
X167347883Y-58849501D01*
X167347881Y-58849500D01*
X167347873Y-58849500D01*
X167347864Y-58849500D01*
X165652129Y-58849500D01*
X165652123Y-58849501D01*
X165592516Y-58855908D01*
X165457671Y-58906202D01*
X165457664Y-58906206D01*
X165342455Y-58992452D01*
X165342452Y-58992455D01*
X165256206Y-59107664D01*
X165256202Y-59107671D01*
X165205908Y-59242517D01*
X165199501Y-59302116D01*
X165199501Y-59302123D01*
X165199500Y-59302135D01*
X165199500Y-59325500D01*
X165179815Y-59392539D01*
X165127011Y-59438294D01*
X165075500Y-59449500D01*
X159924499Y-59449500D01*
X159857460Y-59429815D01*
X159811705Y-59377011D01*
X159800499Y-59325500D01*
X159800499Y-59302129D01*
X159800498Y-59302123D01*
X159800497Y-59302116D01*
X159794091Y-59242517D01*
X159743796Y-59107669D01*
X159743795Y-59107668D01*
X159743793Y-59107664D01*
X159657547Y-58992455D01*
X159657544Y-58992452D01*
X159542335Y-58906206D01*
X159542328Y-58906202D01*
X159407482Y-58855908D01*
X159407483Y-58855908D01*
X159347883Y-58849501D01*
X159347881Y-58849500D01*
X159347873Y-58849500D01*
X159347865Y-58849500D01*
X157961568Y-58849500D01*
X157894529Y-58829815D01*
X157873887Y-58813181D01*
X155589369Y-56528663D01*
X155555884Y-56467340D01*
X155560868Y-56397648D01*
X155573946Y-56372094D01*
X155623559Y-56297844D01*
X157200000Y-56297844D01*
X157206401Y-56357372D01*
X157206403Y-56357379D01*
X157256645Y-56492086D01*
X157256649Y-56492093D01*
X157342809Y-56607187D01*
X157342812Y-56607190D01*
X157457906Y-56693350D01*
X157457913Y-56693354D01*
X157592620Y-56743596D01*
X157592627Y-56743598D01*
X157652155Y-56749999D01*
X157652172Y-56750000D01*
X158250000Y-56750000D01*
X158750000Y-56750000D01*
X159347828Y-56750000D01*
X159347844Y-56749999D01*
X159407372Y-56743598D01*
X159407379Y-56743596D01*
X159542086Y-56693354D01*
X159542093Y-56693350D01*
X159657187Y-56607190D01*
X159657190Y-56607187D01*
X159743350Y-56492093D01*
X159743354Y-56492086D01*
X159793596Y-56357379D01*
X159793598Y-56357372D01*
X159799999Y-56297844D01*
X165200000Y-56297844D01*
X165206401Y-56357372D01*
X165206403Y-56357379D01*
X165256645Y-56492086D01*
X165256649Y-56492093D01*
X165342809Y-56607187D01*
X165342812Y-56607190D01*
X165457906Y-56693350D01*
X165457913Y-56693354D01*
X165592620Y-56743596D01*
X165592627Y-56743598D01*
X165652155Y-56749999D01*
X165652172Y-56750000D01*
X166250000Y-56750000D01*
X166750000Y-56750000D01*
X167347828Y-56750000D01*
X167347844Y-56749999D01*
X167407372Y-56743598D01*
X167407379Y-56743596D01*
X167542086Y-56693354D01*
X167542093Y-56693350D01*
X167657187Y-56607190D01*
X167657190Y-56607187D01*
X167743350Y-56492093D01*
X167743354Y-56492086D01*
X167793596Y-56357379D01*
X167793598Y-56357372D01*
X167799999Y-56297844D01*
X167800000Y-56297827D01*
X167800000Y-55800000D01*
X166750000Y-55800000D01*
X166750000Y-56750000D01*
X166250000Y-56750000D01*
X166250000Y-55800000D01*
X165200000Y-55800000D01*
X165200000Y-56297844D01*
X159799999Y-56297844D01*
X159800000Y-56297827D01*
X159800000Y-55800000D01*
X158750000Y-55800000D01*
X158750000Y-56750000D01*
X158250000Y-56750000D01*
X158250000Y-55800000D01*
X157200000Y-55800000D01*
X157200000Y-56297844D01*
X155623559Y-56297844D01*
X155649394Y-56259179D01*
X155709737Y-56113497D01*
X155740500Y-55958842D01*
X155740500Y-55801158D01*
X155740270Y-55800000D01*
X155735041Y-55773713D01*
X173909500Y-55773713D01*
X173909500Y-55986286D01*
X173941339Y-56187314D01*
X173942754Y-56196243D01*
X174005803Y-56390288D01*
X174008444Y-56398414D01*
X174104951Y-56587820D01*
X174229890Y-56759786D01*
X174380213Y-56910109D01*
X174552179Y-57035048D01*
X174552181Y-57035049D01*
X174552184Y-57035051D01*
X174741588Y-57131557D01*
X174943757Y-57197246D01*
X175153713Y-57230500D01*
X175153714Y-57230500D01*
X175366286Y-57230500D01*
X175366287Y-57230500D01*
X175576243Y-57197246D01*
X175778412Y-57131557D01*
X175967816Y-57035051D01*
X175989789Y-57019086D01*
X176139786Y-56910109D01*
X176139788Y-56910106D01*
X176139792Y-56910104D01*
X176290104Y-56759792D01*
X176290106Y-56759788D01*
X176290109Y-56759786D01*
X176413902Y-56589397D01*
X176415051Y-56587816D01*
X176511557Y-56398412D01*
X176577246Y-56196243D01*
X176610500Y-55986287D01*
X176610500Y-55773713D01*
X176577246Y-55563757D01*
X176511557Y-55361588D01*
X176415051Y-55172184D01*
X176415049Y-55172181D01*
X176415048Y-55172179D01*
X176290109Y-55000213D01*
X176139786Y-54849890D01*
X175967820Y-54724951D01*
X175778414Y-54628444D01*
X175778413Y-54628443D01*
X175778412Y-54628443D01*
X175576243Y-54562754D01*
X175576241Y-54562753D01*
X175576240Y-54562753D01*
X175414957Y-54537208D01*
X175366287Y-54529500D01*
X175153713Y-54529500D01*
X175105042Y-54537208D01*
X174943760Y-54562753D01*
X174741585Y-54628444D01*
X174552179Y-54724951D01*
X174380213Y-54849890D01*
X174229890Y-55000213D01*
X174104951Y-55172179D01*
X174008444Y-55361585D01*
X173942753Y-55563760D01*
X173909500Y-55773713D01*
X155735041Y-55773713D01*
X155734865Y-55772828D01*
X155734865Y-55772825D01*
X155709738Y-55646508D01*
X155709737Y-55646507D01*
X155709737Y-55646503D01*
X155690812Y-55600813D01*
X155649397Y-55500827D01*
X155649390Y-55500814D01*
X155561789Y-55369711D01*
X155561786Y-55369707D01*
X155450292Y-55258213D01*
X155450288Y-55258210D01*
X155319185Y-55170609D01*
X155319172Y-55170602D01*
X155173501Y-55110264D01*
X155173489Y-55110261D01*
X155018845Y-55079500D01*
X155018842Y-55079500D01*
X154861158Y-55079500D01*
X154861155Y-55079500D01*
X154706510Y-55110261D01*
X154706498Y-55110264D01*
X154560827Y-55170602D01*
X154560814Y-55170609D01*
X154429711Y-55258210D01*
X154429707Y-55258213D01*
X154318213Y-55369707D01*
X154318210Y-55369711D01*
X154230609Y-55500814D01*
X154230602Y-55500827D01*
X154170264Y-55646498D01*
X154170261Y-55646510D01*
X154139500Y-55801153D01*
X135548082Y-55801153D01*
X137372416Y-53976819D01*
X137433739Y-53943334D01*
X137460097Y-53940500D01*
X157155334Y-53940500D01*
X157222373Y-53960185D01*
X157254601Y-53990189D01*
X157256203Y-53992329D01*
X157256204Y-53992331D01*
X157342454Y-54107546D01*
X157384863Y-54139293D01*
X157464769Y-54199112D01*
X157463170Y-54201246D01*
X157502781Y-54240848D01*
X157517640Y-54309119D01*
X157493230Y-54374586D01*
X157463972Y-54399944D01*
X157465011Y-54401331D01*
X157342812Y-54492809D01*
X157342809Y-54492812D01*
X157256649Y-54607906D01*
X157256645Y-54607913D01*
X157206403Y-54742620D01*
X157206401Y-54742627D01*
X157200000Y-54802155D01*
X157200000Y-55300000D01*
X159800000Y-55300000D01*
X159800000Y-54802172D01*
X159799999Y-54802155D01*
X159793598Y-54742627D01*
X159793596Y-54742620D01*
X159743354Y-54607913D01*
X159743350Y-54607906D01*
X159657190Y-54492812D01*
X159657187Y-54492809D01*
X159534989Y-54401331D01*
X159536632Y-54399135D01*
X159497211Y-54359712D01*
X159482360Y-54291438D01*
X159506778Y-54225974D01*
X159536236Y-54200455D01*
X159535231Y-54199112D01*
X159587730Y-54159809D01*
X159657546Y-54107546D01*
X159743796Y-53992331D01*
X159743796Y-53992329D01*
X159745399Y-53990189D01*
X159801333Y-53948318D01*
X159844666Y-53940500D01*
X165155334Y-53940500D01*
X165222373Y-53960185D01*
X165254601Y-53990189D01*
X165256203Y-53992329D01*
X165256204Y-53992331D01*
X165342454Y-54107546D01*
X165384863Y-54139293D01*
X165464769Y-54199112D01*
X165463170Y-54201246D01*
X165502781Y-54240848D01*
X165517640Y-54309119D01*
X165493230Y-54374586D01*
X165463972Y-54399944D01*
X165465011Y-54401331D01*
X165342812Y-54492809D01*
X165342809Y-54492812D01*
X165256649Y-54607906D01*
X165256645Y-54607913D01*
X165206403Y-54742620D01*
X165206401Y-54742627D01*
X165200000Y-54802155D01*
X165200000Y-55300000D01*
X167800000Y-55300000D01*
X167800000Y-54802172D01*
X167799999Y-54802155D01*
X167793598Y-54742627D01*
X167793596Y-54742620D01*
X167743354Y-54607913D01*
X167743350Y-54607906D01*
X167657190Y-54492812D01*
X167657187Y-54492809D01*
X167534989Y-54401331D01*
X167536632Y-54399135D01*
X167497211Y-54359712D01*
X167482360Y-54291438D01*
X167506778Y-54225974D01*
X167536236Y-54200455D01*
X167535231Y-54199112D01*
X167615136Y-54139293D01*
X167657546Y-54107546D01*
X167743796Y-53992331D01*
X167794091Y-53857483D01*
X167800500Y-53797873D01*
X167800499Y-52302128D01*
X167794091Y-52242517D01*
X167759043Y-52148549D01*
X167743797Y-52107671D01*
X167743793Y-52107664D01*
X167657547Y-51992455D01*
X167657544Y-51992452D01*
X167542335Y-51906206D01*
X167542328Y-51906202D01*
X167407482Y-51855908D01*
X167407483Y-51855908D01*
X167347883Y-51849501D01*
X167347881Y-51849500D01*
X167347873Y-51849500D01*
X167347864Y-51849500D01*
X165652129Y-51849500D01*
X165652123Y-51849501D01*
X165592516Y-51855908D01*
X165457671Y-51906202D01*
X165457664Y-51906206D01*
X165342455Y-51992452D01*
X165342452Y-51992455D01*
X165256206Y-52107664D01*
X165256202Y-52107671D01*
X165205908Y-52242517D01*
X165199501Y-52302116D01*
X165199501Y-52302123D01*
X165199500Y-52302135D01*
X165199500Y-52615500D01*
X165179815Y-52682539D01*
X165127011Y-52728294D01*
X165075500Y-52739500D01*
X159924499Y-52739500D01*
X159857460Y-52719815D01*
X159811705Y-52667011D01*
X159800499Y-52615500D01*
X159800499Y-52302129D01*
X159800498Y-52302123D01*
X159800497Y-52302116D01*
X159794091Y-52242517D01*
X159759043Y-52148549D01*
X159743797Y-52107671D01*
X159743793Y-52107664D01*
X159657547Y-51992455D01*
X159657544Y-51992452D01*
X159542335Y-51906206D01*
X159542328Y-51906202D01*
X159407482Y-51855908D01*
X159407483Y-51855908D01*
X159347883Y-51849501D01*
X159347881Y-51849500D01*
X159347873Y-51849500D01*
X159347864Y-51849500D01*
X157652129Y-51849500D01*
X157652123Y-51849501D01*
X157592516Y-51855908D01*
X157457671Y-51906202D01*
X157457664Y-51906206D01*
X157342455Y-51992452D01*
X157342452Y-51992455D01*
X157256206Y-52107664D01*
X157256202Y-52107671D01*
X157205908Y-52242517D01*
X157199501Y-52302116D01*
X157199501Y-52302123D01*
X157199500Y-52302135D01*
X157199500Y-52615500D01*
X157179815Y-52682539D01*
X157127011Y-52728294D01*
X157075500Y-52739500D01*
X137080940Y-52739500D01*
X137040019Y-52750464D01*
X137040019Y-52750465D01*
X137002751Y-52760451D01*
X136928214Y-52780423D01*
X136928209Y-52780426D01*
X136791290Y-52859475D01*
X136791282Y-52859481D01*
X134139481Y-55511282D01*
X134139479Y-55511285D01*
X134114420Y-55554689D01*
X134096204Y-55586242D01*
X134089361Y-55598094D01*
X134089359Y-55598096D01*
X134060425Y-55648209D01*
X134060424Y-55648210D01*
X134060423Y-55648215D01*
X134019499Y-55800943D01*
X134019499Y-55800945D01*
X134019499Y-55969046D01*
X134019500Y-55969059D01*
X134019500Y-63199902D01*
X133999815Y-63266941D01*
X133983181Y-63287583D01*
X133492181Y-63778583D01*
X133430858Y-63812068D01*
X133361166Y-63807084D01*
X133305233Y-63765212D01*
X133280816Y-63699748D01*
X133280500Y-63690902D01*
X133280500Y-55580097D01*
X133300185Y-55513058D01*
X133316819Y-55492416D01*
X133959345Y-54849890D01*
X134634662Y-54174572D01*
X134695983Y-54141089D01*
X134698150Y-54140638D01*
X134756085Y-54129113D01*
X134853497Y-54109737D01*
X134999179Y-54049394D01*
X135130289Y-53961789D01*
X135241789Y-53850289D01*
X135329394Y-53719179D01*
X135389737Y-53573497D01*
X135420500Y-53418842D01*
X135420500Y-53261158D01*
X135420500Y-53261155D01*
X135420499Y-53261153D01*
X135396655Y-53141281D01*
X135389737Y-53106503D01*
X135389735Y-53106498D01*
X135329397Y-52960827D01*
X135329390Y-52960814D01*
X135241789Y-52829711D01*
X135241786Y-52829707D01*
X135130292Y-52718213D01*
X135130288Y-52718210D01*
X134999185Y-52630609D01*
X134999172Y-52630602D01*
X134853501Y-52570264D01*
X134853489Y-52570261D01*
X134698845Y-52539500D01*
X134698842Y-52539500D01*
X134541158Y-52539500D01*
X134541155Y-52539500D01*
X134386510Y-52570261D01*
X134386498Y-52570264D01*
X134240827Y-52630602D01*
X134240814Y-52630609D01*
X134109711Y-52718210D01*
X134109707Y-52718213D01*
X133998213Y-52829707D01*
X133998210Y-52829711D01*
X133910609Y-52960814D01*
X133910602Y-52960827D01*
X133850264Y-53106498D01*
X133850261Y-53106508D01*
X133819361Y-53261850D01*
X133786976Y-53323761D01*
X133785425Y-53325339D01*
X132199481Y-54911282D01*
X132199477Y-54911287D01*
X132192814Y-54922829D01*
X132142247Y-54971045D01*
X132073640Y-54984267D01*
X132008775Y-54958299D01*
X131997746Y-54948510D01*
X128087590Y-51038355D01*
X128087588Y-51038352D01*
X127968717Y-50919481D01*
X127968716Y-50919480D01*
X127881904Y-50869360D01*
X127881904Y-50869359D01*
X127881900Y-50869358D01*
X127831785Y-50840423D01*
X127679057Y-50799499D01*
X127520943Y-50799499D01*
X127513347Y-50799499D01*
X127513331Y-50799500D01*
X124511568Y-50799500D01*
X124444529Y-50779815D01*
X124423887Y-50763181D01*
X124099061Y-50438355D01*
X124099059Y-50438352D01*
X123980188Y-50319481D01*
X123980187Y-50319480D01*
X123893375Y-50269360D01*
X123893375Y-50269359D01*
X123893371Y-50269358D01*
X123843256Y-50240423D01*
X123690528Y-50199499D01*
X123532414Y-50199499D01*
X123524818Y-50199499D01*
X123524802Y-50199500D01*
X121999077Y-50199500D01*
X121932038Y-50179815D01*
X121886283Y-50127011D01*
X121876339Y-50057853D01*
X121905364Y-49994297D01*
X121911396Y-49987819D01*
X121936748Y-49962466D01*
X121936751Y-49962462D01*
X122046185Y-49798684D01*
X122046192Y-49798671D01*
X122121569Y-49616693D01*
X122121572Y-49616681D01*
X122159999Y-49423495D01*
X122160000Y-49423492D01*
X122160000Y-49297844D01*
X157200000Y-49297844D01*
X157206401Y-49357372D01*
X157206403Y-49357379D01*
X157256645Y-49492086D01*
X157256649Y-49492093D01*
X157342809Y-49607187D01*
X157342812Y-49607190D01*
X157457906Y-49693350D01*
X157457913Y-49693354D01*
X157592620Y-49743596D01*
X157592627Y-49743598D01*
X157652155Y-49749999D01*
X157652172Y-49750000D01*
X158250000Y-49750000D01*
X158750000Y-49750000D01*
X159347828Y-49750000D01*
X159347844Y-49749999D01*
X159407372Y-49743598D01*
X159407379Y-49743596D01*
X159542086Y-49693354D01*
X159542093Y-49693350D01*
X159657187Y-49607190D01*
X159657190Y-49607187D01*
X159743350Y-49492093D01*
X159743354Y-49492086D01*
X159793596Y-49357379D01*
X159793598Y-49357372D01*
X159799999Y-49297844D01*
X165200000Y-49297844D01*
X165206401Y-49357372D01*
X165206403Y-49357379D01*
X165256645Y-49492086D01*
X165256649Y-49492093D01*
X165342809Y-49607187D01*
X165342812Y-49607190D01*
X165457906Y-49693350D01*
X165457913Y-49693354D01*
X165592620Y-49743596D01*
X165592627Y-49743598D01*
X165652155Y-49749999D01*
X165652172Y-49750000D01*
X166250000Y-49750000D01*
X166750000Y-49750000D01*
X167347828Y-49750000D01*
X167347844Y-49749999D01*
X167407372Y-49743598D01*
X167407379Y-49743596D01*
X167542086Y-49693354D01*
X167542093Y-49693350D01*
X167657187Y-49607190D01*
X167657190Y-49607187D01*
X167743350Y-49492093D01*
X167743354Y-49492086D01*
X167793596Y-49357379D01*
X167793598Y-49357372D01*
X167799999Y-49297844D01*
X167800000Y-49297827D01*
X167800000Y-48800000D01*
X166750000Y-48800000D01*
X166750000Y-49750000D01*
X166250000Y-49750000D01*
X166250000Y-48800000D01*
X165200000Y-48800000D01*
X165200000Y-49297844D01*
X159799999Y-49297844D01*
X159800000Y-49297827D01*
X159800000Y-48800000D01*
X158750000Y-48800000D01*
X158750000Y-49750000D01*
X158250000Y-49750000D01*
X158250000Y-48800000D01*
X157200000Y-48800000D01*
X157200000Y-49297844D01*
X122160000Y-49297844D01*
X122160000Y-49175000D01*
X121460000Y-49175000D01*
X121460000Y-48675000D01*
X122160000Y-48675000D01*
X122160000Y-48426508D01*
X122159999Y-48426504D01*
X122121572Y-48233318D01*
X122121569Y-48233306D01*
X122046192Y-48051328D01*
X122046185Y-48051315D01*
X121936751Y-47887537D01*
X121936748Y-47887533D01*
X121851370Y-47802155D01*
X157200000Y-47802155D01*
X157200000Y-48300000D01*
X158250000Y-48300000D01*
X158750000Y-48300000D01*
X159800000Y-48300000D01*
X159800000Y-47802172D01*
X159799999Y-47802155D01*
X165200000Y-47802155D01*
X165200000Y-48300000D01*
X166250000Y-48300000D01*
X166750000Y-48300000D01*
X167800000Y-48300000D01*
X167800000Y-47802172D01*
X167799999Y-47802155D01*
X167793598Y-47742627D01*
X167793596Y-47742620D01*
X167743354Y-47607913D01*
X167743350Y-47607906D01*
X167657190Y-47492812D01*
X167657187Y-47492809D01*
X167542093Y-47406649D01*
X167542086Y-47406645D01*
X167407379Y-47356403D01*
X167407372Y-47356401D01*
X167347844Y-47350000D01*
X166750000Y-47350000D01*
X166750000Y-48300000D01*
X166250000Y-48300000D01*
X166250000Y-47350000D01*
X165652155Y-47350000D01*
X165592627Y-47356401D01*
X165592620Y-47356403D01*
X165457913Y-47406645D01*
X165457906Y-47406649D01*
X165342812Y-47492809D01*
X165342809Y-47492812D01*
X165256649Y-47607906D01*
X165256645Y-47607913D01*
X165206403Y-47742620D01*
X165206401Y-47742627D01*
X165200000Y-47802155D01*
X159799999Y-47802155D01*
X159793598Y-47742627D01*
X159793596Y-47742620D01*
X159743354Y-47607913D01*
X159743350Y-47607906D01*
X159657190Y-47492812D01*
X159657187Y-47492809D01*
X159542093Y-47406649D01*
X159542086Y-47406645D01*
X159407379Y-47356403D01*
X159407372Y-47356401D01*
X159347844Y-47350000D01*
X158750000Y-47350000D01*
X158750000Y-48300000D01*
X158250000Y-48300000D01*
X158250000Y-47350000D01*
X157652155Y-47350000D01*
X157592627Y-47356401D01*
X157592620Y-47356403D01*
X157457913Y-47406645D01*
X157457906Y-47406649D01*
X157342812Y-47492809D01*
X157342809Y-47492812D01*
X157256649Y-47607906D01*
X157256645Y-47607913D01*
X157206403Y-47742620D01*
X157206401Y-47742627D01*
X157200000Y-47802155D01*
X121851370Y-47802155D01*
X121797466Y-47748251D01*
X121797462Y-47748248D01*
X121633684Y-47638814D01*
X121633671Y-47638807D01*
X121451691Y-47563429D01*
X121451683Y-47563427D01*
X121410000Y-47555135D01*
X121410000Y-48358011D01*
X121400060Y-48340795D01*
X121344205Y-48284940D01*
X121275796Y-48245444D01*
X121199496Y-48225000D01*
X121120504Y-48225000D01*
X121044204Y-48245444D01*
X120975795Y-48284940D01*
X120919940Y-48340795D01*
X120910000Y-48358011D01*
X120910000Y-47555136D01*
X120909999Y-47555135D01*
X120868316Y-47563427D01*
X120868308Y-47563429D01*
X120686328Y-47638807D01*
X120686315Y-47638814D01*
X120522537Y-47748248D01*
X120522533Y-47748251D01*
X120383251Y-47887533D01*
X120383248Y-47887537D01*
X120273814Y-48051315D01*
X120273807Y-48051328D01*
X120198430Y-48233306D01*
X120198427Y-48233318D01*
X120160000Y-48426504D01*
X120160000Y-48675000D01*
X120860000Y-48675000D01*
X120860000Y-49175000D01*
X120160000Y-49175000D01*
X120160000Y-49423495D01*
X120198427Y-49616681D01*
X120198430Y-49616693D01*
X120273807Y-49798671D01*
X120273814Y-49798684D01*
X120383248Y-49962462D01*
X120383251Y-49962466D01*
X120408604Y-49987819D01*
X120442089Y-50049142D01*
X120437105Y-50118834D01*
X120395233Y-50174767D01*
X120329769Y-50199184D01*
X120320923Y-50199500D01*
X119466669Y-50199500D01*
X119466653Y-50199499D01*
X119459057Y-50199499D01*
X119300943Y-50199499D01*
X119193587Y-50228265D01*
X119148210Y-50240424D01*
X119148209Y-50240425D01*
X119098096Y-50269359D01*
X119098095Y-50269360D01*
X119068288Y-50286569D01*
X119011285Y-50319479D01*
X119011282Y-50319481D01*
X113819481Y-55511282D01*
X113819479Y-55511285D01*
X113794420Y-55554689D01*
X113776204Y-55586242D01*
X113769361Y-55598094D01*
X113769359Y-55598096D01*
X113740425Y-55648209D01*
X113740424Y-55648210D01*
X113740423Y-55648215D01*
X113699499Y-55800943D01*
X113699499Y-55800945D01*
X113699499Y-55969046D01*
X113699500Y-55969059D01*
X113699500Y-60873330D01*
X113699499Y-60873348D01*
X113699499Y-61039056D01*
X113740129Y-61190690D01*
X113738466Y-61260540D01*
X113699303Y-61318402D01*
X113635075Y-61345906D01*
X113566173Y-61334319D01*
X113532673Y-61310464D01*
X107740564Y-55518355D01*
X107740562Y-55518352D01*
X107621691Y-55399481D01*
X107621690Y-55399480D01*
X107534878Y-55349360D01*
X107534878Y-55349359D01*
X107534874Y-55349358D01*
X107484759Y-55320423D01*
X107332031Y-55279499D01*
X107173917Y-55279499D01*
X107166321Y-55279499D01*
X107166305Y-55279500D01*
X89200097Y-55279500D01*
X89133058Y-55259815D01*
X89112416Y-55243181D01*
X86847590Y-52978355D01*
X86847588Y-52978352D01*
X86728717Y-52859481D01*
X86728716Y-52859480D01*
X86641904Y-52809360D01*
X86641904Y-52809359D01*
X86641900Y-52809358D01*
X86591785Y-52780423D01*
X86439057Y-52739499D01*
X86280943Y-52739499D01*
X86273347Y-52739499D01*
X86273331Y-52739500D01*
X80790097Y-52739500D01*
X80760656Y-52730855D01*
X80730670Y-52724332D01*
X80725654Y-52720577D01*
X80723058Y-52719815D01*
X80702416Y-52703181D01*
X80687590Y-52688355D01*
X80687588Y-52688352D01*
X80570962Y-52571726D01*
X80568716Y-52569480D01*
X80481904Y-52519360D01*
X80431785Y-52490423D01*
X80379839Y-52476504D01*
X111520000Y-52476504D01*
X111520000Y-52875000D01*
X112220000Y-52875000D01*
X112220000Y-53375000D01*
X111520000Y-53375000D01*
X111520000Y-53773495D01*
X111558427Y-53966681D01*
X111558430Y-53966693D01*
X111633807Y-54148671D01*
X111633814Y-54148684D01*
X111743248Y-54312462D01*
X111743251Y-54312466D01*
X111882533Y-54451748D01*
X111882537Y-54451751D01*
X112046315Y-54561185D01*
X112046328Y-54561192D01*
X112228308Y-54636569D01*
X112270000Y-54644862D01*
X112270000Y-53841988D01*
X112279940Y-53859205D01*
X112335795Y-53915060D01*
X112404204Y-53954556D01*
X112480504Y-53975000D01*
X112559496Y-53975000D01*
X112635796Y-53954556D01*
X112704205Y-53915060D01*
X112760060Y-53859205D01*
X112770000Y-53841988D01*
X112770000Y-54644862D01*
X112811690Y-54636569D01*
X112811692Y-54636569D01*
X112993671Y-54561192D01*
X112993684Y-54561185D01*
X113157462Y-54451751D01*
X113157466Y-54451748D01*
X113296748Y-54312466D01*
X113296751Y-54312462D01*
X113406185Y-54148684D01*
X113406192Y-54148671D01*
X113481569Y-53966693D01*
X113481572Y-53966681D01*
X113519999Y-53773495D01*
X113520000Y-53773492D01*
X113520000Y-53375000D01*
X112820000Y-53375000D01*
X112820000Y-52875000D01*
X113369763Y-52875000D01*
X113436802Y-52894685D01*
X113477149Y-52936999D01*
X113489485Y-52958365D01*
X113596635Y-53065515D01*
X113727865Y-53141281D01*
X113874234Y-53180500D01*
X113874236Y-53180500D01*
X114025764Y-53180500D01*
X114025766Y-53180500D01*
X114172135Y-53141281D01*
X114303365Y-53065515D01*
X114410515Y-52958365D01*
X114486281Y-52827135D01*
X114525500Y-52680766D01*
X114525500Y-52529234D01*
X114486281Y-52382865D01*
X114410515Y-52251635D01*
X114303365Y-52144485D01*
X114228593Y-52101315D01*
X114172136Y-52068719D01*
X114053081Y-52036819D01*
X114025766Y-52029500D01*
X113874234Y-52029500D01*
X113727863Y-52068719D01*
X113596626Y-52144490D01*
X113593882Y-52146596D01*
X113591152Y-52147651D01*
X113589597Y-52148549D01*
X113589456Y-52148306D01*
X113528710Y-52171785D01*
X113460267Y-52157741D01*
X113410281Y-52108922D01*
X113409042Y-52106660D01*
X113406187Y-52101318D01*
X113296751Y-51937537D01*
X113296748Y-51937533D01*
X113157466Y-51798251D01*
X113157462Y-51798248D01*
X112993684Y-51688814D01*
X112993671Y-51688807D01*
X112811691Y-51613429D01*
X112811683Y-51613427D01*
X112770000Y-51605135D01*
X112770000Y-52408011D01*
X112760060Y-52390795D01*
X112704205Y-52334940D01*
X112635796Y-52295444D01*
X112559496Y-52275000D01*
X112480504Y-52275000D01*
X112404204Y-52295444D01*
X112335795Y-52334940D01*
X112279940Y-52390795D01*
X112270000Y-52408011D01*
X112270000Y-51605136D01*
X112269999Y-51605135D01*
X112228316Y-51613427D01*
X112228308Y-51613429D01*
X112046328Y-51688807D01*
X112046315Y-51688814D01*
X111882537Y-51798248D01*
X111882533Y-51798251D01*
X111743251Y-51937533D01*
X111743248Y-51937537D01*
X111633814Y-52101315D01*
X111633807Y-52101328D01*
X111558430Y-52283306D01*
X111558427Y-52283318D01*
X111520000Y-52476504D01*
X80379839Y-52476504D01*
X80279057Y-52449499D01*
X80120943Y-52449499D01*
X80113347Y-52449499D01*
X80113331Y-52449500D01*
X76924499Y-52449500D01*
X76857460Y-52429815D01*
X76811705Y-52377011D01*
X76800499Y-52325500D01*
X76800499Y-52302129D01*
X76800498Y-52302123D01*
X76800497Y-52302116D01*
X76794091Y-52242517D01*
X76759043Y-52148549D01*
X76743797Y-52107671D01*
X76743793Y-52107664D01*
X76657547Y-51992455D01*
X76657544Y-51992452D01*
X76542335Y-51906206D01*
X76542328Y-51906202D01*
X76407482Y-51855908D01*
X76407483Y-51855908D01*
X76347883Y-51849501D01*
X76347881Y-51849500D01*
X76347873Y-51849500D01*
X76347864Y-51849500D01*
X74652129Y-51849500D01*
X74652123Y-51849501D01*
X74592516Y-51855908D01*
X74457671Y-51906202D01*
X74457664Y-51906206D01*
X74342455Y-51992452D01*
X74342452Y-51992455D01*
X74256206Y-52107664D01*
X74256202Y-52107671D01*
X74205908Y-52242517D01*
X74199501Y-52302116D01*
X74199501Y-52302123D01*
X74199500Y-52302135D01*
X74199500Y-52325500D01*
X74179815Y-52392539D01*
X74127011Y-52438294D01*
X74075500Y-52449500D01*
X68924499Y-52449500D01*
X68857460Y-52429815D01*
X68811705Y-52377011D01*
X68800499Y-52325500D01*
X68800499Y-52302129D01*
X68800498Y-52302123D01*
X68800497Y-52302116D01*
X68794091Y-52242517D01*
X68759043Y-52148549D01*
X68743797Y-52107671D01*
X68743793Y-52107664D01*
X68657547Y-51992455D01*
X68657544Y-51992452D01*
X68542335Y-51906206D01*
X68542328Y-51906202D01*
X68407482Y-51855908D01*
X68407483Y-51855908D01*
X68347883Y-51849501D01*
X68347881Y-51849500D01*
X68347873Y-51849500D01*
X68347864Y-51849500D01*
X66652129Y-51849500D01*
X66652123Y-51849501D01*
X66592516Y-51855908D01*
X66457671Y-51906202D01*
X66457664Y-51906206D01*
X66342455Y-51992452D01*
X66342452Y-51992455D01*
X66256206Y-52107664D01*
X66256202Y-52107671D01*
X66205908Y-52242517D01*
X66199501Y-52302116D01*
X66199501Y-52302123D01*
X66199500Y-52302135D01*
X58420000Y-52302135D01*
X58420000Y-50866362D01*
X58439685Y-50799323D01*
X58475215Y-50763189D01*
X60673233Y-49297844D01*
X66200000Y-49297844D01*
X66206401Y-49357372D01*
X66206403Y-49357379D01*
X66256645Y-49492086D01*
X66256649Y-49492093D01*
X66342809Y-49607187D01*
X66342812Y-49607190D01*
X66457906Y-49693350D01*
X66457913Y-49693354D01*
X66592620Y-49743596D01*
X66592627Y-49743598D01*
X66652155Y-49749999D01*
X66652172Y-49750000D01*
X67250000Y-49750000D01*
X67750000Y-49750000D01*
X68347828Y-49750000D01*
X68347844Y-49749999D01*
X68407372Y-49743598D01*
X68407379Y-49743596D01*
X68542086Y-49693354D01*
X68542093Y-49693350D01*
X68657187Y-49607190D01*
X68657190Y-49607187D01*
X68743350Y-49492093D01*
X68743354Y-49492086D01*
X68793596Y-49357379D01*
X68793598Y-49357372D01*
X68799999Y-49297844D01*
X74200000Y-49297844D01*
X74206401Y-49357372D01*
X74206403Y-49357379D01*
X74256645Y-49492086D01*
X74256649Y-49492093D01*
X74342809Y-49607187D01*
X74342812Y-49607190D01*
X74457906Y-49693350D01*
X74457913Y-49693354D01*
X74592620Y-49743596D01*
X74592627Y-49743598D01*
X74652155Y-49749999D01*
X74652172Y-49750000D01*
X75250000Y-49750000D01*
X75750000Y-49750000D01*
X76347828Y-49750000D01*
X76347844Y-49749999D01*
X76407372Y-49743598D01*
X76407379Y-49743596D01*
X76542086Y-49693354D01*
X76542093Y-49693350D01*
X76657187Y-49607190D01*
X76657190Y-49607187D01*
X76743350Y-49492093D01*
X76743354Y-49492086D01*
X76793596Y-49357379D01*
X76793598Y-49357372D01*
X76799999Y-49297844D01*
X76800000Y-49297827D01*
X76800000Y-48800000D01*
X75750000Y-48800000D01*
X75750000Y-49750000D01*
X75250000Y-49750000D01*
X75250000Y-48800000D01*
X74200000Y-48800000D01*
X74200000Y-49297844D01*
X68799999Y-49297844D01*
X68800000Y-49297827D01*
X68800000Y-48800000D01*
X67750000Y-48800000D01*
X67750000Y-49750000D01*
X67250000Y-49750000D01*
X67250000Y-48800000D01*
X66200000Y-48800000D01*
X66200000Y-49297844D01*
X60673233Y-49297844D01*
X61980243Y-48426504D01*
X111520000Y-48426504D01*
X111520000Y-48675000D01*
X112220000Y-48675000D01*
X112220000Y-49175000D01*
X111520000Y-49175000D01*
X111520000Y-49423495D01*
X111558427Y-49616681D01*
X111558430Y-49616693D01*
X111633807Y-49798671D01*
X111633814Y-49798684D01*
X111743248Y-49962462D01*
X111743251Y-49962466D01*
X111882533Y-50101748D01*
X111882537Y-50101751D01*
X112046315Y-50211185D01*
X112046328Y-50211192D01*
X112228308Y-50286569D01*
X112270000Y-50294862D01*
X112270000Y-49491988D01*
X112279940Y-49509205D01*
X112335795Y-49565060D01*
X112404204Y-49604556D01*
X112480504Y-49625000D01*
X112559496Y-49625000D01*
X112635796Y-49604556D01*
X112704205Y-49565060D01*
X112760060Y-49509205D01*
X112770000Y-49491988D01*
X112770000Y-50294862D01*
X112811690Y-50286569D01*
X112811692Y-50286569D01*
X112993671Y-50211192D01*
X112993684Y-50211185D01*
X113157462Y-50101751D01*
X113157466Y-50101748D01*
X113296748Y-49962466D01*
X113296751Y-49962462D01*
X113406185Y-49798684D01*
X113406192Y-49798671D01*
X113481569Y-49616693D01*
X113481572Y-49616681D01*
X113519999Y-49423495D01*
X113520000Y-49423492D01*
X113520000Y-49175000D01*
X112820000Y-49175000D01*
X112820000Y-48675000D01*
X113520000Y-48675000D01*
X113520000Y-48426508D01*
X113519999Y-48426504D01*
X113481572Y-48233318D01*
X113481569Y-48233306D01*
X113406192Y-48051328D01*
X113406185Y-48051315D01*
X113296751Y-47887537D01*
X113296748Y-47887533D01*
X113157466Y-47748251D01*
X113157462Y-47748248D01*
X112993684Y-47638814D01*
X112993671Y-47638807D01*
X112811691Y-47563429D01*
X112811683Y-47563427D01*
X112770000Y-47555135D01*
X112770000Y-48358011D01*
X112760060Y-48340795D01*
X112704205Y-48284940D01*
X112635796Y-48245444D01*
X112559496Y-48225000D01*
X112480504Y-48225000D01*
X112404204Y-48245444D01*
X112335795Y-48284940D01*
X112279940Y-48340795D01*
X112270000Y-48358011D01*
X112270000Y-47555136D01*
X112269999Y-47555135D01*
X112228316Y-47563427D01*
X112228308Y-47563429D01*
X112046328Y-47638807D01*
X112046315Y-47638814D01*
X111882537Y-47748248D01*
X111882533Y-47748251D01*
X111743251Y-47887533D01*
X111743248Y-47887537D01*
X111633814Y-48051315D01*
X111633807Y-48051328D01*
X111558430Y-48233306D01*
X111558427Y-48233318D01*
X111520000Y-48426504D01*
X61980243Y-48426504D01*
X62916766Y-47802155D01*
X66200000Y-47802155D01*
X66200000Y-48300000D01*
X67250000Y-48300000D01*
X67750000Y-48300000D01*
X68800000Y-48300000D01*
X68800000Y-47802172D01*
X68799999Y-47802155D01*
X74200000Y-47802155D01*
X74200000Y-48300000D01*
X75250000Y-48300000D01*
X75750000Y-48300000D01*
X76800000Y-48300000D01*
X76800000Y-47802172D01*
X76799999Y-47802155D01*
X76793598Y-47742627D01*
X76793596Y-47742620D01*
X76743354Y-47607913D01*
X76743350Y-47607906D01*
X76657190Y-47492812D01*
X76657187Y-47492809D01*
X76542093Y-47406649D01*
X76542086Y-47406645D01*
X76407379Y-47356403D01*
X76407372Y-47356401D01*
X76347844Y-47350000D01*
X75750000Y-47350000D01*
X75750000Y-48300000D01*
X75250000Y-48300000D01*
X75250000Y-47350000D01*
X74652155Y-47350000D01*
X74592627Y-47356401D01*
X74592620Y-47356403D01*
X74457913Y-47406645D01*
X74457906Y-47406649D01*
X74342812Y-47492809D01*
X74342809Y-47492812D01*
X74256649Y-47607906D01*
X74256645Y-47607913D01*
X74206403Y-47742620D01*
X74206401Y-47742627D01*
X74200000Y-47802155D01*
X68799999Y-47802155D01*
X68793598Y-47742627D01*
X68793596Y-47742620D01*
X68743354Y-47607913D01*
X68743350Y-47607906D01*
X68657190Y-47492812D01*
X68657187Y-47492809D01*
X68542093Y-47406649D01*
X68542086Y-47406645D01*
X68407379Y-47356403D01*
X68407372Y-47356401D01*
X68347844Y-47350000D01*
X67750000Y-47350000D01*
X67750000Y-48300000D01*
X67250000Y-48300000D01*
X67250000Y-47350000D01*
X66652155Y-47350000D01*
X66592627Y-47356401D01*
X66592620Y-47356403D01*
X66457913Y-47406645D01*
X66457906Y-47406649D01*
X66342812Y-47492809D01*
X66342809Y-47492812D01*
X66256649Y-47607906D01*
X66256645Y-47607913D01*
X66206403Y-47742620D01*
X66206401Y-47742627D01*
X66200000Y-47802155D01*
X62916766Y-47802155D01*
X65206107Y-46275928D01*
X65219857Y-46271046D01*
X65228910Y-46263942D01*
X65263209Y-46255655D01*
X65429617Y-46239925D01*
X65437351Y-46239439D01*
X66038059Y-46220561D01*
X66041954Y-46220500D01*
X66105892Y-46220500D01*
X170114108Y-46220500D01*
X170178046Y-46220500D01*
X170181941Y-46220561D01*
G37*
%TD.AperFunction*%
%TD*%
M02*
