%TF.GenerationSoftware,KiCad,Pcbnew,9.0.0-9.0.0-2~ubuntu24.04.1*%
%TF.CreationDate,2025-03-25T15:14:42+01:00*%
%TF.ProjectId,omnicontroller,6f6d6e69-636f-46e7-9472-6f6c6c65722e,rev?*%
%TF.SameCoordinates,Original*%
%TF.FileFunction,Soldermask,Bot*%
%TF.FilePolarity,Negative*%
%FSLAX46Y46*%
G04 Gerber Fmt 4.6, Leading zero omitted, Abs format (unit mm)*
G04 Created by KiCad (PCBNEW 9.0.0-9.0.0-2~ubuntu24.04.1) date 2025-03-25 15:14:42*
%MOMM*%
%LPD*%
G01*
G04 APERTURE LIST*
G04 Aperture macros list*
%AMRoundRect*
0 Rectangle with rounded corners*
0 $1 Rounding radius*
0 $2 $3 $4 $5 $6 $7 $8 $9 X,Y pos of 4 corners*
0 Add a 4 corners polygon primitive as box body*
4,1,4,$2,$3,$4,$5,$6,$7,$8,$9,$2,$3,0*
0 Add four circle primitives for the rounded corners*
1,1,$1+$1,$2,$3*
1,1,$1+$1,$4,$5*
1,1,$1+$1,$6,$7*
1,1,$1+$1,$8,$9*
0 Add four rect primitives between the rounded corners*
20,1,$1+$1,$2,$3,$4,$5,0*
20,1,$1+$1,$4,$5,$6,$7,0*
20,1,$1+$1,$6,$7,$8,$9,0*
20,1,$1+$1,$8,$9,$2,$3,0*%
G04 Aperture macros list end*
%ADD10C,0.650000*%
%ADD11O,1.000000X2.100000*%
%ADD12O,1.000000X1.800000*%
%ADD13C,2.200000*%
%ADD14R,1.508000X1.508000*%
%ADD15C,1.508000*%
%ADD16C,2.250000*%
%ADD17C,1.650000*%
%ADD18C,2.400000*%
%ADD19C,1.950000*%
%ADD20R,1.700000X1.700000*%
%ADD21O,1.700000X1.700000*%
%ADD22R,1.600000X1.400000*%
%ADD23RoundRect,0.325000X0.325000X1.175000X-0.325000X1.175000X-0.325000X-1.175000X0.325000X-1.175000X0*%
%ADD24O,1.200000X2.900000*%
G04 APERTURE END LIST*
D10*
%TO.C,J1*%
X119730000Y-52605000D03*
X113950000Y-52605000D03*
D11*
X121160000Y-53125000D03*
D12*
X121160000Y-48925000D03*
D11*
X112520000Y-53125000D03*
D12*
X112520000Y-48925000D03*
%TD*%
D13*
%TO.C,REF\u002A\u002A*%
X175260000Y-55880000D03*
%TD*%
D14*
%TO.C,bR1*%
X153250000Y-49600000D03*
D15*
X148750000Y-49600000D03*
D16*
X154500000Y-52100000D03*
X147500000Y-52100000D03*
%TD*%
D13*
%TO.C,REF\u002A\u002A*%
X60960000Y-55880000D03*
%TD*%
D17*
%TO.C,RightStick1*%
X122200000Y-98500000D03*
X130800000Y-98500000D03*
X124000000Y-89770000D03*
X126500000Y-89770000D03*
X129000000Y-89770000D03*
D18*
X120175000Y-93500000D03*
X132825000Y-93500000D03*
X132825000Y-103500000D03*
X120175000Y-103500000D03*
D19*
X123250000Y-104250000D03*
X129750000Y-104250000D03*
X123250000Y-108750000D03*
X129750000Y-108750000D03*
D17*
X135230000Y-96000000D03*
X135230000Y-98500000D03*
X135230000Y-101000000D03*
%TD*%
%TO.C,LeftStick1*%
X85700000Y-98500000D03*
X94300000Y-98500000D03*
X87500000Y-89770000D03*
X90000000Y-89770000D03*
X92500000Y-89770000D03*
D18*
X83675000Y-93500000D03*
X96325000Y-93500000D03*
X96325000Y-103500000D03*
X83675000Y-103500000D03*
D19*
X86750000Y-104250000D03*
X93250000Y-104250000D03*
X86750000Y-108750000D03*
X93250000Y-108750000D03*
D17*
X98730000Y-96000000D03*
X98730000Y-98500000D03*
X98730000Y-101000000D03*
%TD*%
D14*
%TO.C,bL1*%
X84750000Y-49600000D03*
D15*
X80250000Y-49600000D03*
D16*
X86000000Y-52100000D03*
X79000000Y-52100000D03*
%TD*%
D13*
%TO.C,REF\u002A\u002A*%
X142240000Y-106600000D03*
%TD*%
%TO.C,REF\u002A\u002A*%
X76200000Y-88900000D03*
%TD*%
D20*
%TO.C,J3*%
X106500000Y-84500000D03*
D21*
X103960000Y-84500000D03*
X101420000Y-84500000D03*
X98880000Y-84500000D03*
X96340000Y-84500000D03*
X93800000Y-84500000D03*
X91260000Y-84500000D03*
%TD*%
D22*
%TO.C,BOOT_SEL1*%
X83440000Y-70540000D03*
X91440000Y-70540000D03*
X83440000Y-66040000D03*
X91440000Y-66040000D03*
%TD*%
D14*
%TO.C,bR2*%
X158250000Y-49600000D03*
D15*
X162750000Y-49600000D03*
D16*
X157000000Y-52100000D03*
X164000000Y-52100000D03*
%TD*%
D14*
%TO.C,bL2*%
X70750000Y-49600000D03*
D15*
X75250000Y-49600000D03*
D16*
X69500000Y-52100000D03*
X76500000Y-52100000D03*
%TD*%
D23*
%TO.C,J2*%
X172500000Y-69750000D03*
X170000000Y-69750000D03*
X168000000Y-69750000D03*
X165500000Y-69750000D03*
D24*
X175400000Y-73450000D03*
X162600000Y-73450000D03*
%TD*%
M02*
