%TF.GenerationSoftware,KiCad,Pcbnew,9.0.0-9.0.0-2~ubuntu24.04.1*%
%TF.CreationDate,2025-03-25T15:14:42+01:00*%
%TF.ProjectId,omnicontroller,6f6d6e69-636f-46e7-9472-6f6c6c65722e,rev?*%
%TF.SameCoordinates,Original*%
%TF.FileFunction,Paste,Top*%
%TF.FilePolarity,Positive*%
%FSLAX46Y46*%
G04 Gerber Fmt 4.6, Leading zero omitted, Abs format (unit mm)*
G04 Created by KiCad (PCBNEW 9.0.0-9.0.0-2~ubuntu24.04.1) date 2025-03-25 15:14:42*
%MOMM*%
%LPD*%
G01*
G04 APERTURE LIST*
G04 Aperture macros list*
%AMRoundRect*
0 Rectangle with rounded corners*
0 $1 Rounding radius*
0 $2 $3 $4 $5 $6 $7 $8 $9 X,Y pos of 4 corners*
0 Add a 4 corners polygon primitive as box body*
4,1,4,$2,$3,$4,$5,$6,$7,$8,$9,$2,$3,0*
0 Add four circle primitives for the rounded corners*
1,1,$1+$1,$2,$3*
1,1,$1+$1,$4,$5*
1,1,$1+$1,$6,$7*
1,1,$1+$1,$8,$9*
0 Add four rect primitives between the rounded corners*
20,1,$1+$1,$2,$3,$4,$5,0*
20,1,$1+$1,$4,$5,$6,$7,0*
20,1,$1+$1,$6,$7,$8,$9,0*
20,1,$1+$1,$8,$9,$2,$3,0*%
G04 Aperture macros list end*
%ADD10RoundRect,0.250000X0.475000X-0.250000X0.475000X0.250000X-0.475000X0.250000X-0.475000X-0.250000X0*%
%ADD11R,1.200000X1.400000*%
%ADD12R,1.600000X1.400000*%
%ADD13R,0.600000X1.240000*%
%ADD14R,0.300000X1.240000*%
%ADD15RoundRect,0.250000X-0.475000X0.250000X-0.475000X-0.250000X0.475000X-0.250000X0.475000X0.250000X0*%
%ADD16RoundRect,0.250000X-0.250000X-0.475000X0.250000X-0.475000X0.250000X0.475000X-0.250000X0.475000X0*%
%ADD17RoundRect,0.162500X-0.650000X-0.162500X0.650000X-0.162500X0.650000X0.162500X-0.650000X0.162500X0*%
%ADD18RoundRect,0.249999X-0.395001X-0.395001X0.395001X-0.395001X0.395001X0.395001X-0.395001X0.395001X0*%
%ADD19RoundRect,0.050000X-0.387500X-0.050000X0.387500X-0.050000X0.387500X0.050000X-0.387500X0.050000X0*%
%ADD20RoundRect,0.050000X-0.050000X-0.387500X0.050000X-0.387500X0.050000X0.387500X-0.050000X0.387500X0*%
%ADD21RoundRect,0.250000X0.250000X0.475000X-0.250000X0.475000X-0.250000X-0.475000X0.250000X-0.475000X0*%
%ADD22RoundRect,0.375000X-0.625000X-0.375000X0.625000X-0.375000X0.625000X0.375000X-0.625000X0.375000X0*%
%ADD23RoundRect,0.500000X-0.500000X-1.400000X0.500000X-1.400000X0.500000X1.400000X-0.500000X1.400000X0*%
G04 APERTURE END LIST*
D10*
%TO.C,C8*%
X149860000Y-59370000D03*
X149860000Y-57470000D03*
%TD*%
%TO.C,C6*%
X139700000Y-59370000D03*
X139700000Y-57470000D03*
%TD*%
D11*
%TO.C,Y1*%
X115140000Y-78740000D03*
X115140000Y-80940000D03*
X116840000Y-80940000D03*
X116840000Y-78740000D03*
%TD*%
D12*
%TO.C,LEFT1*%
X60000000Y-69050000D03*
X68000000Y-69050000D03*
X60000000Y-73550000D03*
X68000000Y-73550000D03*
%TD*%
D10*
%TO.C,C1*%
X129540000Y-69530000D03*
X129540000Y-67630000D03*
%TD*%
D12*
%TO.C,A1*%
X146500000Y-86250000D03*
X154500000Y-86250000D03*
X146500000Y-90750000D03*
X154500000Y-90750000D03*
%TD*%
D13*
%TO.C,J1*%
X120040000Y-53725000D03*
X119240000Y-53725000D03*
D14*
X118090000Y-53725000D03*
X117090000Y-53725000D03*
X116590000Y-53725000D03*
X115590000Y-53725000D03*
D13*
X114440000Y-53725000D03*
X113640000Y-53725000D03*
X113640000Y-53725000D03*
X114440000Y-53725000D03*
D14*
X115090000Y-53725000D03*
X116090000Y-53725000D03*
X117590000Y-53725000D03*
X118590000Y-53725000D03*
D13*
X119240000Y-53725000D03*
X120040000Y-53725000D03*
%TD*%
D15*
%TO.C,R1*%
X116840000Y-62550000D03*
X116840000Y-64450000D03*
%TD*%
D12*
%TO.C,Credit1*%
X93600000Y-48550000D03*
X101600000Y-48550000D03*
X93600000Y-53050000D03*
X101600000Y-53050000D03*
%TD*%
%TO.C,B1*%
X158500000Y-76250000D03*
X166500000Y-76250000D03*
X158500000Y-80750000D03*
X166500000Y-80750000D03*
%TD*%
%TO.C,SEL1*%
X104250000Y-89750000D03*
X112250000Y-89750000D03*
X104250000Y-94250000D03*
X112250000Y-94250000D03*
%TD*%
D16*
%TO.C,C10*%
X126050000Y-63500000D03*
X127950000Y-63500000D03*
%TD*%
D12*
%TO.C,X1*%
X134500000Y-76250000D03*
X142500000Y-76250000D03*
X134500000Y-80750000D03*
X142500000Y-80750000D03*
%TD*%
D10*
%TO.C,C13*%
X109220000Y-60320000D03*
X109220000Y-58420000D03*
%TD*%
D17*
%TO.C,U3*%
X100552500Y-66675000D03*
X100552500Y-67945000D03*
X100552500Y-69215000D03*
X100552500Y-70485000D03*
X107727500Y-70485000D03*
X107727500Y-69215000D03*
X107727500Y-67945000D03*
X107727500Y-66675000D03*
%TD*%
D12*
%TO.C,RIGHT1*%
X75000000Y-69050000D03*
X83000000Y-69050000D03*
X75000000Y-73550000D03*
X83000000Y-73550000D03*
%TD*%
D18*
%TO.C,U1*%
X115142500Y-68935000D03*
X115142500Y-70535000D03*
X116742500Y-68935000D03*
X116742500Y-70535000D03*
D19*
X112505000Y-67135000D03*
X112505000Y-67535000D03*
X112505000Y-67935000D03*
X112505000Y-68335000D03*
X112505000Y-68735000D03*
X112505000Y-69135000D03*
X112505000Y-69535000D03*
X112505000Y-69935000D03*
X112505000Y-70335000D03*
X112505000Y-70735000D03*
X112505000Y-71135000D03*
X112505000Y-71535000D03*
X112505000Y-71935000D03*
X112505000Y-72335000D03*
D20*
X113342500Y-73172500D03*
X113742500Y-73172500D03*
X114142500Y-73172500D03*
X114542500Y-73172500D03*
X114942500Y-73172500D03*
X115342500Y-73172500D03*
X115742500Y-73172500D03*
X116142500Y-73172500D03*
X116542500Y-73172500D03*
X116942500Y-73172500D03*
X117342500Y-73172500D03*
X117742500Y-73172500D03*
X118142500Y-73172500D03*
X118542500Y-73172500D03*
D19*
X119380000Y-72335000D03*
X119380000Y-71935000D03*
X119380000Y-71535000D03*
X119380000Y-71135000D03*
X119380000Y-70735000D03*
X119380000Y-70335000D03*
X119380000Y-69935000D03*
X119380000Y-69535000D03*
X119380000Y-69135000D03*
X119380000Y-68735000D03*
X119380000Y-68335000D03*
X119380000Y-67935000D03*
X119380000Y-67535000D03*
X119380000Y-67135000D03*
D20*
X118542500Y-66297500D03*
X118142500Y-66297500D03*
X117742500Y-66297500D03*
X117342500Y-66297500D03*
X116942500Y-66297500D03*
X116542500Y-66297500D03*
X116142500Y-66297500D03*
X115742500Y-66297500D03*
X115342500Y-66297500D03*
X114942500Y-66297500D03*
X114542500Y-66297500D03*
X114142500Y-66297500D03*
X113742500Y-66297500D03*
X113342500Y-66297500D03*
%TD*%
D10*
%TO.C,C5*%
X134620000Y-59370000D03*
X134620000Y-57470000D03*
%TD*%
%TO.C,C7*%
X144780000Y-59370000D03*
X144780000Y-57470000D03*
%TD*%
D12*
%TO.C,DOWN1*%
X67500000Y-76550000D03*
X75500000Y-76550000D03*
X67500000Y-81050000D03*
X75500000Y-81050000D03*
%TD*%
D21*
%TO.C,C14*%
X97470000Y-73660000D03*
X95570000Y-73660000D03*
%TD*%
D10*
%TO.C,C4*%
X129540000Y-59370000D03*
X129540000Y-57470000D03*
%TD*%
%TO.C,C16*%
X121920000Y-81280000D03*
X121920000Y-79380000D03*
%TD*%
D12*
%TO.C,Y2*%
X146500000Y-66250000D03*
X154500000Y-66250000D03*
X146500000Y-70750000D03*
X154500000Y-70750000D03*
%TD*%
D15*
%TO.C,R2*%
X119380000Y-62550000D03*
X119380000Y-64450000D03*
%TD*%
D10*
%TO.C,C9*%
X154940000Y-59370000D03*
X154940000Y-57470000D03*
%TD*%
%TO.C,C3*%
X124460000Y-59370000D03*
X124460000Y-57470000D03*
%TD*%
D12*
%TO.C,START1*%
X104250000Y-99750000D03*
X112250000Y-99750000D03*
X104250000Y-104250000D03*
X112250000Y-104250000D03*
%TD*%
D22*
%TO.C,U2*%
X134010000Y-63740000D03*
X134010000Y-66040000D03*
D23*
X140310000Y-66040000D03*
D22*
X134010000Y-68340000D03*
%TD*%
D21*
%TO.C,R4*%
X119380000Y-76200000D03*
X117480000Y-76200000D03*
%TD*%
D12*
%TO.C,UP1*%
X67500000Y-61550000D03*
X75500000Y-61550000D03*
X67500000Y-66050000D03*
X75500000Y-66050000D03*
%TD*%
%TO.C,Menu1*%
X132080000Y-48550000D03*
X140080000Y-48550000D03*
X132080000Y-53050000D03*
X140080000Y-53050000D03*
%TD*%
D10*
%TO.C,C12*%
X104140000Y-59370000D03*
X104140000Y-57470000D03*
%TD*%
D21*
%TO.C,C2*%
X145730000Y-63500000D03*
X143830000Y-63500000D03*
%TD*%
D12*
%TO.C,bC1*%
X170500000Y-66250000D03*
X178500000Y-66250000D03*
X170500000Y-70750000D03*
X178500000Y-70750000D03*
%TD*%
D10*
%TO.C,C11*%
X121920000Y-64450000D03*
X121920000Y-62550000D03*
%TD*%
D16*
%TO.C,C15*%
X109860000Y-81280000D03*
X111760000Y-81280000D03*
%TD*%
D15*
%TO.C,R3*%
X95000000Y-65000000D03*
X95000000Y-66900000D03*
%TD*%
D12*
%TO.C,Z1*%
X158500000Y-56250000D03*
X166500000Y-56250000D03*
X158500000Y-60750000D03*
X166500000Y-60750000D03*
%TD*%
M02*
