M48
; DRILL file {KiCad 9.0.0-9.0.0-2~ubuntu24.04.1} date 2025-03-18T17:56:46+0100
; FORMAT={-:-/ absolute / metric / decimal}
; #@! TF.CreationDate,2025-03-18T17:56:46+01:00
; #@! TF.GenerationSoftware,Kicad,Pcbnew,9.0.0-9.0.0-2~ubuntu24.04.1
; #@! TF.FileFunction,Plated,1,2,PTH
FMAT,2
METRIC
; #@! TA.AperFunction,Plated,PTH,ViaDrill
T1C0.300
; #@! TA.AperFunction,Plated,PTH,ComponentDrill
T2C0.600
; #@! TA.AperFunction,Plated,PTH,ComponentDrill
T3C1.100
; #@! TA.AperFunction,Plated,PTH,ComponentDrill
T4C1.300
; #@! TA.AperFunction,Plated,PTH,ComponentDrill
T5C1.600
%
G90
G05
T1
X60.96Y-66.04
X63.5Y-48.26
X63.5Y-60.96
X64.0Y-55.88
X67.0Y-79.03
X71.12Y-68.58
X71.12Y-73.66
X78.0Y-75.5
X78.0Y-79.03
X78.74Y-48.26
X78.74Y-58.42
X78.74Y-93.98
X78.8Y-61.5
X81.28Y-71.12
X83.82Y-106.68
X86.36Y-68.58
X86.36Y-86.36
X91.44Y-48.26
X91.44Y-63.5
X91.44Y-68.58
X93.98Y-58.42
X93.98Y-73.66
X95.5Y-100.0
X96.52Y-63.5
X96.52Y-68.58
X96.6Y-107.0
X99.06Y-73.66
X99.06Y-93.98
X101.6Y-58.42
X101.6Y-73.06
X101.6Y-83.82
X101.6Y-96.0
X102.0Y-70.485
X103.268Y-65.168
X104.14Y-48.26
X104.14Y-68.58
X104.14Y-106.68
X104.864Y-66.164
X106.0Y-111.0
X106.68Y-58.42
X106.68Y-73.66
X106.68Y-81.28
X106.68Y-88.9
X106.68Y-99.06
X108.275Y-73.564
X109.124Y-73.564
X109.22Y-53.34
X109.22Y-68.58
X109.22Y-78.74
X109.22Y-91.44
X109.22Y-101.6
X109.82Y-68.014
X110.812Y-70.065
X110.914Y-65.194
X111.16Y-72.376
X111.336Y-79.164
X111.55Y-67.916
X111.55Y-68.79
X111.55Y-70.532
X111.76Y-58.42
X111.76Y-76.2
X112.892Y-62.368
X113.035Y-75.784
X113.8Y-68.58
X114.3Y-76.2
X114.3Y-88.9
X114.3Y-96.52
X114.3Y-99.06
X114.3Y-104.14
X114.486Y-74.2
X114.81Y-48.26
X114.9Y-57.49
X114.9Y-58.42
X116.416Y-75.776
X116.49Y-55.98
X116.49Y-60.96
X116.84Y-106.68
X117.69Y-55.88
X118.042Y-68.58
X118.333Y-78.599
X119.38Y-60.96
X119.38Y-65.697
X119.38Y-96.52
X121.2Y-105.7
X121.685Y-71.355
X121.92Y-60.96
X121.92Y-83.22
X122.204Y-73.376
X123.86Y-60.96
X124.3Y-91.6
X124.46Y-48.26
X124.46Y-53.34
X124.46Y-68.58
X124.46Y-83.22
X127.0Y-58.42
X127.0Y-68.58
X127.0Y-83.22
X127.8Y-83.22
X129.54Y-71.12
X129.54Y-106.68
X130.34Y-83.22
X131.0Y-63.5
X132.08Y-55.88
X132.08Y-68.58
X132.08Y-76.2
X132.08Y-81.28
X132.08Y-83.22
X132.08Y-91.0
X133.65Y-84.79
X134.0Y-109.22
X134.62Y-53.34
X134.62Y-78.74
X134.62Y-86.36
X137.16Y-58.42
X137.16Y-63.5
X137.16Y-68.58
X137.16Y-76.2
X137.16Y-86.36
X137.16Y-93.0
X138.0Y-88.9
X139.7Y-91.44
X139.7Y-93.98
X142.24Y-50.8
X142.24Y-58.42
X142.24Y-83.82
X142.24Y-99.06
X144.78Y-68.58
X144.78Y-76.2
X144.78Y-81.28
X144.78Y-83.82
X144.78Y-104.14
X147.32Y-58.42
X147.32Y-93.98
X147.32Y-96.52
X149.86Y-66.04
X149.86Y-99.06
X152.4Y-58.42
X152.4Y-96.52
X154.94Y-55.88
X154.94Y-60.96
X154.94Y-76.2
X154.94Y-83.82
X157.48Y-50.8
X157.48Y-73.66
X158.0Y-58.0
X160.02Y-73.66
X162.56Y-63.5
X162.56Y-86.36
X165.1Y-73.66
X170.18Y-50.8
X170.18Y-58.42
X170.18Y-63.5
X170.18Y-78.74
X175.26Y-66.04
T3
X87.5Y-89.77
X90.0Y-89.77
X92.5Y-89.77
X98.73Y-96.0
X98.73Y-98.5
X98.73Y-101.0
X124.0Y-89.77
X126.5Y-89.77
X129.0Y-89.77
X135.23Y-96.0
X135.23Y-98.5
X135.23Y-101.0
T4
X86.75Y-104.25
X86.75Y-108.75
X93.25Y-104.25
X93.25Y-108.75
X123.25Y-104.25
X123.25Y-108.75
X129.75Y-104.25
X129.75Y-108.75
T5
X83.675Y-93.5
X83.675Y-103.5
X96.325Y-93.5
X96.325Y-103.5
X120.175Y-93.5
X120.175Y-103.5
X132.825Y-93.5
X132.825Y-103.5
T2
G00X112.52Y-49.325
M15
G01X112.52Y-48.525
M16
G05
G00X112.52Y-53.675
M15
G01X112.52Y-52.575
M16
G05
G00X121.16Y-49.325
M15
G01X121.16Y-48.525
M16
G05
G00X121.16Y-53.675
M15
G01X121.16Y-52.575
M16
G05
M30
